<?xml version="1.0" encoding="UTF-8" standalone="no"?>
<!DOCTYPE svg PUBLIC "-//W3C//DTD SVG 1.1//EN"
 "http://www.w3.org/Graphics/SVG/1.1/DTD/svg11.dtd">
<!-- Generated by graphviz version 2.40.1 (20161225.0304)
 -->
<!-- Title: G Pages: 1 -->
<svg width="275pt" height="373pt"
 viewBox="0.00 0.00 275.00 373.00" xmlns="http://www.w3.org/2000/svg" xmlns:xlink="http://www.w3.org/1999/xlink">
<g id="graph0" class="graph" transform="scale(1 1) rotate(0) translate(4 369)">
<title>G</title>
<polygon fill="#23272a" stroke="transparent" points="-4,4 -4,-369 271,-369 271,4 -4,4"/>
<g id="clust1" class="cluster">
<title>cluster_family_0</title>
<polygon fill="#2c2f33" stroke="#2c2f33" points="8,-8 8,-157 259,-157 259,-8 8,-8"/>
<text text-anchor="start" x="16" y="-139.6" font-family="Helvetica, Arial, sans-serif" font-weight="bold" font-size="16.00" fill="#ffffff">Bouillard</text>
</g>
<g id="clust2" class="cluster">
<title>cluster_family_0_0</title>
</g>
<!-- union_0_0 -->
<g id="node1" class="node">
<title>union_0_0</title>
<ellipse fill="#ccdf32" stroke="#ffffff" cx="245.5" cy="-99" rx="3.5" ry="3.5"/>
</g>
<!-- Romulus -->
<g id="node2" class="node">
<title>Romulus</title>
<g id="a_node2"><a xlink:title="&#10;&#10;">
<polygon fill="#36393f" stroke="#cccccc" points="205.5,-120 25.5,-120 25.5,-78 205.5,-78 205.5,-120"/>
<text text-anchor="start" x="88.3892" y="-101.4" font-family="Helvetica, Arial, sans-serif" font-size="14.00" fill="#ffffff">Romulus</text>
<text text-anchor="start" x="75.443" y="-87" font-family="Helvetica, Arial, sans-serif" font-size="10.00" fill="#aaaaaa">Romulus Bouillard</text>
</a>
</g>
</g>
<!-- Romulus&#45;&gt;union_0_0 -->
<g id="edge1" class="edge">
<title>Romulus&#45;&gt;union_0_0</title>
<path fill="none" stroke="#ccdf32" d="M205.7893,-99C221.7335,-99 235.2725,-99 241.627,-99"/>
</g>
<!-- union_0 -->
<g id="node3" class="node">
<title>union_0</title>
<ellipse fill="#d25252" stroke="#ffffff" cx="245.5" cy="-39" rx="3.5" ry="3.5"/>
</g>
<!-- Bertrand -->
<g id="node4" class="node">
<title>Bertrand</title>
<g id="a_node4"><a xlink:title="&#10;&#10;">
<polygon fill="#36393f" stroke="#cccccc" points="213,-60 18,-60 18,-18 213,-18 213,-60"/>
<text text-anchor="start" x="89.1606" y="-41.4" font-family="Helvetica, Arial, sans-serif" font-size="14.00" fill="#ffffff">Bertrand</text>
<text text-anchor="start" x="28.374" y="-27" font-family="Helvetica, Arial, sans-serif" font-size="10.00" fill="#aaaaaa">Bertrand Maximilian Théodore Bouillard</text>
</a>
</g>
</g>
<!-- Bertrand&#45;&gt;union_0 -->
<g id="edge2" class="edge">
<title>Bertrand&#45;&gt;union_0</title>
<path fill="none" stroke="#d25252" d="M213.0309,-39C225.845,-39 236.3864,-39 241.7234,-39"/>
</g>
<!-- Yves Renault -->
<g id="node5" class="node">
<title>Yves Renault</title>
<g id="a_node5"><a xlink:title="&#10;&#10;">
<polygon fill="#36393f" stroke="#cccccc" points="205.5,-203 25.5,-203 25.5,-167 205.5,-167 205.5,-203"/>
<text text-anchor="middle" x="115.5" y="-180.8" font-family="Helvetica, Arial, sans-serif" font-size="14.00" fill="#ffffff">Yves Renault</text>
</a>
</g>
</g>
<!-- Renault II -->
<g id="node6" class="node">
<title>Renault II</title>
<g id="a_node6"><a xlink:title="&#10;&#10;">
<polygon fill="#36393f" stroke="#cccccc" points="205.5,-257 25.5,-257 25.5,-221 205.5,-221 205.5,-257"/>
<text text-anchor="middle" x="115.5" y="-234.8" font-family="Helvetica, Arial, sans-serif" font-size="14.00" fill="#ffffff">Renault II</text>
</a>
</g>
</g>
<!-- Nathalie -->
<g id="node7" class="node">
<title>Nathalie</title>
<g id="a_node7"><a xlink:title="&#10;&#10;">
<polygon fill="#36393f" stroke="#cccccc" points="205.5,-311 25.5,-311 25.5,-275 205.5,-275 205.5,-311"/>
<text text-anchor="middle" x="115.5" y="-288.8" font-family="Helvetica, Arial, sans-serif" font-size="14.00" fill="#ffffff">Nathalie</text>
</a>
</g>
</g>
<!-- Mariona -->
<g id="node8" class="node">
<title>Mariona</title>
<g id="a_node8"><a xlink:title="&#10;&#10;">
<polygon fill="#36393f" stroke="#cccccc" points="205.5,-365 25.5,-365 25.5,-329 205.5,-329 205.5,-365"/>
<text text-anchor="middle" x="115.5" y="-342.8" font-family="Helvetica, Arial, sans-serif" font-size="14.00" fill="#ffffff">Mariona</text>
</a>
</g>
</g>
</g>
</svg>
