<?xml version="1.0" encoding="UTF-8" standalone="no"?>
<!DOCTYPE svg PUBLIC "-//W3C//DTD SVG 1.1//EN"
 "http://www.w3.org/Graphics/SVG/1.1/DTD/svg11.dtd">
<!-- Generated by graphviz version 2.40.1 (20161225.0304)
 -->
<!-- Title: G Pages: 1 -->
<svg width="520pt" height="373pt"
 viewBox="0.00 0.00 520.00 373.00" xmlns="http://www.w3.org/2000/svg" xmlns:xlink="http://www.w3.org/1999/xlink">
<g id="graph0" class="graph" transform="scale(1 1) rotate(0) translate(4 369)">
<title>G</title>
<polygon fill="#23272a" stroke="transparent" points="-4,4 -4,-369 516,-369 516,4 -4,4"/>
<g id="clust1" class="cluster">
<title>cluster_family_0</title>
<polygon fill="#2c2f33" stroke="#2c2f33" points="8,-8 8,-265 504,-265 504,-8 8,-8"/>
<text text-anchor="start" x="16" y="-247.6" font-family="Helvetica, Arial, sans-serif" font-weight="bold" font-size="16.00" fill="#ffffff">Bouillard</text>
</g>
<g id="clust2" class="cluster">
<title>cluster_family_0_0</title>
</g>
<g id="clust5" class="cluster">
<title>cluster_family_0_1</title>
</g>
<!-- union_0_0 -->
<g id="node1" class="node">
<title>union_0_0</title>
<ellipse fill="#ccdf32" stroke="#ffffff" cx="245.5" cy="-183" rx="3.5" ry="3.5"/>
</g>
<!-- siblings_0_0 -->
<g id="node4" class="node">
<title>siblings_0_0</title>
<polygon fill="#ccdf32" stroke="#cccccc" stroke-width="0" points="285,-183.5 278,-183.5 278,-182.5 285,-182.5 285,-183.5"/>
</g>
<!-- union_0_0&#45;&gt;siblings_0_0 -->
<g id="edge3" class="edge">
<title>union_0_0&#45;&gt;siblings_0_0</title>
<path fill="none" stroke="#ccdf32" d="M249.0834,-183C255.9128,-183 270.7324,-183 277.7154,-183"/>
</g>
<!-- Yves Renault -->
<g id="node2" class="node">
<title>Yves Renault</title>
<g id="a_node2"><a xlink:title="&#10;&#10;">
<polygon fill="#36393f" stroke="#cccccc" points="205.5,-228 25.5,-228 25.5,-192 205.5,-192 205.5,-228"/>
<text text-anchor="middle" x="115.5" y="-205.8" font-family="Helvetica, Arial, sans-serif" font-size="14.00" fill="#ffffff">Yves Renault</text>
</a>
</g>
</g>
<!-- Yves Renault&#45;&gt;union_0_0 -->
<g id="edge1" class="edge">
<title>Yves Renault&#45;&gt;union_0_0</title>
<path fill="none" stroke="#ccdf32" d="M205.7809,-204C228.2174,-204 246,-204 246,-204 246,-204 246,-192.6746 246,-186.6579"/>
</g>
<!-- Nicolette -->
<g id="node3" class="node">
<title>Nicolette</title>
<g id="a_node3"><a xlink:title="&#10;&#10;">
<polygon fill="#36393f" stroke="#cccccc" points="205.5,-174 25.5,-174 25.5,-138 205.5,-138 205.5,-174"/>
<text text-anchor="middle" x="115.5" y="-151.8" font-family="Helvetica, Arial, sans-serif" font-size="14.00" fill="#ffffff">Nicolette</text>
</a>
</g>
</g>
<!-- Nicolette&#45;&gt;union_0_0 -->
<g id="edge2" class="edge">
<title>Nicolette&#45;&gt;union_0_0</title>
<path fill="none" stroke="#ccdf32" d="M205.7809,-150C228.2174,-150 246,-150 246,-150 246,-150 246,-170.9553 246,-179.4684"/>
</g>
<!-- Basillios -->
<g id="node5" class="node">
<title>Basillios</title>
<g id="a_node5"><a xlink:title="&#10;&#10;">
<polygon fill="#36393f" stroke="#cccccc" points="494,-174 314,-174 314,-138 494,-138 494,-174"/>
<text text-anchor="middle" x="404" y="-151.8" font-family="Helvetica, Arial, sans-serif" font-size="14.00" fill="#ffffff">Basillios</text>
</a>
</g>
</g>
<!-- siblings_0_0&#45;&gt;Basillios -->
<g id="edge4" class="edge">
<title>siblings_0_0&#45;&gt;Basillios</title>
<path fill="none" stroke="#ccdf32" d="M282,-182.4809C282,-179.2471 282,-162 282,-162 282,-162 303.7356,-162 303.7356,-162"/>
<polygon fill="#ccdf32" stroke="#ccdf32" points="311.7355,-152 311.7357,-172 307.7357,-172.0001 307.7355,-152.0001 311.7355,-152"/>
<polyline fill="none" stroke="#ccdf32" points="313.7356,-162 303.7356,-162.0001 "/>
</g>
<!-- Renault II -->
<g id="node6" class="node">
<title>Renault II</title>
<g id="a_node6"><a xlink:title="&#10;&#10;">
<polygon fill="#36393f" stroke="#cccccc" points="494,-228 314,-228 314,-192 494,-192 494,-228"/>
<text text-anchor="middle" x="404" y="-205.8" font-family="Helvetica, Arial, sans-serif" font-size="14.00" fill="#ffffff">Renault II</text>
</a>
</g>
</g>
<!-- siblings_0_0&#45;&gt;Renault II -->
<g id="edge5" class="edge">
<title>siblings_0_0&#45;&gt;Renault II</title>
<path fill="none" stroke="#ccdf32" d="M282,-183.8157C282,-188.8975 282,-216 282,-216 282,-216 303.7356,-216 303.7356,-216"/>
<polygon fill="#ccdf32" stroke="#ccdf32" points="311.7355,-206 311.7357,-226 307.7357,-226.0001 307.7355,-206.0001 311.7355,-206"/>
<polyline fill="none" stroke="#ccdf32" points="313.7356,-216 303.7356,-216.0001 "/>
</g>
<!-- union_0_1 -->
<g id="node7" class="node">
<title>union_0_1</title>
<ellipse fill="#629755" stroke="#ffffff" cx="245.5" cy="-99" rx="3.5" ry="3.5"/>
</g>
<!-- Romulus -->
<g id="node8" class="node">
<title>Romulus</title>
<g id="a_node8"><a xlink:title="&#10;&#10;">
<polygon fill="#36393f" stroke="#cccccc" points="205.5,-120 25.5,-120 25.5,-78 205.5,-78 205.5,-120"/>
<text text-anchor="start" x="88.3892" y="-101.4" font-family="Helvetica, Arial, sans-serif" font-size="14.00" fill="#ffffff">Romulus</text>
<text text-anchor="start" x="75.443" y="-87" font-family="Helvetica, Arial, sans-serif" font-size="10.00" fill="#aaaaaa">Romulus Bouillard</text>
</a>
</g>
</g>
<!-- Romulus&#45;&gt;union_0_1 -->
<g id="edge6" class="edge">
<title>Romulus&#45;&gt;union_0_1</title>
<path fill="none" stroke="#629755" d="M205.7893,-99C221.7335,-99 235.2725,-99 241.627,-99"/>
</g>
<!-- union_0 -->
<g id="node9" class="node">
<title>union_0</title>
<ellipse fill="#d25252" stroke="#ffffff" cx="245.5" cy="-39" rx="3.5" ry="3.5"/>
</g>
<!-- Bertrand -->
<g id="node10" class="node">
<title>Bertrand</title>
<g id="a_node10"><a xlink:title="&#10;&#10;">
<polygon fill="#36393f" stroke="#cccccc" points="213,-60 18,-60 18,-18 213,-18 213,-60"/>
<text text-anchor="start" x="89.1606" y="-41.4" font-family="Helvetica, Arial, sans-serif" font-size="14.00" fill="#ffffff">Bertrand</text>
<text text-anchor="start" x="28.374" y="-27" font-family="Helvetica, Arial, sans-serif" font-size="10.00" fill="#aaaaaa">Bertrand Maximilian Théodore Bouillard</text>
</a>
</g>
</g>
<!-- Bertrand&#45;&gt;union_0 -->
<g id="edge7" class="edge">
<title>Bertrand&#45;&gt;union_0</title>
<path fill="none" stroke="#d25252" d="M213.0309,-39C225.845,-39 236.3864,-39 241.7234,-39"/>
</g>
<!-- Nathalie -->
<g id="node11" class="node">
<title>Nathalie</title>
<g id="a_node11"><a xlink:title="&#10;&#10;">
<polygon fill="#36393f" stroke="#cccccc" points="205.5,-311 25.5,-311 25.5,-275 205.5,-275 205.5,-311"/>
<text text-anchor="middle" x="115.5" y="-288.8" font-family="Helvetica, Arial, sans-serif" font-size="14.00" fill="#ffffff">Nathalie</text>
</a>
</g>
</g>
<!-- Mariona -->
<g id="node12" class="node">
<title>Mariona</title>
<g id="a_node12"><a xlink:title="&#10;&#10;">
<polygon fill="#36393f" stroke="#cccccc" points="205.5,-365 25.5,-365 25.5,-329 205.5,-329 205.5,-365"/>
<text text-anchor="middle" x="115.5" y="-342.8" font-family="Helvetica, Arial, sans-serif" font-size="14.00" fill="#ffffff">Mariona</text>
</a>
</g>
</g>
</g>
</svg>
