<?xml version="1.0" encoding="UTF-8" standalone="no"?>
<!DOCTYPE svg PUBLIC "-//W3C//DTD SVG 1.1//EN"
 "http://www.w3.org/Graphics/SVG/1.1/DTD/svg11.dtd">
<!-- Generated by graphviz version 2.40.1 (20161225.0304)
 -->
<!-- Title: G Pages: 1 -->
<svg width="188pt" height="206pt"
 viewBox="0.00 0.00 188.00 206.00" xmlns="http://www.w3.org/2000/svg" xmlns:xlink="http://www.w3.org/1999/xlink">
<g id="graph0" class="graph" transform="scale(1 1) rotate(0) translate(4 202)">
<title>G</title>
<polygon fill="#23272a" stroke="transparent" points="-4,4 -4,-202 184,-202 184,4 -4,4"/>
<!-- Romulus -->
<g id="node1" class="node">
<title>Romulus</title>
<g id="a_node1"><a xlink:title="&#10;&#10;">
<polygon fill="#36393f" stroke="#cccccc" points="180,-36 0,-36 0,0 180,0 180,-36"/>
<text text-anchor="middle" x="90" y="-13.8" font-family="Helvetica, Arial, sans-serif" font-size="14.00" fill="#ffffff">Romulus</text>
</a>
</g>
</g>
<!-- Aloysius -->
<g id="node2" class="node">
<title>Aloysius</title>
<g id="a_node2"><a xlink:title="&#10;&#10;">
<polygon fill="#36393f" stroke="#cccccc" points="180,-90 0,-90 0,-54 180,-54 180,-90"/>
<text text-anchor="middle" x="90" y="-67.8" font-family="Helvetica, Arial, sans-serif" font-size="14.00" fill="#ffffff">Aloysius</text>
</a>
</g>
</g>
<!-- Yves Renault -->
<g id="node3" class="node">
<title>Yves Renault</title>
<g id="a_node3"><a xlink:title="&#10;&#10;">
<polygon fill="#36393f" stroke="#cccccc" points="180,-144 0,-144 0,-108 180,-108 180,-144"/>
<text text-anchor="middle" x="90" y="-121.8" font-family="Helvetica, Arial, sans-serif" font-size="14.00" fill="#ffffff">Yves Renault</text>
</a>
</g>
</g>
<!-- Renault II -->
<g id="node4" class="node">
<title>Renault II</title>
<g id="a_node4"><a xlink:title="&#10;&#10;">
<polygon fill="#36393f" stroke="#cccccc" points="180,-198 0,-198 0,-162 180,-162 180,-198"/>
<text text-anchor="middle" x="90" y="-175.8" font-family="Helvetica, Arial, sans-serif" font-size="14.00" fill="#ffffff">Renault II</text>
</a>
</g>
</g>
</g>
</svg>
