<?xml version="1.0" encoding="UTF-8" standalone="no"?>
<!DOCTYPE svg PUBLIC "-//W3C//DTD SVG 1.1//EN"
 "http://www.w3.org/Graphics/SVG/1.1/DTD/svg11.dtd">
<!-- Generated by graphviz version 2.40.1 (20161225.0304)
 -->
<!-- Title: G Pages: 1 -->
<svg width="1338pt" height="959pt"
 viewBox="0.00 0.00 1338.00 959.00" xmlns="http://www.w3.org/2000/svg" xmlns:xlink="http://www.w3.org/1999/xlink">
<g id="graph0" class="graph" transform="scale(1 1) rotate(0) translate(4 955)">
<title>G</title>
<polygon fill="#23272a" stroke="transparent" points="-4,4 -4,-955 1334,-955 1334,4 -4,4"/>
<g id="clust1" class="cluster">
<title>cluster_family_0</title>
<polygon fill="#2c2f33" stroke="#2c2f33" points="8,-512 8,-721 489,-721 489,-512 8,-512"/>
<text text-anchor="start" x="16" y="-703.6" font-family="Helvetica, Arial, sans-serif" font-weight="bold" font-size="16.00" fill="#ffffff">McFarland</text>
</g>
<g id="clust4" class="cluster">
<title>cluster_family_1</title>
</g>
<g id="clust7" class="cluster">
<title>cluster_family_2</title>
</g>
<g id="clust10" class="cluster">
<title>cluster_family_3</title>
</g>
<g id="clust13" class="cluster">
<title>cluster_family_4</title>
</g>
<g id="clust16" class="cluster">
<title>cluster_family_5</title>
</g>
<g id="clust19" class="cluster">
<title>cluster_family_6</title>
</g>
<g id="clust22" class="cluster">
<title>cluster_family_7</title>
</g>
<g id="clust25" class="cluster">
<title>cluster_family_8</title>
</g>
<g id="clust27" class="cluster">
<title>cluster_family_9</title>
</g>
<g id="clust30" class="cluster">
<title>cluster_family_10</title>
</g>
<g id="clust33" class="cluster">
<title>cluster_family_11</title>
</g>
<!-- union_0 -->
<g id="node1" class="node">
<title>union_0</title>
<ellipse fill="#d25252" stroke="#ffffff" cx="230.5" cy="-603" rx="3.5" ry="3.5"/>
</g>
<!-- siblings_0 -->
<g id="node4" class="node">
<title>siblings_0</title>
<polygon fill="#d25252" stroke="#cccccc" stroke-width="0" points="270,-603.5 263,-603.5 263,-602.5 270,-602.5 270,-603.5"/>
</g>
<!-- union_0&#45;&gt;siblings_0 -->
<g id="edge3" class="edge">
<title>union_0&#45;&gt;siblings_0</title>
<path fill="none" stroke="#d25252" d="M234.0834,-603C240.9128,-603 255.7324,-603 262.7154,-603"/>
</g>
<!-- Valerian -->
<g id="node2" class="node">
<title>Valerian</title>
<g id="a_node2"><a xlink:title="undefined &#10;&#10;&#10;&#10;">
<polygon fill="#36393f" stroke="#ff0000" stroke-width=".25" points="198,-654 18,-654 18,-612 198,-612 198,-654"/>
<text text-anchor="start" x="82.3296" y="-635.4" font-family="Helvetica, Arial, sans-serif" font-size="14.00" fill="#ffffff">Valerian</text>
<text text-anchor="start" x="64.6635" y="-621" font-family="Helvetica, Arial, sans-serif" font-size="10.00" fill="#aaaaaa">Valerian McFarland</text>
</a>
</g>
</g>
<!-- Valerian&#45;&gt;union_0 -->
<g id="edge1" class="edge">
<title>Valerian&#45;&gt;union_0</title>
<path fill="none" stroke="#d25252" d="M198.0383,-618C216.7943,-618 231,-618 231,-618 231,-618 231,-610.9102 231,-606.479"/>
</g>
<!-- Luwan -->
<g id="node3" class="node">
<title>Luwan</title>
<g id="a_node3"><a xlink:title="undefined &#10;&#10;&#10;&#10;">
<polygon fill="#36393f" stroke="#ff0000" stroke-width=".25" points="198,-594 18,-594 18,-552 198,-552 198,-594"/>
<text text-anchor="start" x="87.8815" y="-575.4" font-family="Helvetica, Arial, sans-serif" font-size="14.00" fill="#ffffff">Luwan</text>
<text text-anchor="start" x="71.821" y="-561" font-family="Helvetica, Arial, sans-serif" font-size="10.00" fill="#aaaaaa">Luwan MacLeod</text>
</a>
</g>
</g>
<!-- Luwan&#45;&gt;union_0 -->
<g id="edge2" class="edge">
<title>Luwan&#45;&gt;union_0</title>
<path fill="none" stroke="#d25252" d="M198.0383,-588C216.7943,-588 231,-588 231,-588 231,-588 231,-595.0898 231,-599.521"/>
</g>
<!-- Caleb -->
<g id="node5" class="node">
<title>Caleb</title>
<g id="a_node5"><a xlink:title="undefined &#10;&#10;&#10;&#10;">
<polygon fill="#36393f" stroke="#ff0000" stroke-width=".25" points="479,-684 299,-684 299,-642 479,-642 479,-684"/>
<text text-anchor="start" x="370.7195" y="-665.4" font-family="Helvetica, Arial, sans-serif" font-size="14.00" fill="#ffffff">Caleb</text>
<text text-anchor="start" x="350.942" y="-651" font-family="Helvetica, Arial, sans-serif" font-size="10.00" fill="#aaaaaa">Caleb McFarland</text>
</a>
</g>
</g>
<!-- siblings_0&#45;&gt;Caleb -->
<g id="edge4" class="edge">
<title>siblings_0&#45;&gt;Caleb</title>
<path fill="none" stroke="#d25252" d="M267,-603.5054C267,-608.4492 267,-648 267,-648 267,-648 288.7356,-648 288.7356,-648"/>
<polygon fill="#d25252" stroke="#d25252" points="296.7355,-638 296.7357,-658 292.7357,-658.0001 292.7355,-638.0001 296.7355,-638"/>
<polyline fill="none" stroke="#d25252" points="298.7356,-648 288.7356,-648.0001 "/>
</g>
<!-- Castilla -->
<g id="node6" class="node">
<title>Castilla</title>
<g id="a_node6"><a xlink:title="undefined &#10;&#10;&#10;&#10;">
<polygon fill="#36393f" stroke="#ff0000" stroke-width=".25" points="479,-564 299,-564 299,-522 479,-522 479,-564"/>
<text text-anchor="start" x="366.0589" y="-545.4" font-family="Helvetica, Arial, sans-serif" font-size="14.00" fill="#ffffff">Castilla</text>
<text text-anchor="start" x="347.613" y="-531" font-family="Helvetica, Arial, sans-serif" font-size="10.00" fill="#aaaaaa">Castilla McFarland</text>
</a>
</g>
</g>
<!-- siblings_0&#45;&gt;Castilla -->
<g id="edge5" class="edge">
<title>siblings_0&#45;&gt;Castilla</title>
<path fill="none" stroke="#d25252" d="M267,-602.4946C267,-597.5508 267,-558 267,-558 267,-558 288.7356,-558 288.7356,-558"/>
<polygon fill="#d25252" stroke="#d25252" points="296.7355,-548 296.7357,-568 292.7357,-568.0001 292.7355,-548.0001 296.7355,-548"/>
<polyline fill="none" stroke="#d25252" points="298.7356,-558 288.7356,-558.0001 "/>
</g>
<!-- Cabot -->
<g id="node7" class="node">
<title>Cabot</title>
<g id="a_node7"><a xlink:title="undefined &#10;&#10;&#10;&#10;">
<polygon fill="#36393f" stroke="#cccccc" points="479,-624 299,-624 299,-582 479,-582 479,-624"/>
<text text-anchor="start" x="370.3275" y="-605.4" font-family="Helvetica, Arial, sans-serif" font-size="14.00" fill="#ffffff">Cabot</text>
<text text-anchor="start" x="350.662" y="-591" font-family="Helvetica, Arial, sans-serif" font-size="10.00" fill="#aaaaaa">Cabot McFarland</text>
</a>
</g>
</g>
<!-- siblings_0&#45;&gt;Cabot -->
<g id="edge6" class="edge">
<title>siblings_0&#45;&gt;Cabot</title>
<path fill="none" stroke="#d25252" d="M270.0341,-603C270.0341,-603 288.8106,-603 288.8106,-603"/>
<polygon fill="#d25252" stroke="#d25252" points="296.8105,-593 296.8107,-613 292.8107,-613.0001 292.8105,-593.0001 296.8105,-593"/>
<polyline fill="none" stroke="#d25252" points="298.8106,-603 288.8106,-603.0001 "/>
</g>
<!-- union_1 -->
<g id="node8" class="node">
<title>union_1</title>
<ellipse fill="#ccdf32" stroke="#ffffff" cx="511.5" cy="-752" rx="3.5" ry="3.5"/>
</g>
<!-- Caleb&#45;&gt;union_1 -->
<g id="edge7" class="edge">
<title>Caleb&#45;&gt;union_1</title>
<path fill="none" stroke="#ccdf32" d="M479.1165,-670.6667C498.3477,-670.6667 513,-670.6667 513,-670.6667 513,-670.6667 513,-732.9375 513,-748.5052"/>
</g>
<!-- union_4 -->
<g id="node21" class="node">
<title>union_4</title>
<ellipse fill="#6897bb" stroke="#ffffff" cx="511.5" cy="-179" rx="3.5" ry="3.5"/>
</g>
<!-- Castilla&#45;&gt;union_4 -->
<g id="edge20" class="edge">
<title>Castilla&#45;&gt;union_4</title>
<path fill="none" stroke="#6897bb" d="M479.4002,-540C488.2322,-540 494,-540 494,-540 494,-540 494,-180.1667 494,-180.1667 494,-180.1667 503.0405,-180.1667 508.1258,-180.1667"/>
</g>
<!-- union_5 -->
<g id="node27" class="node">
<title>union_5</title>
<ellipse fill="#bbb529" stroke="#ffffff" cx="511.5" cy="-482" rx="3.5" ry="3.5"/>
</g>
<!-- Cabot&#45;&gt;union_5 -->
<g id="edge26" class="edge">
<title>Cabot&#45;&gt;union_5</title>
<path fill="none" stroke="#bbb529" d="M479.2644,-593.5C497.3914,-593.5 511,-593.5 511,-593.5 511,-593.5 511,-505.0568 511,-485.7098"/>
</g>
<!-- siblings_1 -->
<g id="node10" class="node">
<title>siblings_1</title>
<polygon fill="#ccdf32" stroke="#cccccc" stroke-width="0" points="551,-752.5 544,-752.5 544,-751.5 551,-751.5 551,-752.5"/>
</g>
<!-- union_1&#45;&gt;siblings_1 -->
<g id="edge9" class="edge">
<title>union_1&#45;&gt;siblings_1</title>
<path fill="none" stroke="#ccdf32" d="M515.0834,-752C521.9128,-752 536.7324,-752 543.7154,-752"/>
</g>
<!-- Genevieve -->
<g id="node9" class="node">
<title>Genevieve</title>
<g id="a_node9"><a xlink:title="undefined &#10;&#10;&#10;&#10;">
<polygon fill="#36393f" stroke="#ff0000" stroke-width=".25" points="479,-773 299,-773 299,-731 479,-731 479,-773"/>
<text text-anchor="start" x="356.0449" y="-754.4" font-family="Helvetica, Arial, sans-serif" font-size="14.00" fill="#ffffff">Genevieve</text>
<text text-anchor="start" x="345.597" y="-740" font-family="Helvetica, Arial, sans-serif" font-size="10.00" fill="#aaaaaa">Genevieve Boucher</text>
</a>
</g>
</g>
<!-- Genevieve&#45;&gt;union_1 -->
<g id="edge8" class="edge">
<title>Genevieve&#45;&gt;union_1</title>
<path fill="none" stroke="#ccdf32" d="M479.3146,-752C491.9376,-752 502.4166,-752 507.7333,-752"/>
</g>
<!-- Talsin -->
<g id="node11" class="node">
<title>Talsin</title>
<g id="a_node11"><a xlink:title="undefined &#10;&#10;&#10;&#10;">
<polygon fill="#36393f" stroke="#cccccc" points="760,-773 580,-773 580,-731 760,-731 760,-773"/>
<text text-anchor="start" x="651.3345" y="-754.4" font-family="Helvetica, Arial, sans-serif" font-size="14.00" fill="#ffffff">Talsin</text>
<text text-anchor="start" x="631.667" y="-740" font-family="Helvetica, Arial, sans-serif" font-size="10.00" fill="#aaaaaa">Talsin McFarland</text>
</a>
</g>
</g>
<!-- siblings_1&#45;&gt;Talsin -->
<g id="edge10" class="edge">
<title>siblings_1&#45;&gt;Talsin</title>
<path fill="none" stroke="#ccdf32" d="M551.0341,-752C551.0341,-752 569.8106,-752 569.8106,-752"/>
<polygon fill="#ccdf32" stroke="#ccdf32" points="577.8105,-742 577.8107,-762 573.8107,-762.0001 573.8105,-742.0001 577.8105,-742"/>
<polyline fill="none" stroke="#ccdf32" points="579.8106,-752 569.8106,-752.0001 "/>
</g>
<!-- union_2 -->
<g id="node12" class="node">
<title>union_2</title>
<ellipse fill="#629755" stroke="#ffffff" cx="792.5" cy="-807" rx="3.5" ry="3.5"/>
</g>
<!-- Talsin&#45;&gt;union_2 -->
<g id="edge11" class="edge">
<title>Talsin&#45;&gt;union_2</title>
<path fill="none" stroke="#629755" d="M760.0383,-745C778.7943,-745 793,-745 793,-745 793,-745 793,-789.9598 793,-803.3073"/>
</g>
<!-- siblings_2 -->
<g id="node14" class="node">
<title>siblings_2</title>
<polygon fill="#629755" stroke="#cccccc" stroke-width="0" points="832,-807.5 825,-807.5 825,-806.5 832,-806.5 832,-807.5"/>
</g>
<!-- union_2&#45;&gt;siblings_2 -->
<g id="edge13" class="edge">
<title>union_2&#45;&gt;siblings_2</title>
<path fill="none" stroke="#629755" d="M796.0834,-807C802.9128,-807 817.7324,-807 824.7154,-807"/>
</g>
<!-- Elaine -->
<g id="node13" class="node">
<title>Elaine</title>
<g id="a_node13"><a xlink:title="undefined &#10;&#10;&#10;&#10;">
<polygon fill="#36393f" stroke="#cccccc" points="760,-833 580,-833 580,-791 760,-791 760,-833"/>
<text text-anchor="start" x="650.5512" y="-814.4" font-family="Helvetica, Arial, sans-serif" font-size="14.00" fill="#ffffff">Elaine</text>
<text text-anchor="start" x="633.597" y="-800" font-family="Helvetica, Arial, sans-serif" font-size="10.00" fill="#aaaaaa">Elaine Bentayga</text>
</a>
</g>
</g>
<!-- Elaine&#45;&gt;union_2 -->
<g id="edge12" class="edge">
<title>Elaine&#45;&gt;union_2</title>
<path fill="none" stroke="#629755" d="M760.3146,-807C772.9376,-807 783.4166,-807 788.7333,-807"/>
</g>
<!-- Brian -->
<g id="node15" class="node">
<title>Brian</title>
<g id="a_node15"><a xlink:title="undefined &#10;&#10;&#10;&#10;">
<polygon fill="#36393f" stroke="#cccccc" points="1041,-883 861,-883 861,-841 1041,-841 1041,-883"/>
<text text-anchor="start" x="935.1655" y="-864.4" font-family="Helvetica, Arial, sans-serif" font-size="14.00" fill="#ffffff">Brian</text>
<text text-anchor="start" x="914.832" y="-850" font-family="Helvetica, Arial, sans-serif" font-size="10.00" fill="#aaaaaa">Brian McFarland</text>
</a>
</g>
</g>
<!-- siblings_2&#45;&gt;Brian -->
<g id="edge14" class="edge">
<title>siblings_2&#45;&gt;Brian</title>
<path fill="none" stroke="#629755" d="M829,-807.6177C829,-813.6602 829,-862 829,-862 829,-862 850.7356,-862 850.7356,-862"/>
<polygon fill="#629755" stroke="#629755" points="858.7355,-852 858.7357,-872 854.7357,-872.0001 854.7355,-852.0001 858.7355,-852"/>
<polyline fill="none" stroke="#629755" points="860.7356,-862 850.7356,-862.0001 "/>
</g>
<!-- Llora -->
<g id="node16" class="node">
<title>Llora</title>
<g id="a_node16"><a xlink:title="undefined &#10;&#10;&#10;&#10;">
<polygon fill="#36393f" stroke="#cccccc" points="1041,-823 861,-823 861,-781 1041,-781 1041,-823"/>
<text text-anchor="start" x="935.4425" y="-804.4" font-family="Helvetica, Arial, sans-serif" font-size="14.00" fill="#ffffff">Llora</text>
<text text-anchor="start" x="914.887" y="-790" font-family="Helvetica, Arial, sans-serif" font-size="10.00" fill="#aaaaaa">Llora McFarland</text>
</a>
</g>
</g>
<!-- siblings_2&#45;&gt;Llora -->
<g id="edge15" class="edge">
<title>siblings_2&#45;&gt;Llora</title>
<path fill="none" stroke="#629755" d="M832.0341,-807C832.0341,-807 850.8106,-807 850.8106,-807"/>
<polygon fill="#629755" stroke="#629755" points="858.8105,-797 858.8107,-817 854.8107,-817.0001 854.8105,-797.0001 858.8105,-797"/>
<polyline fill="none" stroke="#629755" points="860.8106,-807 850.8106,-807.0001 "/>
</g>
<!-- union_3 -->
<g id="node17" class="node">
<title>union_3</title>
<ellipse fill="#cc7832" stroke="#ffffff" cx="1073.5" cy="-922" rx="3.5" ry="3.5"/>
</g>
<!-- Brian&#45;&gt;union_3 -->
<g id="edge16" class="edge">
<title>Brian&#45;&gt;union_3</title>
<path fill="none" stroke="#cc7832" d="M1041.1165,-862C1060.3477,-862 1075,-862 1075,-862 1075,-862 1075,-906.3115 1075,-918.7741"/>
</g>
<!-- union_11 -->
<g id="node57" class="node">
<title>union_11</title>
<ellipse fill="#cc7832" stroke="#ffffff" cx="1073.5" cy="-697" rx="3.5" ry="3.5"/>
</g>
<!-- Llora&#45;&gt;union_11 -->
<g id="edge56" class="edge">
<title>Llora&#45;&gt;union_11</title>
<path fill="none" stroke="#cc7832" d="M1041.2644,-786C1059.3914,-786 1073,-786 1073,-786 1073,-786 1073,-717.8594 1073,-700.8242"/>
</g>
<!-- siblings_3 -->
<g id="node19" class="node">
<title>siblings_3</title>
<polygon fill="#cc7832" stroke="#cccccc" stroke-width="0" points="1113,-922.5 1106,-922.5 1106,-921.5 1113,-921.5 1113,-922.5"/>
</g>
<!-- union_3&#45;&gt;siblings_3 -->
<g id="edge18" class="edge">
<title>union_3&#45;&gt;siblings_3</title>
<path fill="none" stroke="#cc7832" d="M1077.0834,-922C1083.9128,-922 1098.7324,-922 1105.7154,-922"/>
</g>
<!-- Selene -->
<g id="node18" class="node">
<title>Selene</title>
<g id="a_node18"><a xlink:title="undefined &#10;&#10;&#10;&#10;">
<polygon fill="#36393f" stroke="#cccccc" points="1041,-943 861,-943 861,-901 1041,-901 1041,-943"/>
<text text-anchor="start" x="929.2132" y="-924.4" font-family="Helvetica, Arial, sans-serif" font-size="14.00" fill="#ffffff">Selene</text>
<text text-anchor="start" x="912.927" y="-910" font-family="Helvetica, Arial, sans-serif" font-size="10.00" fill="#aaaaaa">Selene Bentayga</text>
</a>
</g>
</g>
<!-- Selene&#45;&gt;union_3 -->
<g id="edge17" class="edge">
<title>Selene&#45;&gt;union_3</title>
<path fill="none" stroke="#cc7832" d="M1041.3146,-922C1053.9376,-922 1064.4166,-922 1069.7333,-922"/>
</g>
<!-- Ian -->
<g id="node20" class="node">
<title>Ian</title>
<g id="a_node20"><a xlink:title="undefined &#10;&#10;&#10;&#10;">
<polygon fill="#36393f" stroke="#cccccc" points="1322,-943 1142,-943 1142,-901 1322,-901 1322,-943"/>
<text text-anchor="start" x="1222.7721" y="-924.4" font-family="Helvetica, Arial, sans-serif" font-size="14.00" fill="#ffffff">Ian</text>
<text text-anchor="start" x="1184.995" y="-910" font-family="Helvetica, Arial, sans-serif" font-size="10.00" fill="#aaaaaa">Valerian II McFarland</text>
</a>
</g>
</g>
<!-- siblings_3&#45;&gt;Ian -->
<g id="edge19" class="edge">
<title>siblings_3&#45;&gt;Ian</title>
<path fill="none" stroke="#cc7832" d="M1113.0341,-922C1113.0341,-922 1131.8106,-922 1131.8106,-922"/>
<polygon fill="#cc7832" stroke="#cc7832" points="1139.8105,-912 1139.8107,-932 1135.8107,-932.0001 1135.8105,-912.0001 1139.8105,-912"/>
<polyline fill="none" stroke="#cc7832" points="1141.8106,-922 1131.8106,-922.0001 "/>
</g>
<!-- siblings_4 -->
<g id="node23" class="node">
<title>siblings_4</title>
<polygon fill="#6897bb" stroke="#cccccc" stroke-width="0" points="551,-179.5 544,-179.5 544,-178.5 551,-178.5 551,-179.5"/>
</g>
<!-- union_4&#45;&gt;siblings_4 -->
<g id="edge22" class="edge">
<title>union_4&#45;&gt;siblings_4</title>
<path fill="none" stroke="#6897bb" d="M515.0834,-179C521.9128,-179 536.7324,-179 543.7154,-179"/>
</g>
<!-- Peregrine -->
<g id="node22" class="node">
<title>Peregrine</title>
<g id="a_node22"><a xlink:title="undefined &#10;&#10;&#10;&#10;">
<polygon fill="#36393f" stroke="#ff0000" stroke-width=".25" points="479,-200 299,-200 299,-158 479,-158 479,-200"/>
<text text-anchor="start" x="359.1613" y="-181.4" font-family="Helvetica, Arial, sans-serif" font-size="14.00" fill="#ffffff">Peregrine</text>
<text text-anchor="start" x="342.829" y="-167" font-family="Helvetica, Arial, sans-serif" font-size="10.00" fill="#aaaaaa">Peregrine McFarland</text>
</a>
</g>
</g>
<!-- Peregrine&#45;&gt;union_4 -->
<g id="edge21" class="edge">
<title>Peregrine&#45;&gt;union_4</title>
<path fill="none" stroke="#6897bb" d="M479.3146,-177.8333C492.2245,-177.8333 502.8918,-177.8333 508.0877,-177.8333"/>
</g>
<!-- Elara -->
<g id="node24" class="node">
<title>Elara</title>
<g id="a_node24"><a xlink:title="undefined &#10;&#10;&#10;&#10;">
<polygon fill="#36393f" stroke="#cccccc" points="760,-110 580,-110 580,-68 760,-68 760,-110"/>
<text text-anchor="start" x="654.1655" y="-91.4" font-family="Helvetica, Arial, sans-serif" font-size="14.00" fill="#ffffff">Elara</text>
<text text-anchor="start" x="633.832" y="-77" font-family="Helvetica, Arial, sans-serif" font-size="10.00" fill="#aaaaaa">Elara McFarland</text>
</a>
</g>
</g>
<!-- siblings_4&#45;&gt;Elara -->
<g id="edge23" class="edge">
<title>siblings_4&#45;&gt;Elara</title>
<path fill="none" stroke="#6897bb" d="M547,-178.4253C547,-170.7603 547,-89 547,-89 547,-89 569.9617,-89 569.9617,-89"/>
<polygon fill="#6897bb" stroke="#6897bb" points="577.9616,-79 577.9618,-99 573.9618,-99.0001 573.9616,-79.0001 577.9616,-79"/>
<polyline fill="none" stroke="#6897bb" points="579.9617,-89 569.9617,-89.0001 "/>
</g>
<!-- Orion -->
<g id="node25" class="node">
<title>Orion</title>
<g id="a_node25"><a xlink:title="undefined &#10;&#10;&#10;&#10;">
<polygon fill="#36393f" stroke="#cccccc" points="760,-170 580,-170 580,-128 760,-128 760,-170"/>
<text text-anchor="start" x="652.8885" y="-151.4" font-family="Helvetica, Arial, sans-serif" font-size="14.00" fill="#ffffff">Orion</text>
<text text-anchor="start" x="632.777" y="-137" font-family="Helvetica, Arial, sans-serif" font-size="10.00" fill="#aaaaaa">Orion McFarland</text>
</a>
</g>
</g>
<!-- siblings_4&#45;&gt;Orion -->
<g id="edge24" class="edge">
<title>siblings_4&#45;&gt;Orion</title>
<path fill="none" stroke="#6897bb" d="M549,-178.3555C549,-175.4844 549,-164 549,-164 549,-164 569.8465,-164 569.8465,-164"/>
<polygon fill="#6897bb" stroke="#6897bb" points="577.8464,-154 577.8466,-174 573.8466,-174.0001 573.8464,-154.0001 577.8464,-154"/>
<polyline fill="none" stroke="#6897bb" points="579.8465,-164 569.8465,-164.0001 "/>
</g>
<!-- Evander -->
<g id="node26" class="node">
<title>Evander</title>
<g id="a_node26"><a xlink:title="undefined &#10;&#10;&#10;&#10;">
<polygon fill="#36393f" stroke="#cccccc" points="760,-230 580,-230 580,-188 760,-188 760,-230"/>
<text text-anchor="start" x="644.4362" y="-211.4" font-family="Helvetica, Arial, sans-serif" font-size="14.00" fill="#ffffff">Evander</text>
<text text-anchor="start" x="626.8825" y="-197" font-family="Helvetica, Arial, sans-serif" font-size="10.00" fill="#aaaaaa">Evander McFarland</text>
</a>
</g>
</g>
<!-- siblings_4&#45;&gt;Evander -->
<g id="edge25" class="edge">
<title>siblings_4&#45;&gt;Evander</title>
<path fill="none" stroke="#6897bb" d="M549,-179.6445C549,-182.5156 549,-194 549,-194 549,-194 569.8465,-194 569.8465,-194"/>
<polygon fill="#6897bb" stroke="#6897bb" points="577.8464,-184 577.8466,-204 573.8466,-204.0001 573.8464,-184.0001 577.8464,-184"/>
<polyline fill="none" stroke="#6897bb" points="579.8465,-194 569.8465,-194.0001 "/>
</g>
<!-- siblings_5 -->
<g id="node29" class="node">
<title>siblings_5</title>
<polygon fill="#bbb529" stroke="#cccccc" stroke-width="0" points="551,-482.5 544,-482.5 544,-481.5 551,-481.5 551,-482.5"/>
</g>
<!-- union_5&#45;&gt;siblings_5 -->
<g id="edge28" class="edge">
<title>union_5&#45;&gt;siblings_5</title>
<path fill="none" stroke="#bbb529" d="M515.0834,-482C521.9128,-482 536.7324,-482 543.7154,-482"/>
</g>
<!-- Yenna -->
<g id="node28" class="node">
<title>Yenna</title>
<g id="a_node28"><a xlink:title="undefined &#10;&#10;&#10;&#10;">
<polygon fill="#36393f" stroke="#cccccc" points="479,-502 299,-502 299,-460 479,-460 479,-502"/>
<text text-anchor="start" x="369.2665" y="-483.4" font-family="Helvetica, Arial, sans-serif" font-size="14.00" fill="#ffffff">Yenna</text>
<text text-anchor="start" x="359.7645" y="-469" font-family="Helvetica, Arial, sans-serif" font-size="10.00" fill="#aaaaaa">Yenna Savoy</text>
</a>
</g>
</g>
<!-- Yenna&#45;&gt;union_5 -->
<g id="edge27" class="edge">
<title>Yenna&#45;&gt;union_5</title>
<path fill="none" stroke="#bbb529" d="M479.3146,-482C491.9376,-482 502.4166,-482 507.7333,-482"/>
</g>
<!-- Tedora -->
<g id="node30" class="node">
<title>Tedora</title>
<g id="a_node30"><a xlink:title="undefined &#10;&#10;&#10;&#10;">
<polygon fill="#36393f" stroke="#ff0000" stroke-width=".25" points="760,-444 580,-444 580,-402 760,-402 760,-444"/>
<text text-anchor="start" x="648.3282" y="-425.4" font-family="Helvetica, Arial, sans-serif" font-size="14.00" fill="#ffffff">Tedora</text>
<text text-anchor="start" x="629.6625" y="-411" font-family="Helvetica, Arial, sans-serif" font-size="10.00" fill="#aaaaaa">Tedora McFarland</text>
</a>
</g>
</g>
<!-- siblings_5&#45;&gt;Tedora -->
<g id="edge29" class="edge">
<title>siblings_5&#45;&gt;Tedora</title>
<path fill="none" stroke="#bbb529" d="M547,-481.3374C547,-474.8555 547,-423 547,-423 547,-423 569.9617,-423 569.9617,-423"/>
<polygon fill="#bbb529" stroke="#bbb529" points="577.9616,-413 577.9618,-433 573.9618,-433.0001 573.9616,-413.0001 577.9616,-413"/>
<polyline fill="none" stroke="#bbb529" points="579.9617,-423 569.9617,-423.0001 "/>
</g>
<!-- Thessaly -->
<g id="node31" class="node">
<title>Thessaly</title>
<g id="a_node31"><a xlink:title="undefined &#10;&#10;&#10;&#10;">
<polygon fill="#36393f" stroke="#cccccc" points="760,-504 580,-504 580,-462 760,-462 760,-504"/>
<text text-anchor="start" x="641.9965" y="-485.4" font-family="Helvetica, Arial, sans-serif" font-size="14.00" fill="#ffffff">Thessaly</text>
<text text-anchor="start" x="624.997" y="-471" font-family="Helvetica, Arial, sans-serif" font-size="10.00" fill="#aaaaaa">Thessaly McFarland</text>
</a>
</g>
</g>
<!-- siblings_5&#45;&gt;Thessaly -->
<g id="edge30" class="edge">
<title>siblings_5&#45;&gt;Thessaly</title>
<path fill="none" stroke="#bbb529" d="M551.0341,-482C551.0341,-482 569.8106,-482 569.8106,-482"/>
<polygon fill="#bbb529" stroke="#bbb529" points="577.8105,-472 577.8107,-492 573.8107,-492.0001 573.8105,-472.0001 577.8105,-472"/>
<polyline fill="none" stroke="#bbb529" points="579.8106,-482 569.8106,-482.0001 "/>
</g>
<!-- union_6 -->
<g id="node32" class="node">
<title>union_6</title>
<ellipse fill="#9876aa" stroke="#ffffff" cx="792.5" cy="-338" rx="3.5" ry="3.5"/>
</g>
<!-- Tedora&#45;&gt;union_6 -->
<g id="edge31" class="edge">
<title>Tedora&#45;&gt;union_6</title>
<path fill="none" stroke="#9876aa" d="M760.1165,-407C779.3477,-407 794,-407 794,-407 794,-407 794,-355.111 794,-341.328"/>
</g>
<!-- union_10 -->
<g id="node52" class="node">
<title>union_10</title>
<ellipse fill="#629755" stroke="#ffffff" cx="792.5" cy="-625" rx="3.5" ry="3.5"/>
</g>
<!-- Thessaly&#45;&gt;union_10 -->
<g id="edge51" class="edge">
<title>Thessaly&#45;&gt;union_10</title>
<path fill="none" stroke="#629755" d="M760.2644,-488C778.3914,-488 792,-488 792,-488 792,-488 792,-599.5487 792,-621.3356"/>
</g>
<!-- siblings_6 -->
<g id="node34" class="node">
<title>siblings_6</title>
<polygon fill="#9876aa" stroke="#cccccc" stroke-width="0" points="832,-338.5 825,-338.5 825,-337.5 832,-337.5 832,-338.5"/>
</g>
<!-- union_6&#45;&gt;siblings_6 -->
<g id="edge33" class="edge">
<title>union_6&#45;&gt;siblings_6</title>
<path fill="none" stroke="#9876aa" d="M796.0834,-338C802.9128,-338 817.7324,-338 824.7154,-338"/>
</g>
<!-- Rogelio -->
<g id="node33" class="node">
<title>Rogelio</title>
<g id="a_node33"><a xlink:title="undefined &#10;&#10;&#10;&#10;">
<polygon fill="#36393f" stroke="#ff0000" stroke-width=".25" points="760,-359 580,-359 580,-317 760,-317 760,-359"/>
<text text-anchor="start" x="646.2749" y="-340.4" font-family="Helvetica, Arial, sans-serif" font-size="14.00" fill="#ffffff">Rogelio</text>
<text text-anchor="start" x="636.662" y="-326" font-family="Helvetica, Arial, sans-serif" font-size="10.00" fill="#aaaaaa">Rogelio Durant</text>
</a>
</g>
</g>
<!-- Rogelio&#45;&gt;union_6 -->
<g id="edge32" class="edge">
<title>Rogelio&#45;&gt;union_6</title>
<path fill="none" stroke="#9876aa" d="M760.3146,-338C772.9376,-338 783.4166,-338 788.7333,-338"/>
</g>
<!-- Degare -->
<g id="node35" class="node">
<title>Degare</title>
<g id="a_node35"><a xlink:title="undefined &#10;&#10;&#10;&#10;">
<polygon fill="#36393f" stroke="#cccccc" points="1041,-394 861,-394 861,-352 1041,-352 1041,-394"/>
<text text-anchor="start" x="928.5512" y="-375.4" font-family="Helvetica, Arial, sans-serif" font-size="14.00" fill="#ffffff">Degare</text>
<text text-anchor="start" x="918.7165" y="-361" font-family="Helvetica, Arial, sans-serif" font-size="10.00" fill="#aaaaaa">Degare Durant</text>
</a>
</g>
</g>
<!-- siblings_6&#45;&gt;Degare -->
<g id="edge34" class="edge">
<title>siblings_6&#45;&gt;Degare</title>
<path fill="none" stroke="#9876aa" d="M829,-338.752C829,-342.1016 829,-355.5 829,-355.5 829,-355.5 850.7356,-355.5 850.7356,-355.5"/>
<polygon fill="#9876aa" stroke="#9876aa" points="858.7355,-345.5 858.7357,-365.5 854.7357,-365.5001 854.7355,-345.5001 858.7355,-345.5"/>
<polyline fill="none" stroke="#9876aa" points="860.7356,-355.5 850.7356,-355.5001 "/>
</g>
<!-- Dyson -->
<g id="node36" class="node">
<title>Dyson</title>
<g id="a_node36"><a xlink:title="undefined &#10;&#10;&#10;&#10;">
<polygon fill="#36393f" stroke="#cccccc" points="1041,-334 861,-334 861,-292 1041,-292 1041,-334"/>
<text text-anchor="start" x="931.1641" y="-315.4" font-family="Helvetica, Arial, sans-serif" font-size="14.00" fill="#ffffff">Dyson</text>
<text text-anchor="start" x="911.831" y="-301" font-family="Helvetica, Arial, sans-serif" font-size="10.00" fill="#aaaaaa">Dyson McFarland</text>
</a>
</g>
</g>
<!-- siblings_6&#45;&gt;Dyson -->
<g id="edge35" class="edge">
<title>siblings_6&#45;&gt;Dyson</title>
<path fill="none" stroke="#9876aa" d="M830,-337.4629C830,-335.0703 830,-325.5 830,-325.5 830,-325.5 850.8465,-325.5 850.8465,-325.5"/>
<polygon fill="#9876aa" stroke="#9876aa" points="858.8464,-315.5 858.8466,-335.5 854.8466,-335.5001 854.8464,-315.5001 858.8464,-315.5"/>
<polyline fill="none" stroke="#9876aa" points="860.8465,-325.5 850.8465,-325.5001 "/>
</g>
<!-- Lyla -->
<g id="node37" class="node">
<title>Lyla</title>
<polygon fill="#36393f" stroke="#cccccc" points="1041,-274 861,-274 861,-238 1041,-238 1041,-274"/>
<text text-anchor="middle" x="951" y="-251.8" font-family="Helvetica, Arial, sans-serif" font-size="14.00" fill="#ffffff">Lyla</text>
</g>
<!-- siblings_6&#45;&gt;Lyla -->
<g id="edge36" class="edge">
<title>siblings_6&#45;&gt;Lyla</title>
<path fill="none" stroke="#9876aa" d="M828,-337.4764C828,-330.4927 828,-256 828,-256 828,-256 850.9617,-256 850.9617,-256"/>
<polygon fill="#9876aa" stroke="#9876aa" points="858.9616,-246 858.9618,-266 854.9618,-266.0001 854.9616,-246.0001 858.9616,-246"/>
<polyline fill="none" stroke="#9876aa" points="860.9617,-256 850.9617,-256.0001 "/>
</g>
<!-- union_7 -->
<g id="node38" class="node">
<title>union_7</title>
<ellipse fill="#efc090" stroke="#ffffff" cx="1073.5" cy="-494" rx="3.5" ry="3.5"/>
</g>
<!-- Degare&#45;&gt;union_7 -->
<g id="edge37" class="edge">
<title>Degare&#45;&gt;union_7</title>
<path fill="none" stroke="#efc090" d="M1041.4002,-366C1050.2322,-366 1056,-366 1056,-366 1056,-366 1056,-492.8333 1056,-492.8333 1056,-492.8333 1065.0405,-492.8333 1070.1258,-492.8333"/>
</g>
<!-- union_8 -->
<g id="node43" class="node">
<title>union_8</title>
<ellipse fill="#d25252" stroke="#ffffff" cx="1073.5" cy="-424" rx="3.5" ry="3.5"/>
</g>
<!-- Degare&#45;&gt;union_8 -->
<g id="edge42" class="edge">
<title>Degare&#45;&gt;union_8</title>
<path fill="none" stroke="#d25252" stroke-dasharray="5,2" d="M1041.1165,-380C1060.3477,-380 1075,-380 1075,-380 1075,-380 1075,-410.7468 1075,-420.8356"/>
</g>
<!-- union_9 -->
<g id="node45" class="node">
<title>union_9</title>
<ellipse fill="#ccdf32" stroke="#ffffff" cx="1073.5" cy="-149" rx="3.5" ry="3.5"/>
</g>
<!-- Dyson&#45;&gt;union_9 -->
<g id="edge44" class="edge">
<title>Dyson&#45;&gt;union_9</title>
<path fill="none" stroke="#ccdf32" d="M1041.2644,-313C1059.3914,-313 1073,-313 1073,-313 1073,-313 1073,-177.145 1073,-152.7335"/>
</g>
<!-- siblings_7 -->
<g id="node40" class="node">
<title>siblings_7</title>
<polygon fill="#efc090" stroke="#cccccc" stroke-width="0" points="1113,-494.5 1106,-494.5 1106,-493.5 1113,-493.5 1113,-494.5"/>
</g>
<!-- union_7&#45;&gt;siblings_7 -->
<g id="edge39" class="edge">
<title>union_7&#45;&gt;siblings_7</title>
<path fill="none" stroke="#efc090" d="M1077.0834,-494C1083.9128,-494 1098.7324,-494 1105.7154,-494"/>
</g>
<!-- Elodie -->
<g id="node39" class="node">
<title>Elodie</title>
<g id="a_node39"><a xlink:title="undefined &#10;&#10;Born 05/06/1239 &#160;&#45;&#45; died 05/06/1239&#10;&#10;">
<polygon fill="#36393f" stroke="#ff0000" stroke-width=".25" points="1041,-528 861,-528 861,-472 1041,-472 1041,-528"/>
<text text-anchor="start" x="931.5512" y="-509.4" font-family="Helvetica, Arial, sans-serif" font-size="14.00" fill="#ffffff">Elodie</text>
<text text-anchor="start" x="912.9325" y="-495" font-family="Helvetica, Arial, sans-serif" font-size="10.00" fill="#aaaaaa">Elodië Bentayga</text>
<text text-anchor="start" x="915.7035" y="-481" font-family="Helvetica, Arial, sans-serif" font-size="10.00" fill="#aaaaaa">*1239 — †1274</text>
</a>
</g>
</g>
<!-- Elodie&#45;&gt;union_7 -->
<g id="edge38" class="edge">
<title>Elodie&#45;&gt;union_7</title>
<path fill="none" stroke="#efc090" d="M1041.3146,-495.1667C1054.2245,-495.1667 1064.8918,-495.1667 1070.0877,-495.1667"/>
</g>
<!-- Michael -->
<g id="node41" class="node">
<title>Michael</title>
<g id="a_node41"><a xlink:href="https://bastion-falls.thekennel.info/characters/michael-durant" xlink:title="undefined &#10;&#10;Born 12/01/1259 &#10;&#10;">
<polygon fill="#36393f" stroke="#cccccc" points="1322,-583 1142,-583 1142,-527 1322,-527 1322,-583"/>
<text text-anchor="start" x="1208.3892" y="-564.4" font-family="Helvetica, Arial, sans-serif" font-size="14.00" fill="#ffffff">Michael</text>
<text text-anchor="start" x="1198.8865" y="-550" font-family="Helvetica, Arial, sans-serif" font-size="10.00" fill="#aaaaaa">Michael Durant</text>
<text text-anchor="start" x="1219.4375" y="-536" font-family="Helvetica, Arial, sans-serif" font-size="10.00" fill="#aaaaaa">*1259</text>
</a>
</g>
</g>
<!-- siblings_7&#45;&gt;Michael -->
<g id="edge40" class="edge">
<title>siblings_7&#45;&gt;Michael</title>
<path fill="none" stroke="#efc090" d="M1111,-494.6514C1111,-501.0234 1111,-552 1111,-552 1111,-552 1131.8465,-552 1131.8465,-552"/>
<polygon fill="#efc090" stroke="#efc090" points="1139.8464,-542 1139.8466,-562 1135.8466,-562.0001 1135.8464,-542.0001 1139.8464,-542"/>
<polyline fill="none" stroke="#efc090" points="1141.8465,-552 1131.8465,-552.0001 "/>
</g>
<!-- Lyla II -->
<g id="node42" class="node">
<title>Lyla II</title>
<g id="a_node42"><a xlink:title="undefined &#10;&#10;&#10;&#10;">
<polygon fill="#36393f" stroke="#cccccc" points="1322,-509 1142,-509 1142,-467 1322,-467 1322,-509"/>
<text text-anchor="start" x="1213.8282" y="-490.4" font-family="Helvetica, Arial, sans-serif" font-size="14.00" fill="#ffffff">Lyla II</text>
<text text-anchor="start" x="1202.7715" y="-476" font-family="Helvetica, Arial, sans-serif" font-size="10.00" fill="#aaaaaa">Lyla II Durant</text>
</a>
</g>
</g>
<!-- siblings_7&#45;&gt;Lyla II -->
<g id="edge41" class="edge">
<title>siblings_7&#45;&gt;Lyla II</title>
<path fill="none" stroke="#efc090" d="M1113.0341,-494C1113.0341,-494 1131.8106,-494 1131.8106,-494"/>
<polygon fill="#efc090" stroke="#efc090" points="1139.8105,-484 1139.8107,-504 1135.8107,-504.0001 1135.8105,-484.0001 1139.8105,-484"/>
<polyline fill="none" stroke="#efc090" points="1141.8106,-494 1131.8106,-494.0001 "/>
</g>
<!-- Sera -->
<g id="node44" class="node">
<title>Sera</title>
<g id="a_node44"><a xlink:title="undefined &#10;&#10;&#10;&#10;">
<polygon fill="#36393f" stroke="#cccccc" points="1041,-454 861,-454 861,-412 1041,-412 1041,-454"/>
<text text-anchor="start" x="936.7188" y="-435.4" font-family="Helvetica, Arial, sans-serif" font-size="14.00" fill="#ffffff">Sera</text>
<text text-anchor="start" x="909.538" y="-421" font-family="Helvetica, Arial, sans-serif" font-size="10.00" fill="#aaaaaa">Seraphine Gognon</text>
</a>
</g>
</g>
<!-- Sera&#45;&gt;union_8 -->
<g id="edge43" class="edge">
<title>Sera&#45;&gt;union_8</title>
<path fill="none" stroke="#d25252" stroke-dasharray="5,2" d="M1041.3146,-424C1053.9376,-424 1064.4166,-424 1069.7333,-424"/>
</g>
<!-- siblings_9 -->
<g id="node47" class="node">
<title>siblings_9</title>
<polygon fill="#ccdf32" stroke="#cccccc" stroke-width="0" points="1113,-149.5 1106,-149.5 1106,-148.5 1113,-148.5 1113,-149.5"/>
</g>
<!-- union_9&#45;&gt;siblings_9 -->
<g id="edge46" class="edge">
<title>union_9&#45;&gt;siblings_9</title>
<path fill="none" stroke="#ccdf32" d="M1077.0834,-149C1083.9128,-149 1098.7324,-149 1105.7154,-149"/>
</g>
<!-- Priscilla -->
<g id="node46" class="node">
<title>Priscilla</title>
<g id="a_node46"><a xlink:title="undefined &#10;&#10;&#10;&#10;">
<polygon fill="#36393f" stroke="#cccccc" points="1041,-170 861,-170 861,-128 1041,-128 1041,-170"/>
<text text-anchor="start" x="926.8969" y="-151.4" font-family="Helvetica, Arial, sans-serif" font-size="14.00" fill="#ffffff">Priscilla</text>
<text text-anchor="start" x="908.7735" y="-137" font-family="Helvetica, Arial, sans-serif" font-size="10.00" fill="#aaaaaa">Priscilla Blanchette</text>
</a>
</g>
</g>
<!-- Priscilla&#45;&gt;union_9 -->
<g id="edge45" class="edge">
<title>Priscilla&#45;&gt;union_9</title>
<path fill="none" stroke="#ccdf32" d="M1041.3146,-149C1053.9376,-149 1064.4166,-149 1069.7333,-149"/>
</g>
<!-- Kimberly -->
<g id="node48" class="node">
<title>Kimberly</title>
<g id="a_node48"><a xlink:title="undefined &#10;&#10;&#10;&#10;">
<polygon fill="#36393f" stroke="#cccccc" points="1322,-110 1142,-110 1142,-68 1322,-68 1322,-110"/>
<text text-anchor="start" x="1204.7819" y="-91.4" font-family="Helvetica, Arial, sans-serif" font-size="14.00" fill="#ffffff">Kimberly</text>
<text text-anchor="start" x="1187.558" y="-77" font-family="Helvetica, Arial, sans-serif" font-size="10.00" fill="#aaaaaa">Kimberly McFarland</text>
</a>
</g>
</g>
<!-- siblings_9&#45;&gt;Kimberly -->
<g id="edge47" class="edge">
<title>siblings_9&#45;&gt;Kimberly</title>
<path fill="none" stroke="#ccdf32" d="M1111,-148.3262C1111,-141.7344 1111,-89 1111,-89 1111,-89 1131.8465,-89 1131.8465,-89"/>
<polygon fill="#ccdf32" stroke="#ccdf32" points="1139.8464,-79 1139.8466,-99 1135.8466,-99.0001 1135.8464,-79.0001 1139.8464,-79"/>
<polyline fill="none" stroke="#ccdf32" points="1141.8465,-89 1131.8465,-89.0001 "/>
</g>
<!-- Gregory -->
<g id="node49" class="node">
<title>Gregory</title>
<g id="a_node49"><a xlink:title="undefined &#10;&#10;&#10;&#10;">
<polygon fill="#36393f" stroke="#cccccc" points="1322,-170 1142,-170 1142,-128 1322,-128 1322,-170"/>
<text text-anchor="start" x="1206.7202" y="-151.4" font-family="Helvetica, Arial, sans-serif" font-size="14.00" fill="#ffffff">Gregory</text>
<text text-anchor="start" x="1188.9425" y="-137" font-family="Helvetica, Arial, sans-serif" font-size="10.00" fill="#aaaaaa">Gregory McFarland</text>
</a>
</g>
</g>
<!-- siblings_9&#45;&gt;Gregory -->
<g id="edge48" class="edge">
<title>siblings_9&#45;&gt;Gregory</title>
<path fill="none" stroke="#ccdf32" d="M1113.0341,-149C1113.0341,-149 1131.8106,-149 1131.8106,-149"/>
<polygon fill="#ccdf32" stroke="#ccdf32" points="1139.8105,-139 1139.8107,-159 1135.8107,-159.0001 1135.8105,-139.0001 1139.8105,-139"/>
<polyline fill="none" stroke="#ccdf32" points="1141.8106,-149 1131.8106,-149.0001 "/>
</g>
<!-- Yenna MF -->
<g id="node50" class="node">
<title>Yenna MF</title>
<g id="a_node50"><a xlink:title="undefined &#10;&#10;&#10;&#10;">
<polygon fill="#36393f" stroke="#cccccc" points="1322,-230 1142,-230 1142,-188 1322,-188 1322,-230"/>
<text text-anchor="start" x="1211.7665" y="-211.4" font-family="Helvetica, Arial, sans-serif" font-size="14.00" fill="#ffffff">Yenna</text>
<text text-anchor="start" x="1192.547" y="-197" font-family="Helvetica, Arial, sans-serif" font-size="10.00" fill="#aaaaaa">Yenna McFarland</text>
</a>
</g>
</g>
<!-- siblings_9&#45;&gt;Yenna MF -->
<g id="edge49" class="edge">
<title>siblings_9&#45;&gt;Yenna MF</title>
<path fill="none" stroke="#ccdf32" d="M1110,-149.6738C1110,-156.2656 1110,-209 1110,-209 1110,-209 1131.7356,-209 1131.7356,-209"/>
<polygon fill="#ccdf32" stroke="#ccdf32" points="1139.7355,-199 1139.7357,-219 1135.7357,-219.0001 1135.7355,-199.0001 1139.7355,-199"/>
<polyline fill="none" stroke="#ccdf32" points="1141.7356,-209 1131.7356,-209.0001 "/>
</g>
<!-- Marion -->
<g id="node51" class="node">
<title>Marion</title>
<g id="a_node51"><a xlink:title="undefined &#10;&#10;&#10;&#10;">
<polygon fill="#36393f" stroke="#cccccc" points="1322,-50 1142,-50 1142,-8 1322,-8 1322,-50"/>
<text text-anchor="start" x="1210.6122" y="-31.4" font-family="Helvetica, Arial, sans-serif" font-size="14.00" fill="#ffffff">Marion</text>
<text text-anchor="start" x="1191.7225" y="-17" font-family="Helvetica, Arial, sans-serif" font-size="10.00" fill="#aaaaaa">Marion McFarland</text>
</a>
</g>
</g>
<!-- siblings_9&#45;&gt;Marion -->
<g id="edge50" class="edge">
<title>siblings_9&#45;&gt;Marion</title>
<path fill="none" stroke="#ccdf32" d="M1109,-148.2337C1109,-138.0137 1109,-29 1109,-29 1109,-29 1131.9617,-29 1131.9617,-29"/>
<polygon fill="#ccdf32" stroke="#ccdf32" points="1139.9616,-19 1139.9618,-39 1135.9618,-39.0001 1135.9616,-19.0001 1139.9616,-19"/>
<polyline fill="none" stroke="#ccdf32" points="1141.9617,-29 1131.9617,-29.0001 "/>
</g>
<!-- siblings_10 -->
<g id="node54" class="node">
<title>siblings_10</title>
<polygon fill="#629755" stroke="#cccccc" stroke-width="0" points="832,-625.5 825,-625.5 825,-624.5 832,-624.5 832,-625.5"/>
</g>
<!-- union_10&#45;&gt;siblings_10 -->
<g id="edge53" class="edge">
<title>union_10&#45;&gt;siblings_10</title>
<path fill="none" stroke="#629755" d="M796.0834,-625C802.9128,-625 817.7324,-625 824.7154,-625"/>
</g>
<!-- Juliette -->
<g id="node53" class="node">
<title>Juliette</title>
<g id="a_node53"><a xlink:title="undefined &#10;&#10;&#10;&#10;">
<polygon fill="#36393f" stroke="#cccccc" points="760,-646 580,-646 580,-604 760,-604 760,-646"/>
<text text-anchor="start" x="648.3289" y="-627.4" font-family="Helvetica, Arial, sans-serif" font-size="14.00" fill="#ffffff">Juliette</text>
<text text-anchor="start" x="636.8875" y="-613" font-family="Helvetica, Arial, sans-serif" font-size="10.00" fill="#aaaaaa">Juliette Sinclair</text>
</a>
</g>
</g>
<!-- Juliette&#45;&gt;union_10 -->
<g id="edge52" class="edge">
<title>Juliette&#45;&gt;union_10</title>
<path fill="none" stroke="#629755" d="M760.3146,-625C772.9376,-625 783.4166,-625 788.7333,-625"/>
</g>
<!-- Thorid -->
<g id="node55" class="node">
<title>Thorid</title>
<g id="a_node55"><a xlink:title="undefined &#10;&#10;&#10;&#10;">
<polygon fill="#36393f" stroke="#cccccc" points="1041,-706 861,-706 861,-664 1041,-664 1041,-706"/>
<text text-anchor="start" x="931.1662" y="-687.4" font-family="Helvetica, Arial, sans-serif" font-size="14.00" fill="#ffffff">Thorid</text>
<text text-anchor="start" x="911.8325" y="-673" font-family="Helvetica, Arial, sans-serif" font-size="10.00" fill="#aaaaaa">Thorid McFarland</text>
</a>
</g>
</g>
<!-- siblings_10&#45;&gt;Thorid -->
<g id="edge54" class="edge">
<title>siblings_10&#45;&gt;Thorid</title>
<path fill="none" stroke="#629755" stroke-dasharray="5,2" d="M829,-625.5877C829,-631.3372 829,-677.3333 829,-677.3333 829,-677.3333 850.7356,-677.3333 850.7356,-677.3333"/>
<polygon fill="#629755" stroke="#629755" points="858.7355,-667.3334 858.7357,-687.3334 854.7357,-687.3334 854.7355,-667.3334 858.7355,-667.3334"/>
<polyline fill="none" stroke="#629755" points="860.7356,-677.3333 850.7356,-677.3334 "/>
</g>
<!-- Emilia -->
<g id="node56" class="node">
<title>Emilia</title>
<g id="a_node56"><a xlink:title="undefined &#10;&#10;&#10;&#10;">
<polygon fill="#36393f" stroke="#cccccc" points="1041,-646 861,-646 861,-604 1041,-604 1041,-646"/>
<text text-anchor="start" x="932.4502" y="-627.4" font-family="Helvetica, Arial, sans-serif" font-size="14.00" fill="#ffffff">Emilia</text>
<text text-anchor="start" x="912.8925" y="-613" font-family="Helvetica, Arial, sans-serif" font-size="10.00" fill="#aaaaaa">Emilia McFarland</text>
</a>
</g>
</g>
<!-- siblings_10&#45;&gt;Emilia -->
<g id="edge55" class="edge">
<title>siblings_10&#45;&gt;Emilia</title>
<path fill="none" stroke="#629755" stroke-dasharray="5,2" d="M832.0341,-625C832.0341,-625 850.8106,-625 850.8106,-625"/>
<polygon fill="#629755" stroke="#629755" points="858.8105,-615 858.8107,-635 854.8107,-635.0001 854.8105,-615.0001 858.8105,-615"/>
<polyline fill="none" stroke="#629755" points="860.8106,-625 850.8106,-625.0001 "/>
</g>
<!-- Thorid&#45;&gt;union_11 -->
<g id="edge57" class="edge">
<title>Thorid&#45;&gt;union_11</title>
<path fill="none" stroke="#cc7832" d="M1041.3146,-697C1053.9376,-697 1064.4166,-697 1069.7333,-697"/>
</g>
<!-- siblings_11 -->
<g id="node58" class="node">
<title>siblings_11</title>
<polygon fill="#cc7832" stroke="#cccccc" stroke-width="0" points="1113,-697.5 1106,-697.5 1106,-696.5 1113,-696.5 1113,-697.5"/>
</g>
<!-- union_11&#45;&gt;siblings_11 -->
<g id="edge58" class="edge">
<title>union_11&#45;&gt;siblings_11</title>
<path fill="none" stroke="#cc7832" d="M1077.0834,-697C1083.9128,-697 1098.7324,-697 1105.7154,-697"/>
</g>
<!-- Farrah -->
<g id="node59" class="node">
<title>Farrah</title>
<g id="a_node59"><a xlink:title="undefined &#10;&#10;&#10;&#10;">
<polygon fill="#36393f" stroke="#cccccc" points="1322,-713 1142,-713 1142,-671 1322,-671 1322,-713"/>
<text text-anchor="start" x="1211.8892" y="-694.4" font-family="Helvetica, Arial, sans-serif" font-size="14.00" fill="#ffffff">Farrah</text>
<text text-anchor="start" x="1192.7775" y="-680" font-family="Helvetica, Arial, sans-serif" font-size="10.00" fill="#aaaaaa">Farrah McFarland</text>
</a>
</g>
</g>
<!-- siblings_11&#45;&gt;Farrah -->
<g id="edge59" class="edge">
<title>siblings_11&#45;&gt;Farrah</title>
<path fill="none" stroke="#cc7832" d="M1113.0341,-697C1113.0341,-697 1131.8106,-697 1131.8106,-697"/>
<polygon fill="#cc7832" stroke="#cc7832" points="1139.8105,-687 1139.8107,-707 1135.8107,-707.0001 1135.8105,-687.0001 1139.8105,-687"/>
<polyline fill="none" stroke="#cc7832" points="1141.8106,-697 1131.8106,-697.0001 "/>
</g>
<!-- Malcolm -->
<g id="node60" class="node">
<title>Malcolm</title>
<g id="a_node60"><a xlink:title="undefined &#10;&#10;&#10;&#10;">
<polygon fill="#36393f" stroke="#cccccc" points="1322,-773 1142,-773 1142,-731 1322,-731 1322,-773"/>
<text text-anchor="start" x="1206.4502" y="-754.4" font-family="Helvetica, Arial, sans-serif" font-size="14.00" fill="#ffffff">Malcolm</text>
<text text-anchor="start" x="1188.8925" y="-740" font-family="Helvetica, Arial, sans-serif" font-size="10.00" fill="#aaaaaa">Malcolm McFarland</text>
</a>
</g>
</g>
<!-- siblings_11&#45;&gt;Malcolm -->
<g id="edge60" class="edge">
<title>siblings_11&#45;&gt;Malcolm</title>
<path fill="none" stroke="#cc7832" d="M1111,-697.6963C1111,-704.5078 1111,-759 1111,-759 1111,-759 1131.8465,-759 1131.8465,-759"/>
<polygon fill="#cc7832" stroke="#cc7832" points="1139.8464,-749 1139.8466,-769 1135.8466,-769.0001 1135.8464,-749.0001 1139.8464,-749"/>
<polyline fill="none" stroke="#cc7832" points="1141.8465,-759 1131.8465,-759.0001 "/>
</g>
<!-- Jacob -->
<g id="node61" class="node">
<title>Jacob</title>
<g id="a_node61"><a xlink:title="undefined &#10;&#10;&#10;&#10;">
<polygon fill="#36393f" stroke="#cccccc" points="1322,-833 1142,-833 1142,-791 1322,-791 1322,-833"/>
<text text-anchor="start" x="1213.3261" y="-814.4" font-family="Helvetica, Arial, sans-serif" font-size="14.00" fill="#ffffff">Jacob</text>
<text text-anchor="start" x="1193.661" y="-800" font-family="Helvetica, Arial, sans-serif" font-size="10.00" fill="#aaaaaa">Jacob McFarland</text>
</a>
</g>
</g>
<!-- siblings_11&#45;&gt;Jacob -->
<g id="edge61" class="edge">
<title>siblings_11&#45;&gt;Jacob</title>
<path fill="none" stroke="#cc7832" d="M1109,-697.7024C1109,-707.0708 1109,-807 1109,-807 1109,-807 1131.9617,-807 1131.9617,-807"/>
<polygon fill="#cc7832" stroke="#cc7832" points="1139.9616,-797 1139.9618,-817 1135.9618,-817.0001 1135.9616,-797.0001 1139.9616,-797"/>
<polyline fill="none" stroke="#cc7832" points="1141.9617,-807 1131.9617,-807.0001 "/>
</g>
<!-- Delilah -->
<g id="node62" class="node">
<title>Delilah</title>
<g id="a_node62"><a xlink:title="undefined &#10;&#10;&#10;&#10;">
<polygon fill="#36393f" stroke="#cccccc" points="1322,-653 1142,-653 1142,-611 1322,-611 1322,-653"/>
<text text-anchor="start" x="1210.6129" y="-634.4" font-family="Helvetica, Arial, sans-serif" font-size="14.00" fill="#ffffff">Delilah</text>
<text text-anchor="start" x="1191.723" y="-620" font-family="Helvetica, Arial, sans-serif" font-size="10.00" fill="#aaaaaa">Delilah McFarland</text>
</a>
</g>
</g>
<!-- siblings_11&#45;&gt;Delilah -->
<g id="edge62" class="edge">
<title>siblings_11&#45;&gt;Delilah</title>
<path fill="none" stroke="#cc7832" d="M1109,-696.4666C1109,-691.248 1109,-649.5 1109,-649.5 1109,-649.5 1131.9617,-649.5 1131.9617,-649.5"/>
<polygon fill="#cc7832" stroke="#cc7832" points="1139.9616,-639.5 1139.9618,-659.5 1135.9618,-659.5001 1135.9616,-639.5001 1139.9616,-639.5"/>
<polyline fill="none" stroke="#cc7832" points="1141.9617,-649.5 1131.9617,-649.5001 "/>
</g>
</g>
</svg>
