<?xml version="1.0" encoding="UTF-8" standalone="no"?>
<!DOCTYPE svg PUBLIC "-//W3C//DTD SVG 1.1//EN"
 "http://www.w3.org/Graphics/SVG/1.1/DTD/svg11.dtd">
<!-- Generated by graphviz version 2.40.1 (20161225.0304)
 -->
<!-- Title: G Pages: 1 -->
<svg width="1338pt" height="939pt"
 viewBox="0.00 0.00 1338.00 939.00" xmlns="http://www.w3.org/2000/svg" xmlns:xlink="http://www.w3.org/1999/xlink">
<g id="graph0" class="graph" transform="scale(1 1) rotate(0) translate(4 935)">
<title>G</title>
<polygon fill="#23272a" stroke="transparent" points="-4,4 -4,-935 1334,-935 1334,4 -4,4"/>
<g id="clust1" class="cluster">
<title>cluster_family_0</title>
<polygon fill="#2c2f33" stroke="#2c2f33" points="8,-506 8,-703 489,-703 489,-506 8,-506"/>
<text text-anchor="start" x="16" y="-685.6" font-family="Helvetica, Arial, sans-serif" font-weight="bold" font-size="16.00" fill="#ffffff">McFarland</text>
</g>
<g id="clust4" class="cluster">
<title>cluster_family_1</title>
</g>
<g id="clust7" class="cluster">
<title>cluster_family_2</title>
</g>
<g id="clust10" class="cluster">
<title>cluster_family_3</title>
</g>
<g id="clust13" class="cluster">
<title>cluster_family_4</title>
</g>
<g id="clust16" class="cluster">
<title>cluster_family_5</title>
</g>
<g id="clust19" class="cluster">
<title>cluster_family_6</title>
</g>
<g id="clust22" class="cluster">
<title>cluster_family_7</title>
</g>
<g id="clust25" class="cluster">
<title>cluster_family_8</title>
</g>
<g id="clust28" class="cluster">
<title>cluster_family_9</title>
</g>
<g id="clust31" class="cluster">
<title>cluster_family_10</title>
</g>
<!-- union_0 -->
<g id="node1" class="node">
<title>union_0</title>
<ellipse fill="#d25252" stroke="#ffffff" cx="230.5" cy="-591" rx="3.5" ry="3.5"/>
</g>
<!-- siblings_0 -->
<g id="node4" class="node">
<title>siblings_0</title>
<polygon fill="#d25252" stroke="#cccccc" stroke-width="0" points="270,-591.5 263,-591.5 263,-590.5 270,-590.5 270,-591.5"/>
</g>
<!-- union_0&#45;&gt;siblings_0 -->
<g id="edge3" class="edge">
<title>union_0&#45;&gt;siblings_0</title>
<path fill="none" stroke="#d25252" d="M234.0834,-591C240.9128,-591 255.7324,-591 262.7154,-591"/>
</g>
<!-- Valerian -->
<g id="node2" class="node">
<title>Valerian</title>
<g id="a_node2"><a xlink:title="&#10;&#10;">
<polygon fill="#36393f" stroke="#ff0000" stroke-width=".25" points="198,-636 18,-636 18,-600 198,-600 198,-636"/>
<text text-anchor="middle" x="108" y="-613.8" font-family="Helvetica, Arial, sans-serif" font-size="14.00" fill="#ffffff">☠</text>
</a>
</g>
</g>
<!-- Valerian&#45;&gt;union_0 -->
<g id="edge1" class="edge">
<title>Valerian&#45;&gt;union_0</title>
<path fill="none" stroke="#d25252" d="M198.0383,-606C216.7943,-606 231,-606 231,-606 231,-606 231,-598.9102 231,-594.479"/>
</g>
<!-- Luwan -->
<g id="node3" class="node">
<title>Luwan</title>
<g id="a_node3"><a xlink:title="&#10;&#10;">
<polygon fill="#36393f" stroke="#ff0000" stroke-width=".25" points="198,-582 18,-582 18,-546 198,-546 198,-582"/>
<text text-anchor="middle" x="108" y="-559.8" font-family="Helvetica, Arial, sans-serif" font-size="14.00" fill="#ffffff">☠</text>
</a>
</g>
</g>
<!-- Luwan&#45;&gt;union_0 -->
<g id="edge2" class="edge">
<title>Luwan&#45;&gt;union_0</title>
<path fill="none" stroke="#d25252" d="M198.0383,-576C216.7943,-576 231,-576 231,-576 231,-576 231,-583.0898 231,-587.521"/>
</g>
<!-- Caleb -->
<g id="node5" class="node">
<title>Caleb</title>
<g id="a_node5"><a xlink:title="&#10;&#10;">
<polygon fill="#36393f" stroke="#ff0000" stroke-width=".25" points="479,-666 299,-666 299,-630 479,-630 479,-666"/>
<text text-anchor="middle" x="389" y="-643.8" font-family="Helvetica, Arial, sans-serif" font-size="14.00" fill="#ffffff">☠</text>
</a>
</g>
</g>
<!-- siblings_0&#45;&gt;Caleb -->
<g id="edge4" class="edge">
<title>siblings_0&#45;&gt;Caleb</title>
<path fill="none" stroke="#d25252" d="M267,-591.6738C267,-598.2656 267,-651 267,-651 267,-651 288.7356,-651 288.7356,-651"/>
<polygon fill="#d25252" stroke="#d25252" points="296.7355,-641 296.7357,-661 292.7357,-661.0001 292.7355,-641.0001 296.7355,-641"/>
<polyline fill="none" stroke="#d25252" points="298.7356,-651 288.7356,-651.0001 "/>
</g>
<!-- Castilla -->
<g id="node6" class="node">
<title>Castilla</title>
<g id="a_node6"><a xlink:title="&#10;&#10;">
<polygon fill="#36393f" stroke="#ff0000" stroke-width=".25" points="479,-552 299,-552 299,-516 479,-516 479,-552"/>
<text text-anchor="middle" x="389" y="-529.8" font-family="Helvetica, Arial, sans-serif" font-size="14.00" fill="#ffffff">☠</text>
</a>
</g>
</g>
<!-- siblings_0&#45;&gt;Castilla -->
<g id="edge5" class="edge">
<title>siblings_0&#45;&gt;Castilla</title>
<path fill="none" stroke="#d25252" d="M267,-590.3262C267,-583.7344 267,-531 267,-531 267,-531 288.7356,-531 288.7356,-531"/>
<polygon fill="#d25252" stroke="#d25252" points="296.7355,-521 296.7357,-541 292.7357,-541.0001 292.7355,-521.0001 296.7355,-521"/>
<polyline fill="none" stroke="#d25252" points="298.7356,-531 288.7356,-531.0001 "/>
</g>
<!-- Cabot -->
<g id="node7" class="node">
<title>Cabot</title>
<g id="a_node7"><a xlink:title="&#10;&#10;">
<polygon fill="#36393f" stroke="#cccccc" points="479,-612 299,-612 299,-570 479,-570 479,-612"/>
<text text-anchor="start" x="370.3275" y="-593.4" font-family="Helvetica, Arial, sans-serif" font-size="14.00" fill="#ffffff">Cabot</text>
<text text-anchor="start" x="350.662" y="-579" font-family="Helvetica, Arial, sans-serif" font-size="10.00" fill="#aaaaaa">Cabot McFarland</text>
</a>
</g>
</g>
<!-- siblings_0&#45;&gt;Cabot -->
<g id="edge6" class="edge">
<title>siblings_0&#45;&gt;Cabot</title>
<path fill="none" stroke="#d25252" d="M270.0341,-591C270.0341,-591 288.8106,-591 288.8106,-591"/>
<polygon fill="#d25252" stroke="#d25252" points="296.8105,-581 296.8107,-601 292.8107,-601.0001 292.8105,-581.0001 296.8105,-581"/>
<polyline fill="none" stroke="#d25252" points="298.8106,-591 288.8106,-591.0001 "/>
</g>
<!-- union_1 -->
<g id="node8" class="node">
<title>union_1</title>
<ellipse fill="#ccdf32" stroke="#ffffff" cx="511.5" cy="-731" rx="3.5" ry="3.5"/>
</g>
<!-- Caleb&#45;&gt;union_1 -->
<g id="edge7" class="edge">
<title>Caleb&#45;&gt;union_1</title>
<path fill="none" stroke="#ccdf32" d="M479.1165,-661.3333C498.3477,-661.3333 513,-661.3333 513,-661.3333 513,-661.3333 513,-713.7237 513,-727.6398"/>
</g>
<!-- union_4 -->
<g id="node21" class="node">
<title>union_4</title>
<ellipse fill="#6897bb" stroke="#ffffff" cx="511.5" cy="-179" rx="3.5" ry="3.5"/>
</g>
<!-- Castilla&#45;&gt;union_4 -->
<g id="edge20" class="edge">
<title>Castilla&#45;&gt;union_4</title>
<path fill="none" stroke="#6897bb" d="M479.4002,-525C488.2322,-525 494,-525 494,-525 494,-525 494,-180.1667 494,-180.1667 494,-180.1667 503.0405,-180.1667 508.1258,-180.1667"/>
</g>
<!-- union_5 -->
<g id="node27" class="node">
<title>union_5</title>
<ellipse fill="#bbb529" stroke="#ffffff" cx="511.5" cy="-476" rx="3.5" ry="3.5"/>
</g>
<!-- Cabot&#45;&gt;union_5 -->
<g id="edge26" class="edge">
<title>Cabot&#45;&gt;union_5</title>
<path fill="none" stroke="#bbb529" d="M479.2644,-584.5C497.3914,-584.5 511,-584.5 511,-584.5 511,-584.5 511,-498.4364 511,-479.61"/>
</g>
<!-- siblings_1 -->
<g id="node10" class="node">
<title>siblings_1</title>
<polygon fill="#ccdf32" stroke="#cccccc" stroke-width="0" points="551,-731.5 544,-731.5 544,-730.5 551,-730.5 551,-731.5"/>
</g>
<!-- union_1&#45;&gt;siblings_1 -->
<g id="edge9" class="edge">
<title>union_1&#45;&gt;siblings_1</title>
<path fill="none" stroke="#ccdf32" d="M515.0834,-731C521.9128,-731 536.7324,-731 543.7154,-731"/>
</g>
<!-- Genevieve -->
<g id="node9" class="node">
<title>Genevieve</title>
<g id="a_node9"><a xlink:title="&#10;&#10;">
<polygon fill="#36393f" stroke="#ff0000" stroke-width=".25" points="479,-749 299,-749 299,-713 479,-713 479,-749"/>
<text text-anchor="middle" x="389" y="-726.8" font-family="Helvetica, Arial, sans-serif" font-size="14.00" fill="#ffffff">☠</text>
</a>
</g>
</g>
<!-- Genevieve&#45;&gt;union_1 -->
<g id="edge8" class="edge">
<title>Genevieve&#45;&gt;union_1</title>
<path fill="none" stroke="#ccdf32" d="M479.3146,-731C491.9376,-731 502.4166,-731 507.7333,-731"/>
</g>
<!-- Talsin -->
<g id="node11" class="node">
<title>Talsin</title>
<g id="a_node11"><a xlink:title="&#10;&#10;">
<polygon fill="#36393f" stroke="#cccccc" points="760,-753 580,-753 580,-711 760,-711 760,-753"/>
<text text-anchor="start" x="651.3345" y="-734.4" font-family="Helvetica, Arial, sans-serif" font-size="14.00" fill="#ffffff">Talsin</text>
<text text-anchor="start" x="631.667" y="-720" font-family="Helvetica, Arial, sans-serif" font-size="10.00" fill="#aaaaaa">Talsin McFarland</text>
</a>
</g>
</g>
<!-- siblings_1&#45;&gt;Talsin -->
<g id="edge10" class="edge">
<title>siblings_1&#45;&gt;Talsin</title>
<path fill="none" stroke="#ccdf32" d="M551.0341,-731C551.0341,-731 569.8106,-731 569.8106,-731"/>
<polygon fill="#ccdf32" stroke="#ccdf32" points="577.8105,-721 577.8107,-741 573.8107,-741.0001 573.8105,-721.0001 577.8105,-721"/>
<polyline fill="none" stroke="#ccdf32" points="579.8106,-731 569.8106,-731.0001 "/>
</g>
<!-- union_2 -->
<g id="node12" class="node">
<title>union_2</title>
<ellipse fill="#629755" stroke="#ffffff" cx="792.5" cy="-787" rx="3.5" ry="3.5"/>
</g>
<!-- Talsin&#45;&gt;union_2 -->
<g id="edge11" class="edge">
<title>Talsin&#45;&gt;union_2</title>
<path fill="none" stroke="#629755" d="M760.0383,-740C778.7943,-740 793,-740 793,-740 793,-740 793,-772.2322 793,-783.312"/>
</g>
<!-- siblings_2 -->
<g id="node14" class="node">
<title>siblings_2</title>
<polygon fill="#629755" stroke="#cccccc" stroke-width="0" points="832,-787.5 825,-787.5 825,-786.5 832,-786.5 832,-787.5"/>
</g>
<!-- union_2&#45;&gt;siblings_2 -->
<g id="edge13" class="edge">
<title>union_2&#45;&gt;siblings_2</title>
<path fill="none" stroke="#629755" d="M796.0834,-787C802.9128,-787 817.7324,-787 824.7154,-787"/>
</g>
<!-- Elaine -->
<g id="node13" class="node">
<title>Elaine</title>
<g id="a_node13"><a xlink:title="&#10;&#10;">
<polygon fill="#36393f" stroke="#cccccc" points="760,-813 580,-813 580,-771 760,-771 760,-813"/>
<text text-anchor="start" x="650.5512" y="-794.4" font-family="Helvetica, Arial, sans-serif" font-size="14.00" fill="#ffffff">Elaine</text>
<text text-anchor="start" x="633.597" y="-780" font-family="Helvetica, Arial, sans-serif" font-size="10.00" fill="#aaaaaa">Elaine Bentayga</text>
</a>
</g>
</g>
<!-- Elaine&#45;&gt;union_2 -->
<g id="edge12" class="edge">
<title>Elaine&#45;&gt;union_2</title>
<path fill="none" stroke="#629755" d="M760.3146,-787C772.9376,-787 783.4166,-787 788.7333,-787"/>
</g>
<!-- Brian -->
<g id="node15" class="node">
<title>Brian</title>
<g id="a_node15"><a xlink:title="&#10;&#10;">
<polygon fill="#36393f" stroke="#cccccc" points="1041,-863 861,-863 861,-821 1041,-821 1041,-863"/>
<text text-anchor="start" x="935.1655" y="-844.4" font-family="Helvetica, Arial, sans-serif" font-size="14.00" fill="#ffffff">Brian</text>
<text text-anchor="start" x="914.832" y="-830" font-family="Helvetica, Arial, sans-serif" font-size="10.00" fill="#aaaaaa">Brian McFarland</text>
</a>
</g>
</g>
<!-- siblings_2&#45;&gt;Brian -->
<g id="edge14" class="edge">
<title>siblings_2&#45;&gt;Brian</title>
<path fill="none" stroke="#629755" d="M829,-787.6177C829,-793.6602 829,-842 829,-842 829,-842 850.7356,-842 850.7356,-842"/>
<polygon fill="#629755" stroke="#629755" points="858.7355,-832 858.7357,-852 854.7357,-852.0001 854.7355,-832.0001 858.7355,-832"/>
<polyline fill="none" stroke="#629755" points="860.7356,-842 850.7356,-842.0001 "/>
</g>
<!-- Llora -->
<g id="node16" class="node">
<title>Llora</title>
<g id="a_node16"><a xlink:title="&#10;&#10;">
<polygon fill="#36393f" stroke="#cccccc" points="1041,-803 861,-803 861,-761 1041,-761 1041,-803"/>
<text text-anchor="start" x="935.4425" y="-784.4" font-family="Helvetica, Arial, sans-serif" font-size="14.00" fill="#ffffff">Llora</text>
<text text-anchor="start" x="914.887" y="-770" font-family="Helvetica, Arial, sans-serif" font-size="10.00" fill="#aaaaaa">Llora McFarland</text>
</a>
</g>
</g>
<!-- siblings_2&#45;&gt;Llora -->
<g id="edge15" class="edge">
<title>siblings_2&#45;&gt;Llora</title>
<path fill="none" stroke="#629755" d="M832.0341,-787C832.0341,-787 850.8106,-787 850.8106,-787"/>
<polygon fill="#629755" stroke="#629755" points="858.8105,-777 858.8107,-797 854.8107,-797.0001 854.8105,-777.0001 858.8105,-777"/>
<polyline fill="none" stroke="#629755" points="860.8106,-787 850.8106,-787.0001 "/>
</g>
<!-- union_3 -->
<g id="node17" class="node">
<title>union_3</title>
<ellipse fill="#cc7832" stroke="#ffffff" cx="1073.5" cy="-902" rx="3.5" ry="3.5"/>
</g>
<!-- Brian&#45;&gt;union_3 -->
<g id="edge16" class="edge">
<title>Brian&#45;&gt;union_3</title>
<path fill="none" stroke="#cc7832" d="M1041.1165,-842C1060.3477,-842 1075,-842 1075,-842 1075,-842 1075,-886.3115 1075,-898.7741"/>
</g>
<!-- union_10 -->
<g id="node55" class="node">
<title>union_10</title>
<ellipse fill="#629755" stroke="#ffffff" cx="1073.5" cy="-618" rx="3.5" ry="3.5"/>
</g>
<!-- Llora&#45;&gt;union_10 -->
<g id="edge54" class="edge">
<title>Llora&#45;&gt;union_10</title>
<path fill="none" stroke="#629755" d="M1041.2644,-782C1059.3914,-782 1073,-782 1073,-782 1073,-782 1073,-646.145 1073,-621.7335"/>
</g>
<!-- siblings_3 -->
<g id="node19" class="node">
<title>siblings_3</title>
<polygon fill="#cc7832" stroke="#cccccc" stroke-width="0" points="1113,-902.5 1106,-902.5 1106,-901.5 1113,-901.5 1113,-902.5"/>
</g>
<!-- union_3&#45;&gt;siblings_3 -->
<g id="edge18" class="edge">
<title>union_3&#45;&gt;siblings_3</title>
<path fill="none" stroke="#cc7832" d="M1077.0834,-902C1083.9128,-902 1098.7324,-902 1105.7154,-902"/>
</g>
<!-- Selene -->
<g id="node18" class="node">
<title>Selene</title>
<g id="a_node18"><a xlink:title="&#10;&#10;">
<polygon fill="#36393f" stroke="#cccccc" points="1041,-923 861,-923 861,-881 1041,-881 1041,-923"/>
<text text-anchor="start" x="929.2132" y="-904.4" font-family="Helvetica, Arial, sans-serif" font-size="14.00" fill="#ffffff">Selene</text>
<text text-anchor="start" x="912.927" y="-890" font-family="Helvetica, Arial, sans-serif" font-size="10.00" fill="#aaaaaa">Selene Bentayga</text>
</a>
</g>
</g>
<!-- Selene&#45;&gt;union_3 -->
<g id="edge17" class="edge">
<title>Selene&#45;&gt;union_3</title>
<path fill="none" stroke="#cc7832" d="M1041.3146,-902C1053.9376,-902 1064.4166,-902 1069.7333,-902"/>
</g>
<!-- Ian -->
<g id="node20" class="node">
<title>Ian</title>
<g id="a_node20"><a xlink:title="&#10;&#10;">
<polygon fill="#36393f" stroke="#cccccc" points="1322,-923 1142,-923 1142,-881 1322,-881 1322,-923"/>
<text text-anchor="start" x="1222.7721" y="-904.4" font-family="Helvetica, Arial, sans-serif" font-size="14.00" fill="#ffffff">Ian</text>
<text text-anchor="start" x="1184.995" y="-890" font-family="Helvetica, Arial, sans-serif" font-size="10.00" fill="#aaaaaa">Valerian II McFarland</text>
</a>
</g>
</g>
<!-- siblings_3&#45;&gt;Ian -->
<g id="edge19" class="edge">
<title>siblings_3&#45;&gt;Ian</title>
<path fill="none" stroke="#cc7832" d="M1113.0341,-902C1113.0341,-902 1131.8106,-902 1131.8106,-902"/>
<polygon fill="#cc7832" stroke="#cc7832" points="1139.8105,-892 1139.8107,-912 1135.8107,-912.0001 1135.8105,-892.0001 1139.8105,-892"/>
<polyline fill="none" stroke="#cc7832" points="1141.8106,-902 1131.8106,-902.0001 "/>
</g>
<!-- siblings_4 -->
<g id="node23" class="node">
<title>siblings_4</title>
<polygon fill="#6897bb" stroke="#cccccc" stroke-width="0" points="551,-179.5 544,-179.5 544,-178.5 551,-178.5 551,-179.5"/>
</g>
<!-- union_4&#45;&gt;siblings_4 -->
<g id="edge22" class="edge">
<title>union_4&#45;&gt;siblings_4</title>
<path fill="none" stroke="#6897bb" d="M515.0834,-179C521.9128,-179 536.7324,-179 543.7154,-179"/>
</g>
<!-- Peregrine -->
<g id="node22" class="node">
<title>Peregrine</title>
<g id="a_node22"><a xlink:title="&#10;&#10;">
<polygon fill="#36393f" stroke="#ff0000" stroke-width=".25" points="479,-197 299,-197 299,-161 479,-161 479,-197"/>
<text text-anchor="middle" x="389" y="-174.8" font-family="Helvetica, Arial, sans-serif" font-size="14.00" fill="#ffffff">☠</text>
</a>
</g>
</g>
<!-- Peregrine&#45;&gt;union_4 -->
<g id="edge21" class="edge">
<title>Peregrine&#45;&gt;union_4</title>
<path fill="none" stroke="#6897bb" d="M479.3146,-177.8333C492.2245,-177.8333 502.8918,-177.8333 508.0877,-177.8333"/>
</g>
<!-- Elara -->
<g id="node24" class="node">
<title>Elara</title>
<g id="a_node24"><a xlink:title="&#10;&#10;">
<polygon fill="#36393f" stroke="#cccccc" points="760,-110 580,-110 580,-68 760,-68 760,-110"/>
<text text-anchor="start" x="654.1655" y="-91.4" font-family="Helvetica, Arial, sans-serif" font-size="14.00" fill="#ffffff">Elara</text>
<text text-anchor="start" x="633.832" y="-77" font-family="Helvetica, Arial, sans-serif" font-size="10.00" fill="#aaaaaa">Elara McFarland</text>
</a>
</g>
</g>
<!-- siblings_4&#45;&gt;Elara -->
<g id="edge23" class="edge">
<title>siblings_4&#45;&gt;Elara</title>
<path fill="none" stroke="#6897bb" d="M547,-178.4253C547,-170.7603 547,-89 547,-89 547,-89 569.9617,-89 569.9617,-89"/>
<polygon fill="#6897bb" stroke="#6897bb" points="577.9616,-79 577.9618,-99 573.9618,-99.0001 573.9616,-79.0001 577.9616,-79"/>
<polyline fill="none" stroke="#6897bb" points="579.9617,-89 569.9617,-89.0001 "/>
</g>
<!-- Orion -->
<g id="node25" class="node">
<title>Orion</title>
<g id="a_node25"><a xlink:title="&#10;&#10;">
<polygon fill="#36393f" stroke="#cccccc" points="760,-170 580,-170 580,-128 760,-128 760,-170"/>
<text text-anchor="start" x="652.8885" y="-151.4" font-family="Helvetica, Arial, sans-serif" font-size="14.00" fill="#ffffff">Orion</text>
<text text-anchor="start" x="632.777" y="-137" font-family="Helvetica, Arial, sans-serif" font-size="10.00" fill="#aaaaaa">Orion McFarland</text>
</a>
</g>
</g>
<!-- siblings_4&#45;&gt;Orion -->
<g id="edge24" class="edge">
<title>siblings_4&#45;&gt;Orion</title>
<path fill="none" stroke="#6897bb" d="M549,-178.4199C549,-175.8359 549,-165.5 549,-165.5 549,-165.5 569.8465,-165.5 569.8465,-165.5"/>
<polygon fill="#6897bb" stroke="#6897bb" points="577.8464,-155.5 577.8466,-175.5 573.8466,-175.5001 573.8464,-155.5001 577.8464,-155.5"/>
<polyline fill="none" stroke="#6897bb" points="579.8465,-165.5 569.8465,-165.5001 "/>
</g>
<!-- Evander -->
<g id="node26" class="node">
<title>Evander</title>
<g id="a_node26"><a xlink:title="&#10;&#10;">
<polygon fill="#36393f" stroke="#cccccc" points="760,-230 580,-230 580,-188 760,-188 760,-230"/>
<text text-anchor="start" x="644.4362" y="-211.4" font-family="Helvetica, Arial, sans-serif" font-size="14.00" fill="#ffffff">Evander</text>
<text text-anchor="start" x="626.8825" y="-197" font-family="Helvetica, Arial, sans-serif" font-size="10.00" fill="#aaaaaa">Evander McFarland</text>
</a>
</g>
</g>
<!-- siblings_4&#45;&gt;Evander -->
<g id="edge25" class="edge">
<title>siblings_4&#45;&gt;Evander</title>
<path fill="none" stroke="#6897bb" d="M549,-179.5801C549,-182.1641 549,-192.5 549,-192.5 549,-192.5 569.8465,-192.5 569.8465,-192.5"/>
<polygon fill="#6897bb" stroke="#6897bb" points="577.8464,-182.5 577.8466,-202.5 573.8466,-202.5001 573.8464,-182.5001 577.8464,-182.5"/>
<polyline fill="none" stroke="#6897bb" points="579.8465,-192.5 569.8465,-192.5001 "/>
</g>
<!-- siblings_5 -->
<g id="node29" class="node">
<title>siblings_5</title>
<polygon fill="#bbb529" stroke="#cccccc" stroke-width="0" points="551,-476.5 544,-476.5 544,-475.5 551,-475.5 551,-476.5"/>
</g>
<!-- union_5&#45;&gt;siblings_5 -->
<g id="edge28" class="edge">
<title>union_5&#45;&gt;siblings_5</title>
<path fill="none" stroke="#bbb529" d="M515.0834,-476C521.9128,-476 536.7324,-476 543.7154,-476"/>
</g>
<!-- Yenna -->
<g id="node28" class="node">
<title>Yenna</title>
<g id="a_node28"><a xlink:title="&#10;&#10;">
<polygon fill="#36393f" stroke="#cccccc" points="479,-496 299,-496 299,-454 479,-454 479,-496"/>
<text text-anchor="start" x="369.2665" y="-477.4" font-family="Helvetica, Arial, sans-serif" font-size="14.00" fill="#ffffff">Yenna</text>
<text text-anchor="start" x="359.7645" y="-463" font-family="Helvetica, Arial, sans-serif" font-size="10.00" fill="#aaaaaa">Yenna Savoy</text>
</a>
</g>
</g>
<!-- Yenna&#45;&gt;union_5 -->
<g id="edge27" class="edge">
<title>Yenna&#45;&gt;union_5</title>
<path fill="none" stroke="#bbb529" d="M479.3146,-476C491.9376,-476 502.4166,-476 507.7333,-476"/>
</g>
<!-- Tedora -->
<g id="node30" class="node">
<title>Tedora</title>
<g id="a_node30"><a xlink:title="&#10;&#10;">
<polygon fill="#36393f" stroke="#ff0000" stroke-width=".25" points="760,-438 580,-438 580,-402 760,-402 760,-438"/>
<text text-anchor="middle" x="670" y="-415.8" font-family="Helvetica, Arial, sans-serif" font-size="14.00" fill="#ffffff">☠</text>
</a>
</g>
</g>
<!-- siblings_5&#45;&gt;Tedora -->
<g id="edge29" class="edge">
<title>siblings_5&#45;&gt;Tedora</title>
<path fill="none" stroke="#bbb529" d="M547,-475.3711C547,-469.2188 547,-420 547,-420 547,-420 569.9617,-420 569.9617,-420"/>
<polygon fill="#bbb529" stroke="#bbb529" points="577.9616,-410 577.9618,-430 573.9618,-430.0001 573.9616,-410.0001 577.9616,-410"/>
<polyline fill="none" stroke="#bbb529" points="579.9617,-420 569.9617,-420.0001 "/>
</g>
<!-- Thessaly -->
<g id="node31" class="node">
<title>Thessaly</title>
<g id="a_node31"><a xlink:title="&#10;&#10;">
<polygon fill="#36393f" stroke="#cccccc" points="760,-498 580,-498 580,-456 760,-456 760,-498"/>
<text text-anchor="start" x="641.9965" y="-479.4" font-family="Helvetica, Arial, sans-serif" font-size="14.00" fill="#ffffff">Thessaly</text>
<text text-anchor="start" x="624.997" y="-465" font-family="Helvetica, Arial, sans-serif" font-size="10.00" fill="#aaaaaa">Thessaly McFarland</text>
</a>
</g>
</g>
<!-- siblings_5&#45;&gt;Thessaly -->
<g id="edge30" class="edge">
<title>siblings_5&#45;&gt;Thessaly</title>
<path fill="none" stroke="#bbb529" d="M551.0341,-476C551.0341,-476 569.8106,-476 569.8106,-476"/>
<polygon fill="#bbb529" stroke="#bbb529" points="577.8105,-466 577.8107,-486 573.8107,-486.0001 573.8105,-466.0001 577.8105,-466"/>
<polyline fill="none" stroke="#bbb529" points="579.8106,-476 569.8106,-476.0001 "/>
</g>
<!-- union_6 -->
<g id="node32" class="node">
<title>union_6</title>
<ellipse fill="#9876aa" stroke="#ffffff" cx="792.5" cy="-339" rx="3.5" ry="3.5"/>
</g>
<!-- Tedora&#45;&gt;union_6 -->
<g id="edge31" class="edge">
<title>Tedora&#45;&gt;union_6</title>
<path fill="none" stroke="#9876aa" d="M760.1165,-425C779.3477,-425 794,-425 794,-425 794,-425 794,-357.9752 794,-342.2663"/>
</g>
<!-- union_9 -->
<g id="node50" class="node">
<title>union_9</title>
<ellipse fill="#ccdf32" stroke="#ffffff" cx="792.5" cy="-578" rx="3.5" ry="3.5"/>
</g>
<!-- Thessaly&#45;&gt;union_9 -->
<g id="edge49" class="edge">
<title>Thessaly&#45;&gt;union_9</title>
<path fill="none" stroke="#ccdf32" d="M760.2644,-477.3333C778.3914,-477.3333 792,-477.3333 792,-477.3333 792,-477.3333 792,-555.7887 792,-574.1767"/>
</g>
<!-- siblings_6 -->
<g id="node34" class="node">
<title>siblings_6</title>
<polygon fill="#9876aa" stroke="#cccccc" stroke-width="0" points="832,-339.5 825,-339.5 825,-338.5 832,-338.5 832,-339.5"/>
</g>
<!-- union_6&#45;&gt;siblings_6 -->
<g id="edge33" class="edge">
<title>union_6&#45;&gt;siblings_6</title>
<path fill="none" stroke="#9876aa" d="M796.0834,-339C802.9128,-339 817.7324,-339 824.7154,-339"/>
</g>
<!-- Rogelio -->
<g id="node33" class="node">
<title>Rogelio</title>
<g id="a_node33"><a xlink:title="&#10;&#10;">
<polygon fill="#36393f" stroke="#ff0000" stroke-width=".25" points="760,-357 580,-357 580,-321 760,-321 760,-357"/>
<text text-anchor="middle" x="670" y="-334.8" font-family="Helvetica, Arial, sans-serif" font-size="14.00" fill="#ffffff">☠</text>
</a>
</g>
</g>
<!-- Rogelio&#45;&gt;union_6 -->
<g id="edge32" class="edge">
<title>Rogelio&#45;&gt;union_6</title>
<path fill="none" stroke="#9876aa" d="M760.3146,-339C772.9376,-339 783.4166,-339 788.7333,-339"/>
</g>
<!-- Degare -->
<g id="node35" class="node">
<title>Degare</title>
<g id="a_node35"><a xlink:title="&#10;&#10;">
<polygon fill="#36393f" stroke="#cccccc" points="1041,-394 861,-394 861,-352 1041,-352 1041,-394"/>
<text text-anchor="start" x="928.5512" y="-375.4" font-family="Helvetica, Arial, sans-serif" font-size="14.00" fill="#ffffff">Degare</text>
<text text-anchor="start" x="918.7165" y="-361" font-family="Helvetica, Arial, sans-serif" font-size="10.00" fill="#aaaaaa">Degare Durant</text>
</a>
</g>
</g>
<!-- siblings_6&#45;&gt;Degare -->
<g id="edge34" class="edge">
<title>siblings_6&#45;&gt;Degare</title>
<path fill="none" stroke="#9876aa" d="M829,-339.9023C829,-345.5229 829,-375.5 829,-375.5 829,-375.5 850.7356,-375.5 850.7356,-375.5"/>
<polygon fill="#9876aa" stroke="#9876aa" points="858.7355,-365.5 858.7357,-385.5 854.7357,-385.5001 854.7355,-365.5001 858.7355,-365.5"/>
<polyline fill="none" stroke="#9876aa" points="860.7356,-375.5 850.7356,-375.5001 "/>
</g>
<!-- Dyson -->
<g id="node36" class="node">
<title>Dyson</title>
<g id="a_node36"><a xlink:title="&#10;&#10;">
<polygon fill="#36393f" stroke="#cccccc" points="1041,-334 861,-334 861,-292 1041,-292 1041,-334"/>
<text text-anchor="start" x="931.1641" y="-315.4" font-family="Helvetica, Arial, sans-serif" font-size="14.00" fill="#ffffff">Dyson</text>
<text text-anchor="start" x="911.831" y="-301" font-family="Helvetica, Arial, sans-serif" font-size="10.00" fill="#aaaaaa">Dyson McFarland</text>
</a>
</g>
</g>
<!-- siblings_6&#45;&gt;Dyson -->
<g id="edge35" class="edge">
<title>siblings_6&#45;&gt;Dyson</title>
<path fill="none" stroke="#9876aa" d="M830,-338.2455C830,-335.687 830,-327.5 830,-327.5 830,-327.5 850.8465,-327.5 850.8465,-327.5"/>
<polygon fill="#9876aa" stroke="#9876aa" points="858.8464,-317.5 858.8466,-337.5 854.8466,-337.5001 854.8464,-317.5001 858.8464,-317.5"/>
<polyline fill="none" stroke="#9876aa" points="860.8465,-327.5 850.8465,-327.5001 "/>
</g>
<!-- Lyla -->
<g id="node37" class="node">
<title>Lyla</title>
<polygon fill="#36393f" stroke="#cccccc" points="1041,-274 861,-274 861,-238 1041,-238 1041,-274"/>
<text text-anchor="middle" x="951" y="-251.8" font-family="Helvetica, Arial, sans-serif" font-size="14.00" fill="#ffffff">Lyla</text>
</g>
<!-- siblings_6&#45;&gt;Lyla -->
<g id="edge36" class="edge">
<title>siblings_6&#45;&gt;Lyla</title>
<path fill="none" stroke="#9876aa" d="M828,-338.47C828,-331.4011 828,-256 828,-256 828,-256 850.9617,-256 850.9617,-256"/>
<polygon fill="#9876aa" stroke="#9876aa" points="858.9616,-246 858.9618,-266 854.9618,-266.0001 854.9616,-246.0001 858.9616,-246"/>
<polyline fill="none" stroke="#9876aa" points="860.9617,-256 850.9617,-256.0001 "/>
</g>
<!-- union_7 -->
<g id="node38" class="node">
<title>union_7</title>
<ellipse fill="#efc090" stroke="#ffffff" cx="1073.5" cy="-430" rx="3.5" ry="3.5"/>
</g>
<!-- Degare&#45;&gt;union_7 -->
<g id="edge37" class="edge">
<title>Degare&#45;&gt;union_7</title>
<path fill="none" stroke="#efc090" d="M1041.1165,-373C1060.3477,-373 1075,-373 1075,-373 1075,-373 1075,-414.334 1075,-426.6051"/>
</g>
<!-- union_8 -->
<g id="node43" class="node">
<title>union_8</title>
<ellipse fill="#d25252" stroke="#ffffff" cx="1073.5" cy="-149" rx="3.5" ry="3.5"/>
</g>
<!-- Dyson&#45;&gt;union_8 -->
<g id="edge42" class="edge">
<title>Dyson&#45;&gt;union_8</title>
<path fill="none" stroke="#d25252" d="M1041.2644,-313C1059.3914,-313 1073,-313 1073,-313 1073,-313 1073,-177.145 1073,-152.7335"/>
</g>
<!-- siblings_7 -->
<g id="node40" class="node">
<title>siblings_7</title>
<polygon fill="#efc090" stroke="#cccccc" stroke-width="0" points="1113,-430.5 1106,-430.5 1106,-429.5 1113,-429.5 1113,-430.5"/>
</g>
<!-- union_7&#45;&gt;siblings_7 -->
<g id="edge39" class="edge">
<title>union_7&#45;&gt;siblings_7</title>
<path fill="none" stroke="#efc090" d="M1077.0834,-430C1083.9128,-430 1098.7324,-430 1105.7154,-430"/>
</g>
<!-- Sera -->
<g id="node39" class="node">
<title>Sera</title>
<g id="a_node39"><a xlink:title="&#10;&#10;">
<polygon fill="#36393f" stroke="#cccccc" points="1041,-454 861,-454 861,-412 1041,-412 1041,-454"/>
<text text-anchor="start" x="936.7188" y="-435.4" font-family="Helvetica, Arial, sans-serif" font-size="14.00" fill="#ffffff">Sera</text>
<text text-anchor="start" x="909.538" y="-421" font-family="Helvetica, Arial, sans-serif" font-size="10.00" fill="#aaaaaa">Seraphine Gognon</text>
</a>
</g>
</g>
<!-- Sera&#45;&gt;union_7 -->
<g id="edge38" class="edge">
<title>Sera&#45;&gt;union_7</title>
<path fill="none" stroke="#efc090" d="M1041.3146,-430C1053.9376,-430 1064.4166,-430 1069.7333,-430"/>
</g>
<!-- Michael -->
<g id="node41" class="node">
<title>Michael</title>
<g id="a_node41"><a xlink:title="&#10;&#10;">
<polygon fill="#36393f" stroke="#cccccc" points="1322,-449 1142,-449 1142,-407 1322,-407 1322,-449"/>
<text text-anchor="start" x="1208.3892" y="-430.4" font-family="Helvetica, Arial, sans-serif" font-size="14.00" fill="#ffffff">Michael</text>
<text text-anchor="start" x="1198.8865" y="-416" font-family="Helvetica, Arial, sans-serif" font-size="10.00" fill="#aaaaaa">Michael Durant</text>
</a>
</g>
</g>
<!-- siblings_7&#45;&gt;Michael -->
<g id="edge40" class="edge">
<title>siblings_7&#45;&gt;Michael</title>
<path fill="none" stroke="#efc090" d="M1113.0341,-430C1113.0341,-430 1131.8106,-430 1131.8106,-430"/>
<polygon fill="#efc090" stroke="#efc090" points="1139.8105,-420 1139.8107,-440 1135.8107,-440.0001 1135.8105,-420.0001 1139.8105,-420"/>
<polyline fill="none" stroke="#efc090" points="1141.8106,-430 1131.8106,-430.0001 "/>
</g>
<!-- Lyla II -->
<g id="node42" class="node">
<title>Lyla II</title>
<g id="a_node42"><a xlink:title="&#10;&#10;">
<polygon fill="#36393f" stroke="#cccccc" points="1322,-509 1142,-509 1142,-467 1322,-467 1322,-509"/>
<text text-anchor="start" x="1213.8282" y="-490.4" font-family="Helvetica, Arial, sans-serif" font-size="14.00" fill="#ffffff">Lyla II</text>
<text text-anchor="start" x="1202.7715" y="-476" font-family="Helvetica, Arial, sans-serif" font-size="10.00" fill="#aaaaaa">Lyla II Durant</text>
</a>
</g>
</g>
<!-- siblings_7&#45;&gt;Lyla II -->
<g id="edge41" class="edge">
<title>siblings_7&#45;&gt;Lyla II</title>
<path fill="none" stroke="#efc090" d="M1111,-430.6476C1111,-436.9831 1111,-487.6667 1111,-487.6667 1111,-487.6667 1131.8465,-487.6667 1131.8465,-487.6667"/>
<polygon fill="#efc090" stroke="#efc090" points="1139.8464,-477.6667 1139.8466,-497.6667 1135.8466,-497.6667 1135.8464,-477.6667 1139.8464,-477.6667"/>
<polyline fill="none" stroke="#efc090" points="1141.8465,-487.6667 1131.8465,-487.6668 "/>
</g>
<!-- siblings_8 -->
<g id="node45" class="node">
<title>siblings_8</title>
<polygon fill="#d25252" stroke="#cccccc" stroke-width="0" points="1113,-149.5 1106,-149.5 1106,-148.5 1113,-148.5 1113,-149.5"/>
</g>
<!-- union_8&#45;&gt;siblings_8 -->
<g id="edge44" class="edge">
<title>union_8&#45;&gt;siblings_8</title>
<path fill="none" stroke="#d25252" d="M1077.0834,-149C1083.9128,-149 1098.7324,-149 1105.7154,-149"/>
</g>
<!-- Priscilla -->
<g id="node44" class="node">
<title>Priscilla</title>
<g id="a_node44"><a xlink:title="&#10;&#10;">
<polygon fill="#36393f" stroke="#cccccc" points="1041,-170 861,-170 861,-128 1041,-128 1041,-170"/>
<text text-anchor="start" x="926.8969" y="-151.4" font-family="Helvetica, Arial, sans-serif" font-size="14.00" fill="#ffffff">Priscilla</text>
<text text-anchor="start" x="908.7735" y="-137" font-family="Helvetica, Arial, sans-serif" font-size="10.00" fill="#aaaaaa">Priscilla Blanchette</text>
</a>
</g>
</g>
<!-- Priscilla&#45;&gt;union_8 -->
<g id="edge43" class="edge">
<title>Priscilla&#45;&gt;union_8</title>
<path fill="none" stroke="#d25252" d="M1041.3146,-149C1053.9376,-149 1064.4166,-149 1069.7333,-149"/>
</g>
<!-- Kimberly -->
<g id="node46" class="node">
<title>Kimberly</title>
<g id="a_node46"><a xlink:title="&#10;&#10;">
<polygon fill="#36393f" stroke="#cccccc" points="1322,-170 1142,-170 1142,-128 1322,-128 1322,-170"/>
<text text-anchor="start" x="1204.7819" y="-151.4" font-family="Helvetica, Arial, sans-serif" font-size="14.00" fill="#ffffff">Kimberly</text>
<text text-anchor="start" x="1187.558" y="-137" font-family="Helvetica, Arial, sans-serif" font-size="10.00" fill="#aaaaaa">Kimberly McFarland</text>
</a>
</g>
</g>
<!-- siblings_8&#45;&gt;Kimberly -->
<g id="edge45" class="edge">
<title>siblings_8&#45;&gt;Kimberly</title>
<path fill="none" stroke="#d25252" d="M1113.0341,-149C1113.0341,-149 1131.8106,-149 1131.8106,-149"/>
<polygon fill="#d25252" stroke="#d25252" points="1139.8105,-139 1139.8107,-159 1135.8107,-159.0001 1135.8105,-139.0001 1139.8105,-139"/>
<polyline fill="none" stroke="#d25252" points="1141.8106,-149 1131.8106,-149.0001 "/>
</g>
<!-- Gregory -->
<g id="node47" class="node">
<title>Gregory</title>
<g id="a_node47"><a xlink:title="&#10;&#10;">
<polygon fill="#36393f" stroke="#cccccc" points="1322,-230 1142,-230 1142,-188 1322,-188 1322,-230"/>
<text text-anchor="start" x="1206.7202" y="-211.4" font-family="Helvetica, Arial, sans-serif" font-size="14.00" fill="#ffffff">Gregory</text>
<text text-anchor="start" x="1188.9425" y="-197" font-family="Helvetica, Arial, sans-serif" font-size="10.00" fill="#aaaaaa">Gregory McFarland</text>
</a>
</g>
</g>
<!-- siblings_8&#45;&gt;Gregory -->
<g id="edge46" class="edge">
<title>siblings_8&#45;&gt;Gregory</title>
<path fill="none" stroke="#d25252" d="M1110,-149.6738C1110,-156.2656 1110,-209 1110,-209 1110,-209 1131.7356,-209 1131.7356,-209"/>
<polygon fill="#d25252" stroke="#d25252" points="1139.7355,-199 1139.7357,-219 1135.7357,-219.0001 1135.7355,-199.0001 1139.7355,-199"/>
<polyline fill="none" stroke="#d25252" points="1141.7356,-209 1131.7356,-209.0001 "/>
</g>
<!-- Yenna MF -->
<g id="node48" class="node">
<title>Yenna MF</title>
<g id="a_node48"><a xlink:title="&#10;&#10;">
<polygon fill="#36393f" stroke="#cccccc" points="1322,-50 1142,-50 1142,-8 1322,-8 1322,-50"/>
<text text-anchor="start" x="1211.7665" y="-31.4" font-family="Helvetica, Arial, sans-serif" font-size="14.00" fill="#ffffff">Yenna</text>
<text text-anchor="start" x="1192.547" y="-17" font-family="Helvetica, Arial, sans-serif" font-size="10.00" fill="#aaaaaa">Yenna McFarland</text>
</a>
</g>
</g>
<!-- siblings_8&#45;&gt;Yenna MF -->
<g id="edge47" class="edge">
<title>siblings_8&#45;&gt;Yenna MF</title>
<path fill="none" stroke="#d25252" d="M1109,-148.2337C1109,-138.0137 1109,-29 1109,-29 1109,-29 1131.9617,-29 1131.9617,-29"/>
<polygon fill="#d25252" stroke="#d25252" points="1139.9616,-19 1139.9618,-39 1135.9618,-39.0001 1135.9616,-19.0001 1139.9616,-19"/>
<polyline fill="none" stroke="#d25252" points="1141.9617,-29 1131.9617,-29.0001 "/>
</g>
<!-- Marion -->
<g id="node49" class="node">
<title>Marion</title>
<g id="a_node49"><a xlink:title="&#10;&#10;">
<polygon fill="#36393f" stroke="#cccccc" points="1322,-110 1142,-110 1142,-68 1322,-68 1322,-110"/>
<text text-anchor="start" x="1210.6122" y="-91.4" font-family="Helvetica, Arial, sans-serif" font-size="14.00" fill="#ffffff">Marion</text>
<text text-anchor="start" x="1191.7225" y="-77" font-family="Helvetica, Arial, sans-serif" font-size="10.00" fill="#aaaaaa">Marion McFarland</text>
</a>
</g>
</g>
<!-- siblings_8&#45;&gt;Marion -->
<g id="edge48" class="edge">
<title>siblings_8&#45;&gt;Marion</title>
<path fill="none" stroke="#d25252" d="M1111,-148.3262C1111,-141.7344 1111,-89 1111,-89 1111,-89 1131.8465,-89 1131.8465,-89"/>
<polygon fill="#d25252" stroke="#d25252" points="1139.8464,-79 1139.8466,-99 1135.8466,-99.0001 1135.8464,-79.0001 1139.8464,-79"/>
<polyline fill="none" stroke="#d25252" points="1141.8465,-89 1131.8465,-89.0001 "/>
</g>
<!-- siblings_9 -->
<g id="node52" class="node">
<title>siblings_9</title>
<polygon fill="#ccdf32" stroke="#cccccc" stroke-width="0" points="832,-578.5 825,-578.5 825,-577.5 832,-577.5 832,-578.5"/>
</g>
<!-- union_9&#45;&gt;siblings_9 -->
<g id="edge51" class="edge">
<title>union_9&#45;&gt;siblings_9</title>
<path fill="none" stroke="#ccdf32" d="M796.0834,-578C802.9128,-578 817.7324,-578 824.7154,-578"/>
</g>
<!-- Juliette -->
<g id="node51" class="node">
<title>Juliette</title>
<g id="a_node51"><a xlink:title="&#10;&#10;">
<polygon fill="#36393f" stroke="#cccccc" points="760,-599 580,-599 580,-557 760,-557 760,-599"/>
<text text-anchor="start" x="648.3289" y="-580.4" font-family="Helvetica, Arial, sans-serif" font-size="14.00" fill="#ffffff">Juliette</text>
<text text-anchor="start" x="636.8875" y="-566" font-family="Helvetica, Arial, sans-serif" font-size="10.00" fill="#aaaaaa">Juliette Sinclair</text>
</a>
</g>
</g>
<!-- Juliette&#45;&gt;union_9 -->
<g id="edge50" class="edge">
<title>Juliette&#45;&gt;union_9</title>
<path fill="none" stroke="#ccdf32" d="M760.3146,-578C772.9376,-578 783.4166,-578 788.7333,-578"/>
</g>
<!-- Thorid -->
<g id="node53" class="node">
<title>Thorid</title>
<g id="a_node53"><a xlink:title="&#10;&#10;">
<polygon fill="#36393f" stroke="#cccccc" points="1041,-599 861,-599 861,-557 1041,-557 1041,-599"/>
<text text-anchor="start" x="931.1662" y="-580.4" font-family="Helvetica, Arial, sans-serif" font-size="14.00" fill="#ffffff">Thorid</text>
<text text-anchor="start" x="911.8325" y="-566" font-family="Helvetica, Arial, sans-serif" font-size="10.00" fill="#aaaaaa">Thorid McFarland</text>
</a>
</g>
</g>
<!-- siblings_9&#45;&gt;Thorid -->
<g id="edge52" class="edge">
<title>siblings_9&#45;&gt;Thorid</title>
<path fill="none" stroke="#ccdf32" stroke-dasharray="5,2" d="M832.0341,-578C832.0341,-578 850.8106,-578 850.8106,-578"/>
<polygon fill="#ccdf32" stroke="#ccdf32" points="858.8105,-568 858.8107,-588 854.8107,-588.0001 854.8105,-568.0001 858.8105,-568"/>
<polyline fill="none" stroke="#ccdf32" points="860.8106,-578 850.8106,-578.0001 "/>
</g>
<!-- Emilia -->
<g id="node54" class="node">
<title>Emilia</title>
<g id="a_node54"><a xlink:title="&#10;&#10;">
<polygon fill="#36393f" stroke="#cccccc" points="1041,-659 861,-659 861,-617 1041,-617 1041,-659"/>
<text text-anchor="start" x="932.4502" y="-640.4" font-family="Helvetica, Arial, sans-serif" font-size="14.00" fill="#ffffff">Emilia</text>
<text text-anchor="start" x="912.8925" y="-626" font-family="Helvetica, Arial, sans-serif" font-size="10.00" fill="#aaaaaa">Emilia McFarland</text>
</a>
</g>
</g>
<!-- siblings_9&#45;&gt;Emilia -->
<g id="edge53" class="edge">
<title>siblings_9&#45;&gt;Emilia</title>
<path fill="none" stroke="#ccdf32" stroke-dasharray="5,2" d="M829,-578.511C829,-583.5098 829,-623.5 829,-623.5 829,-623.5 850.7356,-623.5 850.7356,-623.5"/>
<polygon fill="#ccdf32" stroke="#ccdf32" points="858.7355,-613.5 858.7357,-633.5 854.7357,-633.5001 854.7355,-613.5001 858.7355,-613.5"/>
<polyline fill="none" stroke="#ccdf32" points="860.7356,-623.5 850.7356,-623.5001 "/>
</g>
<!-- Thorid&#45;&gt;union_10 -->
<g id="edge55" class="edge">
<title>Thorid&#45;&gt;union_10</title>
<path fill="none" stroke="#629755" d="M1041.0383,-585C1059.7943,-585 1074,-585 1074,-585 1074,-585 1074,-605.9553 1074,-614.4684"/>
</g>
<!-- siblings_10 -->
<g id="node56" class="node">
<title>siblings_10</title>
<polygon fill="#629755" stroke="#cccccc" stroke-width="0" points="1113,-618.5 1106,-618.5 1106,-617.5 1113,-617.5 1113,-618.5"/>
</g>
<!-- union_10&#45;&gt;siblings_10 -->
<g id="edge56" class="edge">
<title>union_10&#45;&gt;siblings_10</title>
<path fill="none" stroke="#629755" d="M1077.0834,-618C1083.9128,-618 1098.7324,-618 1105.7154,-618"/>
</g>
<!-- Farrah -->
<g id="node57" class="node">
<title>Farrah</title>
<g id="a_node57"><a xlink:title="&#10;&#10;">
<polygon fill="#36393f" stroke="#cccccc" points="1322,-696 1142,-696 1142,-654 1322,-654 1322,-696"/>
<text text-anchor="start" x="1211.8892" y="-677.4" font-family="Helvetica, Arial, sans-serif" font-size="14.00" fill="#ffffff">Farrah</text>
<text text-anchor="start" x="1192.7775" y="-663" font-family="Helvetica, Arial, sans-serif" font-size="10.00" fill="#aaaaaa">Farrah McFarland</text>
</a>
</g>
</g>
<!-- siblings_10&#45;&gt;Farrah -->
<g id="edge57" class="edge">
<title>siblings_10&#45;&gt;Farrah</title>
<path fill="none" stroke="#629755" d="M1111,-618.5129C1111,-623.5299 1111,-663.6667 1111,-663.6667 1111,-663.6667 1131.8465,-663.6667 1131.8465,-663.6667"/>
<polygon fill="#629755" stroke="#629755" points="1139.8464,-653.6667 1139.8466,-673.6667 1135.8466,-673.6667 1135.8464,-653.6667 1139.8464,-653.6667"/>
<polyline fill="none" stroke="#629755" points="1141.8465,-663.6667 1131.8465,-663.6668 "/>
</g>
<!-- Malcolm -->
<g id="node58" class="node">
<title>Malcolm</title>
<g id="a_node58"><a xlink:title="&#10;&#10;">
<polygon fill="#36393f" stroke="#cccccc" points="1322,-756 1142,-756 1142,-714 1322,-714 1322,-756"/>
<text text-anchor="start" x="1206.4502" y="-737.4" font-family="Helvetica, Arial, sans-serif" font-size="14.00" fill="#ffffff">Malcolm</text>
<text text-anchor="start" x="1188.8925" y="-723" font-family="Helvetica, Arial, sans-serif" font-size="10.00" fill="#aaaaaa">Malcolm McFarland</text>
</a>
</g>
</g>
<!-- siblings_10&#45;&gt;Malcolm -->
<g id="edge58" class="edge">
<title>siblings_10&#45;&gt;Malcolm</title>
<path fill="none" stroke="#629755" d="M1109,-618.6961C1109,-627.9792 1109,-727 1109,-727 1109,-727 1131.9617,-727 1131.9617,-727"/>
<polygon fill="#629755" stroke="#629755" points="1139.9616,-717 1139.9618,-737 1135.9618,-737.0001 1135.9616,-717.0001 1139.9616,-717"/>
<polyline fill="none" stroke="#629755" points="1141.9617,-727 1131.9617,-727.0001 "/>
</g>
<!-- Jacob -->
<g id="node59" class="node">
<title>Jacob</title>
<g id="a_node59"><a xlink:title="&#10;&#10;">
<polygon fill="#36393f" stroke="#cccccc" points="1322,-576 1142,-576 1142,-534 1322,-534 1322,-576"/>
<text text-anchor="start" x="1213.3261" y="-557.4" font-family="Helvetica, Arial, sans-serif" font-size="14.00" fill="#ffffff">Jacob</text>
<text text-anchor="start" x="1193.661" y="-543" font-family="Helvetica, Arial, sans-serif" font-size="10.00" fill="#aaaaaa">Jacob McFarland</text>
</a>
</g>
</g>
<!-- siblings_10&#45;&gt;Jacob -->
<g id="edge59" class="edge">
<title>siblings_10&#45;&gt;Jacob</title>
<path fill="none" stroke="#629755" d="M1109,-617.4216C1109,-611.7637 1109,-566.5 1109,-566.5 1109,-566.5 1131.9617,-566.5 1131.9617,-566.5"/>
<polygon fill="#629755" stroke="#629755" points="1139.9616,-556.5 1139.9618,-576.5 1135.9618,-576.5001 1135.9616,-556.5001 1139.9616,-556.5"/>
<polyline fill="none" stroke="#629755" points="1141.9617,-566.5 1131.9617,-566.5001 "/>
</g>
<!-- Delilah -->
<g id="node60" class="node">
<title>Delilah</title>
<g id="a_node60"><a xlink:title="&#10;&#10;">
<polygon fill="#36393f" stroke="#cccccc" points="1322,-636 1142,-636 1142,-594 1322,-594 1322,-636"/>
<text text-anchor="start" x="1210.6129" y="-617.4" font-family="Helvetica, Arial, sans-serif" font-size="14.00" fill="#ffffff">Delilah</text>
<text text-anchor="start" x="1191.723" y="-603" font-family="Helvetica, Arial, sans-serif" font-size="10.00" fill="#aaaaaa">Delilah McFarland</text>
</a>
</g>
</g>
<!-- siblings_10&#45;&gt;Delilah -->
<g id="edge60" class="edge">
<title>siblings_10&#45;&gt;Delilah</title>
<path fill="none" stroke="#629755" d="M1113.0341,-618C1113.0341,-618 1131.8106,-618 1131.8106,-618"/>
<polygon fill="#629755" stroke="#629755" points="1139.8105,-608 1139.8107,-628 1135.8107,-628.0001 1135.8105,-608.0001 1139.8105,-608"/>
<polyline fill="none" stroke="#629755" points="1141.8106,-618 1131.8106,-618.0001 "/>
</g>
</g>
</svg>
