<?xml version="1.0" encoding="UTF-8" standalone="no"?>
<!DOCTYPE svg PUBLIC "-//W3C//DTD SVG 1.1//EN"
 "http://www.w3.org/Graphics/SVG/1.1/DTD/svg11.dtd">
<!-- Generated by graphviz version 2.40.1 (20161225.0304)
 -->
<!-- Title: G Pages: 1 -->
<svg width="1338pt" height="1043pt"
 viewBox="0.00 0.00 1338.00 1043.00" xmlns="http://www.w3.org/2000/svg" xmlns:xlink="http://www.w3.org/1999/xlink">
<g id="graph0" class="graph" transform="scale(1 1) rotate(0) translate(4 1039)">
<title>G</title>
<polygon fill="#23272a" stroke="transparent" points="-4,4 -4,-1039 1334,-1039 1334,4 -4,4"/>
<g id="clust1" class="cluster">
<title>cluster_family_0</title>
<polygon fill="#2c2f33" stroke="#2c2f33" points="8,-596 8,-805 489,-805 489,-596 8,-596"/>
<text text-anchor="start" x="16" y="-787.6" font-family="Helvetica, Arial, sans-serif" font-weight="bold" font-size="16.00" fill="#ffffff">McFarland</text>
</g>
<g id="clust4" class="cluster">
<title>cluster_family_1</title>
</g>
<g id="clust7" class="cluster">
<title>cluster_family_2</title>
</g>
<g id="clust10" class="cluster">
<title>cluster_family_3</title>
</g>
<g id="clust13" class="cluster">
<title>cluster_family_4</title>
</g>
<g id="clust16" class="cluster">
<title>cluster_family_5</title>
</g>
<g id="clust19" class="cluster">
<title>cluster_family_6</title>
</g>
<g id="clust22" class="cluster">
<title>cluster_family_7</title>
</g>
<g id="clust25" class="cluster">
<title>cluster_family_8</title>
</g>
<g id="clust27" class="cluster">
<title>cluster_family_9</title>
</g>
<g id="clust30" class="cluster">
<title>cluster_family_10</title>
</g>
<g id="clust33" class="cluster">
<title>cluster_family_11</title>
</g>
<!-- union_0 -->
<g id="node1" class="node">
<title>union_0</title>
<ellipse fill="#d25252" stroke="#ffffff" cx="230.5" cy="-687" rx="3.5" ry="3.5"/>
</g>
<!-- siblings_0 -->
<g id="node4" class="node">
<title>siblings_0</title>
<polygon fill="#d25252" stroke="#cccccc" stroke-width="0" points="270,-687.5 263,-687.5 263,-686.5 270,-686.5 270,-687.5"/>
</g>
<!-- union_0&#45;&gt;siblings_0 -->
<g id="edge3" class="edge">
<title>union_0&#45;&gt;siblings_0</title>
<path fill="none" stroke="#d25252" d="M234.0834,-687C240.9128,-687 255.7324,-687 262.7154,-687"/>
</g>
<!-- Valerian -->
<g id="node2" class="node">
<title>Valerian</title>
<g id="a_node2"><a xlink:title="undefined &#10;&#10;&#10;&#10;">
<polygon fill="#36393f" stroke="#ff0000" stroke-width=".25" points="198,-738 18,-738 18,-696 198,-696 198,-738"/>
<text text-anchor="start" x="82.3296" y="-719.4" font-family="Helvetica, Arial, sans-serif" font-size="14.00" fill="#ffffff">Valerian</text>
<text text-anchor="start" x="64.6635" y="-705" font-family="Helvetica, Arial, sans-serif" font-size="10.00" fill="#aaaaaa">Valerian McFarland</text>
</a>
</g>
</g>
<!-- Valerian&#45;&gt;union_0 -->
<g id="edge1" class="edge">
<title>Valerian&#45;&gt;union_0</title>
<path fill="none" stroke="#d25252" d="M198.0383,-702C216.7943,-702 231,-702 231,-702 231,-702 231,-694.9102 231,-690.479"/>
</g>
<!-- Luwan -->
<g id="node3" class="node">
<title>Luwan</title>
<g id="a_node3"><a xlink:title="undefined &#10;&#10;&#10;&#10;">
<polygon fill="#36393f" stroke="#ff0000" stroke-width=".25" points="198,-678 18,-678 18,-636 198,-636 198,-678"/>
<text text-anchor="start" x="87.8815" y="-659.4" font-family="Helvetica, Arial, sans-serif" font-size="14.00" fill="#ffffff">Luwan</text>
<text text-anchor="start" x="71.821" y="-645" font-family="Helvetica, Arial, sans-serif" font-size="10.00" fill="#aaaaaa">Luwan MacLeod</text>
</a>
</g>
</g>
<!-- Luwan&#45;&gt;union_0 -->
<g id="edge2" class="edge">
<title>Luwan&#45;&gt;union_0</title>
<path fill="none" stroke="#d25252" d="M198.0383,-672C216.7943,-672 231,-672 231,-672 231,-672 231,-679.0898 231,-683.521"/>
</g>
<!-- Caleb -->
<g id="node5" class="node">
<title>Caleb</title>
<g id="a_node5"><a xlink:title="undefined &#10;&#10;&#10;&#10;">
<polygon fill="#36393f" stroke="#ff0000" stroke-width=".25" points="479,-768 299,-768 299,-726 479,-726 479,-768"/>
<text text-anchor="start" x="370.7195" y="-749.4" font-family="Helvetica, Arial, sans-serif" font-size="14.00" fill="#ffffff">Caleb</text>
<text text-anchor="start" x="350.942" y="-735" font-family="Helvetica, Arial, sans-serif" font-size="10.00" fill="#aaaaaa">Caleb McFarland</text>
</a>
</g>
</g>
<!-- siblings_0&#45;&gt;Caleb -->
<g id="edge4" class="edge">
<title>siblings_0&#45;&gt;Caleb</title>
<path fill="none" stroke="#d25252" d="M267,-687.5054C267,-692.4492 267,-732 267,-732 267,-732 288.7356,-732 288.7356,-732"/>
<polygon fill="#d25252" stroke="#d25252" points="296.7355,-722 296.7357,-742 292.7357,-742.0001 292.7355,-722.0001 296.7355,-722"/>
<polyline fill="none" stroke="#d25252" points="298.7356,-732 288.7356,-732.0001 "/>
</g>
<!-- Castilla -->
<g id="node6" class="node">
<title>Castilla</title>
<g id="a_node6"><a xlink:title="undefined &#10;&#10;&#10;&#10;">
<polygon fill="#36393f" stroke="#ff0000" stroke-width=".25" points="479,-648 299,-648 299,-606 479,-606 479,-648"/>
<text text-anchor="start" x="366.0589" y="-629.4" font-family="Helvetica, Arial, sans-serif" font-size="14.00" fill="#ffffff">Castilla</text>
<text text-anchor="start" x="347.613" y="-615" font-family="Helvetica, Arial, sans-serif" font-size="10.00" fill="#aaaaaa">Castilla McFarland</text>
</a>
</g>
</g>
<!-- siblings_0&#45;&gt;Castilla -->
<g id="edge5" class="edge">
<title>siblings_0&#45;&gt;Castilla</title>
<path fill="none" stroke="#d25252" d="M267,-686.4946C267,-681.5508 267,-642 267,-642 267,-642 288.7356,-642 288.7356,-642"/>
<polygon fill="#d25252" stroke="#d25252" points="296.7355,-632 296.7357,-652 292.7357,-652.0001 292.7355,-632.0001 296.7355,-632"/>
<polyline fill="none" stroke="#d25252" points="298.7356,-642 288.7356,-642.0001 "/>
</g>
<!-- Cabot -->
<g id="node7" class="node">
<title>Cabot</title>
<g id="a_node7"><a xlink:title="undefined &#10;&#10;&#10;&#10;">
<polygon fill="#36393f" stroke="#cccccc" points="479,-708 299,-708 299,-666 479,-666 479,-708"/>
<text text-anchor="start" x="370.3275" y="-689.4" font-family="Helvetica, Arial, sans-serif" font-size="14.00" fill="#ffffff">Cabot</text>
<text text-anchor="start" x="350.662" y="-675" font-family="Helvetica, Arial, sans-serif" font-size="10.00" fill="#aaaaaa">Cabot McFarland</text>
</a>
</g>
</g>
<!-- siblings_0&#45;&gt;Cabot -->
<g id="edge6" class="edge">
<title>siblings_0&#45;&gt;Cabot</title>
<path fill="none" stroke="#d25252" d="M270.0341,-687C270.0341,-687 288.8106,-687 288.8106,-687"/>
<polygon fill="#d25252" stroke="#d25252" points="296.8105,-677 296.8107,-697 292.8107,-697.0001 292.8105,-677.0001 296.8105,-677"/>
<polyline fill="none" stroke="#d25252" points="298.8106,-687 288.8106,-687.0001 "/>
</g>
<!-- union_1 -->
<g id="node8" class="node">
<title>union_1</title>
<ellipse fill="#ccdf32" stroke="#ffffff" cx="511.5" cy="-836" rx="3.5" ry="3.5"/>
</g>
<!-- Caleb&#45;&gt;union_1 -->
<g id="edge7" class="edge">
<title>Caleb&#45;&gt;union_1</title>
<path fill="none" stroke="#ccdf32" d="M479.1165,-754C498.3477,-754 513,-754 513,-754 513,-754 513,-816.7813 513,-832.4766"/>
</g>
<!-- union_4 -->
<g id="node21" class="node">
<title>union_4</title>
<ellipse fill="#6897bb" stroke="#ffffff" cx="511.5" cy="-235" rx="3.5" ry="3.5"/>
</g>
<!-- Castilla&#45;&gt;union_4 -->
<g id="edge20" class="edge">
<title>Castilla&#45;&gt;union_4</title>
<path fill="none" stroke="#6897bb" d="M479.4002,-616C488.2322,-616 494,-616 494,-616 494,-616 494,-236.1667 494,-236.1667 494,-236.1667 503.0405,-236.1667 508.1258,-236.1667"/>
</g>
<!-- union_5 -->
<g id="node27" class="node">
<title>union_5</title>
<ellipse fill="#bbb529" stroke="#ffffff" cx="511.5" cy="-566" rx="3.5" ry="3.5"/>
</g>
<!-- Cabot&#45;&gt;union_5 -->
<g id="edge26" class="edge">
<title>Cabot&#45;&gt;union_5</title>
<path fill="none" stroke="#bbb529" d="M479.2644,-679.5C497.3914,-679.5 511,-679.5 511,-679.5 511,-679.5 511,-588.6789 511,-569.5213"/>
</g>
<!-- siblings_1 -->
<g id="node10" class="node">
<title>siblings_1</title>
<polygon fill="#ccdf32" stroke="#cccccc" stroke-width="0" points="551,-836.5 544,-836.5 544,-835.5 551,-835.5 551,-836.5"/>
</g>
<!-- union_1&#45;&gt;siblings_1 -->
<g id="edge9" class="edge">
<title>union_1&#45;&gt;siblings_1</title>
<path fill="none" stroke="#ccdf32" d="M515.0834,-836C521.9128,-836 536.7324,-836 543.7154,-836"/>
</g>
<!-- Genevieve -->
<g id="node9" class="node">
<title>Genevieve</title>
<g id="a_node9"><a xlink:title="undefined &#10;&#10;&#10;&#10;">
<polygon fill="#36393f" stroke="#ff0000" stroke-width=".25" points="479,-857 299,-857 299,-815 479,-815 479,-857"/>
<text text-anchor="start" x="356.0449" y="-838.4" font-family="Helvetica, Arial, sans-serif" font-size="14.00" fill="#ffffff">Genevieve</text>
<text text-anchor="start" x="345.597" y="-824" font-family="Helvetica, Arial, sans-serif" font-size="10.00" fill="#aaaaaa">Genevieve Boucher</text>
</a>
</g>
</g>
<!-- Genevieve&#45;&gt;union_1 -->
<g id="edge8" class="edge">
<title>Genevieve&#45;&gt;union_1</title>
<path fill="none" stroke="#ccdf32" d="M479.3146,-836C491.9376,-836 502.4166,-836 507.7333,-836"/>
</g>
<!-- Talsin -->
<g id="node11" class="node">
<title>Talsin</title>
<g id="a_node11"><a xlink:title="undefined &#10;&#10;&#10;&#10;">
<polygon fill="#36393f" stroke="#cccccc" points="760,-857 580,-857 580,-815 760,-815 760,-857"/>
<text text-anchor="start" x="651.3345" y="-838.4" font-family="Helvetica, Arial, sans-serif" font-size="14.00" fill="#ffffff">Talsin</text>
<text text-anchor="start" x="631.667" y="-824" font-family="Helvetica, Arial, sans-serif" font-size="10.00" fill="#aaaaaa">Talsin McFarland</text>
</a>
</g>
</g>
<!-- siblings_1&#45;&gt;Talsin -->
<g id="edge10" class="edge">
<title>siblings_1&#45;&gt;Talsin</title>
<path fill="none" stroke="#ccdf32" d="M551.0341,-836C551.0341,-836 569.8106,-836 569.8106,-836"/>
<polygon fill="#ccdf32" stroke="#ccdf32" points="577.8105,-826 577.8107,-846 573.8107,-846.0001 573.8105,-826.0001 577.8105,-826"/>
<polyline fill="none" stroke="#ccdf32" points="579.8106,-836 569.8106,-836.0001 "/>
</g>
<!-- union_2 -->
<g id="node12" class="node">
<title>union_2</title>
<ellipse fill="#629755" stroke="#ffffff" cx="792.5" cy="-891" rx="3.5" ry="3.5"/>
</g>
<!-- Talsin&#45;&gt;union_2 -->
<g id="edge11" class="edge">
<title>Talsin&#45;&gt;union_2</title>
<path fill="none" stroke="#629755" d="M760.0383,-851C778.7943,-851 793,-851 793,-851 793,-851 793,-877.4063 793,-887.3086"/>
</g>
<!-- siblings_2 -->
<g id="node14" class="node">
<title>siblings_2</title>
<polygon fill="#629755" stroke="#cccccc" stroke-width="0" points="832,-891.5 825,-891.5 825,-890.5 832,-890.5 832,-891.5"/>
</g>
<!-- union_2&#45;&gt;siblings_2 -->
<g id="edge13" class="edge">
<title>union_2&#45;&gt;siblings_2</title>
<path fill="none" stroke="#629755" d="M796.0834,-891C802.9128,-891 817.7324,-891 824.7154,-891"/>
</g>
<!-- Elaine -->
<g id="node13" class="node">
<title>Elaine</title>
<g id="a_node13"><a xlink:title="undefined &#10;&#10;&#10;&#10;">
<polygon fill="#36393f" stroke="#cccccc" points="760,-917 580,-917 580,-875 760,-875 760,-917"/>
<text text-anchor="start" x="650.5512" y="-898.4" font-family="Helvetica, Arial, sans-serif" font-size="14.00" fill="#ffffff">Elaine</text>
<text text-anchor="start" x="633.597" y="-884" font-family="Helvetica, Arial, sans-serif" font-size="10.00" fill="#aaaaaa">Elaine Bentayga</text>
</a>
</g>
</g>
<!-- Elaine&#45;&gt;union_2 -->
<g id="edge12" class="edge">
<title>Elaine&#45;&gt;union_2</title>
<path fill="none" stroke="#629755" d="M760.3146,-891C772.9376,-891 783.4166,-891 788.7333,-891"/>
</g>
<!-- Brian -->
<g id="node15" class="node">
<title>Brian</title>
<g id="a_node15"><a xlink:title="undefined &#10;&#10;&#10;&#10;">
<polygon fill="#36393f" stroke="#cccccc" points="1041,-967 861,-967 861,-925 1041,-925 1041,-967"/>
<text text-anchor="start" x="935.1655" y="-948.4" font-family="Helvetica, Arial, sans-serif" font-size="14.00" fill="#ffffff">Brian</text>
<text text-anchor="start" x="914.832" y="-934" font-family="Helvetica, Arial, sans-serif" font-size="10.00" fill="#aaaaaa">Brian McFarland</text>
</a>
</g>
</g>
<!-- siblings_2&#45;&gt;Brian -->
<g id="edge14" class="edge">
<title>siblings_2&#45;&gt;Brian</title>
<path fill="none" stroke="#629755" d="M829,-891.6177C829,-897.6602 829,-946 829,-946 829,-946 850.7356,-946 850.7356,-946"/>
<polygon fill="#629755" stroke="#629755" points="858.7355,-936 858.7357,-956 854.7357,-956.0001 854.7355,-936.0001 858.7355,-936"/>
<polyline fill="none" stroke="#629755" points="860.7356,-946 850.7356,-946.0001 "/>
</g>
<!-- Llora -->
<g id="node16" class="node">
<title>Llora</title>
<g id="a_node16"><a xlink:title="undefined &#10;&#10;&#10;&#10;">
<polygon fill="#36393f" stroke="#cccccc" points="1041,-907 861,-907 861,-865 1041,-865 1041,-907"/>
<text text-anchor="start" x="935.4425" y="-888.4" font-family="Helvetica, Arial, sans-serif" font-size="14.00" fill="#ffffff">Llora</text>
<text text-anchor="start" x="914.887" y="-874" font-family="Helvetica, Arial, sans-serif" font-size="10.00" fill="#aaaaaa">Llora McFarland</text>
</a>
</g>
</g>
<!-- siblings_2&#45;&gt;Llora -->
<g id="edge15" class="edge">
<title>siblings_2&#45;&gt;Llora</title>
<path fill="none" stroke="#629755" d="M832.0341,-891C832.0341,-891 850.8106,-891 850.8106,-891"/>
<polygon fill="#629755" stroke="#629755" points="858.8105,-881 858.8107,-901 854.8107,-901.0001 854.8105,-881.0001 858.8105,-881"/>
<polyline fill="none" stroke="#629755" points="860.8106,-891 850.8106,-891.0001 "/>
</g>
<!-- union_3 -->
<g id="node17" class="node">
<title>union_3</title>
<ellipse fill="#cc7832" stroke="#ffffff" cx="1073.5" cy="-1006" rx="3.5" ry="3.5"/>
</g>
<!-- Brian&#45;&gt;union_3 -->
<g id="edge16" class="edge">
<title>Brian&#45;&gt;union_3</title>
<path fill="none" stroke="#cc7832" d="M1041.2644,-958.5C1059.3914,-958.5 1073,-958.5 1073,-958.5 1073,-958.5 1073,-991.0751 1073,-1002.2728"/>
</g>
<!-- union_11 -->
<g id="node57" class="node">
<title>union_11</title>
<ellipse fill="#cc7832" stroke="#ffffff" cx="1073.5" cy="-839" rx="3.5" ry="3.5"/>
</g>
<!-- Llora&#45;&gt;union_11 -->
<g id="edge56" class="edge">
<title>Llora&#45;&gt;union_11</title>
<path fill="none" stroke="#cc7832" d="M1041.1165,-877.5C1060.3477,-877.5 1075,-877.5 1075,-877.5 1075,-877.5 1075,-852.084 1075,-842.553"/>
</g>
<!-- siblings_3 -->
<g id="node19" class="node">
<title>siblings_3</title>
<polygon fill="#cc7832" stroke="#cccccc" stroke-width="0" points="1113,-1006.5 1106,-1006.5 1106,-1005.5 1113,-1005.5 1113,-1006.5"/>
</g>
<!-- union_3&#45;&gt;siblings_3 -->
<g id="edge18" class="edge">
<title>union_3&#45;&gt;siblings_3</title>
<path fill="none" stroke="#cc7832" d="M1077.0834,-1006C1083.9128,-1006 1098.7324,-1006 1105.7154,-1006"/>
</g>
<!-- Selene -->
<g id="node18" class="node">
<title>Selene</title>
<g id="a_node18"><a xlink:title="undefined &#10;&#10;&#10;&#10;">
<polygon fill="#36393f" stroke="#cccccc" points="1041,-1027 861,-1027 861,-985 1041,-985 1041,-1027"/>
<text text-anchor="start" x="929.2132" y="-1008.4" font-family="Helvetica, Arial, sans-serif" font-size="14.00" fill="#ffffff">Selene</text>
<text text-anchor="start" x="912.927" y="-994" font-family="Helvetica, Arial, sans-serif" font-size="10.00" fill="#aaaaaa">Selene Bentayga</text>
</a>
</g>
</g>
<!-- Selene&#45;&gt;union_3 -->
<g id="edge17" class="edge">
<title>Selene&#45;&gt;union_3</title>
<path fill="none" stroke="#cc7832" d="M1041.3146,-1006C1053.9376,-1006 1064.4166,-1006 1069.7333,-1006"/>
</g>
<!-- Ian -->
<g id="node20" class="node">
<title>Ian</title>
<g id="a_node20"><a xlink:title="undefined &#10;&#10;&#10;&#10;">
<polygon fill="#36393f" stroke="#cccccc" points="1322,-1027 1142,-1027 1142,-985 1322,-985 1322,-1027"/>
<text text-anchor="start" x="1222.7721" y="-1008.4" font-family="Helvetica, Arial, sans-serif" font-size="14.00" fill="#ffffff">Ian</text>
<text text-anchor="start" x="1184.995" y="-994" font-family="Helvetica, Arial, sans-serif" font-size="10.00" fill="#aaaaaa">Valerian II McFarland</text>
</a>
</g>
</g>
<!-- siblings_3&#45;&gt;Ian -->
<g id="edge19" class="edge">
<title>siblings_3&#45;&gt;Ian</title>
<path fill="none" stroke="#cc7832" d="M1113.0341,-1006C1113.0341,-1006 1131.8106,-1006 1131.8106,-1006"/>
<polygon fill="#cc7832" stroke="#cc7832" points="1139.8105,-996 1139.8107,-1016 1135.8107,-1016.0001 1135.8105,-996.0001 1139.8105,-996"/>
<polyline fill="none" stroke="#cc7832" points="1141.8106,-1006 1131.8106,-1006.0001 "/>
</g>
<!-- siblings_4 -->
<g id="node23" class="node">
<title>siblings_4</title>
<polygon fill="#6897bb" stroke="#cccccc" stroke-width="0" points="551,-235.5 544,-235.5 544,-234.5 551,-234.5 551,-235.5"/>
</g>
<!-- union_4&#45;&gt;siblings_4 -->
<g id="edge22" class="edge">
<title>union_4&#45;&gt;siblings_4</title>
<path fill="none" stroke="#6897bb" d="M515.0834,-235C521.9128,-235 536.7324,-235 543.7154,-235"/>
</g>
<!-- Peregrine -->
<g id="node22" class="node">
<title>Peregrine</title>
<g id="a_node22"><a xlink:title="undefined &#10;&#10;&#10;&#10;">
<polygon fill="#36393f" stroke="#ff0000" stroke-width=".25" points="479,-256 299,-256 299,-214 479,-214 479,-256"/>
<text text-anchor="start" x="359.1613" y="-237.4" font-family="Helvetica, Arial, sans-serif" font-size="14.00" fill="#ffffff">Peregrine</text>
<text text-anchor="start" x="342.829" y="-223" font-family="Helvetica, Arial, sans-serif" font-size="10.00" fill="#aaaaaa">Peregrine McFarland</text>
</a>
</g>
</g>
<!-- Peregrine&#45;&gt;union_4 -->
<g id="edge21" class="edge">
<title>Peregrine&#45;&gt;union_4</title>
<path fill="none" stroke="#6897bb" d="M479.3146,-233.8333C492.2245,-233.8333 502.8918,-233.8333 508.0877,-233.8333"/>
</g>
<!-- Elara -->
<g id="node24" class="node">
<title>Elara</title>
<g id="a_node24"><a xlink:title="undefined &#10;&#10;&#10;&#10;">
<polygon fill="#36393f" stroke="#cccccc" points="760,-166 580,-166 580,-124 760,-124 760,-166"/>
<text text-anchor="start" x="654.1655" y="-147.4" font-family="Helvetica, Arial, sans-serif" font-size="14.00" fill="#ffffff">Elara</text>
<text text-anchor="start" x="633.832" y="-133" font-family="Helvetica, Arial, sans-serif" font-size="10.00" fill="#aaaaaa">Elara McFarland</text>
</a>
</g>
</g>
<!-- siblings_4&#45;&gt;Elara -->
<g id="edge23" class="edge">
<title>siblings_4&#45;&gt;Elara</title>
<path fill="none" stroke="#6897bb" d="M547,-234.4253C547,-226.7603 547,-145 547,-145 547,-145 569.9617,-145 569.9617,-145"/>
<polygon fill="#6897bb" stroke="#6897bb" points="577.9616,-135 577.9618,-155 573.9618,-155.0001 573.9616,-135.0001 577.9616,-135"/>
<polyline fill="none" stroke="#6897bb" points="579.9617,-145 569.9617,-145.0001 "/>
</g>
<!-- Orion -->
<g id="node25" class="node">
<title>Orion</title>
<g id="a_node25"><a xlink:title="undefined &#10;&#10;&#10;&#10;">
<polygon fill="#36393f" stroke="#cccccc" points="760,-226 580,-226 580,-184 760,-184 760,-226"/>
<text text-anchor="start" x="652.8885" y="-207.4" font-family="Helvetica, Arial, sans-serif" font-size="14.00" fill="#ffffff">Orion</text>
<text text-anchor="start" x="632.777" y="-193" font-family="Helvetica, Arial, sans-serif" font-size="10.00" fill="#aaaaaa">Orion McFarland</text>
</a>
</g>
</g>
<!-- siblings_4&#45;&gt;Orion -->
<g id="edge24" class="edge">
<title>siblings_4&#45;&gt;Orion</title>
<path fill="none" stroke="#6897bb" d="M549,-234.3555C549,-231.4844 549,-220 549,-220 549,-220 569.8465,-220 569.8465,-220"/>
<polygon fill="#6897bb" stroke="#6897bb" points="577.8464,-210 577.8466,-230 573.8466,-230.0001 573.8464,-210.0001 577.8464,-210"/>
<polyline fill="none" stroke="#6897bb" points="579.8465,-220 569.8465,-220.0001 "/>
</g>
<!-- Evander -->
<g id="node26" class="node">
<title>Evander</title>
<g id="a_node26"><a xlink:title="undefined &#10;&#10;&#10;&#10;">
<polygon fill="#36393f" stroke="#cccccc" points="760,-286 580,-286 580,-244 760,-244 760,-286"/>
<text text-anchor="start" x="644.4362" y="-267.4" font-family="Helvetica, Arial, sans-serif" font-size="14.00" fill="#ffffff">Evander</text>
<text text-anchor="start" x="626.8825" y="-253" font-family="Helvetica, Arial, sans-serif" font-size="10.00" fill="#aaaaaa">Evander McFarland</text>
</a>
</g>
</g>
<!-- siblings_4&#45;&gt;Evander -->
<g id="edge25" class="edge">
<title>siblings_4&#45;&gt;Evander</title>
<path fill="none" stroke="#6897bb" d="M549,-235.6445C549,-238.5156 549,-250 549,-250 549,-250 569.8465,-250 569.8465,-250"/>
<polygon fill="#6897bb" stroke="#6897bb" points="577.8464,-240 577.8466,-260 573.8466,-260.0001 573.8464,-240.0001 577.8464,-240"/>
<polyline fill="none" stroke="#6897bb" points="579.8465,-250 569.8465,-250.0001 "/>
</g>
<!-- siblings_5 -->
<g id="node29" class="node">
<title>siblings_5</title>
<polygon fill="#bbb529" stroke="#cccccc" stroke-width="0" points="551,-566.5 544,-566.5 544,-565.5 551,-565.5 551,-566.5"/>
</g>
<!-- union_5&#45;&gt;siblings_5 -->
<g id="edge28" class="edge">
<title>union_5&#45;&gt;siblings_5</title>
<path fill="none" stroke="#bbb529" d="M515.0834,-566C521.9128,-566 536.7324,-566 543.7154,-566"/>
</g>
<!-- Yenna -->
<g id="node28" class="node">
<title>Yenna</title>
<g id="a_node28"><a xlink:title="undefined &#10;&#10;&#10;&#10;">
<polygon fill="#36393f" stroke="#cccccc" points="479,-586 299,-586 299,-544 479,-544 479,-586"/>
<text text-anchor="start" x="369.2665" y="-567.4" font-family="Helvetica, Arial, sans-serif" font-size="14.00" fill="#ffffff">Yenna</text>
<text text-anchor="start" x="359.7645" y="-553" font-family="Helvetica, Arial, sans-serif" font-size="10.00" fill="#aaaaaa">Yenna Savoy</text>
</a>
</g>
</g>
<!-- Yenna&#45;&gt;union_5 -->
<g id="edge27" class="edge">
<title>Yenna&#45;&gt;union_5</title>
<path fill="none" stroke="#bbb529" d="M479.3146,-566C491.9376,-566 502.4166,-566 507.7333,-566"/>
</g>
<!-- Tedora -->
<g id="node30" class="node">
<title>Tedora</title>
<g id="a_node30"><a xlink:title="undefined &#10;&#10;&#10;&#10;">
<polygon fill="#36393f" stroke="#ff0000" stroke-width=".25" points="760,-528 580,-528 580,-486 760,-486 760,-528"/>
<text text-anchor="start" x="648.3282" y="-509.4" font-family="Helvetica, Arial, sans-serif" font-size="14.00" fill="#ffffff">Tedora</text>
<text text-anchor="start" x="629.6625" y="-495" font-family="Helvetica, Arial, sans-serif" font-size="10.00" fill="#aaaaaa">Tedora McFarland</text>
</a>
</g>
</g>
<!-- siblings_5&#45;&gt;Tedora -->
<g id="edge29" class="edge">
<title>siblings_5&#45;&gt;Tedora</title>
<path fill="none" stroke="#bbb529" d="M547,-565.3374C547,-558.8555 547,-507 547,-507 547,-507 569.9617,-507 569.9617,-507"/>
<polygon fill="#bbb529" stroke="#bbb529" points="577.9616,-497 577.9618,-517 573.9618,-517.0001 573.9616,-497.0001 577.9616,-497"/>
<polyline fill="none" stroke="#bbb529" points="579.9617,-507 569.9617,-507.0001 "/>
</g>
<!-- Thessaly -->
<g id="node31" class="node">
<title>Thessaly</title>
<g id="a_node31"><a xlink:title="undefined &#10;&#10;&#10;&#10;">
<polygon fill="#36393f" stroke="#cccccc" points="760,-588 580,-588 580,-546 760,-546 760,-588"/>
<text text-anchor="start" x="641.9965" y="-569.4" font-family="Helvetica, Arial, sans-serif" font-size="14.00" fill="#ffffff">Thessaly</text>
<text text-anchor="start" x="624.997" y="-555" font-family="Helvetica, Arial, sans-serif" font-size="10.00" fill="#aaaaaa">Thessaly McFarland</text>
</a>
</g>
</g>
<!-- siblings_5&#45;&gt;Thessaly -->
<g id="edge30" class="edge">
<title>siblings_5&#45;&gt;Thessaly</title>
<path fill="none" stroke="#bbb529" d="M551.0341,-566C551.0341,-566 569.8106,-566 569.8106,-566"/>
<polygon fill="#bbb529" stroke="#bbb529" points="577.8105,-556 577.8107,-576 573.8107,-576.0001 573.8105,-556.0001 577.8105,-556"/>
<polyline fill="none" stroke="#bbb529" points="579.8106,-566 569.8106,-566.0001 "/>
</g>
<!-- union_6 -->
<g id="node32" class="node">
<title>union_6</title>
<ellipse fill="#9876aa" stroke="#ffffff" cx="792.5" cy="-411" rx="3.5" ry="3.5"/>
</g>
<!-- Tedora&#45;&gt;union_6 -->
<g id="edge31" class="edge">
<title>Tedora&#45;&gt;union_6</title>
<path fill="none" stroke="#9876aa" d="M760.1165,-491C779.3477,-491 794,-491 794,-491 794,-491 794,-429.75 794,-414.4375"/>
</g>
<!-- union_10 -->
<g id="node52" class="node">
<title>union_10</title>
<ellipse fill="#629755" stroke="#ffffff" cx="792.5" cy="-724" rx="3.5" ry="3.5"/>
</g>
<!-- Thessaly&#45;&gt;union_10 -->
<g id="edge51" class="edge">
<title>Thessaly&#45;&gt;union_10</title>
<path fill="none" stroke="#629755" d="M760.2644,-579C778.3914,-579 792,-579 792,-579 792,-579 792,-698.0869 792,-720.4157"/>
</g>
<!-- siblings_6 -->
<g id="node34" class="node">
<title>siblings_6</title>
<polygon fill="#9876aa" stroke="#cccccc" stroke-width="0" points="832,-411.5 825,-411.5 825,-410.5 832,-410.5 832,-411.5"/>
</g>
<!-- union_6&#45;&gt;siblings_6 -->
<g id="edge33" class="edge">
<title>union_6&#45;&gt;siblings_6</title>
<path fill="none" stroke="#9876aa" d="M796.0834,-411C802.9128,-411 817.7324,-411 824.7154,-411"/>
</g>
<!-- Rogelio -->
<g id="node33" class="node">
<title>Rogelio</title>
<g id="a_node33"><a xlink:title="undefined &#10;&#10;&#10;&#10;">
<polygon fill="#36393f" stroke="#ff0000" stroke-width=".25" points="760,-432 580,-432 580,-390 760,-390 760,-432"/>
<text text-anchor="start" x="646.2749" y="-413.4" font-family="Helvetica, Arial, sans-serif" font-size="14.00" fill="#ffffff">Rogelio</text>
<text text-anchor="start" x="636.662" y="-399" font-family="Helvetica, Arial, sans-serif" font-size="10.00" fill="#aaaaaa">Rogelio Durant</text>
</a>
</g>
</g>
<!-- Rogelio&#45;&gt;union_6 -->
<g id="edge32" class="edge">
<title>Rogelio&#45;&gt;union_6</title>
<path fill="none" stroke="#9876aa" d="M760.3146,-411C772.9376,-411 783.4166,-411 788.7333,-411"/>
</g>
<!-- Degare -->
<g id="node35" class="node">
<title>Degare</title>
<g id="a_node35"><a xlink:title="undefined &#10;&#10;Born 10/14/1233 &#10;&#10;">
<polygon fill="#36393f" stroke="#cccccc" points="1041,-478 861,-478 861,-422 1041,-422 1041,-478"/>
<text text-anchor="start" x="928.5512" y="-459.4" font-family="Helvetica, Arial, sans-serif" font-size="14.00" fill="#ffffff">Degare</text>
<text text-anchor="start" x="918.7165" y="-445" font-family="Helvetica, Arial, sans-serif" font-size="10.00" fill="#aaaaaa">Degare Durant</text>
<text text-anchor="start" x="938.4375" y="-431" font-family="Helvetica, Arial, sans-serif" font-size="10.00" fill="#aaaaaa">*1233</text>
</a>
</g>
</g>
<!-- siblings_6&#45;&gt;Degare -->
<g id="edge34" class="edge">
<title>siblings_6&#45;&gt;Degare</title>
<path fill="none" stroke="#9876aa" d="M829,-411.6875C829,-414.75 829,-427 829,-427 829,-427 850.7356,-427 850.7356,-427"/>
<polygon fill="#9876aa" stroke="#9876aa" points="858.7355,-417 858.7357,-437 854.7357,-437.0001 854.7355,-417.0001 858.7355,-417"/>
<polyline fill="none" stroke="#9876aa" points="860.7356,-427 850.7356,-427.0001 "/>
</g>
<!-- Dyson -->
<g id="node36" class="node">
<title>Dyson</title>
<g id="a_node36"><a xlink:title="undefined &#10;&#10;Born 06/12/1235 &#10;&#10;">
<polygon fill="#36393f" stroke="#cccccc" points="1041,-404 861,-404 861,-348 1041,-348 1041,-404"/>
<text text-anchor="start" x="931.1641" y="-385.4" font-family="Helvetica, Arial, sans-serif" font-size="14.00" fill="#ffffff">Dyson</text>
<text text-anchor="start" x="911.831" y="-371" font-family="Helvetica, Arial, sans-serif" font-size="10.00" fill="#aaaaaa">Dyson McFarland</text>
<text text-anchor="start" x="937.9375" y="-357" font-family="Helvetica, Arial, sans-serif" font-size="10.00" fill="#aaaaaa">*1235</text>
</a>
</g>
</g>
<!-- siblings_6&#45;&gt;Dyson -->
<g id="edge35" class="edge">
<title>siblings_6&#45;&gt;Dyson</title>
<path fill="none" stroke="#9876aa" d="M830,-410.3984C830,-407.7188 830,-397 830,-397 830,-397 850.8465,-397 850.8465,-397"/>
<polygon fill="#9876aa" stroke="#9876aa" points="858.8464,-387 858.8466,-407 854.8466,-407.0001 854.8464,-387.0001 858.8464,-387"/>
<polyline fill="none" stroke="#9876aa" points="860.8465,-397 850.8465,-397.0001 "/>
</g>
<!-- Lyla -->
<g id="node37" class="node">
<title>Lyla</title>
<polygon fill="#36393f" stroke="#cccccc" points="1041,-330 861,-330 861,-294 1041,-294 1041,-330"/>
<text text-anchor="middle" x="951" y="-307.8" font-family="Helvetica, Arial, sans-serif" font-size="14.00" fill="#ffffff">Lyla</text>
</g>
<!-- siblings_6&#45;&gt;Lyla -->
<g id="edge36" class="edge">
<title>siblings_6&#45;&gt;Lyla</title>
<path fill="none" stroke="#9876aa" d="M828,-410.3678C828,-401.9363 828,-312 828,-312 828,-312 850.9617,-312 850.9617,-312"/>
<polygon fill="#9876aa" stroke="#9876aa" points="858.9616,-302 858.9618,-322 854.9618,-322.0001 854.9616,-302.0001 858.9616,-302"/>
<polyline fill="none" stroke="#9876aa" points="860.9617,-312 850.9617,-312.0001 "/>
</g>
<!-- union_7 -->
<g id="node38" class="node">
<title>union_7</title>
<ellipse fill="#efc090" stroke="#ffffff" cx="1073.5" cy="-594" rx="3.5" ry="3.5"/>
</g>
<!-- Degare&#45;&gt;union_7 -->
<g id="edge37" class="edge">
<title>Degare&#45;&gt;union_7</title>
<path fill="none" stroke="#efc090" d="M1041.4002,-440.6667C1050.2322,-440.6667 1056,-440.6667 1056,-440.6667 1056,-440.6667 1056,-592.8333 1056,-592.8333 1056,-592.8333 1065.0405,-592.8333 1070.1258,-592.8333"/>
</g>
<!-- union_8 -->
<g id="node43" class="node">
<title>union_8</title>
<ellipse fill="#d25252" stroke="#ffffff" cx="1073.5" cy="-511" rx="3.5" ry="3.5"/>
</g>
<!-- Degare&#45;&gt;union_8 -->
<g id="edge42" class="edge">
<title>Degare&#45;&gt;union_8</title>
<path fill="none" stroke="#d25252" stroke-dasharray="5,2" d="M1041.1165,-459.3333C1060.3477,-459.3333 1075,-459.3333 1075,-459.3333 1075,-459.3333 1075,-496.1156 1075,-507.61"/>
</g>
<!-- union_9 -->
<g id="node45" class="node">
<title>union_9</title>
<ellipse fill="#ccdf32" stroke="#ffffff" cx="1073.5" cy="-184" rx="3.5" ry="3.5"/>
</g>
<!-- Dyson&#45;&gt;union_9 -->
<g id="edge44" class="edge">
<title>Dyson&#45;&gt;union_9</title>
<path fill="none" stroke="#ccdf32" d="M1041.2644,-376C1059.3914,-376 1073,-376 1073,-376 1073,-376 1073,-214.208 1073,-187.664"/>
</g>
<!-- siblings_7 -->
<g id="node40" class="node">
<title>siblings_7</title>
<polygon fill="#efc090" stroke="#cccccc" stroke-width="0" points="1113,-594.5 1106,-594.5 1106,-593.5 1113,-593.5 1113,-594.5"/>
</g>
<!-- union_7&#45;&gt;siblings_7 -->
<g id="edge39" class="edge">
<title>union_7&#45;&gt;siblings_7</title>
<path fill="none" stroke="#efc090" d="M1077.0834,-594C1083.9128,-594 1098.7324,-594 1105.7154,-594"/>
</g>
<!-- Elodie -->
<g id="node39" class="node">
<title>Elodie</title>
<g id="a_node39"><a xlink:title="undefined &#10;&#10;Born 05/06/1239 &#160;&#45;&#45; died 05/06/1239&#10;&#10;">
<polygon fill="#36393f" stroke="#ff0000" stroke-width=".25" points="1041,-626 861,-626 861,-570 1041,-570 1041,-626"/>
<text text-anchor="start" x="931.5512" y="-607.4" font-family="Helvetica, Arial, sans-serif" font-size="14.00" fill="#ffffff">Elodie</text>
<text text-anchor="start" x="912.9325" y="-593" font-family="Helvetica, Arial, sans-serif" font-size="10.00" fill="#aaaaaa">Elodië Bentayga</text>
<text text-anchor="start" x="915.7035" y="-579" font-family="Helvetica, Arial, sans-serif" font-size="10.00" fill="#aaaaaa">*1239 — †1274</text>
</a>
</g>
</g>
<!-- Elodie&#45;&gt;union_7 -->
<g id="edge38" class="edge">
<title>Elodie&#45;&gt;union_7</title>
<path fill="none" stroke="#efc090" d="M1041.3146,-595.1667C1054.2245,-595.1667 1064.8918,-595.1667 1070.0877,-595.1667"/>
</g>
<!-- Michael -->
<g id="node41" class="node">
<title>Michael</title>
<g id="a_node41"><a xlink:title="undefined &#10;&#10;Born 12/01/1259 &#10;&#10;">
<polygon fill="#36393f" stroke="#cccccc" points="1322,-693 1142,-693 1142,-637 1322,-637 1322,-693"/>
<text text-anchor="start" x="1208.3892" y="-674.4" font-family="Helvetica, Arial, sans-serif" font-size="14.00" fill="#ffffff">Michael</text>
<text text-anchor="start" x="1198.8865" y="-660" font-family="Helvetica, Arial, sans-serif" font-size="10.00" fill="#aaaaaa">Michael Durant</text>
<text text-anchor="start" x="1219.4375" y="-646" font-family="Helvetica, Arial, sans-serif" font-size="10.00" fill="#aaaaaa">*1259</text>
</a>
</g>
</g>
<!-- siblings_7&#45;&gt;Michael -->
<g id="edge40" class="edge">
<title>siblings_7&#45;&gt;Michael</title>
<path fill="none" stroke="#efc090" d="M1110,-594.5447C1110,-599.873 1110,-642.5 1110,-642.5 1110,-642.5 1131.7356,-642.5 1131.7356,-642.5"/>
<polygon fill="#efc090" stroke="#efc090" points="1139.7355,-632.5 1139.7357,-652.5 1135.7357,-652.5001 1135.7355,-632.5001 1139.7355,-632.5"/>
<polyline fill="none" stroke="#efc090" points="1141.7356,-642.5 1131.7356,-642.5001 "/>
</g>
<!-- Lyla II -->
<g id="node42" class="node">
<title>Lyla II</title>
<g id="a_node42"><a xlink:title="undefined &#10;&#10;Born 07/31/1271 &#160;&#45;&#45; died 07/31/1271&#10;&#10;">
<polygon fill="#36393f" stroke="#ff0000" stroke-width=".25" points="1322,-619 1142,-619 1142,-563 1322,-563 1322,-619"/>
<text text-anchor="start" x="1219.1641" y="-600.4" font-family="Helvetica, Arial, sans-serif" font-size="14.00" fill="#ffffff">Lyla</text>
<text text-anchor="start" x="1202.2715" y="-586" font-family="Helvetica, Arial, sans-serif" font-size="10.00" fill="#aaaaaa">Lyla II Durant</text>
<text text-anchor="start" x="1196.7035" y="-572" font-family="Helvetica, Arial, sans-serif" font-size="10.00" fill="#aaaaaa">*1271 — †1273</text>
</a>
</g>
</g>
<!-- siblings_7&#45;&gt;Lyla II -->
<g id="edge41" class="edge">
<title>siblings_7&#45;&gt;Lyla II</title>
<path fill="none" stroke="#efc090" d="M1113.0341,-594C1113.0341,-594 1131.8106,-594 1131.8106,-594"/>
<polygon fill="#efc090" stroke="#efc090" points="1139.8105,-584 1139.8107,-604 1135.8107,-604.0001 1135.8105,-584.0001 1139.8105,-584"/>
<polyline fill="none" stroke="#efc090" points="1141.8106,-594 1131.8106,-594.0001 "/>
</g>
<!-- Sera -->
<g id="node44" class="node">
<title>Sera</title>
<g id="a_node44"><a xlink:title="undefined &#10;&#10;Born 03/13/1250 &#10;&#10;">
<polygon fill="#36393f" stroke="#cccccc" points="1041,-552 861,-552 861,-496 1041,-496 1041,-552"/>
<text text-anchor="start" x="936.7188" y="-533.4" font-family="Helvetica, Arial, sans-serif" font-size="14.00" fill="#ffffff">Sera</text>
<text text-anchor="start" x="909.538" y="-519" font-family="Helvetica, Arial, sans-serif" font-size="10.00" fill="#aaaaaa">Seraphine Gognon</text>
<text text-anchor="start" x="938.4375" y="-505" font-family="Helvetica, Arial, sans-serif" font-size="10.00" fill="#aaaaaa">*1250</text>
</a>
</g>
</g>
<!-- Sera&#45;&gt;union_8 -->
<g id="edge43" class="edge">
<title>Sera&#45;&gt;union_8</title>
<path fill="none" stroke="#d25252" stroke-dasharray="5,2" d="M1041.3146,-511C1053.9376,-511 1064.4166,-511 1069.7333,-511"/>
</g>
<!-- siblings_9 -->
<g id="node47" class="node">
<title>siblings_9</title>
<polygon fill="#ccdf32" stroke="#cccccc" stroke-width="0" points="1113,-184.5 1106,-184.5 1106,-183.5 1113,-183.5 1113,-184.5"/>
</g>
<!-- union_9&#45;&gt;siblings_9 -->
<g id="edge46" class="edge">
<title>union_9&#45;&gt;siblings_9</title>
<path fill="none" stroke="#ccdf32" d="M1077.0834,-184C1083.9128,-184 1098.7324,-184 1105.7154,-184"/>
</g>
<!-- Priscilla -->
<g id="node46" class="node">
<title>Priscilla</title>
<g id="a_node46"><a xlink:title="undefined &#10;&#10;Born 04/03/1238 &#10;&#10;">
<polygon fill="#36393f" stroke="#cccccc" points="1041,-212 861,-212 861,-156 1041,-156 1041,-212"/>
<text text-anchor="start" x="926.8969" y="-193.4" font-family="Helvetica, Arial, sans-serif" font-size="14.00" fill="#ffffff">Priscilla</text>
<text text-anchor="start" x="908.7735" y="-179" font-family="Helvetica, Arial, sans-serif" font-size="10.00" fill="#aaaaaa">Priscilla Blanchette</text>
<text text-anchor="start" x="937.9375" y="-165" font-family="Helvetica, Arial, sans-serif" font-size="10.00" fill="#aaaaaa">*1238</text>
</a>
</g>
</g>
<!-- Priscilla&#45;&gt;union_9 -->
<g id="edge45" class="edge">
<title>Priscilla&#45;&gt;union_9</title>
<path fill="none" stroke="#ccdf32" d="M1041.3146,-184C1053.9376,-184 1064.4166,-184 1069.7333,-184"/>
</g>
<!-- Kimberly -->
<g id="node48" class="node">
<title>Kimberly</title>
<g id="a_node48"><a xlink:title="undefined &#10;&#10;Born 10/04/1259 &#10;&#10;">
<polygon fill="#36393f" stroke="#cccccc" points="1322,-138 1142,-138 1142,-82 1322,-82 1322,-138"/>
<text text-anchor="start" x="1204.7819" y="-119.4" font-family="Helvetica, Arial, sans-serif" font-size="14.00" fill="#ffffff">Kimberly</text>
<text text-anchor="start" x="1187.558" y="-105" font-family="Helvetica, Arial, sans-serif" font-size="10.00" fill="#aaaaaa">Kimberly McFarland</text>
<text text-anchor="start" x="1218.9375" y="-91" font-family="Helvetica, Arial, sans-serif" font-size="10.00" fill="#aaaaaa">*1259</text>
</a>
</g>
</g>
<!-- siblings_9&#45;&gt;Kimberly -->
<g id="edge47" class="edge">
<title>siblings_9&#45;&gt;Kimberly</title>
<path fill="none" stroke="#ccdf32" d="M1111,-183.4048C1111,-177.582 1111,-131 1111,-131 1111,-131 1131.8465,-131 1131.8465,-131"/>
<polygon fill="#ccdf32" stroke="#ccdf32" points="1139.8464,-121 1139.8466,-141 1135.8466,-141.0001 1135.8464,-121.0001 1139.8464,-121"/>
<polyline fill="none" stroke="#ccdf32" points="1141.8465,-131 1131.8465,-131.0001 "/>
</g>
<!-- Gregory -->
<g id="node49" class="node">
<title>Gregory</title>
<g id="a_node49"><a xlink:title="undefined &#10;&#10;Born 05/23/1261 &#10;&#10;">
<polygon fill="#36393f" stroke="#cccccc" points="1322,-212 1142,-212 1142,-156 1322,-156 1322,-212"/>
<text text-anchor="start" x="1206.7202" y="-193.4" font-family="Helvetica, Arial, sans-serif" font-size="14.00" fill="#ffffff">Gregory</text>
<text text-anchor="start" x="1188.9425" y="-179" font-family="Helvetica, Arial, sans-serif" font-size="10.00" fill="#aaaaaa">Gregory McFarland</text>
<text text-anchor="start" x="1218.9375" y="-165" font-family="Helvetica, Arial, sans-serif" font-size="10.00" fill="#aaaaaa">*1261</text>
</a>
</g>
</g>
<!-- siblings_9&#45;&gt;Gregory -->
<g id="edge48" class="edge">
<title>siblings_9&#45;&gt;Gregory</title>
<path fill="none" stroke="#ccdf32" d="M1113.0341,-184C1113.0341,-184 1131.8106,-184 1131.8106,-184"/>
<polygon fill="#ccdf32" stroke="#ccdf32" points="1139.8105,-174 1139.8107,-194 1135.8107,-194.0001 1135.8105,-174.0001 1139.8105,-174"/>
<polyline fill="none" stroke="#ccdf32" points="1141.8106,-184 1131.8106,-184.0001 "/>
</g>
<!-- Yenna MF -->
<g id="node50" class="node">
<title>Yenna MF</title>
<g id="a_node50"><a xlink:title="undefined &#10;&#10;Born 12/18/1265 &#10;&#10;">
<polygon fill="#36393f" stroke="#cccccc" points="1322,-286 1142,-286 1142,-230 1322,-230 1322,-286"/>
<text text-anchor="start" x="1211.7665" y="-267.4" font-family="Helvetica, Arial, sans-serif" font-size="14.00" fill="#ffffff">Yenna</text>
<text text-anchor="start" x="1192.547" y="-253" font-family="Helvetica, Arial, sans-serif" font-size="10.00" fill="#aaaaaa">Yenna McFarland</text>
<text text-anchor="start" x="1218.9375" y="-239" font-family="Helvetica, Arial, sans-serif" font-size="10.00" fill="#aaaaaa">*1265</text>
</a>
</g>
</g>
<!-- siblings_9&#45;&gt;Yenna MF -->
<g id="edge49" class="edge">
<title>siblings_9&#45;&gt;Yenna MF</title>
<path fill="none" stroke="#ccdf32" d="M1110,-184.5728C1110,-190.1758 1110,-235 1110,-235 1110,-235 1131.7356,-235 1131.7356,-235"/>
<polygon fill="#ccdf32" stroke="#ccdf32" points="1139.7355,-225 1139.7357,-245 1135.7357,-245.0001 1135.7355,-225.0001 1139.7355,-225"/>
<polyline fill="none" stroke="#ccdf32" points="1141.7356,-235 1131.7356,-235.0001 "/>
</g>
<!-- Marion -->
<g id="node51" class="node">
<title>Marion</title>
<g id="a_node51"><a xlink:title="undefined &#10;&#10;Born 06/15/1267 &#10;&#10;">
<polygon fill="#36393f" stroke="#cccccc" points="1322,-64 1142,-64 1142,-8 1322,-8 1322,-64"/>
<text text-anchor="start" x="1210.6122" y="-45.4" font-family="Helvetica, Arial, sans-serif" font-size="14.00" fill="#ffffff">Marion</text>
<text text-anchor="start" x="1191.7225" y="-31" font-family="Helvetica, Arial, sans-serif" font-size="10.00" fill="#aaaaaa">Marion McFarland</text>
<text text-anchor="start" x="1218.9375" y="-17" font-family="Helvetica, Arial, sans-serif" font-size="10.00" fill="#aaaaaa">*1267</text>
</a>
</g>
</g>
<!-- siblings_9&#45;&gt;Marion -->
<g id="edge50" class="edge">
<title>siblings_9&#45;&gt;Marion</title>
<path fill="none" stroke="#ccdf32" d="M1109,-183.3402C1109,-172.6633 1109,-36 1109,-36 1109,-36 1131.9617,-36 1131.9617,-36"/>
<polygon fill="#ccdf32" stroke="#ccdf32" points="1139.9616,-26 1139.9618,-46 1135.9618,-46.0001 1135.9616,-26.0001 1139.9616,-26"/>
<polyline fill="none" stroke="#ccdf32" points="1141.9617,-36 1131.9617,-36.0001 "/>
</g>
<!-- siblings_10 -->
<g id="node54" class="node">
<title>siblings_10</title>
<polygon fill="#629755" stroke="#cccccc" stroke-width="0" points="832,-724.5 825,-724.5 825,-723.5 832,-723.5 832,-724.5"/>
</g>
<!-- union_10&#45;&gt;siblings_10 -->
<g id="edge53" class="edge">
<title>union_10&#45;&gt;siblings_10</title>
<path fill="none" stroke="#629755" d="M796.0834,-724C802.9128,-724 817.7324,-724 824.7154,-724"/>
</g>
<!-- Juliette -->
<g id="node53" class="node">
<title>Juliette</title>
<g id="a_node53"><a xlink:title="undefined &#10;&#10;&#10;&#10;">
<polygon fill="#36393f" stroke="#cccccc" points="760,-745 580,-745 580,-703 760,-703 760,-745"/>
<text text-anchor="start" x="648.3289" y="-726.4" font-family="Helvetica, Arial, sans-serif" font-size="14.00" fill="#ffffff">Juliette</text>
<text text-anchor="start" x="636.8875" y="-712" font-family="Helvetica, Arial, sans-serif" font-size="10.00" fill="#aaaaaa">Juliette Sinclair</text>
</a>
</g>
</g>
<!-- Juliette&#45;&gt;union_10 -->
<g id="edge52" class="edge">
<title>Juliette&#45;&gt;union_10</title>
<path fill="none" stroke="#629755" d="M760.3146,-724C772.9376,-724 783.4166,-724 788.7333,-724"/>
</g>
<!-- Thorid -->
<g id="node55" class="node">
<title>Thorid</title>
<g id="a_node55"><a xlink:title="undefined &#10;&#10;&#10;&#10;">
<polygon fill="#36393f" stroke="#cccccc" points="1041,-805 861,-805 861,-763 1041,-763 1041,-805"/>
<text text-anchor="start" x="931.1662" y="-786.4" font-family="Helvetica, Arial, sans-serif" font-size="14.00" fill="#ffffff">Thorid</text>
<text text-anchor="start" x="911.8325" y="-772" font-family="Helvetica, Arial, sans-serif" font-size="10.00" fill="#aaaaaa">Thorid McFarland</text>
</a>
</g>
</g>
<!-- siblings_10&#45;&gt;Thorid -->
<g id="edge54" class="edge">
<title>siblings_10&#45;&gt;Thorid</title>
<path fill="none" stroke="#629755" stroke-dasharray="5,2" d="M829,-724.7019C829,-731.5684 829,-786.5 829,-786.5 829,-786.5 850.7356,-786.5 850.7356,-786.5"/>
<polygon fill="#629755" stroke="#629755" points="858.7355,-776.5 858.7357,-796.5 854.7357,-796.5001 854.7355,-776.5001 858.7355,-776.5"/>
<polyline fill="none" stroke="#629755" points="860.7356,-786.5 850.7356,-786.5001 "/>
</g>
<!-- Emilia -->
<g id="node56" class="node">
<title>Emilia</title>
<g id="a_node56"><a xlink:title="undefined &#10;&#10;&#10;&#10;">
<polygon fill="#36393f" stroke="#cccccc" points="1041,-745 861,-745 861,-703 1041,-703 1041,-745"/>
<text text-anchor="start" x="932.4502" y="-726.4" font-family="Helvetica, Arial, sans-serif" font-size="14.00" fill="#ffffff">Emilia</text>
<text text-anchor="start" x="912.8925" y="-712" font-family="Helvetica, Arial, sans-serif" font-size="10.00" fill="#aaaaaa">Emilia McFarland</text>
</a>
</g>
</g>
<!-- siblings_10&#45;&gt;Emilia -->
<g id="edge55" class="edge">
<title>siblings_10&#45;&gt;Emilia</title>
<path fill="none" stroke="#629755" stroke-dasharray="5,2" d="M832.0341,-724C832.0341,-724 850.8106,-724 850.8106,-724"/>
<polygon fill="#629755" stroke="#629755" points="858.8105,-714 858.8107,-734 854.8107,-734.0001 854.8105,-714.0001 858.8105,-714"/>
<polyline fill="none" stroke="#629755" points="860.8106,-724 850.8106,-724.0001 "/>
</g>
<!-- Thorid&#45;&gt;union_11 -->
<g id="edge57" class="edge">
<title>Thorid&#45;&gt;union_11</title>
<path fill="none" stroke="#cc7832" d="M1041.0383,-796.5C1059.7943,-796.5 1074,-796.5 1074,-796.5 1074,-796.5 1074,-825.0988 1074,-835.3765"/>
</g>
<!-- siblings_11 -->
<g id="node58" class="node">
<title>siblings_11</title>
<polygon fill="#cc7832" stroke="#cccccc" stroke-width="0" points="1113,-839.5 1106,-839.5 1106,-838.5 1113,-838.5 1113,-839.5"/>
</g>
<!-- union_11&#45;&gt;siblings_11 -->
<g id="edge58" class="edge">
<title>union_11&#45;&gt;siblings_11</title>
<path fill="none" stroke="#cc7832" d="M1077.0834,-839C1083.9128,-839 1098.7324,-839 1105.7154,-839"/>
</g>
<!-- Farrah -->
<g id="node59" class="node">
<title>Farrah</title>
<g id="a_node59"><a xlink:title="undefined &#10;&#10;&#10;&#10;">
<polygon fill="#36393f" stroke="#cccccc" points="1322,-830 1142,-830 1142,-788 1322,-788 1322,-830"/>
<text text-anchor="start" x="1211.8892" y="-811.4" font-family="Helvetica, Arial, sans-serif" font-size="14.00" fill="#ffffff">Farrah</text>
<text text-anchor="start" x="1192.7775" y="-797" font-family="Helvetica, Arial, sans-serif" font-size="10.00" fill="#aaaaaa">Farrah McFarland</text>
</a>
</g>
</g>
<!-- siblings_11&#45;&gt;Farrah -->
<g id="edge59" class="edge">
<title>siblings_11&#45;&gt;Farrah</title>
<path fill="none" stroke="#cc7832" d="M1112,-838.291C1112,-835.1328 1112,-822.5 1112,-822.5 1112,-822.5 1131.9715,-822.5 1131.9715,-822.5"/>
<polygon fill="#cc7832" stroke="#cc7832" points="1139.9714,-812.5 1139.9716,-832.5 1135.9716,-832.5001 1135.9714,-812.5001 1139.9714,-812.5"/>
<polyline fill="none" stroke="#cc7832" points="1141.9715,-822.5 1131.9715,-822.5001 "/>
</g>
<!-- Malcolm -->
<g id="node60" class="node">
<title>Malcolm</title>
<g id="a_node60"><a xlink:title="undefined &#10;&#10;&#10;&#10;">
<polygon fill="#36393f" stroke="#cccccc" points="1322,-890 1142,-890 1142,-848 1322,-848 1322,-890"/>
<text text-anchor="start" x="1206.4502" y="-871.4" font-family="Helvetica, Arial, sans-serif" font-size="14.00" fill="#ffffff">Malcolm</text>
<text text-anchor="start" x="1188.8925" y="-857" font-family="Helvetica, Arial, sans-serif" font-size="10.00" fill="#aaaaaa">Malcolm McFarland</text>
</a>
</g>
</g>
<!-- siblings_11&#45;&gt;Malcolm -->
<g id="edge60" class="edge">
<title>siblings_11&#45;&gt;Malcolm</title>
<path fill="none" stroke="#cc7832" d="M1111,-839.6445C1111,-842.5156 1111,-854 1111,-854 1111,-854 1131.8465,-854 1131.8465,-854"/>
<polygon fill="#cc7832" stroke="#cc7832" points="1139.8464,-844 1139.8466,-864 1135.8466,-864.0001 1135.8464,-844.0001 1139.8464,-844"/>
<polyline fill="none" stroke="#cc7832" points="1141.8465,-854 1131.8465,-854.0001 "/>
</g>
<!-- Jacob -->
<g id="node61" class="node">
<title>Jacob</title>
<g id="a_node61"><a xlink:title="undefined &#10;&#10;&#10;&#10;">
<polygon fill="#36393f" stroke="#cccccc" points="1322,-950 1142,-950 1142,-908 1322,-908 1322,-950"/>
<text text-anchor="start" x="1213.3261" y="-931.4" font-family="Helvetica, Arial, sans-serif" font-size="14.00" fill="#ffffff">Jacob</text>
<text text-anchor="start" x="1193.661" y="-917" font-family="Helvetica, Arial, sans-serif" font-size="10.00" fill="#aaaaaa">Jacob McFarland</text>
</a>
</g>
</g>
<!-- siblings_11&#45;&gt;Jacob -->
<g id="edge61" class="edge">
<title>siblings_11&#45;&gt;Jacob</title>
<path fill="none" stroke="#cc7832" d="M1109,-839.8254C1109,-847.9004 1109,-912.5 1109,-912.5 1109,-912.5 1131.9617,-912.5 1131.9617,-912.5"/>
<polygon fill="#cc7832" stroke="#cc7832" points="1139.9616,-902.5 1139.9618,-922.5 1135.9618,-922.5001 1135.9616,-902.5001 1139.9616,-902.5"/>
<polyline fill="none" stroke="#cc7832" points="1141.9617,-912.5 1131.9617,-912.5001 "/>
</g>
<!-- Delilah -->
<g id="node62" class="node">
<title>Delilah</title>
<g id="a_node62"><a xlink:title="undefined &#10;&#10;&#10;&#10;">
<polygon fill="#36393f" stroke="#cccccc" points="1322,-770 1142,-770 1142,-728 1322,-728 1322,-770"/>
<text text-anchor="start" x="1210.6129" y="-751.4" font-family="Helvetica, Arial, sans-serif" font-size="14.00" fill="#ffffff">Delilah</text>
<text text-anchor="start" x="1191.723" y="-737" font-family="Helvetica, Arial, sans-serif" font-size="10.00" fill="#aaaaaa">Delilah McFarland</text>
</a>
</g>
</g>
<!-- siblings_11&#45;&gt;Delilah -->
<g id="edge62" class="edge">
<title>siblings_11&#45;&gt;Delilah</title>
<path fill="none" stroke="#cc7832" d="M1108,-838.1858C1108,-830.2207 1108,-766.5 1108,-766.5 1108,-766.5 1131.8835,-766.5 1131.8835,-766.5"/>
<polygon fill="#cc7832" stroke="#cc7832" points="1139.8834,-756.5 1139.8836,-776.5 1135.8836,-776.5001 1135.8834,-756.5001 1139.8834,-756.5"/>
<polyline fill="none" stroke="#cc7832" points="1141.8835,-766.5 1131.8835,-766.5001 "/>
</g>
</g>
</svg>
