<?xml version="1.0" encoding="UTF-8" standalone="no"?>
<!DOCTYPE svg PUBLIC "-//W3C//DTD SVG 1.1//EN"
 "http://www.w3.org/Graphics/SVG/1.1/DTD/svg11.dtd">
<!-- Generated by graphviz version 2.40.1 (20161225.0304)
 -->
<!-- Title: G Pages: 1 -->
<svg width="1338pt" height="1138pt"
 viewBox="0.00 0.00 1338.00 1138.00" xmlns="http://www.w3.org/2000/svg" xmlns:xlink="http://www.w3.org/1999/xlink">
<g id="graph0" class="graph" transform="scale(1 1) rotate(0) translate(4 1134)">
<title>G</title>
<polygon fill="#23272a" stroke="transparent" points="-4,4 -4,-1134 1334,-1134 1334,4 -4,4"/>
<g id="clust1" class="cluster">
<title>cluster_family_0</title>
<polygon fill="#2c2f33" stroke="#2c2f33" points="8,-742 8,-951 489,-951 489,-742 8,-742"/>
<text text-anchor="start" x="16" y="-933.6" font-family="Helvetica, Arial, sans-serif" font-weight="bold" font-size="16.00" fill="#ffffff">Durant</text>
</g>
<g id="clust4" class="cluster">
<title>cluster_family_1</title>
</g>
<g id="clust7" class="cluster">
<title>cluster_family_2</title>
</g>
<g id="clust9" class="cluster">
<title>cluster_family_3</title>
</g>
<g id="clust12" class="cluster">
<title>cluster_family_4</title>
</g>
<g id="clust14" class="cluster">
<title>cluster_family_5</title>
</g>
<g id="clust17" class="cluster">
<title>cluster_family_6</title>
</g>
<g id="clust20" class="cluster">
<title>cluster_family_7</title>
</g>
<g id="clust23" class="cluster">
<title>cluster_family_8</title>
</g>
<g id="clust24" class="cluster">
<title>cluster_family_8_0</title>
</g>
<g id="clust27" class="cluster">
<title>cluster_family_8_1</title>
</g>
<g id="clust30" class="cluster">
<title>cluster_family_8_2</title>
<polygon fill="#2c2f33" stroke="#2c2f33" points="289,-141 289,-230 561,-230 561,-141 289,-141"/>
<text text-anchor="start" x="297" y="-212.6" font-family="Helvetica, Arial, sans-serif" font-weight="bold" font-size="16.00" fill="#ffffff">de Villa</text>
</g>
<!-- union_0 -->
<g id="node1" class="node">
<title>union_0</title>
<ellipse fill="#d25252" stroke="#ffffff" cx="230.5" cy="-833" rx="3.5" ry="3.5"/>
</g>
<!-- siblings_0 -->
<g id="node4" class="node">
<title>siblings_0</title>
<polygon fill="#d25252" stroke="#cccccc" stroke-width="0" points="270,-833.5 263,-833.5 263,-832.5 270,-832.5 270,-833.5"/>
</g>
<!-- union_0&#45;&gt;siblings_0 -->
<g id="edge3" class="edge">
<title>union_0&#45;&gt;siblings_0</title>
<path fill="none" stroke="#d25252" d="M234.0834,-833C240.9128,-833 255.7324,-833 262.7154,-833"/>
</g>
<!-- Pietro -->
<g id="node2" class="node">
<title>Pietro</title>
<g id="a_node2"><a xlink:title="&#10;&#10;">
<polygon fill="#36393f" stroke="#cccccc" points="198,-884 18,-884 18,-842 198,-842 198,-884"/>
<text text-anchor="start" x="89.7202" y="-865.4" font-family="Helvetica, Arial, sans-serif" font-size="14.00" fill="#ffffff">Pietro</text>
<text text-anchor="start" x="78.5515" y="-851" font-family="Helvetica, Arial, sans-serif" font-size="10.00" fill="#aaaaaa">Pietro Durant</text>
</a>
</g>
</g>
<!-- Pietro&#45;&gt;union_0 -->
<g id="edge1" class="edge">
<title>Pietro&#45;&gt;union_0</title>
<path fill="none" stroke="#d25252" d="M198.0383,-848C216.7943,-848 231,-848 231,-848 231,-848 231,-840.9102 231,-836.479"/>
</g>
<!-- Susanna -->
<g id="node3" class="node">
<title>Susanna</title>
<g id="a_node3"><a xlink:title="&#10;&#10;">
<polygon fill="#36393f" stroke="#cccccc" points="198,-824 18,-824 18,-782 198,-782 198,-824"/>
<text text-anchor="start" x="80.3752" y="-805.4" font-family="Helvetica, Arial, sans-serif" font-size="14.00" fill="#ffffff">Susanna</text>
<text text-anchor="start" x="64.652" y="-791" font-family="Helvetica, Arial, sans-serif" font-size="10.00" fill="#aaaaaa">Susanna Marchand</text>
</a>
</g>
</g>
<!-- Susanna&#45;&gt;union_0 -->
<g id="edge2" class="edge">
<title>Susanna&#45;&gt;union_0</title>
<path fill="none" stroke="#d25252" d="M198.0383,-818C216.7943,-818 231,-818 231,-818 231,-818 231,-825.0898 231,-829.521"/>
</g>
<!-- Davide -->
<g id="node5" class="node">
<title>Davide</title>
<g id="a_node5"><a xlink:title="&#10;&#10;">
<polygon fill="#36393f" stroke="#cccccc" points="479,-914 299,-914 299,-872 479,-872 479,-914"/>
<text text-anchor="start" x="367.7195" y="-895.4" font-family="Helvetica, Arial, sans-serif" font-size="14.00" fill="#ffffff">Davide</text>
<text text-anchor="start" x="357.551" y="-881" font-family="Helvetica, Arial, sans-serif" font-size="10.00" fill="#aaaaaa">Davide Durant</text>
</a>
</g>
</g>
<!-- siblings_0&#45;&gt;Davide -->
<g id="edge4" class="edge">
<title>siblings_0&#45;&gt;Davide</title>
<path fill="none" stroke="#d25252" d="M267,-833.5054C267,-838.4492 267,-878 267,-878 267,-878 288.7356,-878 288.7356,-878"/>
<polygon fill="#d25252" stroke="#d25252" points="296.7355,-868 296.7357,-888 292.7357,-888.0001 292.7355,-868.0001 296.7355,-868"/>
<polyline fill="none" stroke="#d25252" points="298.7356,-878 288.7356,-878.0001 "/>
</g>
<!-- Melchior -->
<g id="node6" class="node">
<title>Melchior</title>
<g id="a_node6"><a xlink:title="&#10;&#10;">
<polygon fill="#36393f" stroke="#cccccc" points="479,-854 299,-854 299,-812 479,-812 479,-854"/>
<text text-anchor="start" x="362.5589" y="-835.4" font-family="Helvetica, Arial, sans-serif" font-size="14.00" fill="#ffffff">Melchior</text>
<text text-anchor="start" x="353.722" y="-821" font-family="Helvetica, Arial, sans-serif" font-size="10.00" fill="#aaaaaa">Melchior Durant</text>
</a>
</g>
</g>
<!-- siblings_0&#45;&gt;Melchior -->
<g id="edge5" class="edge">
<title>siblings_0&#45;&gt;Melchior</title>
<path fill="none" stroke="#d25252" d="M270.0341,-833C270.0341,-833 288.8106,-833 288.8106,-833"/>
<polygon fill="#d25252" stroke="#d25252" points="296.8105,-823 296.8107,-843 292.8107,-843.0001 292.8105,-823.0001 296.8105,-823"/>
<polyline fill="none" stroke="#d25252" points="298.8106,-833 288.8106,-833.0001 "/>
</g>
<!-- Lobelia -->
<g id="node7" class="node">
<title>Lobelia</title>
<g id="a_node7"><a xlink:title="&#10;&#10;">
<polygon fill="#36393f" stroke="#cccccc" points="479,-794 299,-794 299,-752 479,-752 479,-794"/>
<text text-anchor="start" x="366.9369" y="-775.4" font-family="Helvetica, Arial, sans-serif" font-size="14.00" fill="#ffffff">Lobelia</text>
<text text-anchor="start" x="356.992" y="-761" font-family="Helvetica, Arial, sans-serif" font-size="10.00" fill="#aaaaaa">Lobelia Durant</text>
</a>
</g>
</g>
<!-- siblings_0&#45;&gt;Lobelia -->
<g id="edge6" class="edge">
<title>siblings_0&#45;&gt;Lobelia</title>
<path fill="none" stroke="#d25252" d="M267,-832.4946C267,-827.5508 267,-788 267,-788 267,-788 288.7356,-788 288.7356,-788"/>
<polygon fill="#d25252" stroke="#d25252" points="296.7355,-778 296.7357,-798 292.7357,-798.0001 292.7355,-778.0001 296.7355,-778"/>
<polyline fill="none" stroke="#d25252" points="298.7356,-788 288.7356,-788.0001 "/>
</g>
<!-- union_1 -->
<g id="node8" class="node">
<title>union_1</title>
<ellipse fill="#ccdf32" stroke="#ffffff" cx="511.5" cy="-981" rx="3.5" ry="3.5"/>
</g>
<!-- Davide&#45;&gt;union_1 -->
<g id="edge7" class="edge">
<title>Davide&#45;&gt;union_1</title>
<path fill="none" stroke="#ccdf32" d="M479.1165,-893C498.3477,-893 513,-893 513,-893 513,-893 513,-961.5835 513,-977.6578"/>
</g>
<!-- union_3 -->
<g id="node15" class="node">
<title>union_3</title>
<ellipse fill="#cc7832" stroke="#ffffff" cx="511.5" cy="-712" rx="3.5" ry="3.5"/>
</g>
<!-- Melchior&#45;&gt;union_3 -->
<g id="edge14" class="edge">
<title>Melchior&#45;&gt;union_3</title>
<path fill="none" stroke="#cc7832" d="M479.2644,-833C497.3914,-833 511,-833 511,-833 511,-833 511,-735.33 511,-715.4908"/>
</g>
<!-- union_8_2 -->
<g id="node52" class="node">
<title>union_8_2</title>
<ellipse fill="#cc7832" stroke="#ffffff" cx="511.5" cy="-180" rx="3.5" ry="3.5"/>
</g>
<!-- Lobelia&#45;&gt;union_8_2 -->
<g id="edge49" class="edge">
<title>Lobelia&#45;&gt;union_8_2</title>
<path fill="none" stroke="#cc7832" d="M479.4002,-773C488.2322,-773 494,-773 494,-773 494,-773 494,-181.1667 494,-181.1667 494,-181.1667 503.0405,-181.1667 508.1258,-181.1667"/>
</g>
<!-- siblings_1 -->
<g id="node10" class="node">
<title>siblings_1</title>
<polygon fill="#ccdf32" stroke="#cccccc" stroke-width="0" points="551,-981.5 544,-981.5 544,-980.5 551,-980.5 551,-981.5"/>
</g>
<!-- union_1&#45;&gt;siblings_1 -->
<g id="edge9" class="edge">
<title>union_1&#45;&gt;siblings_1</title>
<path fill="none" stroke="#ccdf32" d="M515.0834,-981C521.9128,-981 536.7324,-981 543.7154,-981"/>
</g>
<!-- Sabine -->
<g id="node9" class="node">
<title>Sabine</title>
<g id="a_node9"><a xlink:title="&#10;&#10;">
<polygon fill="#36393f" stroke="#cccccc" points="479,-1003 299,-1003 299,-961 479,-961 479,-1003"/>
<text text-anchor="start" x="367.7132" y="-984.4" font-family="Helvetica, Arial, sans-serif" font-size="14.00" fill="#ffffff">Sabine</text>
<text text-anchor="start" x="351.9975" y="-970" font-family="Helvetica, Arial, sans-serif" font-size="10.00" fill="#aaaaaa">Sabine Cremaire</text>
</a>
</g>
</g>
<!-- Sabine&#45;&gt;union_1 -->
<g id="edge8" class="edge">
<title>Sabine&#45;&gt;union_1</title>
<path fill="none" stroke="#ccdf32" d="M479.3146,-981C491.9376,-981 502.4166,-981 507.7333,-981"/>
</g>
<!-- Turmeric -->
<g id="node11" class="node">
<title>Turmeric</title>
<g id="a_node11"><a xlink:title="&#10;&#10;">
<polygon fill="#36393f" stroke="#cccccc" points="760,-1062 580,-1062 580,-1020 760,-1020 760,-1062"/>
<text text-anchor="start" x="642.3969" y="-1043.4" font-family="Helvetica, Arial, sans-serif" font-size="14.00" fill="#ffffff">Turmeric</text>
<text text-anchor="start" x="633.892" y="-1029" font-family="Helvetica, Arial, sans-serif" font-size="10.00" fill="#aaaaaa">Turmeric Durant</text>
</a>
</g>
</g>
<!-- siblings_1&#45;&gt;Turmeric -->
<g id="edge10" class="edge">
<title>siblings_1&#45;&gt;Turmeric</title>
<path fill="none" stroke="#ccdf32" d="M548,-981.6738C548,-988.2656 548,-1041 548,-1041 548,-1041 569.7356,-1041 569.7356,-1041"/>
<polygon fill="#ccdf32" stroke="#ccdf32" points="577.7355,-1031 577.7357,-1051 573.7357,-1051.0001 573.7355,-1031.0001 577.7355,-1031"/>
<polyline fill="none" stroke="#ccdf32" points="579.7356,-1041 569.7356,-1041.0001 "/>
</g>
<!-- Estelle -->
<g id="node12" class="node">
<title>Estelle</title>
<g id="a_node12"><a xlink:title="&#10;&#10;">
<polygon fill="#36393f" stroke="#cccccc" points="760,-1002 580,-1002 580,-960 760,-960 760,-1002"/>
<text text-anchor="start" x="648.9972" y="-983.4" font-family="Helvetica, Arial, sans-serif" font-size="14.00" fill="#ffffff">Estelle</text>
<text text-anchor="start" x="638.6065" y="-969" font-family="Helvetica, Arial, sans-serif" font-size="10.00" fill="#aaaaaa">Estelle Durant</text>
</a>
</g>
</g>
<!-- siblings_1&#45;&gt;Estelle -->
<g id="edge11" class="edge">
<title>siblings_1&#45;&gt;Estelle</title>
<path fill="none" stroke="#ccdf32" d="M551.0341,-981C551.0341,-981 569.8106,-981 569.8106,-981"/>
<polygon fill="#ccdf32" stroke="#ccdf32" points="577.8105,-971 577.8107,-991 573.8107,-991.0001 573.8105,-971.0001 577.8105,-971"/>
<polyline fill="none" stroke="#ccdf32" points="579.8106,-981 569.8106,-981.0001 "/>
</g>
<!-- union_2 -->
<g id="node13" class="node">
<title>union_2</title>
<ellipse fill="#629755" stroke="#ffffff" cx="792.5" cy="-1092" rx="3.5" ry="3.5"/>
</g>
<!-- Turmeric&#45;&gt;union_2 -->
<g id="edge12" class="edge">
<title>Turmeric&#45;&gt;union_2</title>
<path fill="none" stroke="#629755" d="M760.0383,-1041C778.7943,-1041 793,-1041 793,-1041 793,-1041 793,-1076.6384 793,-1088.3322"/>
</g>
<!-- Nancy -->
<g id="node14" class="node">
<title>Nancy</title>
<g id="a_node14"><a xlink:title="&#10;&#10;">
<polygon fill="#36393f" stroke="#cccccc" points="760,-1122 580,-1122 580,-1080 760,-1080 760,-1122"/>
<text text-anchor="start" x="650.6641" y="-1103.4" font-family="Helvetica, Arial, sans-serif" font-size="14.00" fill="#ffffff">Nancy</text>
<text text-anchor="start" x="636.88" y="-1089" font-family="Helvetica, Arial, sans-serif" font-size="10.00" fill="#aaaaaa">Nancy Kincade</text>
</a>
</g>
</g>
<!-- Nancy&#45;&gt;union_2 -->
<g id="edge13" class="edge">
<title>Nancy&#45;&gt;union_2</title>
<path fill="none" stroke="#629755" d="M760.3146,-1092C772.9376,-1092 783.4166,-1092 788.7333,-1092"/>
</g>
<!-- siblings_3 -->
<g id="node17" class="node">
<title>siblings_3</title>
<polygon fill="#cc7832" stroke="#cccccc" stroke-width="0" points="551,-712.5 544,-712.5 544,-711.5 551,-711.5 551,-712.5"/>
</g>
<!-- union_3&#45;&gt;siblings_3 -->
<g id="edge16" class="edge">
<title>union_3&#45;&gt;siblings_3</title>
<path fill="none" stroke="#cc7832" d="M515.0834,-712C521.9128,-712 536.7324,-712 543.7154,-712"/>
</g>
<!-- Odette -->
<g id="node16" class="node">
<title>Odette</title>
<g id="a_node16"><a xlink:title="&#10;&#10;">
<polygon fill="#36393f" stroke="#cccccc" points="479,-732 299,-732 299,-690 479,-690 479,-732"/>
<text text-anchor="start" x="367.9902" y="-713.4" font-family="Helvetica, Arial, sans-serif" font-size="14.00" fill="#ffffff">Odette</text>
<text text-anchor="start" x="353.7115" y="-699" font-family="Helvetica, Arial, sans-serif" font-size="10.00" fill="#aaaaaa">Odette Rochard</text>
</a>
</g>
</g>
<!-- Odette&#45;&gt;union_3 -->
<g id="edge15" class="edge">
<title>Odette&#45;&gt;union_3</title>
<path fill="none" stroke="#cc7832" d="M479.3146,-712C491.9376,-712 502.4166,-712 507.7333,-712"/>
</g>
<!-- Armaund -->
<g id="node18" class="node">
<title>Armaund</title>
<g id="a_node18"><a xlink:title="&#10;&#10;">
<polygon fill="#36393f" stroke="#cccccc" points="760,-734 580,-734 580,-692 760,-692 760,-734"/>
<text text-anchor="start" x="642.1059" y="-715.4" font-family="Helvetica, Arial, sans-serif" font-size="14.00" fill="#ffffff">Armaund</text>
<text text-anchor="start" x="633.827" y="-701" font-family="Helvetica, Arial, sans-serif" font-size="10.00" fill="#aaaaaa">Armaund Durant</text>
</a>
</g>
</g>
<!-- siblings_3&#45;&gt;Armaund -->
<g id="edge17" class="edge">
<title>siblings_3&#45;&gt;Armaund</title>
<path fill="none" stroke="#cc7832" d="M551.0341,-712C551.0341,-712 569.8106,-712 569.8106,-712"/>
<polygon fill="#cc7832" stroke="#cc7832" points="577.8105,-702 577.8107,-722 573.8107,-722.0001 573.8105,-702.0001 577.8105,-702"/>
<polyline fill="none" stroke="#cc7832" points="579.8106,-712 569.8106,-712.0001 "/>
</g>
<!-- Rogelio -->
<g id="node19" class="node">
<title>Rogelio</title>
<g id="a_node19"><a xlink:title="&#10;&#10;">
<polygon fill="#36393f" stroke="#ff0000" stroke-width=".25" points="760,-674 580,-674 580,-632 760,-632 760,-674"/>
<text text-anchor="start" x="646.2749" y="-655.4" font-family="Helvetica, Arial, sans-serif" font-size="14.00" fill="#ffffff">Rogelio</text>
<text text-anchor="start" x="636.662" y="-641" font-family="Helvetica, Arial, sans-serif" font-size="10.00" fill="#aaaaaa">Rogelio Durant</text>
</a>
</g>
</g>
<!-- siblings_3&#45;&gt;Rogelio -->
<g id="edge18" class="edge">
<title>siblings_3&#45;&gt;Rogelio</title>
<path fill="none" stroke="#cc7832" d="M547,-711.3374C547,-704.8555 547,-653 547,-653 547,-653 569.9617,-653 569.9617,-653"/>
<polygon fill="#cc7832" stroke="#cc7832" points="577.9616,-643 577.9618,-663 573.9618,-663.0001 573.9616,-643.0001 577.9616,-643"/>
<polyline fill="none" stroke="#cc7832" points="579.9617,-653 569.9617,-653.0001 "/>
</g>
<!-- union_4 -->
<g id="node20" class="node">
<title>union_4</title>
<ellipse fill="#6897bb" stroke="#ffffff" cx="792.5" cy="-764" rx="3.5" ry="3.5"/>
</g>
<!-- Armaund&#45;&gt;union_4 -->
<g id="edge19" class="edge">
<title>Armaund&#45;&gt;union_4</title>
<path fill="none" stroke="#6897bb" d="M760.1165,-721.6667C779.3477,-721.6667 794,-721.6667 794,-721.6667 794,-721.6667 794,-750.6985 794,-760.6782"/>
</g>
<!-- union_5 -->
<g id="node22" class="node">
<title>union_5</title>
<ellipse fill="#bbb529" stroke="#ffffff" cx="792.5" cy="-571" rx="3.5" ry="3.5"/>
</g>
<!-- Rogelio&#45;&gt;union_5 -->
<g id="edge21" class="edge">
<title>Rogelio&#45;&gt;union_5</title>
<path fill="none" stroke="#bbb529" d="M760.2644,-658C778.3914,-658 792,-658 792,-658 792,-658 792,-591.3906 792,-574.7383"/>
</g>
<!-- Tamara -->
<g id="node21" class="node">
<title>Tamara</title>
<g id="a_node21"><a xlink:title="&#10;&#10;">
<polygon fill="#36393f" stroke="#cccccc" points="760,-794 580,-794 580,-752 760,-752 760,-794"/>
<text text-anchor="start" x="646.3892" y="-775.4" font-family="Helvetica, Arial, sans-serif" font-size="14.00" fill="#ffffff">Tamara</text>
<text text-anchor="start" x="631.887" y="-761" font-family="Helvetica, Arial, sans-serif" font-size="10.00" fill="#aaaaaa">Tamara Coleman</text>
</a>
</g>
</g>
<!-- Tamara&#45;&gt;union_4 -->
<g id="edge20" class="edge">
<title>Tamara&#45;&gt;union_4</title>
<path fill="none" stroke="#6897bb" d="M760.3146,-764C772.9376,-764 783.4166,-764 788.7333,-764"/>
</g>
<!-- siblings_5 -->
<g id="node24" class="node">
<title>siblings_5</title>
<polygon fill="#bbb529" stroke="#cccccc" stroke-width="0" points="832,-571.5 825,-571.5 825,-570.5 832,-570.5 832,-571.5"/>
</g>
<!-- union_5&#45;&gt;siblings_5 -->
<g id="edge23" class="edge">
<title>union_5&#45;&gt;siblings_5</title>
<path fill="none" stroke="#bbb529" d="M796.0834,-571C802.9128,-571 817.7324,-571 824.7154,-571"/>
</g>
<!-- Tedora -->
<g id="node23" class="node">
<title>Tedora</title>
<g id="a_node23"><a xlink:title="&#10;&#10;">
<polygon fill="#36393f" stroke="#ff0000" stroke-width=".25" points="760,-592 580,-592 580,-550 760,-550 760,-592"/>
<text text-anchor="start" x="648.3282" y="-573.4" font-family="Helvetica, Arial, sans-serif" font-size="14.00" fill="#ffffff">Tedora</text>
<text text-anchor="start" x="629.6625" y="-559" font-family="Helvetica, Arial, sans-serif" font-size="10.00" fill="#aaaaaa">Tedora McFarland</text>
</a>
</g>
</g>
<!-- Tedora&#45;&gt;union_5 -->
<g id="edge22" class="edge">
<title>Tedora&#45;&gt;union_5</title>
<path fill="none" stroke="#bbb529" d="M760.3146,-571C772.9376,-571 783.4166,-571 788.7333,-571"/>
</g>
<!-- Degare -->
<g id="node25" class="node">
<title>Degare</title>
<g id="a_node25"><a xlink:title="&#10;&#10;">
<polygon fill="#36393f" stroke="#cccccc" points="1041,-570 861,-570 861,-528 1041,-528 1041,-570"/>
<text text-anchor="start" x="928.5512" y="-551.4" font-family="Helvetica, Arial, sans-serif" font-size="14.00" fill="#ffffff">Degare</text>
<text text-anchor="start" x="918.7165" y="-537" font-family="Helvetica, Arial, sans-serif" font-size="10.00" fill="#aaaaaa">Degare Durant</text>
</a>
</g>
</g>
<!-- siblings_5&#45;&gt;Degare -->
<g id="edge24" class="edge">
<title>siblings_5&#45;&gt;Degare</title>
<path fill="none" stroke="#bbb529" d="M831,-570.4736C831,-568.1289 831,-558.75 831,-558.75 831,-558.75 850.9715,-558.75 850.9715,-558.75"/>
<polygon fill="#bbb529" stroke="#bbb529" points="858.9714,-548.75 858.9716,-568.75 854.9716,-568.7501 854.9714,-548.7501 858.9714,-548.75"/>
<polyline fill="none" stroke="#bbb529" points="860.9715,-558.75 850.9715,-558.7501 "/>
</g>
<!-- Dyson -->
<g id="node26" class="node">
<title>Dyson</title>
<g id="a_node26"><a xlink:title="&#10;&#10;">
<polygon fill="#36393f" stroke="#cccccc" points="1041,-510 861,-510 861,-468 1041,-468 1041,-510"/>
<text text-anchor="start" x="931.1641" y="-491.4" font-family="Helvetica, Arial, sans-serif" font-size="14.00" fill="#ffffff">Dyson</text>
<text text-anchor="start" x="911.831" y="-477" font-family="Helvetica, Arial, sans-serif" font-size="10.00" fill="#aaaaaa">Dyson McFarland</text>
</a>
</g>
</g>
<!-- siblings_5&#45;&gt;Dyson -->
<g id="edge25" class="edge">
<title>siblings_5&#45;&gt;Dyson</title>
<path fill="none" stroke="#bbb529" d="M827,-570.4764C827,-563.4927 827,-489 827,-489 827,-489 850.8835,-489 850.8835,-489"/>
<polygon fill="#bbb529" stroke="#bbb529" points="858.8834,-479 858.8836,-499 854.8836,-499.0001 854.8834,-479.0001 858.8834,-479"/>
<polyline fill="none" stroke="#bbb529" points="860.8835,-489 850.8835,-489.0001 "/>
</g>
<!-- Lyla -->
<g id="node27" class="node">
<title>Lyla</title>
<polygon fill="#36393f" stroke="#cccccc" points="1041,-624 861,-624 861,-588 1041,-588 1041,-624"/>
<text text-anchor="middle" x="951" y="-601.8" font-family="Helvetica, Arial, sans-serif" font-size="14.00" fill="#ffffff">Lyla</text>
</g>
<!-- siblings_5&#45;&gt;Lyla -->
<g id="edge26" class="edge">
<title>siblings_5&#45;&gt;Lyla</title>
<path fill="none" stroke="#bbb529" d="M829,-571.9146C829,-577.6123 829,-608 829,-608 829,-608 850.7356,-608 850.7356,-608"/>
<polygon fill="#bbb529" stroke="#bbb529" points="858.7355,-598 858.7357,-618 854.7357,-618.0001 854.7355,-598.0001 858.7355,-598"/>
<polyline fill="none" stroke="#bbb529" points="860.7356,-608 850.7356,-608.0001 "/>
</g>
<!-- union_6 -->
<g id="node28" class="node">
<title>union_6</title>
<ellipse fill="#9876aa" stroke="#ffffff" cx="1073.5" cy="-660" rx="3.5" ry="3.5"/>
</g>
<!-- Degare&#45;&gt;union_6 -->
<g id="edge27" class="edge">
<title>Degare&#45;&gt;union_6</title>
<path fill="none" stroke="#9876aa" d="M1041.2644,-549C1059.3914,-549 1073,-549 1073,-549 1073,-549 1073,-637.0466 1073,-656.3068"/>
</g>
<!-- union_7 -->
<g id="node33" class="node">
<title>union_7</title>
<ellipse fill="#efc090" stroke="#ffffff" cx="1073.5" cy="-379" rx="3.5" ry="3.5"/>
</g>
<!-- Dyson&#45;&gt;union_7 -->
<g id="edge32" class="edge">
<title>Dyson&#45;&gt;union_7</title>
<path fill="none" stroke="#efc090" d="M1041.1165,-489C1060.3477,-489 1075,-489 1075,-489 1075,-489 1075,-400.2091 1075,-382.1735"/>
</g>
<!-- siblings_6 -->
<g id="node30" class="node">
<title>siblings_6</title>
<polygon fill="#9876aa" stroke="#cccccc" stroke-width="0" points="1113,-660.5 1106,-660.5 1106,-659.5 1113,-659.5 1113,-660.5"/>
</g>
<!-- union_6&#45;&gt;siblings_6 -->
<g id="edge29" class="edge">
<title>union_6&#45;&gt;siblings_6</title>
<path fill="none" stroke="#9876aa" d="M1077.0834,-660C1083.9128,-660 1098.7324,-660 1105.7154,-660"/>
</g>
<!-- Sera -->
<g id="node29" class="node">
<title>Sera</title>
<g id="a_node29"><a xlink:title="&#10;&#10;">
<polygon fill="#36393f" stroke="#cccccc" points="1041,-684 861,-684 861,-642 1041,-642 1041,-684"/>
<text text-anchor="start" x="936.7188" y="-665.4" font-family="Helvetica, Arial, sans-serif" font-size="14.00" fill="#ffffff">Sera</text>
<text text-anchor="start" x="909.538" y="-651" font-family="Helvetica, Arial, sans-serif" font-size="10.00" fill="#aaaaaa">Seraphine Gognon</text>
</a>
</g>
</g>
<!-- Sera&#45;&gt;union_6 -->
<g id="edge28" class="edge">
<title>Sera&#45;&gt;union_6</title>
<path fill="none" stroke="#9876aa" d="M1041.3146,-660C1053.9376,-660 1064.4166,-660 1069.7333,-660"/>
</g>
<!-- Michael -->
<g id="node31" class="node">
<title>Michael</title>
<g id="a_node31"><a xlink:title="&#10;&#10;">
<polygon fill="#36393f" stroke="#cccccc" points="1322,-679 1142,-679 1142,-637 1322,-637 1322,-679"/>
<text text-anchor="start" x="1208.3892" y="-660.4" font-family="Helvetica, Arial, sans-serif" font-size="14.00" fill="#ffffff">Michael</text>
<text text-anchor="start" x="1198.8865" y="-646" font-family="Helvetica, Arial, sans-serif" font-size="10.00" fill="#aaaaaa">Michael Durant</text>
</a>
</g>
</g>
<!-- siblings_6&#45;&gt;Michael -->
<g id="edge30" class="edge">
<title>siblings_6&#45;&gt;Michael</title>
<path fill="none" stroke="#9876aa" d="M1113.0341,-660C1113.0341,-660 1131.8106,-660 1131.8106,-660"/>
<polygon fill="#9876aa" stroke="#9876aa" points="1139.8105,-650 1139.8107,-670 1135.8107,-670.0001 1135.8105,-650.0001 1139.8105,-650"/>
<polyline fill="none" stroke="#9876aa" points="1141.8106,-660 1131.8106,-660.0001 "/>
</g>
<!-- Lyla II -->
<g id="node32" class="node">
<title>Lyla II</title>
<g id="a_node32"><a xlink:title="&#10;&#10;">
<polygon fill="#36393f" stroke="#cccccc" points="1322,-739 1142,-739 1142,-697 1322,-697 1322,-739"/>
<text text-anchor="start" x="1213.8282" y="-720.4" font-family="Helvetica, Arial, sans-serif" font-size="14.00" fill="#ffffff">Lyla II</text>
<text text-anchor="start" x="1202.7715" y="-706" font-family="Helvetica, Arial, sans-serif" font-size="10.00" fill="#aaaaaa">Lyla II Durant</text>
</a>
</g>
</g>
<!-- siblings_6&#45;&gt;Lyla II -->
<g id="edge31" class="edge">
<title>siblings_6&#45;&gt;Lyla II</title>
<path fill="none" stroke="#9876aa" d="M1110,-660.554C1110,-665.974 1110,-709.3333 1110,-709.3333 1110,-709.3333 1131.7356,-709.3333 1131.7356,-709.3333"/>
<polygon fill="#9876aa" stroke="#9876aa" points="1139.7355,-699.3334 1139.7357,-719.3334 1135.7357,-719.3334 1135.7355,-699.3334 1139.7355,-699.3334"/>
<polyline fill="none" stroke="#9876aa" points="1141.7356,-709.3333 1131.7356,-709.3334 "/>
</g>
<!-- siblings_7 -->
<g id="node35" class="node">
<title>siblings_7</title>
<polygon fill="#efc090" stroke="#cccccc" stroke-width="0" points="1113,-379.5 1106,-379.5 1106,-378.5 1113,-378.5 1113,-379.5"/>
</g>
<!-- union_7&#45;&gt;siblings_7 -->
<g id="edge34" class="edge">
<title>union_7&#45;&gt;siblings_7</title>
<path fill="none" stroke="#efc090" d="M1077.0834,-379C1083.9128,-379 1098.7324,-379 1105.7154,-379"/>
</g>
<!-- Priscilla -->
<g id="node34" class="node">
<title>Priscilla</title>
<g id="a_node34"><a xlink:title="&#10;&#10;">
<polygon fill="#36393f" stroke="#cccccc" points="1041,-400 861,-400 861,-358 1041,-358 1041,-400"/>
<text text-anchor="start" x="926.8969" y="-381.4" font-family="Helvetica, Arial, sans-serif" font-size="14.00" fill="#ffffff">Priscilla</text>
<text text-anchor="start" x="908.7735" y="-367" font-family="Helvetica, Arial, sans-serif" font-size="10.00" fill="#aaaaaa">Priscilla Blanchette</text>
</a>
</g>
</g>
<!-- Priscilla&#45;&gt;union_7 -->
<g id="edge33" class="edge">
<title>Priscilla&#45;&gt;union_7</title>
<path fill="none" stroke="#efc090" d="M1041.3146,-379C1053.9376,-379 1064.4166,-379 1069.7333,-379"/>
</g>
<!-- Kimberly -->
<g id="node36" class="node">
<title>Kimberly</title>
<g id="a_node36"><a xlink:title="&#10;&#10;">
<polygon fill="#36393f" stroke="#cccccc" points="1322,-280 1142,-280 1142,-238 1322,-238 1322,-280"/>
<text text-anchor="start" x="1204.7819" y="-261.4" font-family="Helvetica, Arial, sans-serif" font-size="14.00" fill="#ffffff">Kimberly</text>
<text text-anchor="start" x="1187.558" y="-247" font-family="Helvetica, Arial, sans-serif" font-size="10.00" fill="#aaaaaa">Kimberly McFarland</text>
</a>
</g>
</g>
<!-- siblings_7&#45;&gt;Kimberly -->
<g id="edge35" class="edge">
<title>siblings_7&#45;&gt;Kimberly</title>
<path fill="none" stroke="#efc090" d="M1109,-378.2337C1109,-368.0137 1109,-259 1109,-259 1109,-259 1131.9617,-259 1131.9617,-259"/>
<polygon fill="#efc090" stroke="#efc090" points="1139.9616,-249 1139.9618,-269 1135.9618,-269.0001 1135.9616,-249.0001 1139.9616,-249"/>
<polyline fill="none" stroke="#efc090" points="1141.9617,-259 1131.9617,-259.0001 "/>
</g>
<!-- Gregory -->
<g id="node37" class="node">
<title>Gregory</title>
<g id="a_node37"><a xlink:title="&#10;&#10;">
<polygon fill="#36393f" stroke="#cccccc" points="1322,-340 1142,-340 1142,-298 1322,-298 1322,-340"/>
<text text-anchor="start" x="1206.7202" y="-321.4" font-family="Helvetica, Arial, sans-serif" font-size="14.00" fill="#ffffff">Gregory</text>
<text text-anchor="start" x="1188.9425" y="-307" font-family="Helvetica, Arial, sans-serif" font-size="10.00" fill="#aaaaaa">Gregory McFarland</text>
</a>
</g>
</g>
<!-- siblings_7&#45;&gt;Gregory -->
<g id="edge36" class="edge">
<title>siblings_7&#45;&gt;Gregory</title>
<path fill="none" stroke="#efc090" d="M1111,-378.3262C1111,-371.7344 1111,-319 1111,-319 1111,-319 1131.8465,-319 1131.8465,-319"/>
<polygon fill="#efc090" stroke="#efc090" points="1139.8464,-309 1139.8466,-329 1135.8466,-329.0001 1135.8464,-309.0001 1139.8464,-309"/>
<polyline fill="none" stroke="#efc090" points="1141.8465,-319 1131.8465,-319.0001 "/>
</g>
<!-- Yenna MF -->
<g id="node38" class="node">
<title>Yenna MF</title>
<g id="a_node38"><a xlink:title="&#10;&#10;">
<polygon fill="#36393f" stroke="#cccccc" points="1322,-400 1142,-400 1142,-358 1322,-358 1322,-400"/>
<text text-anchor="start" x="1211.7665" y="-381.4" font-family="Helvetica, Arial, sans-serif" font-size="14.00" fill="#ffffff">Yenna</text>
<text text-anchor="start" x="1192.547" y="-367" font-family="Helvetica, Arial, sans-serif" font-size="10.00" fill="#aaaaaa">Yenna McFarland</text>
</a>
</g>
</g>
<!-- siblings_7&#45;&gt;Yenna MF -->
<g id="edge37" class="edge">
<title>siblings_7&#45;&gt;Yenna MF</title>
<path fill="none" stroke="#efc090" d="M1113.0341,-379C1113.0341,-379 1131.8106,-379 1131.8106,-379"/>
<polygon fill="#efc090" stroke="#efc090" points="1139.8105,-369 1139.8107,-389 1135.8107,-389.0001 1135.8105,-369.0001 1139.8105,-369"/>
<polyline fill="none" stroke="#efc090" points="1141.8106,-379 1131.8106,-379.0001 "/>
</g>
<!-- Marion -->
<g id="node39" class="node">
<title>Marion</title>
<g id="a_node39"><a xlink:title="&#10;&#10;">
<polygon fill="#36393f" stroke="#cccccc" points="1322,-460 1142,-460 1142,-418 1322,-418 1322,-460"/>
<text text-anchor="start" x="1210.6122" y="-441.4" font-family="Helvetica, Arial, sans-serif" font-size="14.00" fill="#ffffff">Marion</text>
<text text-anchor="start" x="1191.7225" y="-427" font-family="Helvetica, Arial, sans-serif" font-size="10.00" fill="#aaaaaa">Marion McFarland</text>
</a>
</g>
</g>
<!-- siblings_7&#45;&gt;Marion -->
<g id="edge38" class="edge">
<title>siblings_7&#45;&gt;Marion</title>
<path fill="none" stroke="#efc090" d="M1110,-379.6738C1110,-386.2656 1110,-439 1110,-439 1110,-439 1131.7356,-439 1131.7356,-439"/>
<polygon fill="#efc090" stroke="#efc090" points="1139.7355,-429 1139.7357,-449 1135.7357,-449.0001 1135.7355,-429.0001 1139.7355,-429"/>
<polyline fill="none" stroke="#efc090" points="1141.7356,-439 1131.7356,-439.0001 "/>
</g>
<!-- union_8_0 -->
<g id="node40" class="node">
<title>union_8_0</title>
<ellipse fill="#ccdf32" stroke="#ffffff" cx="792.5" cy="-59" rx="3.5" ry="3.5"/>
</g>
<!-- siblings_8_0 -->
<g id="node43" class="node">
<title>siblings_8_0</title>
<polygon fill="#ccdf32" stroke="#cccccc" stroke-width="0" points="832,-59.5 825,-59.5 825,-58.5 832,-58.5 832,-59.5"/>
</g>
<!-- union_8_0&#45;&gt;siblings_8_0 -->
<g id="edge41" class="edge">
<title>union_8_0&#45;&gt;siblings_8_0</title>
<path fill="none" stroke="#ccdf32" d="M796.0834,-59C802.9128,-59 817.7324,-59 824.7154,-59"/>
</g>
<!-- Regidor -->
<g id="node41" class="node">
<title>Regidor</title>
<g id="a_node41"><a xlink:title="&#10;&#10;">
<polygon fill="#36393f" stroke="#cccccc" points="760,-110 580,-110 580,-68 760,-68 760,-110"/>
<text text-anchor="start" x="645.4979" y="-91.4" font-family="Helvetica, Arial, sans-serif" font-size="14.00" fill="#ffffff">Regidor</text>
<text text-anchor="start" x="634.718" y="-77" font-family="Helvetica, Arial, sans-serif" font-size="10.00" fill="#aaaaaa">Regidor de Villa</text>
</a>
</g>
</g>
<!-- Regidor&#45;&gt;union_8_0 -->
<g id="edge39" class="edge">
<title>Regidor&#45;&gt;union_8_0</title>
<path fill="none" stroke="#ccdf32" d="M760.0383,-82C778.7943,-82 793,-82 793,-82 793,-82 793,-69.0625 793,-62.5938"/>
</g>
<!-- Alicia -->
<g id="node42" class="node">
<title>Alicia</title>
<g id="a_node42"><a xlink:title="&#10;&#10;">
<polygon fill="#36393f" stroke="#cccccc" points="760,-50 580,-50 580,-8 760,-8 760,-50"/>
<text text-anchor="start" x="653.7805" y="-31.4" font-family="Helvetica, Arial, sans-serif" font-size="14.00" fill="#ffffff">Alicia</text>
<text text-anchor="start" x="632.9965" y="-17" font-family="Helvetica, Arial, sans-serif" font-size="10.00" fill="#aaaaaa">Alicia Molyneaux</text>
</a>
</g>
</g>
<!-- Alicia&#45;&gt;union_8_0 -->
<g id="edge40" class="edge">
<title>Alicia&#45;&gt;union_8_0</title>
<path fill="none" stroke="#ccdf32" d="M760.0383,-36C778.7943,-36 793,-36 793,-36 793,-36 793,-48.9375 793,-55.4063"/>
</g>
<!-- Reginald -->
<g id="node44" class="node">
<title>Reginald</title>
<g id="a_node44"><a xlink:title="&#10;&#10;">
<polygon fill="#36393f" stroke="#cccccc" points="1041,-50 861,-50 861,-8 1041,-8 1041,-50"/>
<text text-anchor="start" x="923.8836" y="-31.4" font-family="Helvetica, Arial, sans-serif" font-size="14.00" fill="#ffffff">Reginald</text>
<text text-anchor="start" x="913.9935" y="-17" font-family="Helvetica, Arial, sans-serif" font-size="10.00" fill="#aaaaaa">Reginald de Villa</text>
</a>
</g>
</g>
<!-- siblings_8_0&#45;&gt;Reginald -->
<g id="edge42" class="edge">
<title>siblings_8_0&#45;&gt;Reginald</title>
<path fill="none" stroke="#ccdf32" d="M829,-58.0854C829,-52.3877 829,-22 829,-22 829,-22 850.7356,-22 850.7356,-22"/>
<polygon fill="#ccdf32" stroke="#ccdf32" points="858.7355,-12 858.7357,-32 854.7357,-32.0001 854.7355,-12.0001 858.7355,-12"/>
<polyline fill="none" stroke="#ccdf32" points="860.7356,-22 850.7356,-22.0001 "/>
</g>
<!-- Porticia -->
<g id="node45" class="node">
<title>Porticia</title>
<g id="a_node45"><a xlink:title="&#10;&#10;">
<polygon fill="#36393f" stroke="#cccccc" points="1041,-110 861,-110 861,-68 1041,-68 1041,-110"/>
<text text-anchor="start" x="927.6669" y="-91.4" font-family="Helvetica, Arial, sans-serif" font-size="14.00" fill="#ffffff">Porticia</text>
<text text-anchor="start" x="916.553" y="-77" font-family="Helvetica, Arial, sans-serif" font-size="10.00" fill="#aaaaaa">Porticia de Villa</text>
</a>
</g>
</g>
<!-- siblings_8_0&#45;&gt;Porticia -->
<g id="edge43" class="edge">
<title>siblings_8_0&#45;&gt;Porticia</title>
<path fill="none" stroke="#ccdf32" d="M829,-59.9146C829,-65.6123 829,-96 829,-96 829,-96 850.7356,-96 850.7356,-96"/>
<polygon fill="#ccdf32" stroke="#ccdf32" points="858.7355,-86 858.7357,-106 854.7357,-106.0001 854.7355,-86.0001 858.7355,-86"/>
<polyline fill="none" stroke="#ccdf32" points="860.7356,-96 850.7356,-96.0001 "/>
</g>
<!-- union_8_1 -->
<g id="node46" class="node">
<title>union_8_1</title>
<ellipse fill="#629755" stroke="#ffffff" cx="792.5" cy="-149" rx="3.5" ry="3.5"/>
</g>
<!-- siblings_8_1 -->
<g id="node49" class="node">
<title>siblings_8_1</title>
<polygon fill="#629755" stroke="#cccccc" stroke-width="0" points="832,-149.5 825,-149.5 825,-148.5 832,-148.5 832,-149.5"/>
</g>
<!-- union_8_1&#45;&gt;siblings_8_1 -->
<g id="edge46" class="edge">
<title>union_8_1&#45;&gt;siblings_8_1</title>
<path fill="none" stroke="#629755" d="M796.0834,-149C802.9128,-149 817.7324,-149 824.7154,-149"/>
</g>
<!-- Taleisin -->
<g id="node47" class="node">
<title>Taleisin</title>
<g id="a_node47"><a xlink:title="&#10;&#10;">
<polygon fill="#36393f" stroke="#cccccc" points="760,-230 580,-230 580,-188 760,-188 760,-230"/>
<text text-anchor="start" x="645.8899" y="-211.4" font-family="Helvetica, Arial, sans-serif" font-size="14.00" fill="#ffffff">Taleisin</text>
<text text-anchor="start" x="634.998" y="-197" font-family="Helvetica, Arial, sans-serif" font-size="10.00" fill="#aaaaaa">Taleisin de Villa</text>
</a>
</g>
</g>
<!-- Taleisin&#45;&gt;union_8_1 -->
<g id="edge44" class="edge">
<title>Taleisin&#45;&gt;union_8_1</title>
<path fill="none" stroke="#629755" d="M760.0383,-216C778.7943,-216 793,-216 793,-216 793,-216 793,-166.5188 793,-152.6022"/>
</g>
<!-- Freja -->
<g id="node48" class="node">
<title>Freja</title>
<g id="a_node48"><a xlink:title="&#10;&#10;">
<polygon fill="#36393f" stroke="#cccccc" points="760,-170 580,-170 580,-128 760,-128 760,-170"/>
<text text-anchor="start" x="654.5575" y="-151.4" font-family="Helvetica, Arial, sans-serif" font-size="14.00" fill="#ffffff">Freja</text>
<text text-anchor="start" x="634.678" y="-137" font-family="Helvetica, Arial, sans-serif" font-size="10.00" fill="#aaaaaa">Freja Fitzwilliam</text>
</a>
</g>
</g>
<!-- Freja&#45;&gt;union_8_1 -->
<g id="edge45" class="edge">
<title>Freja&#45;&gt;union_8_1</title>
<path fill="none" stroke="#629755" d="M760.3146,-149C772.9376,-149 783.4166,-149 788.7333,-149"/>
</g>
<!-- Moulin -->
<g id="node50" class="node">
<title>Moulin</title>
<g id="a_node50"><a xlink:title="&#10;&#10;">
<polygon fill="#36393f" stroke="#cccccc" points="1041,-170 861,-170 861,-128 1041,-128 1041,-170"/>
<text text-anchor="start" x="930.8892" y="-151.4" font-family="Helvetica, Arial, sans-serif" font-size="14.00" fill="#ffffff">Moulin</text>
<text text-anchor="start" x="918.9975" y="-137" font-family="Helvetica, Arial, sans-serif" font-size="10.00" fill="#aaaaaa">Moulin de Villa</text>
</a>
</g>
</g>
<!-- siblings_8_1&#45;&gt;Moulin -->
<g id="edge47" class="edge">
<title>siblings_8_1&#45;&gt;Moulin</title>
<path fill="none" stroke="#629755" d="M832.0341,-149C832.0341,-149 850.8106,-149 850.8106,-149"/>
<polygon fill="#629755" stroke="#629755" points="858.8105,-139 858.8107,-159 854.8107,-159.0001 854.8105,-139.0001 858.8105,-139"/>
<polyline fill="none" stroke="#629755" points="860.8106,-149 850.8106,-149.0001 "/>
</g>
<!-- Talon -->
<g id="node51" class="node">
<title>Talon</title>
<g id="a_node51"><a xlink:title="&#10;&#10;">
<polygon fill="#36393f" stroke="#cccccc" points="1041,-230 861,-230 861,-188 1041,-188 1041,-230"/>
<text text-anchor="start" x="933.4965" y="-211.4" font-family="Helvetica, Arial, sans-serif" font-size="14.00" fill="#ffffff">Talon</text>
<text text-anchor="start" x="920.717" y="-197" font-family="Helvetica, Arial, sans-serif" font-size="10.00" fill="#aaaaaa">Talon de Villa</text>
</a>
</g>
</g>
<!-- siblings_8_1&#45;&gt;Talon -->
<g id="edge48" class="edge">
<title>siblings_8_1&#45;&gt;Talon</title>
<path fill="none" stroke="#629755" d="M829,-149.5952C829,-155.418 829,-202 829,-202 829,-202 850.7356,-202 850.7356,-202"/>
<polygon fill="#629755" stroke="#629755" points="858.7355,-192 858.7357,-212 854.7357,-212.0001 854.7355,-192.0001 858.7355,-192"/>
<polyline fill="none" stroke="#629755" points="860.7356,-202 850.7356,-202.0001 "/>
</g>
<!-- siblings_8_2 -->
<g id="node54" class="node">
<title>siblings_8_2</title>
<polygon fill="#cc7832" stroke="#cccccc" stroke-width="0" points="551,-180.5 544,-180.5 544,-179.5 551,-179.5 551,-180.5"/>
</g>
<!-- union_8_2&#45;&gt;siblings_8_2 -->
<g id="edge51" class="edge">
<title>union_8_2&#45;&gt;siblings_8_2</title>
<path fill="none" stroke="#cc7832" d="M515.0834,-180C521.9128,-180 536.7324,-180 543.7154,-180"/>
</g>
<!-- Elias -->
<g id="node53" class="node">
<title>Elias</title>
<g id="a_node53"><a xlink:title="&#10;&#10;">
<polygon fill="#36393f" stroke="#cccccc" points="479,-193 299,-193 299,-151 479,-151 479,-193"/>
<text text-anchor="start" x="373.8338" y="-174.4" font-family="Helvetica, Arial, sans-serif" font-size="14.00" fill="#ffffff">Elias</text>
<text text-anchor="start" x="359.5565" y="-160" font-family="Helvetica, Arial, sans-serif" font-size="10.00" fill="#aaaaaa">Elias De Villa</text>
</a>
</g>
</g>
<!-- Elias&#45;&gt;union_8_2 -->
<g id="edge50" class="edge">
<title>Elias&#45;&gt;union_8_2</title>
<path fill="none" stroke="#cc7832" d="M479.3146,-178.8333C492.2245,-178.8333 502.8918,-178.8333 508.0877,-178.8333"/>
</g>
<!-- siblings_8_2&#45;&gt;Regidor -->
<g id="edge52" class="edge">
<title>siblings_8_2&#45;&gt;Regidor</title>
<path fill="none" stroke="#cc7832" d="M548,-179.4189C548,-171.6687 548,-89 548,-89 548,-89 569.7356,-89 569.7356,-89"/>
<polygon fill="#cc7832" stroke="#cc7832" points="577.7355,-79 577.7357,-99 573.7357,-99.0001 573.7355,-79.0001 577.7355,-79"/>
<polyline fill="none" stroke="#cc7832" points="579.7356,-89 569.7356,-89.0001 "/>
</g>
<!-- siblings_8_2&#45;&gt;Taleisin -->
<g id="edge53" class="edge">
<title>siblings_8_2&#45;&gt;Taleisin</title>
<path fill="none" stroke="#cc7832" d="M549,-180.7787C549,-185.6294 549,-211.5 549,-211.5 549,-211.5 569.8465,-211.5 569.8465,-211.5"/>
<polygon fill="#cc7832" stroke="#cc7832" points="577.8464,-201.5 577.8466,-221.5 573.8466,-221.5001 573.8464,-201.5001 577.8464,-201.5"/>
<polyline fill="none" stroke="#cc7832" points="579.8465,-211.5 569.8465,-211.5001 "/>
</g>
</g>
</svg>
