<?xml version="1.0" encoding="UTF-8" standalone="no"?>
<!DOCTYPE svg PUBLIC "-//W3C//DTD SVG 1.1//EN"
 "http://www.w3.org/Graphics/SVG/1.1/DTD/svg11.dtd">
<!-- Generated by graphviz version 2.40.1 (20161225.0304)
 -->
<!-- Title: G Pages: 1 -->
<svg width="1338pt" height="1198pt"
 viewBox="0.00 0.00 1338.00 1198.00" xmlns="http://www.w3.org/2000/svg" xmlns:xlink="http://www.w3.org/1999/xlink">
<g id="graph0" class="graph" transform="scale(1 1) rotate(0) translate(4 1194)">
<title>G</title>
<polygon fill="#23272a" stroke="transparent" points="-4,4 -4,-1194 1334,-1194 1334,4 -4,4"/>
<g id="clust1" class="cluster">
<title>cluster_family_0</title>
<polygon fill="#2c2f33" stroke="#2c2f33" points="8,-802 8,-1011 489,-1011 489,-802 8,-802"/>
<text text-anchor="start" x="16" y="-993.6" font-family="Helvetica, Arial, sans-serif" font-weight="bold" font-size="16.00" fill="#ffffff">Durant</text>
</g>
<g id="clust4" class="cluster">
<title>cluster_family_1</title>
</g>
<g id="clust7" class="cluster">
<title>cluster_family_2</title>
</g>
<g id="clust9" class="cluster">
<title>cluster_family_3</title>
</g>
<g id="clust12" class="cluster">
<title>cluster_family_4</title>
</g>
<g id="clust15" class="cluster">
<title>cluster_family_5</title>
</g>
<g id="clust18" class="cluster">
<title>cluster_family_6</title>
</g>
<g id="clust21" class="cluster">
<title>cluster_family_7</title>
</g>
<g id="clust23" class="cluster">
<title>cluster_family_8</title>
</g>
<g id="clust26" class="cluster">
<title>cluster_family_9</title>
</g>
<g id="clust27" class="cluster">
<title>cluster_family_9_0</title>
</g>
<g id="clust30" class="cluster">
<title>cluster_family_9_1</title>
</g>
<g id="clust33" class="cluster">
<title>cluster_family_9_2</title>
<polygon fill="#2c2f33" stroke="#2c2f33" points="289,-141 289,-230 561,-230 561,-141 289,-141"/>
<text text-anchor="start" x="297" y="-212.6" font-family="Helvetica, Arial, sans-serif" font-weight="bold" font-size="16.00" fill="#ffffff">de Villa</text>
</g>
<!-- union_0 -->
<g id="node1" class="node">
<title>union_0</title>
<ellipse fill="#d25252" stroke="#ffffff" cx="230.5" cy="-893" rx="3.5" ry="3.5"/>
</g>
<!-- siblings_0 -->
<g id="node4" class="node">
<title>siblings_0</title>
<polygon fill="#d25252" stroke="#cccccc" stroke-width="0" points="270,-893.5 263,-893.5 263,-892.5 270,-892.5 270,-893.5"/>
</g>
<!-- union_0&#45;&gt;siblings_0 -->
<g id="edge3" class="edge">
<title>union_0&#45;&gt;siblings_0</title>
<path fill="none" stroke="#d25252" d="M234.0834,-893C240.9128,-893 255.7324,-893 262.7154,-893"/>
</g>
<!-- Pietro -->
<g id="node2" class="node">
<title>Pietro</title>
<g id="a_node2"><a xlink:title="undefined &#10;&#10;&#10;&#10;">
<polygon fill="#36393f" stroke="#cccccc" points="198,-944 18,-944 18,-902 198,-902 198,-944"/>
<text text-anchor="start" x="89.7202" y="-925.4" font-family="Helvetica, Arial, sans-serif" font-size="14.00" fill="#ffffff">Pietro</text>
<text text-anchor="start" x="78.5515" y="-911" font-family="Helvetica, Arial, sans-serif" font-size="10.00" fill="#aaaaaa">Pietro Durant</text>
</a>
</g>
</g>
<!-- Pietro&#45;&gt;union_0 -->
<g id="edge1" class="edge">
<title>Pietro&#45;&gt;union_0</title>
<path fill="none" stroke="#d25252" d="M198.0383,-908C216.7943,-908 231,-908 231,-908 231,-908 231,-900.9102 231,-896.479"/>
</g>
<!-- Susanna -->
<g id="node3" class="node">
<title>Susanna</title>
<g id="a_node3"><a xlink:title="undefined &#10;&#10;&#10;&#10;">
<polygon fill="#36393f" stroke="#cccccc" points="198,-884 18,-884 18,-842 198,-842 198,-884"/>
<text text-anchor="start" x="80.3752" y="-865.4" font-family="Helvetica, Arial, sans-serif" font-size="14.00" fill="#ffffff">Susanna</text>
<text text-anchor="start" x="64.652" y="-851" font-family="Helvetica, Arial, sans-serif" font-size="10.00" fill="#aaaaaa">Susanna Marchand</text>
</a>
</g>
</g>
<!-- Susanna&#45;&gt;union_0 -->
<g id="edge2" class="edge">
<title>Susanna&#45;&gt;union_0</title>
<path fill="none" stroke="#d25252" d="M198.0383,-878C216.7943,-878 231,-878 231,-878 231,-878 231,-885.0898 231,-889.521"/>
</g>
<!-- Davide -->
<g id="node5" class="node">
<title>Davide</title>
<g id="a_node5"><a xlink:title="undefined &#10;&#10;&#10;&#10;">
<polygon fill="#36393f" stroke="#cccccc" points="479,-974 299,-974 299,-932 479,-932 479,-974"/>
<text text-anchor="start" x="367.7195" y="-955.4" font-family="Helvetica, Arial, sans-serif" font-size="14.00" fill="#ffffff">Davide</text>
<text text-anchor="start" x="357.551" y="-941" font-family="Helvetica, Arial, sans-serif" font-size="10.00" fill="#aaaaaa">Davide Durant</text>
</a>
</g>
</g>
<!-- siblings_0&#45;&gt;Davide -->
<g id="edge4" class="edge">
<title>siblings_0&#45;&gt;Davide</title>
<path fill="none" stroke="#d25252" d="M267,-893.5054C267,-898.4492 267,-938 267,-938 267,-938 288.7356,-938 288.7356,-938"/>
<polygon fill="#d25252" stroke="#d25252" points="296.7355,-928 296.7357,-948 292.7357,-948.0001 292.7355,-928.0001 296.7355,-928"/>
<polyline fill="none" stroke="#d25252" points="298.7356,-938 288.7356,-938.0001 "/>
</g>
<!-- Melchior -->
<g id="node6" class="node">
<title>Melchior</title>
<g id="a_node6"><a xlink:title="undefined &#10;&#10;&#10;&#10;">
<polygon fill="#36393f" stroke="#cccccc" points="479,-914 299,-914 299,-872 479,-872 479,-914"/>
<text text-anchor="start" x="362.5589" y="-895.4" font-family="Helvetica, Arial, sans-serif" font-size="14.00" fill="#ffffff">Melchior</text>
<text text-anchor="start" x="353.722" y="-881" font-family="Helvetica, Arial, sans-serif" font-size="10.00" fill="#aaaaaa">Melchior Durant</text>
</a>
</g>
</g>
<!-- siblings_0&#45;&gt;Melchior -->
<g id="edge5" class="edge">
<title>siblings_0&#45;&gt;Melchior</title>
<path fill="none" stroke="#d25252" d="M270.0341,-893C270.0341,-893 288.8106,-893 288.8106,-893"/>
<polygon fill="#d25252" stroke="#d25252" points="296.8105,-883 296.8107,-903 292.8107,-903.0001 292.8105,-883.0001 296.8105,-883"/>
<polyline fill="none" stroke="#d25252" points="298.8106,-893 288.8106,-893.0001 "/>
</g>
<!-- Lobelia -->
<g id="node7" class="node">
<title>Lobelia</title>
<g id="a_node7"><a xlink:title="undefined &#10;&#10;&#10;&#10;">
<polygon fill="#36393f" stroke="#cccccc" points="479,-854 299,-854 299,-812 479,-812 479,-854"/>
<text text-anchor="start" x="366.9369" y="-835.4" font-family="Helvetica, Arial, sans-serif" font-size="14.00" fill="#ffffff">Lobelia</text>
<text text-anchor="start" x="356.992" y="-821" font-family="Helvetica, Arial, sans-serif" font-size="10.00" fill="#aaaaaa">Lobelia Durant</text>
</a>
</g>
</g>
<!-- siblings_0&#45;&gt;Lobelia -->
<g id="edge6" class="edge">
<title>siblings_0&#45;&gt;Lobelia</title>
<path fill="none" stroke="#d25252" d="M267,-892.4946C267,-887.5508 267,-848 267,-848 267,-848 288.7356,-848 288.7356,-848"/>
<polygon fill="#d25252" stroke="#d25252" points="296.7355,-838 296.7357,-858 292.7357,-858.0001 292.7355,-838.0001 296.7355,-838"/>
<polyline fill="none" stroke="#d25252" points="298.7356,-848 288.7356,-848.0001 "/>
</g>
<!-- union_1 -->
<g id="node8" class="node">
<title>union_1</title>
<ellipse fill="#ccdf32" stroke="#ffffff" cx="511.5" cy="-1041" rx="3.5" ry="3.5"/>
</g>
<!-- Davide&#45;&gt;union_1 -->
<g id="edge7" class="edge">
<title>Davide&#45;&gt;union_1</title>
<path fill="none" stroke="#ccdf32" d="M479.1165,-953C498.3477,-953 513,-953 513,-953 513,-953 513,-1021.5835 513,-1037.6578"/>
</g>
<!-- union_3 -->
<g id="node15" class="node">
<title>union_3</title>
<ellipse fill="#cc7832" stroke="#ffffff" cx="511.5" cy="-772" rx="3.5" ry="3.5"/>
</g>
<!-- Melchior&#45;&gt;union_3 -->
<g id="edge14" class="edge">
<title>Melchior&#45;&gt;union_3</title>
<path fill="none" stroke="#cc7832" d="M479.2644,-885C497.3914,-885 511,-885 511,-885 511,-885 511,-795.3669 511,-775.7597"/>
</g>
<!-- union_9_2 -->
<g id="node57" class="node">
<title>union_9_2</title>
<ellipse fill="#6897bb" stroke="#ffffff" cx="511.5" cy="-180" rx="3.5" ry="3.5"/>
</g>
<!-- Lobelia&#45;&gt;union_9_2 -->
<g id="edge54" class="edge">
<title>Lobelia&#45;&gt;union_9_2</title>
<path fill="none" stroke="#6897bb" d="M479.4002,-833C488.2322,-833 494,-833 494,-833 494,-833 494,-181.1667 494,-181.1667 494,-181.1667 503.0405,-181.1667 508.1258,-181.1667"/>
</g>
<!-- siblings_1 -->
<g id="node10" class="node">
<title>siblings_1</title>
<polygon fill="#ccdf32" stroke="#cccccc" stroke-width="0" points="551,-1041.5 544,-1041.5 544,-1040.5 551,-1040.5 551,-1041.5"/>
</g>
<!-- union_1&#45;&gt;siblings_1 -->
<g id="edge9" class="edge">
<title>union_1&#45;&gt;siblings_1</title>
<path fill="none" stroke="#ccdf32" d="M515.0834,-1041C521.9128,-1041 536.7324,-1041 543.7154,-1041"/>
</g>
<!-- Sabine -->
<g id="node9" class="node">
<title>Sabine</title>
<g id="a_node9"><a xlink:title="undefined &#10;&#10;&#10;&#10;">
<polygon fill="#36393f" stroke="#cccccc" points="479,-1063 299,-1063 299,-1021 479,-1021 479,-1063"/>
<text text-anchor="start" x="367.7132" y="-1044.4" font-family="Helvetica, Arial, sans-serif" font-size="14.00" fill="#ffffff">Sabine</text>
<text text-anchor="start" x="351.9975" y="-1030" font-family="Helvetica, Arial, sans-serif" font-size="10.00" fill="#aaaaaa">Sabine Cremaire</text>
</a>
</g>
</g>
<!-- Sabine&#45;&gt;union_1 -->
<g id="edge8" class="edge">
<title>Sabine&#45;&gt;union_1</title>
<path fill="none" stroke="#ccdf32" d="M479.3146,-1041C491.9376,-1041 502.4166,-1041 507.7333,-1041"/>
</g>
<!-- Turmeric -->
<g id="node11" class="node">
<title>Turmeric</title>
<g id="a_node11"><a xlink:title="undefined &#10;&#10;&#10;&#10;">
<polygon fill="#36393f" stroke="#cccccc" points="760,-1122 580,-1122 580,-1080 760,-1080 760,-1122"/>
<text text-anchor="start" x="642.3969" y="-1103.4" font-family="Helvetica, Arial, sans-serif" font-size="14.00" fill="#ffffff">Turmeric</text>
<text text-anchor="start" x="633.892" y="-1089" font-family="Helvetica, Arial, sans-serif" font-size="10.00" fill="#aaaaaa">Turmeric Durant</text>
</a>
</g>
</g>
<!-- siblings_1&#45;&gt;Turmeric -->
<g id="edge10" class="edge">
<title>siblings_1&#45;&gt;Turmeric</title>
<path fill="none" stroke="#ccdf32" d="M548,-1041.6738C548,-1048.2656 548,-1101 548,-1101 548,-1101 569.7356,-1101 569.7356,-1101"/>
<polygon fill="#ccdf32" stroke="#ccdf32" points="577.7355,-1091 577.7357,-1111 573.7357,-1111.0001 573.7355,-1091.0001 577.7355,-1091"/>
<polyline fill="none" stroke="#ccdf32" points="579.7356,-1101 569.7356,-1101.0001 "/>
</g>
<!-- Estelle -->
<g id="node12" class="node">
<title>Estelle</title>
<g id="a_node12"><a xlink:title="undefined &#10;&#10;&#10;&#10;">
<polygon fill="#36393f" stroke="#cccccc" points="760,-1062 580,-1062 580,-1020 760,-1020 760,-1062"/>
<text text-anchor="start" x="648.9972" y="-1043.4" font-family="Helvetica, Arial, sans-serif" font-size="14.00" fill="#ffffff">Estelle</text>
<text text-anchor="start" x="638.6065" y="-1029" font-family="Helvetica, Arial, sans-serif" font-size="10.00" fill="#aaaaaa">Estelle Durant</text>
</a>
</g>
</g>
<!-- siblings_1&#45;&gt;Estelle -->
<g id="edge11" class="edge">
<title>siblings_1&#45;&gt;Estelle</title>
<path fill="none" stroke="#ccdf32" d="M551.0341,-1041C551.0341,-1041 569.8106,-1041 569.8106,-1041"/>
<polygon fill="#ccdf32" stroke="#ccdf32" points="577.8105,-1031 577.8107,-1051 573.8107,-1051.0001 573.8105,-1031.0001 577.8105,-1031"/>
<polyline fill="none" stroke="#ccdf32" points="579.8106,-1041 569.8106,-1041.0001 "/>
</g>
<!-- union_2 -->
<g id="node13" class="node">
<title>union_2</title>
<ellipse fill="#629755" stroke="#ffffff" cx="792.5" cy="-1152" rx="3.5" ry="3.5"/>
</g>
<!-- Turmeric&#45;&gt;union_2 -->
<g id="edge12" class="edge">
<title>Turmeric&#45;&gt;union_2</title>
<path fill="none" stroke="#629755" d="M760.0383,-1101C778.7943,-1101 793,-1101 793,-1101 793,-1101 793,-1136.6384 793,-1148.3322"/>
</g>
<!-- Nancy -->
<g id="node14" class="node">
<title>Nancy</title>
<g id="a_node14"><a xlink:title="undefined &#10;&#10;&#10;&#10;">
<polygon fill="#36393f" stroke="#cccccc" points="760,-1182 580,-1182 580,-1140 760,-1140 760,-1182"/>
<text text-anchor="start" x="650.6641" y="-1163.4" font-family="Helvetica, Arial, sans-serif" font-size="14.00" fill="#ffffff">Nancy</text>
<text text-anchor="start" x="636.88" y="-1149" font-family="Helvetica, Arial, sans-serif" font-size="10.00" fill="#aaaaaa">Nancy Kincade</text>
</a>
</g>
</g>
<!-- Nancy&#45;&gt;union_2 -->
<g id="edge13" class="edge">
<title>Nancy&#45;&gt;union_2</title>
<path fill="none" stroke="#629755" d="M760.3146,-1152C772.9376,-1152 783.4166,-1152 788.7333,-1152"/>
</g>
<!-- siblings_3 -->
<g id="node17" class="node">
<title>siblings_3</title>
<polygon fill="#cc7832" stroke="#cccccc" stroke-width="0" points="551,-772.5 544,-772.5 544,-771.5 551,-771.5 551,-772.5"/>
</g>
<!-- union_3&#45;&gt;siblings_3 -->
<g id="edge16" class="edge">
<title>union_3&#45;&gt;siblings_3</title>
<path fill="none" stroke="#cc7832" d="M515.0834,-772C521.9128,-772 536.7324,-772 543.7154,-772"/>
</g>
<!-- Odette -->
<g id="node16" class="node">
<title>Odette</title>
<g id="a_node16"><a xlink:title="undefined &#10;&#10;&#10;&#10;">
<polygon fill="#36393f" stroke="#cccccc" points="479,-792 299,-792 299,-750 479,-750 479,-792"/>
<text text-anchor="start" x="367.9902" y="-773.4" font-family="Helvetica, Arial, sans-serif" font-size="14.00" fill="#ffffff">Odette</text>
<text text-anchor="start" x="353.7115" y="-759" font-family="Helvetica, Arial, sans-serif" font-size="10.00" fill="#aaaaaa">Odette Rochard</text>
</a>
</g>
</g>
<!-- Odette&#45;&gt;union_3 -->
<g id="edge15" class="edge">
<title>Odette&#45;&gt;union_3</title>
<path fill="none" stroke="#cc7832" d="M479.3146,-772C491.9376,-772 502.4166,-772 507.7333,-772"/>
</g>
<!-- Armaund -->
<g id="node18" class="node">
<title>Armaund</title>
<g id="a_node18"><a xlink:title="undefined &#10;&#10;&#10;&#10;">
<polygon fill="#36393f" stroke="#cccccc" points="760,-794 580,-794 580,-752 760,-752 760,-794"/>
<text text-anchor="start" x="642.1059" y="-775.4" font-family="Helvetica, Arial, sans-serif" font-size="14.00" fill="#ffffff">Armaund</text>
<text text-anchor="start" x="633.827" y="-761" font-family="Helvetica, Arial, sans-serif" font-size="10.00" fill="#aaaaaa">Armaund Durant</text>
</a>
</g>
</g>
<!-- siblings_3&#45;&gt;Armaund -->
<g id="edge17" class="edge">
<title>siblings_3&#45;&gt;Armaund</title>
<path fill="none" stroke="#cc7832" d="M551.0341,-772C551.0341,-772 569.8106,-772 569.8106,-772"/>
<polygon fill="#cc7832" stroke="#cc7832" points="577.8105,-762 577.8107,-782 573.8107,-782.0001 573.8105,-762.0001 577.8105,-762"/>
<polyline fill="none" stroke="#cc7832" points="579.8106,-772 569.8106,-772.0001 "/>
</g>
<!-- Rogelio -->
<g id="node19" class="node">
<title>Rogelio</title>
<g id="a_node19"><a xlink:title="undefined &#10;&#10;&#10;&#10;">
<polygon fill="#36393f" stroke="#ff0000" stroke-width=".25" points="760,-734 580,-734 580,-692 760,-692 760,-734"/>
<text text-anchor="start" x="646.2749" y="-715.4" font-family="Helvetica, Arial, sans-serif" font-size="14.00" fill="#ffffff">Rogelio</text>
<text text-anchor="start" x="636.662" y="-701" font-family="Helvetica, Arial, sans-serif" font-size="10.00" fill="#aaaaaa">Rogelio Durant</text>
</a>
</g>
</g>
<!-- siblings_3&#45;&gt;Rogelio -->
<g id="edge18" class="edge">
<title>siblings_3&#45;&gt;Rogelio</title>
<path fill="none" stroke="#cc7832" d="M547,-771.3374C547,-764.8555 547,-713 547,-713 547,-713 569.9617,-713 569.9617,-713"/>
<polygon fill="#cc7832" stroke="#cc7832" points="577.9616,-703 577.9618,-723 573.9618,-723.0001 573.9616,-703.0001 577.9616,-703"/>
<polyline fill="none" stroke="#cc7832" points="579.9617,-713 569.9617,-713.0001 "/>
</g>
<!-- union_4 -->
<g id="node20" class="node">
<title>union_4</title>
<ellipse fill="#6897bb" stroke="#ffffff" cx="792.5" cy="-831" rx="3.5" ry="3.5"/>
</g>
<!-- Armaund&#45;&gt;union_4 -->
<g id="edge19" class="edge">
<title>Armaund&#45;&gt;union_4</title>
<path fill="none" stroke="#6897bb" d="M760.1165,-770C779.3477,-770 794,-770 794,-770 794,-770 794,-815.05 794,-827.7204"/>
</g>
<!-- union_5 -->
<g id="node25" class="node">
<title>union_5</title>
<ellipse fill="#bbb529" stroke="#ffffff" cx="792.5" cy="-631" rx="3.5" ry="3.5"/>
</g>
<!-- Rogelio&#45;&gt;union_5 -->
<g id="edge24" class="edge">
<title>Rogelio&#45;&gt;union_5</title>
<path fill="none" stroke="#bbb529" d="M760.2644,-718C778.3914,-718 792,-718 792,-718 792,-718 792,-651.3906 792,-634.7383"/>
</g>
<!-- siblings_4 -->
<g id="node22" class="node">
<title>siblings_4</title>
<polygon fill="#6897bb" stroke="#cccccc" stroke-width="0" points="832,-831.5 825,-831.5 825,-830.5 832,-830.5 832,-831.5"/>
</g>
<!-- union_4&#45;&gt;siblings_4 -->
<g id="edge21" class="edge">
<title>union_4&#45;&gt;siblings_4</title>
<path fill="none" stroke="#6897bb" d="M796.0834,-831C802.9128,-831 817.7324,-831 824.7154,-831"/>
</g>
<!-- Tamara -->
<g id="node21" class="node">
<title>Tamara</title>
<g id="a_node21"><a xlink:title="undefined &#10;&#10;&#10;&#10;">
<polygon fill="#36393f" stroke="#cccccc" points="760,-854 580,-854 580,-812 760,-812 760,-854"/>
<text text-anchor="start" x="646.3892" y="-835.4" font-family="Helvetica, Arial, sans-serif" font-size="14.00" fill="#ffffff">Tamara</text>
<text text-anchor="start" x="631.887" y="-821" font-family="Helvetica, Arial, sans-serif" font-size="10.00" fill="#aaaaaa">Tamara Coleman</text>
</a>
</g>
</g>
<!-- Tamara&#45;&gt;union_4 -->
<g id="edge20" class="edge">
<title>Tamara&#45;&gt;union_4</title>
<path fill="none" stroke="#6897bb" d="M760.3146,-831C772.9376,-831 783.4166,-831 788.7333,-831"/>
</g>
<!-- Laurent -->
<g id="node23" class="node">
<title>Laurent</title>
<g id="a_node23"><a xlink:title="undefined &#10;&#10;&#10;&#10;">
<polygon fill="#36393f" stroke="#cccccc" points="1041,-851 861,-851 861,-809 1041,-809 1041,-851"/>
<text text-anchor="start" x="927.2679" y="-832.4" font-family="Helvetica, Arial, sans-serif" font-size="14.00" fill="#ffffff">Laurent</text>
<text text-anchor="start" x="917.657" y="-818" font-family="Helvetica, Arial, sans-serif" font-size="10.00" fill="#aaaaaa">Laurent Durant</text>
</a>
</g>
</g>
<!-- siblings_4&#45;&gt;Laurent -->
<g id="edge22" class="edge">
<title>siblings_4&#45;&gt;Laurent</title>
<path fill="none" stroke="#6897bb" d="M832.0341,-831C832.0341,-831 850.8106,-831 850.8106,-831"/>
<polygon fill="#6897bb" stroke="#6897bb" points="858.8105,-821 858.8107,-841 854.8107,-841.0001 854.8105,-821.0001 858.8105,-821"/>
<polyline fill="none" stroke="#6897bb" points="860.8106,-831 850.8106,-831.0001 "/>
</g>
<!-- Adele -->
<g id="node24" class="node">
<title>Adele</title>
<g id="a_node24"><a xlink:title="undefined &#10;&#10;&#10;&#10;">
<polygon fill="#36393f" stroke="#cccccc" points="1041,-911 861,-911 861,-869 1041,-869 1041,-911"/>
<text text-anchor="start" x="933.1045" y="-892.4" font-family="Helvetica, Arial, sans-serif" font-size="14.00" fill="#ffffff">Adele</text>
<text text-anchor="start" x="921.826" y="-878" font-family="Helvetica, Arial, sans-serif" font-size="10.00" fill="#aaaaaa">Adele Durant</text>
</a>
</g>
</g>
<!-- siblings_4&#45;&gt;Adele -->
<g id="edge23" class="edge">
<title>siblings_4&#45;&gt;Adele</title>
<path fill="none" stroke="#6897bb" d="M829,-831.7524C829,-839.1133 829,-898 829,-898 829,-898 850.7356,-898 850.7356,-898"/>
<polygon fill="#6897bb" stroke="#6897bb" points="858.7355,-888 858.7357,-908 854.7357,-908.0001 854.7355,-888.0001 858.7355,-888"/>
<polyline fill="none" stroke="#6897bb" points="860.7356,-898 850.7356,-898.0001 "/>
</g>
<!-- siblings_5 -->
<g id="node27" class="node">
<title>siblings_5</title>
<polygon fill="#bbb529" stroke="#cccccc" stroke-width="0" points="832,-631.5 825,-631.5 825,-630.5 832,-630.5 832,-631.5"/>
</g>
<!-- union_5&#45;&gt;siblings_5 -->
<g id="edge26" class="edge">
<title>union_5&#45;&gt;siblings_5</title>
<path fill="none" stroke="#bbb529" d="M796.0834,-631C802.9128,-631 817.7324,-631 824.7154,-631"/>
</g>
<!-- Tedora -->
<g id="node26" class="node">
<title>Tedora</title>
<g id="a_node26"><a xlink:title="undefined &#10;&#10;&#10;&#10;">
<polygon fill="#36393f" stroke="#ff0000" stroke-width=".25" points="760,-652 580,-652 580,-610 760,-610 760,-652"/>
<text text-anchor="start" x="648.3282" y="-633.4" font-family="Helvetica, Arial, sans-serif" font-size="14.00" fill="#ffffff">Tedora</text>
<text text-anchor="start" x="629.6625" y="-619" font-family="Helvetica, Arial, sans-serif" font-size="10.00" fill="#aaaaaa">Tedora McFarland</text>
</a>
</g>
</g>
<!-- Tedora&#45;&gt;union_5 -->
<g id="edge25" class="edge">
<title>Tedora&#45;&gt;union_5</title>
<path fill="none" stroke="#bbb529" d="M760.3146,-631C772.9376,-631 783.4166,-631 788.7333,-631"/>
</g>
<!-- Degare -->
<g id="node28" class="node">
<title>Degare</title>
<g id="a_node28"><a xlink:title="undefined &#10;&#10;&#10;&#10;">
<polygon fill="#36393f" stroke="#cccccc" points="1041,-630 861,-630 861,-588 1041,-588 1041,-630"/>
<text text-anchor="start" x="928.5512" y="-611.4" font-family="Helvetica, Arial, sans-serif" font-size="14.00" fill="#ffffff">Degare</text>
<text text-anchor="start" x="918.7165" y="-597" font-family="Helvetica, Arial, sans-serif" font-size="10.00" fill="#aaaaaa">Degare Durant</text>
</a>
</g>
</g>
<!-- siblings_5&#45;&gt;Degare -->
<g id="edge27" class="edge">
<title>siblings_5&#45;&gt;Degare</title>
<path fill="none" stroke="#bbb529" d="M831,-630.4736C831,-628.1289 831,-618.75 831,-618.75 831,-618.75 850.9715,-618.75 850.9715,-618.75"/>
<polygon fill="#bbb529" stroke="#bbb529" points="858.9714,-608.75 858.9716,-628.75 854.9716,-628.7501 854.9714,-608.7501 858.9714,-608.75"/>
<polyline fill="none" stroke="#bbb529" points="860.9715,-618.75 850.9715,-618.7501 "/>
</g>
<!-- Dyson -->
<g id="node29" class="node">
<title>Dyson</title>
<g id="a_node29"><a xlink:title="undefined &#10;&#10;&#10;&#10;">
<polygon fill="#36393f" stroke="#cccccc" points="1041,-570 861,-570 861,-528 1041,-528 1041,-570"/>
<text text-anchor="start" x="931.1641" y="-551.4" font-family="Helvetica, Arial, sans-serif" font-size="14.00" fill="#ffffff">Dyson</text>
<text text-anchor="start" x="911.831" y="-537" font-family="Helvetica, Arial, sans-serif" font-size="10.00" fill="#aaaaaa">Dyson McFarland</text>
</a>
</g>
</g>
<!-- siblings_5&#45;&gt;Dyson -->
<g id="edge28" class="edge">
<title>siblings_5&#45;&gt;Dyson</title>
<path fill="none" stroke="#bbb529" d="M827,-630.4764C827,-623.4927 827,-549 827,-549 827,-549 850.8835,-549 850.8835,-549"/>
<polygon fill="#bbb529" stroke="#bbb529" points="858.8834,-539 858.8836,-559 854.8836,-559.0001 854.8834,-539.0001 858.8834,-539"/>
<polyline fill="none" stroke="#bbb529" points="860.8835,-549 850.8835,-549.0001 "/>
</g>
<!-- Lyla -->
<g id="node30" class="node">
<title>Lyla</title>
<polygon fill="#36393f" stroke="#cccccc" points="1041,-684 861,-684 861,-648 1041,-648 1041,-684"/>
<text text-anchor="middle" x="951" y="-661.8" font-family="Helvetica, Arial, sans-serif" font-size="14.00" fill="#ffffff">Lyla</text>
</g>
<!-- siblings_5&#45;&gt;Lyla -->
<g id="edge29" class="edge">
<title>siblings_5&#45;&gt;Lyla</title>
<path fill="none" stroke="#bbb529" d="M829,-631.9146C829,-637.6123 829,-668 829,-668 829,-668 850.7356,-668 850.7356,-668"/>
<polygon fill="#bbb529" stroke="#bbb529" points="858.7355,-658 858.7357,-678 854.7357,-678.0001 854.7355,-658.0001 858.7355,-658"/>
<polyline fill="none" stroke="#bbb529" points="860.7356,-668 850.7356,-668.0001 "/>
</g>
<!-- union_6 -->
<g id="node31" class="node">
<title>union_6</title>
<ellipse fill="#9876aa" stroke="#ffffff" cx="1073.5" cy="-724" rx="3.5" ry="3.5"/>
</g>
<!-- Degare&#45;&gt;union_6 -->
<g id="edge30" class="edge">
<title>Degare&#45;&gt;union_6</title>
<path fill="none" stroke="#9876aa" d="M1041.2644,-616C1059.3914,-616 1073,-616 1073,-616 1073,-616 1073,-701.667 1073,-720.4066"/>
</g>
<!-- union_7 -->
<g id="node36" class="node">
<title>union_7</title>
<ellipse fill="#efc090" stroke="#ffffff" cx="1073.5" cy="-498" rx="3.5" ry="3.5"/>
</g>
<!-- Degare&#45;&gt;union_7 -->
<g id="edge35" class="edge">
<title>Degare&#45;&gt;union_7</title>
<path fill="none" stroke="#efc090" stroke-dasharray="5,2" d="M1041.1165,-602C1060.3477,-602 1075,-602 1075,-602 1075,-602 1075,-519.5059 1075,-501.4603"/>
</g>
<!-- union_8 -->
<g id="node38" class="node">
<title>union_8</title>
<ellipse fill="#d25252" stroke="#ffffff" cx="1073.5" cy="-379" rx="3.5" ry="3.5"/>
</g>
<!-- Dyson&#45;&gt;union_8 -->
<g id="edge37" class="edge">
<title>Dyson&#45;&gt;union_8</title>
<path fill="none" stroke="#d25252" d="M1041.4002,-549C1050.2322,-549 1056,-549 1056,-549 1056,-549 1056,-380.1667 1056,-380.1667 1056,-380.1667 1065.0405,-380.1667 1070.1258,-380.1667"/>
</g>
<!-- siblings_6 -->
<g id="node33" class="node">
<title>siblings_6</title>
<polygon fill="#9876aa" stroke="#cccccc" stroke-width="0" points="1113,-724.5 1106,-724.5 1106,-723.5 1113,-723.5 1113,-724.5"/>
</g>
<!-- union_6&#45;&gt;siblings_6 -->
<g id="edge32" class="edge">
<title>union_6&#45;&gt;siblings_6</title>
<path fill="none" stroke="#9876aa" d="M1077.0834,-724C1083.9128,-724 1098.7324,-724 1105.7154,-724"/>
</g>
<!-- Elodie -->
<g id="node32" class="node">
<title>Elodie</title>
<g id="a_node32"><a xlink:title="undefined &#10;&#10;Born 05/06/1239 &#160;&#45;&#45; died 05/06/1239&#10;&#10;">
<polygon fill="#36393f" stroke="#ff0000" stroke-width=".25" points="1041,-758 861,-758 861,-702 1041,-702 1041,-758"/>
<text text-anchor="start" x="931.5512" y="-739.4" font-family="Helvetica, Arial, sans-serif" font-size="14.00" fill="#ffffff">Elodie</text>
<text text-anchor="start" x="912.9325" y="-725" font-family="Helvetica, Arial, sans-serif" font-size="10.00" fill="#aaaaaa">Elodië Bentayga</text>
<text text-anchor="start" x="915.7035" y="-711" font-family="Helvetica, Arial, sans-serif" font-size="10.00" fill="#aaaaaa">*1239 — †1274</text>
</a>
</g>
</g>
<!-- Elodie&#45;&gt;union_6 -->
<g id="edge31" class="edge">
<title>Elodie&#45;&gt;union_6</title>
<path fill="none" stroke="#9876aa" d="M1041.3146,-724C1053.9376,-724 1064.4166,-724 1069.7333,-724"/>
</g>
<!-- Michael -->
<g id="node34" class="node">
<title>Michael</title>
<g id="a_node34"><a xlink:title="undefined &#10;&#10;&#10;&#10;">
<polygon fill="#36393f" stroke="#cccccc" points="1322,-739 1142,-739 1142,-697 1322,-697 1322,-739"/>
<text text-anchor="start" x="1208.3892" y="-720.4" font-family="Helvetica, Arial, sans-serif" font-size="14.00" fill="#ffffff">Michael</text>
<text text-anchor="start" x="1198.8865" y="-706" font-family="Helvetica, Arial, sans-serif" font-size="10.00" fill="#aaaaaa">Michael Durant</text>
</a>
</g>
</g>
<!-- siblings_6&#45;&gt;Michael -->
<g id="edge33" class="edge">
<title>siblings_6&#45;&gt;Michael</title>
<path fill="none" stroke="#9876aa" d="M1113.0341,-724C1113.0341,-724 1131.8106,-724 1131.8106,-724"/>
<polygon fill="#9876aa" stroke="#9876aa" points="1139.8105,-714 1139.8107,-734 1135.8107,-734.0001 1135.8105,-714.0001 1139.8105,-714"/>
<polyline fill="none" stroke="#9876aa" points="1141.8106,-724 1131.8106,-724.0001 "/>
</g>
<!-- Lyla II -->
<g id="node35" class="node">
<title>Lyla II</title>
<g id="a_node35"><a xlink:title="undefined &#10;&#10;&#10;&#10;">
<polygon fill="#36393f" stroke="#cccccc" points="1322,-799 1142,-799 1142,-757 1322,-757 1322,-799"/>
<text text-anchor="start" x="1213.8282" y="-780.4" font-family="Helvetica, Arial, sans-serif" font-size="14.00" fill="#ffffff">Lyla II</text>
<text text-anchor="start" x="1202.7715" y="-766" font-family="Helvetica, Arial, sans-serif" font-size="10.00" fill="#aaaaaa">Lyla II Durant</text>
</a>
</g>
</g>
<!-- siblings_6&#45;&gt;Lyla II -->
<g id="edge34" class="edge">
<title>siblings_6&#45;&gt;Lyla II</title>
<path fill="none" stroke="#9876aa" d="M1110,-724.6514C1110,-731.0234 1110,-782 1110,-782 1110,-782 1131.7356,-782 1131.7356,-782"/>
<polygon fill="#9876aa" stroke="#9876aa" points="1139.7355,-772 1139.7357,-792 1135.7357,-792.0001 1135.7355,-772.0001 1139.7355,-772"/>
<polyline fill="none" stroke="#9876aa" points="1141.7356,-782 1131.7356,-782.0001 "/>
</g>
<!-- Sera -->
<g id="node37" class="node">
<title>Sera</title>
<g id="a_node37"><a xlink:title="undefined &#10;&#10;&#10;&#10;">
<polygon fill="#36393f" stroke="#cccccc" points="1041,-510 861,-510 861,-468 1041,-468 1041,-510"/>
<text text-anchor="start" x="936.7188" y="-491.4" font-family="Helvetica, Arial, sans-serif" font-size="14.00" fill="#ffffff">Sera</text>
<text text-anchor="start" x="909.538" y="-477" font-family="Helvetica, Arial, sans-serif" font-size="10.00" fill="#aaaaaa">Seraphine Gognon</text>
</a>
</g>
</g>
<!-- Sera&#45;&gt;union_7 -->
<g id="edge36" class="edge">
<title>Sera&#45;&gt;union_7</title>
<path fill="none" stroke="#efc090" stroke-dasharray="5,2" d="M1041.3146,-498C1053.9376,-498 1064.4166,-498 1069.7333,-498"/>
</g>
<!-- siblings_8 -->
<g id="node40" class="node">
<title>siblings_8</title>
<polygon fill="#d25252" stroke="#cccccc" stroke-width="0" points="1113,-379.5 1106,-379.5 1106,-378.5 1113,-378.5 1113,-379.5"/>
</g>
<!-- union_8&#45;&gt;siblings_8 -->
<g id="edge39" class="edge">
<title>union_8&#45;&gt;siblings_8</title>
<path fill="none" stroke="#d25252" d="M1077.0834,-379C1083.9128,-379 1098.7324,-379 1105.7154,-379"/>
</g>
<!-- Priscilla -->
<g id="node39" class="node">
<title>Priscilla</title>
<g id="a_node39"><a xlink:title="undefined &#10;&#10;&#10;&#10;">
<polygon fill="#36393f" stroke="#cccccc" points="1041,-400 861,-400 861,-358 1041,-358 1041,-400"/>
<text text-anchor="start" x="926.8969" y="-381.4" font-family="Helvetica, Arial, sans-serif" font-size="14.00" fill="#ffffff">Priscilla</text>
<text text-anchor="start" x="908.7735" y="-367" font-family="Helvetica, Arial, sans-serif" font-size="10.00" fill="#aaaaaa">Priscilla Blanchette</text>
</a>
</g>
</g>
<!-- Priscilla&#45;&gt;union_8 -->
<g id="edge38" class="edge">
<title>Priscilla&#45;&gt;union_8</title>
<path fill="none" stroke="#d25252" d="M1041.3146,-377.8333C1054.2245,-377.8333 1064.8918,-377.8333 1070.0877,-377.8333"/>
</g>
<!-- Kimberly -->
<g id="node41" class="node">
<title>Kimberly</title>
<g id="a_node41"><a xlink:title="undefined &#10;&#10;&#10;&#10;">
<polygon fill="#36393f" stroke="#cccccc" points="1322,-280 1142,-280 1142,-238 1322,-238 1322,-280"/>
<text text-anchor="start" x="1204.7819" y="-261.4" font-family="Helvetica, Arial, sans-serif" font-size="14.00" fill="#ffffff">Kimberly</text>
<text text-anchor="start" x="1187.558" y="-247" font-family="Helvetica, Arial, sans-serif" font-size="10.00" fill="#aaaaaa">Kimberly McFarland</text>
</a>
</g>
</g>
<!-- siblings_8&#45;&gt;Kimberly -->
<g id="edge40" class="edge">
<title>siblings_8&#45;&gt;Kimberly</title>
<path fill="none" stroke="#d25252" d="M1109,-378.2337C1109,-368.0137 1109,-259 1109,-259 1109,-259 1131.9617,-259 1131.9617,-259"/>
<polygon fill="#d25252" stroke="#d25252" points="1139.9616,-249 1139.9618,-269 1135.9618,-269.0001 1135.9616,-249.0001 1139.9616,-249"/>
<polyline fill="none" stroke="#d25252" points="1141.9617,-259 1131.9617,-259.0001 "/>
</g>
<!-- Gregory -->
<g id="node42" class="node">
<title>Gregory</title>
<g id="a_node42"><a xlink:title="undefined &#10;&#10;&#10;&#10;">
<polygon fill="#36393f" stroke="#cccccc" points="1322,-340 1142,-340 1142,-298 1322,-298 1322,-340"/>
<text text-anchor="start" x="1206.7202" y="-321.4" font-family="Helvetica, Arial, sans-serif" font-size="14.00" fill="#ffffff">Gregory</text>
<text text-anchor="start" x="1188.9425" y="-307" font-family="Helvetica, Arial, sans-serif" font-size="10.00" fill="#aaaaaa">Gregory McFarland</text>
</a>
</g>
</g>
<!-- siblings_8&#45;&gt;Gregory -->
<g id="edge41" class="edge">
<title>siblings_8&#45;&gt;Gregory</title>
<path fill="none" stroke="#d25252" d="M1111,-378.3262C1111,-371.7344 1111,-319 1111,-319 1111,-319 1131.8465,-319 1131.8465,-319"/>
<polygon fill="#d25252" stroke="#d25252" points="1139.8464,-309 1139.8466,-329 1135.8466,-329.0001 1135.8464,-309.0001 1139.8464,-309"/>
<polyline fill="none" stroke="#d25252" points="1141.8465,-319 1131.8465,-319.0001 "/>
</g>
<!-- Yenna MF -->
<g id="node43" class="node">
<title>Yenna MF</title>
<g id="a_node43"><a xlink:title="undefined &#10;&#10;&#10;&#10;">
<polygon fill="#36393f" stroke="#cccccc" points="1322,-400 1142,-400 1142,-358 1322,-358 1322,-400"/>
<text text-anchor="start" x="1211.7665" y="-381.4" font-family="Helvetica, Arial, sans-serif" font-size="14.00" fill="#ffffff">Yenna</text>
<text text-anchor="start" x="1192.547" y="-367" font-family="Helvetica, Arial, sans-serif" font-size="10.00" fill="#aaaaaa">Yenna McFarland</text>
</a>
</g>
</g>
<!-- siblings_8&#45;&gt;Yenna MF -->
<g id="edge42" class="edge">
<title>siblings_8&#45;&gt;Yenna MF</title>
<path fill="none" stroke="#d25252" d="M1113.0341,-379C1113.0341,-379 1131.8106,-379 1131.8106,-379"/>
<polygon fill="#d25252" stroke="#d25252" points="1139.8105,-369 1139.8107,-389 1135.8107,-389.0001 1135.8105,-369.0001 1139.8105,-369"/>
<polyline fill="none" stroke="#d25252" points="1141.8106,-379 1131.8106,-379.0001 "/>
</g>
<!-- Marion -->
<g id="node44" class="node">
<title>Marion</title>
<g id="a_node44"><a xlink:title="undefined &#10;&#10;&#10;&#10;">
<polygon fill="#36393f" stroke="#cccccc" points="1322,-460 1142,-460 1142,-418 1322,-418 1322,-460"/>
<text text-anchor="start" x="1210.6122" y="-441.4" font-family="Helvetica, Arial, sans-serif" font-size="14.00" fill="#ffffff">Marion</text>
<text text-anchor="start" x="1191.7225" y="-427" font-family="Helvetica, Arial, sans-serif" font-size="10.00" fill="#aaaaaa">Marion McFarland</text>
</a>
</g>
</g>
<!-- siblings_8&#45;&gt;Marion -->
<g id="edge43" class="edge">
<title>siblings_8&#45;&gt;Marion</title>
<path fill="none" stroke="#d25252" d="M1110,-379.6738C1110,-386.2656 1110,-439 1110,-439 1110,-439 1131.7356,-439 1131.7356,-439"/>
<polygon fill="#d25252" stroke="#d25252" points="1139.7355,-429 1139.7357,-449 1135.7357,-449.0001 1135.7355,-429.0001 1139.7355,-429"/>
<polyline fill="none" stroke="#d25252" points="1141.7356,-439 1131.7356,-439.0001 "/>
</g>
<!-- union_9_0 -->
<g id="node45" class="node">
<title>union_9_0</title>
<ellipse fill="#629755" stroke="#ffffff" cx="792.5" cy="-59" rx="3.5" ry="3.5"/>
</g>
<!-- siblings_9_0 -->
<g id="node48" class="node">
<title>siblings_9_0</title>
<polygon fill="#629755" stroke="#cccccc" stroke-width="0" points="832,-59.5 825,-59.5 825,-58.5 832,-58.5 832,-59.5"/>
</g>
<!-- union_9_0&#45;&gt;siblings_9_0 -->
<g id="edge46" class="edge">
<title>union_9_0&#45;&gt;siblings_9_0</title>
<path fill="none" stroke="#629755" d="M796.0834,-59C802.9128,-59 817.7324,-59 824.7154,-59"/>
</g>
<!-- Regidor -->
<g id="node46" class="node">
<title>Regidor</title>
<g id="a_node46"><a xlink:title="undefined &#10;&#10;&#10;&#10;">
<polygon fill="#36393f" stroke="#cccccc" points="760,-110 580,-110 580,-68 760,-68 760,-110"/>
<text text-anchor="start" x="645.4979" y="-91.4" font-family="Helvetica, Arial, sans-serif" font-size="14.00" fill="#ffffff">Regidor</text>
<text text-anchor="start" x="634.718" y="-77" font-family="Helvetica, Arial, sans-serif" font-size="10.00" fill="#aaaaaa">Regidor de Villa</text>
</a>
</g>
</g>
<!-- Regidor&#45;&gt;union_9_0 -->
<g id="edge44" class="edge">
<title>Regidor&#45;&gt;union_9_0</title>
<path fill="none" stroke="#629755" d="M760.0383,-82C778.7943,-82 793,-82 793,-82 793,-82 793,-69.0625 793,-62.5938"/>
</g>
<!-- Alicia -->
<g id="node47" class="node">
<title>Alicia</title>
<g id="a_node47"><a xlink:title="undefined &#10;&#10;&#10;&#10;">
<polygon fill="#36393f" stroke="#cccccc" points="760,-50 580,-50 580,-8 760,-8 760,-50"/>
<text text-anchor="start" x="653.7805" y="-31.4" font-family="Helvetica, Arial, sans-serif" font-size="14.00" fill="#ffffff">Alicia</text>
<text text-anchor="start" x="632.9965" y="-17" font-family="Helvetica, Arial, sans-serif" font-size="10.00" fill="#aaaaaa">Alicia Molyneaux</text>
</a>
</g>
</g>
<!-- Alicia&#45;&gt;union_9_0 -->
<g id="edge45" class="edge">
<title>Alicia&#45;&gt;union_9_0</title>
<path fill="none" stroke="#629755" d="M760.0383,-22C778.7943,-22 793,-22 793,-22 793,-22 793,-45.9583 793,-55.317"/>
</g>
<!-- Reginald -->
<g id="node49" class="node">
<title>Reginald</title>
<g id="a_node49"><a xlink:title="undefined &#10;&#10;&#10;&#10;">
<polygon fill="#36393f" stroke="#cccccc" points="1041,-50 861,-50 861,-8 1041,-8 1041,-50"/>
<text text-anchor="start" x="923.8836" y="-31.4" font-family="Helvetica, Arial, sans-serif" font-size="14.00" fill="#ffffff">Reginald</text>
<text text-anchor="start" x="913.9935" y="-17" font-family="Helvetica, Arial, sans-serif" font-size="10.00" fill="#aaaaaa">Reginald de Villa</text>
</a>
</g>
</g>
<!-- siblings_9_0&#45;&gt;Reginald -->
<g id="edge47" class="edge">
<title>siblings_9_0&#45;&gt;Reginald</title>
<path fill="none" stroke="#629755" d="M829,-58.4315C829,-54.8896 829,-36 829,-36 829,-36 850.7356,-36 850.7356,-36"/>
<polygon fill="#629755" stroke="#629755" points="858.7355,-26 858.7357,-46 854.7357,-46.0001 854.7355,-26.0001 858.7355,-26"/>
<polyline fill="none" stroke="#629755" points="860.7356,-36 850.7356,-36.0001 "/>
</g>
<!-- Porticia -->
<g id="node50" class="node">
<title>Porticia</title>
<g id="a_node50"><a xlink:title="undefined &#10;&#10;&#10;&#10;">
<polygon fill="#36393f" stroke="#cccccc" points="1041,-110 861,-110 861,-68 1041,-68 1041,-110"/>
<text text-anchor="start" x="927.6669" y="-91.4" font-family="Helvetica, Arial, sans-serif" font-size="14.00" fill="#ffffff">Porticia</text>
<text text-anchor="start" x="916.553" y="-77" font-family="Helvetica, Arial, sans-serif" font-size="10.00" fill="#aaaaaa">Porticia de Villa</text>
</a>
</g>
</g>
<!-- siblings_9_0&#45;&gt;Porticia -->
<g id="edge48" class="edge">
<title>siblings_9_0&#45;&gt;Porticia</title>
<path fill="none" stroke="#629755" d="M829,-59.9146C829,-65.6123 829,-96 829,-96 829,-96 850.7356,-96 850.7356,-96"/>
<polygon fill="#629755" stroke="#629755" points="858.7355,-86 858.7357,-106 854.7357,-106.0001 854.7355,-86.0001 858.7355,-86"/>
<polyline fill="none" stroke="#629755" points="860.7356,-96 850.7356,-96.0001 "/>
</g>
<!-- union_9_1 -->
<g id="node51" class="node">
<title>union_9_1</title>
<ellipse fill="#cc7832" stroke="#ffffff" cx="792.5" cy="-149" rx="3.5" ry="3.5"/>
</g>
<!-- siblings_9_1 -->
<g id="node54" class="node">
<title>siblings_9_1</title>
<polygon fill="#cc7832" stroke="#cccccc" stroke-width="0" points="832,-149.5 825,-149.5 825,-148.5 832,-148.5 832,-149.5"/>
</g>
<!-- union_9_1&#45;&gt;siblings_9_1 -->
<g id="edge51" class="edge">
<title>union_9_1&#45;&gt;siblings_9_1</title>
<path fill="none" stroke="#cc7832" d="M796.0834,-149C802.9128,-149 817.7324,-149 824.7154,-149"/>
</g>
<!-- Taleisin -->
<g id="node52" class="node">
<title>Taleisin</title>
<g id="a_node52"><a xlink:title="undefined &#10;&#10;&#10;&#10;">
<polygon fill="#36393f" stroke="#cccccc" points="760,-230 580,-230 580,-188 760,-188 760,-230"/>
<text text-anchor="start" x="645.8899" y="-211.4" font-family="Helvetica, Arial, sans-serif" font-size="14.00" fill="#ffffff">Taleisin</text>
<text text-anchor="start" x="634.998" y="-197" font-family="Helvetica, Arial, sans-serif" font-size="10.00" fill="#aaaaaa">Taleisin de Villa</text>
</a>
</g>
</g>
<!-- Taleisin&#45;&gt;union_9_1 -->
<g id="edge49" class="edge">
<title>Taleisin&#45;&gt;union_9_1</title>
<path fill="none" stroke="#cc7832" d="M760.0383,-216C778.7943,-216 793,-216 793,-216 793,-216 793,-166.5188 793,-152.6022"/>
</g>
<!-- Freja -->
<g id="node53" class="node">
<title>Freja</title>
<g id="a_node53"><a xlink:title="undefined &#10;&#10;&#10;&#10;">
<polygon fill="#36393f" stroke="#cccccc" points="760,-170 580,-170 580,-128 760,-128 760,-170"/>
<text text-anchor="start" x="654.5575" y="-151.4" font-family="Helvetica, Arial, sans-serif" font-size="14.00" fill="#ffffff">Freja</text>
<text text-anchor="start" x="634.678" y="-137" font-family="Helvetica, Arial, sans-serif" font-size="10.00" fill="#aaaaaa">Freja Fitzwilliam</text>
</a>
</g>
</g>
<!-- Freja&#45;&gt;union_9_1 -->
<g id="edge50" class="edge">
<title>Freja&#45;&gt;union_9_1</title>
<path fill="none" stroke="#cc7832" d="M760.3146,-149C772.9376,-149 783.4166,-149 788.7333,-149"/>
</g>
<!-- Moulin -->
<g id="node55" class="node">
<title>Moulin</title>
<g id="a_node55"><a xlink:title="undefined &#10;&#10;&#10;&#10;">
<polygon fill="#36393f" stroke="#cccccc" points="1041,-170 861,-170 861,-128 1041,-128 1041,-170"/>
<text text-anchor="start" x="930.8892" y="-151.4" font-family="Helvetica, Arial, sans-serif" font-size="14.00" fill="#ffffff">Moulin</text>
<text text-anchor="start" x="918.9975" y="-137" font-family="Helvetica, Arial, sans-serif" font-size="10.00" fill="#aaaaaa">Moulin de Villa</text>
</a>
</g>
</g>
<!-- siblings_9_1&#45;&gt;Moulin -->
<g id="edge52" class="edge">
<title>siblings_9_1&#45;&gt;Moulin</title>
<path fill="none" stroke="#cc7832" d="M832.0341,-149C832.0341,-149 850.8106,-149 850.8106,-149"/>
<polygon fill="#cc7832" stroke="#cc7832" points="858.8105,-139 858.8107,-159 854.8107,-159.0001 854.8105,-139.0001 858.8105,-139"/>
<polyline fill="none" stroke="#cc7832" points="860.8106,-149 850.8106,-149.0001 "/>
</g>
<!-- Talon -->
<g id="node56" class="node">
<title>Talon</title>
<g id="a_node56"><a xlink:title="undefined &#10;&#10;&#10;&#10;">
<polygon fill="#36393f" stroke="#cccccc" points="1041,-230 861,-230 861,-188 1041,-188 1041,-230"/>
<text text-anchor="start" x="933.4965" y="-211.4" font-family="Helvetica, Arial, sans-serif" font-size="14.00" fill="#ffffff">Talon</text>
<text text-anchor="start" x="920.717" y="-197" font-family="Helvetica, Arial, sans-serif" font-size="10.00" fill="#aaaaaa">Talon de Villa</text>
</a>
</g>
</g>
<!-- siblings_9_1&#45;&gt;Talon -->
<g id="edge53" class="edge">
<title>siblings_9_1&#45;&gt;Talon</title>
<path fill="none" stroke="#cc7832" d="M829,-149.5952C829,-155.418 829,-202 829,-202 829,-202 850.7356,-202 850.7356,-202"/>
<polygon fill="#cc7832" stroke="#cc7832" points="858.7355,-192 858.7357,-212 854.7357,-212.0001 854.7355,-192.0001 858.7355,-192"/>
<polyline fill="none" stroke="#cc7832" points="860.7356,-202 850.7356,-202.0001 "/>
</g>
<!-- siblings_9_2 -->
<g id="node59" class="node">
<title>siblings_9_2</title>
<polygon fill="#6897bb" stroke="#cccccc" stroke-width="0" points="551,-180.5 544,-180.5 544,-179.5 551,-179.5 551,-180.5"/>
</g>
<!-- union_9_2&#45;&gt;siblings_9_2 -->
<g id="edge56" class="edge">
<title>union_9_2&#45;&gt;siblings_9_2</title>
<path fill="none" stroke="#6897bb" d="M515.0834,-180C521.9128,-180 536.7324,-180 543.7154,-180"/>
</g>
<!-- Elias -->
<g id="node58" class="node">
<title>Elias</title>
<g id="a_node58"><a xlink:title="undefined &#10;&#10;&#10;&#10;">
<polygon fill="#36393f" stroke="#cccccc" points="479,-193 299,-193 299,-151 479,-151 479,-193"/>
<text text-anchor="start" x="373.8338" y="-174.4" font-family="Helvetica, Arial, sans-serif" font-size="14.00" fill="#ffffff">Elias</text>
<text text-anchor="start" x="359.5565" y="-160" font-family="Helvetica, Arial, sans-serif" font-size="10.00" fill="#aaaaaa">Elias De Villa</text>
</a>
</g>
</g>
<!-- Elias&#45;&gt;union_9_2 -->
<g id="edge55" class="edge">
<title>Elias&#45;&gt;union_9_2</title>
<path fill="none" stroke="#6897bb" d="M479.3146,-178.8333C492.2245,-178.8333 502.8918,-178.8333 508.0877,-178.8333"/>
</g>
<!-- siblings_9_2&#45;&gt;Regidor -->
<g id="edge57" class="edge">
<title>siblings_9_2&#45;&gt;Regidor</title>
<path fill="none" stroke="#6897bb" d="M548,-179.4189C548,-171.6687 548,-89 548,-89 548,-89 569.7356,-89 569.7356,-89"/>
<polygon fill="#6897bb" stroke="#6897bb" points="577.7355,-79 577.7357,-99 573.7357,-99.0001 573.7355,-79.0001 577.7355,-79"/>
<polyline fill="none" stroke="#6897bb" points="579.7356,-89 569.7356,-89.0001 "/>
</g>
<!-- siblings_9_2&#45;&gt;Taleisin -->
<g id="edge58" class="edge">
<title>siblings_9_2&#45;&gt;Taleisin</title>
<path fill="none" stroke="#6897bb" d="M549,-180.7787C549,-185.6294 549,-211.5 549,-211.5 549,-211.5 569.8465,-211.5 569.8465,-211.5"/>
<polygon fill="#6897bb" stroke="#6897bb" points="577.8464,-201.5 577.8466,-221.5 573.8466,-221.5001 573.8464,-201.5001 577.8464,-201.5"/>
<polyline fill="none" stroke="#6897bb" points="579.8465,-211.5 569.8465,-211.5001 "/>
</g>
</g>
</svg>
