<?xml version="1.0" encoding="UTF-8" standalone="no"?>
<!DOCTYPE svg PUBLIC "-//W3C//DTD SVG 1.1//EN"
 "http://www.w3.org/Graphics/SVG/1.1/DTD/svg11.dtd">
<!-- Generated by graphviz version 10.0.1 (20240210.2158)
 -->
<!-- Title: G Pages: 1 -->
<svg width="2475pt" height="616pt"
 viewBox="0.00 0.00 2475.20 616.00" xmlns="http://www.w3.org/2000/svg" xmlns:xlink="http://www.w3.org/1999/xlink">
<g id="graph0" class="graph" transform="scale(1 1) rotate(0) translate(4 612)">
<title>G</title>
<polygon fill="#23272a" stroke="none" points="-4,4 -4,-612 2471.2,-612 2471.2,4 -4,4"/>
<g id="clust1" class="cluster">
<title>cluster_family_0</title>
<polygon fill="#2c2f33" stroke="#2c2f33" points="8,-8 8,-600 2459.2,-600 2459.2,-8 8,-8"/>
<text text-anchor="start" x="16" y="-582.6" font-family="Helvetica, Arial, sans-serif" font-weight="bold" font-size="16.00" fill="white">Strandiz</text>
</g>
<g id="clust2" class="cluster">
<title>cluster_family_0_0</title>
</g>
<g id="clust3" class="cluster">
<title>cluster_family_0_0_0</title>
</g>
<g id="clust4" class="cluster">
<title>cluster_family_0_0_0_0</title>
</g>
<g id="clust5" class="cluster">
<title>cluster_family_0_0_0_0_0</title>
</g>
<g id="clust6" class="cluster">
<title>cluster_family_0_0_0_0_0_0</title>
</g>
<g id="clust7" class="cluster">
<title>cluster_family_0_0_0_0_0_0_0</title>
</g>
<g id="clust8" class="cluster">
<title>cluster_family_0_0_0_0_0_0_0_0</title>
</g>
<!-- union_0_0_0_0_0_0_0_0 -->
<g id="node1" class="node">
<title>union_0_0_0_0_0_0_0_0</title>
<ellipse fill="#efc090" stroke="white" cx="2200.4" cy="-83" rx="3.6" ry="3.6"/>
</g>
<!-- siblings_0_0_0_0_0_0_0_0 -->
<g id="node4" class="node">
<title>siblings_0_0_0_0_0_0_0_0</title>
<polygon fill="#efc090" stroke="#cccccc" stroke-width="0" points="2240.2,-83.72 2233,-83.72 2233,-82.28 2240.2,-82.28 2240.2,-83.72"/>
</g>
<!-- union_0_0_0_0_0_0_0_0&#45;&gt;siblings_0_0_0_0_0_0_0_0 -->
<g id="edge3" class="edge">
<title>union_0_0_0_0_0_0_0_0&#45;&gt;siblings_0_0_0_0_0_0_0_0</title>
<path fill="none" stroke="#efc090" d="M2204.27,-83C2211.42,-83 2226.57,-83 2233.28,-83"/>
</g>
<!-- Bart IV -->
<g id="node2" class="node">
<title>Bart IV</title>
<g id="a_node2"><a xlink:title="Born 04/27/1192 &#10;&#10;">
<polygon fill="#36393f" stroke="#cccccc" points="2167.8,-74.4 1987.8,-74.4 1987.8,-17.6 2167.8,-17.6 2167.8,-74.4"/>
<text text-anchor="start" x="2056.61" y="-55.8" font-family="Helvetica, Arial, sans-serif" font-size="14.00" fill="white">Bart IV</text>
<text text-anchor="start" x="2026.14" y="-40.6" font-family="Helvetica, Arial, sans-serif" font-size="10.00" fill="#aaaaaa">Bartholomew Strandiz IV</text>
<text text-anchor="start" x="2065.3" y="-26.6" font-family="Helvetica, Arial, sans-serif" font-size="10.00" fill="#aaaaaa">*1192</text>
</a>
</g>
</g>
<!-- Bart IV&#45;&gt;union_0_0_0_0_0_0_0_0 -->
<g id="edge1" class="edge">
<title>Bart IV&#45;&gt;union_0_0_0_0_0_0_0_0</title>
<path fill="none" stroke="#efc090" d="M2168.13,-64.5C2186.95,-64.5 2201.2,-64.5 2201.2,-64.5 2201.2,-64.5 2201.2,-73.65 2201.2,-79.08"/>
</g>
<!-- Emma -->
<g id="node3" class="node">
<title>Emma</title>
<g id="a_node3"><a xlink:title="Born 11/01/1190 &#160;&#45;&#45; died 04/27/1255&#10;&#10;">
<polygon fill="#36393f" stroke="#cccccc" points="2167.8,-149.4 1987.8,-149.4 1987.8,-92.6 2167.8,-92.6 2167.8,-149.4"/>
<text text-anchor="start" x="2059.53" y="-130.8" font-family="Helvetica, Arial, sans-serif" font-size="14.00" fill="white">Emma</text>
<text text-anchor="start" x="2034.06" y="-115.6" font-family="Helvetica, Arial, sans-serif" font-size="10.00" fill="#aaaaaa">Emmeline Chardonne</text>
<text text-anchor="start" x="2045.3" y="-101.6" font-family="Helvetica, Arial, sans-serif" font-size="10.00" fill="#aaaaaa">*1190 — †1255</text>
</a>
</g>
</g>
<!-- Emma&#45;&gt;union_0_0_0_0_0_0_0_0 -->
<g id="edge2" class="edge">
<title>Emma&#45;&gt;union_0_0_0_0_0_0_0_0</title>
<path fill="none" stroke="#efc090" d="M2168.13,-102C2186.95,-102 2201.2,-102 2201.2,-102 2201.2,-102 2201.2,-92.18 2201.2,-86.66"/>
</g>
<!-- Matt V -->
<g id="node5" class="node">
<title>Matt V</title>
<g id="a_node5"><a xlink:title="Born 11/26/1230 &#10;&#10;">
<polygon fill="#36393f" stroke="#cccccc" points="2449.2,-111.4 2269.2,-111.4 2269.2,-54.6 2449.2,-54.6 2449.2,-111.4"/>
<text text-anchor="start" x="2339.17" y="-92.8" font-family="Helvetica, Arial, sans-serif" font-size="14.00" fill="white">Matt V</text>
<text text-anchor="start" x="2318.65" y="-77.6" font-family="Helvetica, Arial, sans-serif" font-size="10.00" fill="#aaaaaa">Matthew Strandiz V</text>
<text text-anchor="start" x="2346.7" y="-63.6" font-family="Helvetica, Arial, sans-serif" font-size="10.00" fill="#aaaaaa">*1230</text>
</a>
</g>
</g>
<!-- siblings_0_0_0_0_0_0_0_0&#45;&gt;Matt V -->
<g id="edge4" class="edge">
<title>siblings_0_0_0_0_0_0_0_0&#45;&gt;Matt V</title>
<path fill="none" stroke="#efc090" d="M2240.14,-83C2240.14,-83 2258.94,-83 2258.94,-83"/>
<polygon fill="#efc090" stroke="#efc090" points="2266.94,-73 2266.94,-93 2262.94,-93 2262.94,-73 2266.94,-73"/>
<polyline fill="none" stroke="#efc090" points="2268.94,-83 2258.94,-83"/>
</g>
<!-- union_0_0_0_0_0_0_0 -->
<g id="node6" class="node">
<title>union_0_0_0_0_0_0_0</title>
<ellipse fill="#9876aa" stroke="white" cx="1919" cy="-46" rx="3.6" ry="3.6"/>
</g>
<!-- siblings_0_0_0_0_0_0_0 -->
<g id="node9" class="node">
<title>siblings_0_0_0_0_0_0_0</title>
<polygon fill="#9876aa" stroke="#cccccc" stroke-width="0" points="1958.8,-46.72 1951.6,-46.72 1951.6,-45.28 1958.8,-45.28 1958.8,-46.72"/>
</g>
<!-- union_0_0_0_0_0_0_0&#45;&gt;siblings_0_0_0_0_0_0_0 -->
<g id="edge7" class="edge">
<title>union_0_0_0_0_0_0_0&#45;&gt;siblings_0_0_0_0_0_0_0</title>
<path fill="none" stroke="#9876aa" d="M1922.87,-46C1930.02,-46 1945.17,-46 1951.88,-46"/>
</g>
<!-- Matt IV -->
<g id="node7" class="node">
<title>Matt IV</title>
<g id="a_node7"><a xlink:title="Born 05/17/1134 &#160;&#45;&#45; died 02/01/1225&#10;&#10;">
<polygon fill="#36393f" stroke="#cccccc" points="1886.4,-74.4 1706.4,-74.4 1706.4,-17.6 1886.4,-17.6 1886.4,-74.4"/>
<text text-anchor="start" x="1774.04" y="-55.8" font-family="Helvetica, Arial, sans-serif" font-size="14.00" fill="white">Matt IV</text>
<text text-anchor="start" x="1754.19" y="-40.6" font-family="Helvetica, Arial, sans-serif" font-size="10.00" fill="#aaaaaa">Matthew Strandiz IV</text>
<text text-anchor="start" x="1763.9" y="-26.6" font-family="Helvetica, Arial, sans-serif" font-size="10.00" fill="#aaaaaa">*1134 — †1225</text>
</a>
</g>
</g>
<!-- Matt IV&#45;&gt;union_0_0_0_0_0_0_0 -->
<g id="edge5" class="edge">
<title>Matt IV&#45;&gt;union_0_0_0_0_0_0_0</title>
<path fill="none" stroke="#9876aa" d="M1886.79,-46C1899.42,-46 1909.91,-46 1915.23,-46"/>
</g>
<!-- Chance -->
<g id="node8" class="node">
<title>Chance</title>
<g id="a_node8"><a xlink:title="Born 05/17/1134 &#160;&#45;&#45; died 12/01/1230&#10;&#10;">
<polygon fill="#36393f" stroke="#cccccc" points="1886.4,-149.4 1706.4,-149.4 1706.4,-92.6 1886.4,-92.6 1886.4,-149.4"/>
<text text-anchor="start" x="1775.41" y="-130.8" font-family="Helvetica, Arial, sans-serif" font-size="14.00" fill="white">Chance</text>
<text text-anchor="start" x="1761" y="-115.6" font-family="Helvetica, Arial, sans-serif" font-size="10.00" fill="#aaaaaa">Felicie Lyonnaire</text>
<text text-anchor="start" x="1763.9" y="-101.6" font-family="Helvetica, Arial, sans-serif" font-size="10.00" fill="#aaaaaa">*1134 — †1230</text>
</a>
</g>
</g>
<!-- Chance&#45;&gt;union_0_0_0_0_0_0_0 -->
<g id="edge6" class="edge">
<title>Chance&#45;&gt;union_0_0_0_0_0_0_0</title>
<path fill="none" stroke="#9876aa" d="M1886.61,-121C1905.18,-121 1919.2,-121 1919.2,-121 1919.2,-121 1919.2,-65.61 1919.2,-50.03"/>
</g>
<!-- siblings_0_0_0_0_0_0_0&#45;&gt;Bart IV -->
<g id="edge8" class="edge">
<title>siblings_0_0_0_0_0_0_0&#45;&gt;Bart IV</title>
<path fill="none" stroke="#9876aa" d="M1958.74,-46C1958.74,-46 1977.54,-46 1977.54,-46"/>
<polygon fill="#9876aa" stroke="#9876aa" points="1985.54,-36 1985.54,-56 1981.54,-56 1981.54,-36 1985.54,-36"/>
<polyline fill="none" stroke="#9876aa" points="1987.54,-46 1977.54,-46"/>
</g>
<!-- union_0_0_0_0_0_0 -->
<g id="node10" class="node">
<title>union_0_0_0_0_0_0</title>
<ellipse fill="#bbb529" stroke="white" cx="1637.6" cy="-185" rx="3.6" ry="3.6"/>
</g>
<!-- siblings_0_0_0_0_0_0 -->
<g id="node13" class="node">
<title>siblings_0_0_0_0_0_0</title>
<polygon fill="#bbb529" stroke="#cccccc" stroke-width="0" points="1677.4,-185.72 1670.2,-185.72 1670.2,-184.28 1677.4,-184.28 1677.4,-185.72"/>
</g>
<!-- union_0_0_0_0_0_0&#45;&gt;siblings_0_0_0_0_0_0 -->
<g id="edge11" class="edge">
<title>union_0_0_0_0_0_0&#45;&gt;siblings_0_0_0_0_0_0</title>
<path fill="none" stroke="#bbb529" d="M1641.47,-185C1648.62,-185 1663.77,-185 1670.48,-185"/>
</g>
<!-- Bart III -->
<g id="node11" class="node">
<title>Bart III</title>
<g id="a_node11"><a xlink:title="Born 03/11/1101 &#160;&#45;&#45; died 04/04/1201&#10;&#10;">
<polygon fill="#36393f" stroke="#cccccc" points="1605,-173.4 1425,-173.4 1425,-116.6 1605,-116.6 1605,-173.4"/>
<text text-anchor="start" x="1494.21" y="-154.8" font-family="Helvetica, Arial, sans-serif" font-size="14.00" fill="white">Bart III</text>
<text text-anchor="start" x="1463.63" y="-139.6" font-family="Helvetica, Arial, sans-serif" font-size="10.00" fill="#aaaaaa">Bartholomew Strandiz III</text>
<text text-anchor="start" x="1482.5" y="-125.6" font-family="Helvetica, Arial, sans-serif" font-size="10.00" fill="#aaaaaa">*1101 — †1201</text>
</a>
</g>
</g>
<!-- Bart III&#45;&gt;union_0_0_0_0_0_0 -->
<g id="edge9" class="edge">
<title>Bart III&#45;&gt;union_0_0_0_0_0_0</title>
<path fill="none" stroke="#bbb529" d="M1605.18,-158.2C1623.97,-158.2 1638.2,-158.2 1638.2,-158.2 1638.2,-158.2 1638.2,-173.91 1638.2,-181.27"/>
</g>
<!-- Petra -->
<g id="node12" class="node">
<title>Petra</title>
<g id="a_node12"><a xlink:title="Born 01/10/1101 &#160;&#45;&#45; died 04/01/1201&#10;&#10;">
<polygon fill="#36393f" stroke="#cccccc" points="1605,-248.4 1425,-248.4 1425,-191.6 1605,-191.6 1605,-248.4"/>
<text text-anchor="start" x="1500.62" y="-229.8" font-family="Helvetica, Arial, sans-serif" font-size="14.00" fill="white">Petra</text>
<text text-anchor="start" x="1477.37" y="-214.6" font-family="Helvetica, Arial, sans-serif" font-size="10.00" fill="#aaaaaa">Petronilla Faustine</text>
<text text-anchor="start" x="1482.5" y="-200.6" font-family="Helvetica, Arial, sans-serif" font-size="10.00" fill="#aaaaaa">*1101 — †1201</text>
</a>
</g>
</g>
<!-- Petra&#45;&gt;union_0_0_0_0_0_0 -->
<g id="edge10" class="edge">
<title>Petra&#45;&gt;union_0_0_0_0_0_0</title>
<path fill="none" stroke="#bbb529" d="M1605.18,-197.3C1623.97,-197.3 1638.2,-197.3 1638.2,-197.3 1638.2,-197.3 1638.2,-192.5 1638.2,-188.89"/>
</g>
<!-- siblings_0_0_0_0_0_0&#45;&gt;Matt IV -->
<g id="edge12" class="edge">
<title>siblings_0_0_0_0_0_0&#45;&gt;Matt IV</title>
<path fill="none" stroke="#bbb529" d="M1674.2,-184.6C1674.2,-176.45 1674.2,-46 1674.2,-46 1674.2,-46 1695.99,-46 1695.99,-46"/>
<polygon fill="#bbb529" stroke="#bbb529" points="1703.99,-36 1703.99,-56 1699.99,-56 1699.99,-36 1703.99,-36"/>
<polyline fill="none" stroke="#bbb529" points="1705.99,-46 1695.99,-46"/>
</g>
<!-- Corrine -->
<g id="node14" class="node">
<title>Corrine</title>
<polygon fill="#36393f" stroke="#cccccc" points="1886.4,-203 1706.4,-203 1706.4,-167 1886.4,-167 1886.4,-203"/>
<text text-anchor="middle" x="1796.4" y="-180.8" font-family="Helvetica, Arial, sans-serif" font-size="14.00" fill="white">Corrine</text>
</g>
<!-- siblings_0_0_0_0_0_0&#45;&gt;Corrine -->
<g id="edge13" class="edge">
<title>siblings_0_0_0_0_0_0&#45;&gt;Corrine</title>
<path fill="none" stroke="#bbb529" d="M1677.34,-185C1677.34,-185 1696.14,-185 1696.14,-185"/>
<polygon fill="#bbb529" stroke="#bbb529" points="1704.14,-175 1704.14,-195 1700.14,-195 1700.14,-175 1704.14,-175"/>
<polyline fill="none" stroke="#bbb529" points="1706.14,-185 1696.14,-185"/>
</g>
<!-- Linnea -->
<g id="node15" class="node">
<title>Linnea</title>
<polygon fill="#36393f" stroke="#cccccc" points="1886.4,-257 1706.4,-257 1706.4,-221 1886.4,-221 1886.4,-257"/>
<text text-anchor="middle" x="1796.4" y="-234.8" font-family="Helvetica, Arial, sans-serif" font-size="14.00" fill="white">Linnea</text>
</g>
<!-- siblings_0_0_0_0_0_0&#45;&gt;Linnea -->
<g id="edge14" class="edge">
<title>siblings_0_0_0_0_0_0&#45;&gt;Linnea</title>
<path fill="none" stroke="#bbb529" d="M1674.2,-185.56C1674.2,-191.02 1674.2,-234.7 1674.2,-234.7 1674.2,-234.7 1695.99,-234.7 1695.99,-234.7"/>
<polygon fill="#bbb529" stroke="#bbb529" points="1703.99,-224.7 1703.99,-244.7 1699.99,-244.7 1699.99,-224.7 1703.99,-224.7"/>
<polyline fill="none" stroke="#bbb529" points="1705.99,-234.7 1695.99,-234.7"/>
</g>
<!-- union_0_0_0_0_0 -->
<g id="node16" class="node">
<title>union_0_0_0_0_0</title>
<ellipse fill="#6897bb" stroke="white" cx="1356.2" cy="-145" rx="3.6" ry="3.6"/>
</g>
<!-- siblings_0_0_0_0_0 -->
<g id="node19" class="node">
<title>siblings_0_0_0_0_0</title>
<polygon fill="#6897bb" stroke="#cccccc" stroke-width="0" points="1396,-145.72 1388.8,-145.72 1388.8,-144.28 1396,-144.28 1396,-145.72"/>
</g>
<!-- union_0_0_0_0_0&#45;&gt;siblings_0_0_0_0_0 -->
<g id="edge17" class="edge">
<title>union_0_0_0_0_0&#45;&gt;siblings_0_0_0_0_0</title>
<path fill="none" stroke="#6897bb" d="M1360.07,-145C1367.22,-145 1382.37,-145 1389.08,-145"/>
</g>
<!-- Matt III -->
<g id="node17" class="node">
<title>Matt III</title>
<g id="a_node17"><a xlink:title="Born 09/02/1060 &#160;&#45;&#45; died 11/10/1142&#10;&#10;">
<polygon fill="#36393f" stroke="#cccccc" points="1323.6,-164.4 1143.6,-164.4 1143.6,-107.6 1323.6,-107.6 1323.6,-164.4"/>
<text text-anchor="start" x="1211.64" y="-145.8" font-family="Helvetica, Arial, sans-serif" font-size="14.00" fill="white">Matt III</text>
<text text-anchor="start" x="1191.67" y="-130.6" font-family="Helvetica, Arial, sans-serif" font-size="10.00" fill="#aaaaaa">Matthew Strandiz III</text>
<text text-anchor="start" x="1201.1" y="-116.6" font-family="Helvetica, Arial, sans-serif" font-size="10.00" fill="#aaaaaa">*1060 — †1142</text>
</a>
</g>
</g>
<!-- Matt III&#45;&gt;union_0_0_0_0_0 -->
<g id="edge15" class="edge">
<title>Matt III&#45;&gt;union_0_0_0_0_0</title>
<path fill="none" stroke="#6897bb" d="M1323.99,-145C1336.62,-145 1347.11,-145 1352.43,-145"/>
</g>
<!-- Dorotea -->
<g id="node18" class="node">
<title>Dorotea</title>
<g id="a_node18"><a xlink:title="Born 01/22/1078 &#160;&#45;&#45; died 10/29/1166&#10;&#10;">
<polygon fill="#36393f" stroke="#cccccc" points="1323.6,-239.4 1143.6,-239.4 1143.6,-182.6 1323.6,-182.6 1323.6,-239.4"/>
<text text-anchor="start" x="1211.06" y="-220.8" font-family="Helvetica, Arial, sans-serif" font-size="14.00" fill="white">Dorotea</text>
<text text-anchor="start" x="1198.75" y="-205.6" font-family="Helvetica, Arial, sans-serif" font-size="10.00" fill="#aaaaaa">Dorotea Chemise</text>
<text text-anchor="start" x="1201.1" y="-191.6" font-family="Helvetica, Arial, sans-serif" font-size="10.00" fill="#aaaaaa">*1078 — †1166</text>
</a>
</g>
</g>
<!-- Dorotea&#45;&gt;union_0_0_0_0_0 -->
<g id="edge16" class="edge">
<title>Dorotea&#45;&gt;union_0_0_0_0_0</title>
<path fill="none" stroke="#6897bb" d="M1323.99,-215.5C1342.36,-215.5 1356.2,-215.5 1356.2,-215.5 1356.2,-215.5 1356.2,-163.43 1356.2,-148.79"/>
</g>
<!-- siblings_0_0_0_0_0&#45;&gt;Bart III -->
<g id="edge18" class="edge">
<title>siblings_0_0_0_0_0&#45;&gt;Bart III</title>
<path fill="none" stroke="#6897bb" d="M1395.94,-145C1395.94,-145 1414.74,-145 1414.74,-145"/>
<polygon fill="#6897bb" stroke="#6897bb" points="1422.74,-135 1422.74,-155 1418.74,-155 1418.74,-135 1422.74,-135"/>
<polyline fill="none" stroke="#6897bb" points="1424.74,-145 1414.74,-145"/>
</g>
<!-- union_0_0_0_0 -->
<g id="node20" class="node">
<title>union_0_0_0_0</title>
<ellipse fill="#cc7832" stroke="white" cx="1074.8" cy="-209" rx="3.6" ry="3.6"/>
</g>
<!-- siblings_0_0_0_0 -->
<g id="node23" class="node">
<title>siblings_0_0_0_0</title>
<polygon fill="#cc7832" stroke="#cccccc" stroke-width="0" points="1114.6,-209.72 1107.4,-209.72 1107.4,-208.28 1114.6,-208.28 1114.6,-209.72"/>
</g>
<!-- union_0_0_0_0&#45;&gt;siblings_0_0_0_0 -->
<g id="edge21" class="edge">
<title>union_0_0_0_0&#45;&gt;siblings_0_0_0_0</title>
<path fill="none" stroke="#cc7832" d="M1078.67,-209C1085.82,-209 1100.97,-209 1107.68,-209"/>
</g>
<!-- Bart II -->
<g id="node21" class="node">
<title>Bart II</title>
<g id="a_node21"><a xlink:title="Born 01/01/1001 &#160;&#45;&#45; died 12/30/1100&#10;&#10;">
<polygon fill="#36393f" stroke="#cccccc" points="1042.2,-200.4 862.2,-200.4 862.2,-143.6 1042.2,-143.6 1042.2,-200.4"/>
<text text-anchor="start" x="933.74" y="-181.8" font-family="Helvetica, Arial, sans-serif" font-size="14.00" fill="white">Bart II</text>
<text text-anchor="start" x="902.49" y="-166.6" font-family="Helvetica, Arial, sans-serif" font-size="10.00" fill="#aaaaaa">Bartholomew Strandiz II</text>
<text text-anchor="start" x="919.7" y="-152.6" font-family="Helvetica, Arial, sans-serif" font-size="10.00" fill="#aaaaaa">*1000 — †1100</text>
</a>
</g>
</g>
<!-- Bart II&#45;&gt;union_0_0_0_0 -->
<g id="edge19" class="edge">
<title>Bart II&#45;&gt;union_0_0_0_0</title>
<path fill="none" stroke="#cc7832" d="M1042.56,-191.5C1061.16,-191.5 1075.2,-191.5 1075.2,-191.5 1075.2,-191.5 1075.2,-199.77 1075.2,-204.94"/>
</g>
<!-- Collette -->
<g id="node22" class="node">
<title>Collette</title>
<g id="a_node22"><a xlink:title="Born 07/04/1031 &#160;&#45;&#45; died 12/30/1105&#10;&#10;">
<polygon fill="#36393f" stroke="#cccccc" points="1042.2,-275.4 862.2,-275.4 862.2,-218.6 1042.2,-218.6 1042.2,-275.4"/>
<text text-anchor="start" x="930.04" y="-256.8" font-family="Helvetica, Arial, sans-serif" font-size="14.00" fill="white">Collette</text>
<text text-anchor="start" x="913.74" y="-241.6" font-family="Helvetica, Arial, sans-serif" font-size="10.00" fill="#aaaaaa">Collette Beauchard</text>
<text text-anchor="start" x="919.7" y="-227.6" font-family="Helvetica, Arial, sans-serif" font-size="10.00" fill="#aaaaaa">*1031 — †1105</text>
</a>
</g>
</g>
<!-- Collette&#45;&gt;union_0_0_0_0 -->
<g id="edge20" class="edge">
<title>Collette&#45;&gt;union_0_0_0_0</title>
<path fill="none" stroke="#cc7832" d="M1042.56,-229C1061.16,-229 1075.2,-229 1075.2,-229 1075.2,-229 1075.2,-218.67 1075.2,-212.86"/>
</g>
<!-- siblings_0_0_0_0&#45;&gt;Matt III -->
<g id="edge22" class="edge">
<title>siblings_0_0_0_0&#45;&gt;Matt III</title>
<path fill="none" stroke="#cc7832" d="M1111.2,-208.38C1111.2,-202.34 1111.2,-154 1111.2,-154 1111.2,-154 1133.36,-154 1133.36,-154"/>
<polygon fill="#cc7832" stroke="#cc7832" points="1141.36,-144 1141.36,-164 1137.36,-164 1137.36,-144 1141.36,-144"/>
<polyline fill="none" stroke="#cc7832" points="1143.36,-154 1133.36,-154"/>
</g>
<!-- Johanne -->
<g id="node24" class="node">
<title>Johanne</title>
<polygon fill="#36393f" stroke="#cccccc" points="1323.6,-293 1143.6,-293 1143.6,-257 1323.6,-257 1323.6,-293"/>
<text text-anchor="middle" x="1233.6" y="-270.8" font-family="Helvetica, Arial, sans-serif" font-size="14.00" fill="white">Johanne</text>
</g>
<!-- siblings_0_0_0_0&#45;&gt;Johanne -->
<g id="edge23" class="edge">
<title>siblings_0_0_0_0&#45;&gt;Johanne</title>
<path fill="none" stroke="#cc7832" d="M1111.2,-209.64C1111.2,-215.93 1111.2,-266.2 1111.2,-266.2 1111.2,-266.2 1133.36,-266.2 1133.36,-266.2"/>
<polygon fill="#cc7832" stroke="#cc7832" points="1141.36,-256.2 1141.36,-276.2 1137.36,-276.2 1137.36,-256.2 1141.36,-256.2"/>
<polyline fill="none" stroke="#cc7832" points="1143.36,-266.2 1133.36,-266.2"/>
</g>
<!-- union_0_0_0 -->
<g id="node25" class="node">
<title>union_0_0_0</title>
<ellipse fill="#629755" stroke="white" cx="793.4" cy="-340" rx="3.6" ry="3.6"/>
</g>
<!-- siblings_0_0_0 -->
<g id="node28" class="node">
<title>siblings_0_0_0</title>
<polygon fill="#629755" stroke="#cccccc" stroke-width="0" points="833.2,-340.72 826,-340.72 826,-339.28 833.2,-339.28 833.2,-340.72"/>
</g>
<!-- union_0_0_0&#45;&gt;siblings_0_0_0 -->
<g id="edge26" class="edge">
<title>union_0_0_0&#45;&gt;siblings_0_0_0</title>
<path fill="none" stroke="#629755" d="M797.27,-340C804.42,-340 819.57,-340 826.28,-340"/>
</g>
<!-- Matt II -->
<g id="node26" class="node">
<title>Matt II</title>
<g id="a_node26"><a xlink:title="Born 05/11/927 &#160;&#45;&#45; died 12/16/1012&#10;&#10;">
<polygon fill="#36393f" stroke="#cccccc" points="760.8,-344.4 580.8,-344.4 580.8,-287.6 760.8,-287.6 760.8,-344.4"/>
<text text-anchor="start" x="651.17" y="-325.8" font-family="Helvetica, Arial, sans-serif" font-size="14.00" fill="white">Matt II</text>
<text text-anchor="start" x="630.53" y="-310.6" font-family="Helvetica, Arial, sans-serif" font-size="10.00" fill="#aaaaaa">Matthew Strandiz II</text>
<text text-anchor="start" x="640.8" y="-296.6" font-family="Helvetica, Arial, sans-serif" font-size="10.00" fill="#aaaaaa">*927 — †1012</text>
</a>
</g>
</g>
<!-- Matt II&#45;&gt;union_0_0_0 -->
<g id="edge24" class="edge">
<title>Matt II&#45;&gt;union_0_0_0</title>
<path fill="none" stroke="#629755" d="M761.19,-340C773.82,-340 784.31,-340 789.63,-340"/>
</g>
<!-- Marta -->
<g id="node27" class="node">
<title>Marta</title>
<g id="a_node27"><a xlink:title="Born 08/11/978 &#160;&#45;&#45; died 04/25/1050&#10;&#10;">
<polygon fill="#36393f" stroke="#cccccc" points="760.8,-419.4 580.8,-419.4 580.8,-362.6 760.8,-362.6 760.8,-419.4"/>
<text text-anchor="start" x="654.09" y="-400.8" font-family="Helvetica, Arial, sans-serif" font-size="14.00" fill="white">Marta</text>
<text text-anchor="start" x="635.81" y="-385.6" font-family="Helvetica, Arial, sans-serif" font-size="10.00" fill="#aaaaaa">Martha von Grier</text>
<text text-anchor="start" x="640.8" y="-371.6" font-family="Helvetica, Arial, sans-serif" font-size="10.00" fill="#aaaaaa">*978 — †1050</text>
</a>
</g>
</g>
<!-- Marta&#45;&gt;union_0_0_0 -->
<g id="edge25" class="edge">
<title>Marta&#45;&gt;union_0_0_0</title>
<path fill="none" stroke="#629755" d="M761.13,-372.8C779.95,-372.8 794.2,-372.8 794.2,-372.8 794.2,-372.8 794.2,-352.38 794.2,-343.76"/>
</g>
<!-- siblings_0_0_0&#45;&gt;Bart II -->
<g id="edge27" class="edge">
<title>siblings_0_0_0&#45;&gt;Bart II</title>
<path fill="none" stroke="#629755" d="M829.2,-339.52C829.2,-329.66 829.2,-172 829.2,-172 829.2,-172 851.84,-172 851.84,-172"/>
<polygon fill="#629755" stroke="#629755" points="859.84,-162 859.84,-182 855.84,-182 855.84,-162 859.84,-162"/>
<polyline fill="none" stroke="#629755" points="861.84,-172 851.84,-172"/>
</g>
<!-- Mark -->
<g id="node29" class="node">
<title>Mark</title>
<polygon fill="#36393f" stroke="#cccccc" points="1042.2,-329 862.2,-329 862.2,-293 1042.2,-293 1042.2,-329"/>
<text text-anchor="middle" x="952.2" y="-306.8" font-family="Helvetica, Arial, sans-serif" font-size="14.00" fill="white">Mark</text>
</g>
<!-- siblings_0_0_0&#45;&gt;Mark -->
<g id="edge28" class="edge">
<title>siblings_0_0_0&#45;&gt;Mark</title>
<path fill="none" stroke="#629755" d="M831.2,-339.28C831.2,-334.82 831.2,-311 831.2,-311 831.2,-311 851.73,-311 851.73,-311"/>
<polygon fill="#629755" stroke="#629755" points="859.73,-301 859.73,-321 855.73,-321 855.73,-301 859.73,-301"/>
<polyline fill="none" stroke="#629755" points="861.73,-311 851.73,-311"/>
</g>
<!-- Maria -->
<g id="node30" class="node">
<title>Maria</title>
<polygon fill="#36393f" stroke="#cccccc" points="1042.2,-383 862.2,-383 862.2,-347 1042.2,-347 1042.2,-383"/>
<text text-anchor="middle" x="952.2" y="-360.8" font-family="Helvetica, Arial, sans-serif" font-size="14.00" fill="white">Maria</text>
</g>
<!-- siblings_0_0_0&#45;&gt;Maria -->
<g id="edge29" class="edge">
<title>siblings_0_0_0&#45;&gt;Maria</title>
<path fill="none" stroke="#629755" d="M831.2,-340.64C831.2,-343.47 831.2,-354.8 831.2,-354.8 831.2,-354.8 851.73,-354.8 851.73,-354.8"/>
<polygon fill="#629755" stroke="#629755" points="859.73,-344.8 859.73,-364.8 855.73,-364.8 855.73,-344.8 859.73,-344.8"/>
<polyline fill="none" stroke="#629755" points="861.73,-354.8 851.73,-354.8"/>
</g>
<!-- Melissa -->
<g id="node31" class="node">
<title>Melissa</title>
<polygon fill="#36393f" stroke="#cccccc" points="1042.2,-437 862.2,-437 862.2,-401 1042.2,-401 1042.2,-437"/>
<text text-anchor="middle" x="952.2" y="-414.8" font-family="Helvetica, Arial, sans-serif" font-size="14.00" fill="white">Melissa</text>
</g>
<!-- siblings_0_0_0&#45;&gt;Melissa -->
<g id="edge30" class="edge">
<title>siblings_0_0_0&#45;&gt;Melissa</title>
<path fill="none" stroke="#629755" d="M829.2,-340.45C829.2,-346.43 829.2,-410.2 829.2,-410.2 829.2,-410.2 851.84,-410.2 851.84,-410.2"/>
<polygon fill="#629755" stroke="#629755" points="859.84,-400.2 859.84,-420.2 855.84,-420.2 855.84,-400.2 859.84,-400.2"/>
<polyline fill="none" stroke="#629755" points="861.84,-410.2 851.84,-410.2"/>
</g>
<!-- union_0_0 -->
<g id="node32" class="node">
<title>union_0_0</title>
<ellipse fill="#ccdf32" stroke="white" cx="512" cy="-455" rx="3.6" ry="3.6"/>
</g>
<!-- siblings_0_0 -->
<g id="node35" class="node">
<title>siblings_0_0</title>
<polygon fill="#ccdf32" stroke="#cccccc" stroke-width="0" points="551.8,-455.72 544.6,-455.72 544.6,-454.28 551.8,-454.28 551.8,-455.72"/>
</g>
<!-- union_0_0&#45;&gt;siblings_0_0 -->
<g id="edge33" class="edge">
<title>union_0_0&#45;&gt;siblings_0_0</title>
<path fill="none" stroke="#ccdf32" d="M515.87,-455C523.02,-455 538.17,-455 544.88,-455"/>
</g>
<!-- Bart I -->
<g id="node33" class="node">
<title>Bart I</title>
<g id="a_node33"><a xlink:title="Born 11/04/885 &#160;&#45;&#45; died 08/11/968&#10;&#10;">
<polygon fill="#36393f" stroke="#cccccc" points="479.4,-434.4 299.4,-434.4 299.4,-377.6 479.4,-377.6 479.4,-434.4"/>
<text text-anchor="start" x="373.27" y="-415.8" font-family="Helvetica, Arial, sans-serif" font-size="14.00" fill="white">Bart I</text>
<text text-anchor="start" x="341.36" y="-400.6" font-family="Helvetica, Arial, sans-serif" font-size="10.00" fill="#aaaaaa">Bartholomew Strandiz I</text>
<text text-anchor="start" x="361.9" y="-386.6" font-family="Helvetica, Arial, sans-serif" font-size="10.00" fill="#aaaaaa">*885 — †968</text>
</a>
</g>
</g>
<!-- Bart I&#45;&gt;union_0_0 -->
<g id="edge31" class="edge">
<title>Bart I&#45;&gt;union_0_0</title>
<path fill="none" stroke="#ccdf32" d="M479.61,-426.9C498.18,-426.9 512.2,-426.9 512.2,-426.9 512.2,-426.9 512.2,-443.37 512.2,-451.09"/>
</g>
<!-- Agnes -->
<g id="node34" class="node">
<title>Agnes</title>
<g id="a_node34"><a xlink:title="Born 11/04/910 &#160;&#45;&#45; died 08/11/999&#10;&#10;">
<polygon fill="#36393f" stroke="#cccccc" points="479.4,-509.4 299.4,-509.4 299.4,-452.6 479.4,-452.6 479.4,-509.4"/>
<text text-anchor="start" x="371.51" y="-490.8" font-family="Helvetica, Arial, sans-serif" font-size="14.00" fill="white">Agnes</text>
<text text-anchor="start" x="361.77" y="-475.6" font-family="Helvetica, Arial, sans-serif" font-size="10.00" fill="#aaaaaa">Agnes Anatto</text>
<text text-anchor="start" x="361.9" y="-461.6" font-family="Helvetica, Arial, sans-serif" font-size="10.00" fill="#aaaaaa">*910 — †999</text>
</a>
</g>
</g>
<!-- Agnes&#45;&gt;union_0_0 -->
<g id="edge32" class="edge">
<title>Agnes&#45;&gt;union_0_0</title>
<path fill="none" stroke="#ccdf32" d="M479.61,-465.8C498.18,-465.8 512.2,-465.8 512.2,-465.8 512.2,-465.8 512.2,-461.99 512.2,-458.9"/>
</g>
<!-- siblings_0_0&#45;&gt;Matt II -->
<g id="edge34" class="edge">
<title>siblings_0_0&#45;&gt;Matt II</title>
<path fill="none" stroke="#ccdf32" d="M549.2,-454.6C549.2,-446.45 549.2,-316 549.2,-316 549.2,-316 570.52,-316 570.52,-316"/>
<polygon fill="#ccdf32" stroke="#ccdf32" points="578.51,-306 578.52,-326 574.52,-326 574.51,-306 578.51,-306"/>
<polyline fill="none" stroke="#ccdf32" points="580.52,-316 570.52,-316"/>
</g>
<!-- Telia -->
<g id="node36" class="node">
<title>Telia</title>
<polygon fill="#36393f" stroke="#cccccc" points="760.8,-473 580.8,-473 580.8,-437 760.8,-437 760.8,-473"/>
<text text-anchor="middle" x="670.8" y="-450.8" font-family="Helvetica, Arial, sans-serif" font-size="14.00" fill="white">Telia</text>
</g>
<!-- siblings_0_0&#45;&gt;Telia -->
<g id="edge35" class="edge">
<title>siblings_0_0&#45;&gt;Telia</title>
<path fill="none" stroke="#ccdf32" d="M551.74,-455C551.74,-455 570.54,-455 570.54,-455"/>
<polygon fill="#ccdf32" stroke="#ccdf32" points="578.54,-445 578.54,-465 574.54,-465 574.54,-445 578.54,-445"/>
<polyline fill="none" stroke="#ccdf32" points="580.54,-455 570.54,-455"/>
</g>
<!-- Astrid -->
<g id="node37" class="node">
<title>Astrid</title>
<polygon fill="#36393f" stroke="#cccccc" points="760.8,-527 580.8,-527 580.8,-491 760.8,-491 760.8,-527"/>
<text text-anchor="middle" x="670.8" y="-504.8" font-family="Helvetica, Arial, sans-serif" font-size="14.00" fill="white">Astrid</text>
</g>
<!-- siblings_0_0&#45;&gt;Astrid -->
<g id="edge36" class="edge">
<title>siblings_0_0&#45;&gt;Astrid</title>
<path fill="none" stroke="#ccdf32" d="M549.2,-455.51C549.2,-460.47 549.2,-500.2 549.2,-500.2 549.2,-500.2 570.52,-500.2 570.52,-500.2"/>
<polygon fill="#ccdf32" stroke="#ccdf32" points="578.51,-490.2 578.52,-510.2 574.52,-510.2 574.51,-490.2 578.51,-490.2"/>
<polyline fill="none" stroke="#ccdf32" points="580.52,-500.2 570.52,-500.2"/>
</g>
<!-- union_0 -->
<g id="node38" class="node">
<title>union_0</title>
<ellipse fill="#d25252" stroke="white" cx="230.6" cy="-432" rx="3.6" ry="3.6"/>
</g>
<!-- siblings_0 -->
<g id="node41" class="node">
<title>siblings_0</title>
<polygon fill="#d25252" stroke="#cccccc" stroke-width="0" points="270.4,-432.72 263.2,-432.72 263.2,-431.28 270.4,-431.28 270.4,-432.72"/>
</g>
<!-- union_0&#45;&gt;siblings_0 -->
<g id="edge39" class="edge">
<title>union_0&#45;&gt;siblings_0</title>
<path fill="none" stroke="#d25252" d="M234.47,-432C241.62,-432 256.77,-432 263.48,-432"/>
</g>
<!-- Matt I -->
<g id="node39" class="node">
<title>Matt I</title>
<g id="a_node39"><a xlink:title="Born 02/01/834 &#160;&#45;&#45; died 09/19/912&#10;&#10;">
<polygon fill="#36393f" stroke="#cccccc" points="198,-423.4 18,-423.4 18,-366.6 198,-366.6 198,-423.4"/>
<text text-anchor="start" x="90.7" y="-404.8" font-family="Helvetica, Arial, sans-serif" font-size="14.00" fill="white">Matt I</text>
<text text-anchor="start" x="69.4" y="-389.6" font-family="Helvetica, Arial, sans-serif" font-size="10.00" fill="#aaaaaa">Matthew Strandiz I</text>
<text text-anchor="start" x="80.5" y="-375.6" font-family="Helvetica, Arial, sans-serif" font-size="10.00" fill="#aaaaaa">*834 — †912</text>
</a>
</g>
</g>
<!-- Matt I&#45;&gt;union_0 -->
<g id="edge37" class="edge">
<title>Matt I&#45;&gt;union_0</title>
<path fill="none" stroke="#d25252" d="M198.18,-400.5C216.97,-400.5 231.2,-400.5 231.2,-400.5 231.2,-400.5 231.2,-419.73 231.2,-428.14"/>
</g>
<!-- Peony -->
<g id="node40" class="node">
<title>Peony</title>
<g id="a_node40"><a xlink:title="Born 09/30/855 &#160;&#45;&#45; died 04/10/911&#10;&#10;">
<polygon fill="#36393f" stroke="#cccccc" points="198,-498.4 18,-498.4 18,-441.6 198,-441.6 198,-498.4"/>
<text text-anchor="start" x="90.5" y="-479.8" font-family="Helvetica, Arial, sans-serif" font-size="14.00" fill="white">Peony</text>
<text text-anchor="start" x="95.5" y="-464.6" font-family="Helvetica, Arial, sans-serif" font-size="10.00" fill="#aaaaaa">Peony</text>
<text text-anchor="start" x="80.5" y="-450.6" font-family="Helvetica, Arial, sans-serif" font-size="10.00" fill="#aaaaaa">*855 — †911</text>
</a>
</g>
</g>
<!-- Peony&#45;&gt;union_0 -->
<g id="edge38" class="edge">
<title>Peony&#45;&gt;union_0</title>
<path fill="none" stroke="#d25252" d="M198.18,-446.5C216.97,-446.5 231.2,-446.5 231.2,-446.5 231.2,-446.5 231.2,-440.26 231.2,-435.96"/>
</g>
<!-- siblings_0&#45;&gt;Bart I -->
<g id="edge40" class="edge">
<title>siblings_0&#45;&gt;Bart I</title>
<path fill="none" stroke="#d25252" d="M270.34,-432C270.34,-432 289.14,-432 289.14,-432"/>
<polygon fill="#d25252" stroke="#d25252" points="297.14,-422 297.14,-442 293.14,-442 293.14,-422 297.14,-422"/>
<polyline fill="none" stroke="#d25252" points="299.14,-432 289.14,-432"/>
</g>
<!-- Rose -->
<g id="node42" class="node">
<title>Rose</title>
<polygon fill="#36393f" stroke="#cccccc" points="479.4,-563 299.4,-563 299.4,-527 479.4,-527 479.4,-563"/>
<text text-anchor="middle" x="389.4" y="-540.8" font-family="Helvetica, Arial, sans-serif" font-size="14.00" fill="white">Rose</text>
</g>
<!-- siblings_0&#45;&gt;Rose -->
<g id="edge41" class="edge">
<title>siblings_0&#45;&gt;Rose</title>
<path fill="none" stroke="#d25252" d="M267.2,-432.32C267.2,-438.95 267.2,-545 267.2,-545 267.2,-545 288.99,-545 288.99,-545"/>
<polygon fill="#d25252" stroke="#d25252" points="296.99,-535 296.99,-555 292.99,-555 292.99,-535 296.99,-535"/>
<polyline fill="none" stroke="#d25252" points="298.99,-545 288.99,-545"/>
</g>
</g>
</svg>
