<?xml version="1.0" encoding="UTF-8" standalone="no"?>
<!DOCTYPE svg PUBLIC "-//W3C//DTD SVG 1.1//EN"
 "http://www.w3.org/Graphics/SVG/1.1/DTD/svg11.dtd">
<!-- Generated by graphviz version 10.0.1 (20240210.2158)
 -->
<!-- Title: G Pages: 1 -->
<svg width="1350pt" height="897pt"
 viewBox="0.00 0.00 1349.60 897.40" xmlns="http://www.w3.org/2000/svg" xmlns:xlink="http://www.w3.org/1999/xlink">
<g id="graph0" class="graph" transform="scale(1 1) rotate(0) translate(4 893.4)">
<title>G</title>
<polygon fill="#23272a" stroke="none" points="-4,4 -4,-893.4 1345.6,-893.4 1345.6,4 -4,4"/>
<g id="clust1" class="cluster">
<title>cluster_family_0</title>
<polygon fill="#2c2f33" stroke="#2c2f33" points="8,-8 8,-715 1333.6,-715 1333.6,-8 8,-8"/>
<text text-anchor="start" x="16" y="-697.6" font-family="Helvetica, Arial, sans-serif" font-weight="bold" font-size="16.00" fill="white">Hardpebble</text>
</g>
<g id="clust2" class="cluster">
<title>cluster_family_0_0</title>
</g>
<g id="clust5" class="cluster">
<title>cluster_family_0_1</title>
</g>
<g id="clust6" class="cluster">
<title>cluster_family_0_1_0</title>
</g>
<g id="clust8" class="cluster">
<title>cluster_family_0_1_1</title>
</g>
<g id="clust9" class="cluster">
<title>cluster_family_0_1_1_0</title>
</g>
<!-- union_0_0 -->
<g id="node1" class="node">
<title>union_0_0</title>
<ellipse fill="#ccdf32" stroke="white" cx="512" cy="-69" rx="3.6" ry="3.6"/>
</g>
<!-- siblings_0_0 -->
<g id="node4" class="node">
<title>siblings_0_0</title>
<polygon fill="#ccdf32" stroke="#cccccc" stroke-width="0" points="551.8,-69.72 544.6,-69.72 544.6,-68.28 551.8,-68.28 551.8,-69.72"/>
</g>
<!-- union_0_0&#45;&gt;siblings_0_0 -->
<g id="edge3" class="edge">
<title>union_0_0&#45;&gt;siblings_0_0</title>
<path fill="none" stroke="#ccdf32" d="M515.87,-69C523.02,-69 538.17,-69 544.88,-69"/>
</g>
<!-- Antonina -->
<g id="node2" class="node">
<title>Antonina</title>
<g id="a_node2"><a xlink:title="&#10;&#10;">
<polygon fill="#36393f" stroke="#cccccc" points="479.4,-60.4 299.4,-60.4 299.4,-17.6 479.4,-17.6 479.4,-60.4"/>
<text text-anchor="start" x="363.35" y="-41.8" font-family="Helvetica, Arial, sans-serif" font-size="14.00" fill="white">Antonina</text>
<text text-anchor="start" x="326.64" y="-26.6" font-family="Helvetica, Arial, sans-serif" font-size="10.00" fill="#aaaaaa">Antonina Partridge Hardpebble</text>
</a>
</g>
</g>
<!-- Antonina&#45;&gt;union_0_0 -->
<g id="edge1" class="edge">
<title>Antonina&#45;&gt;union_0_0</title>
<path fill="none" stroke="#ccdf32" d="M479.58,-31.87C498.37,-31.87 512.6,-31.87 512.6,-31.87 512.6,-31.87 512.6,-55.45 512.6,-65.03"/>
</g>
<!-- Hunter -->
<g id="node3" class="node">
<title>Hunter</title>
<g id="a_node3"><a xlink:title="&#10;&#10;">
<polygon fill="#36393f" stroke="#cccccc" points="479.4,-121.4 299.4,-121.4 299.4,-78.6 479.4,-78.6 479.4,-121.4"/>
<text text-anchor="start" x="369.96" y="-102.8" font-family="Helvetica, Arial, sans-serif" font-size="14.00" fill="white">Hunter</text>
<text text-anchor="start" x="356.21" y="-87.6" font-family="Helvetica, Arial, sans-serif" font-size="10.00" fill="#aaaaaa">Hunter Solomon</text>
</a>
</g>
</g>
<!-- Hunter&#45;&gt;union_0_0 -->
<g id="edge2" class="edge">
<title>Hunter&#45;&gt;union_0_0</title>
<path fill="none" stroke="#ccdf32" d="M479.66,-107.13C498.92,-107.13 513.6,-107.13 513.6,-107.13 513.6,-107.13 513.6,-81.96 513.6,-72.52"/>
</g>
<!-- Henry Solomon -->
<g id="node5" class="node">
<title>Henry Solomon</title>
<g id="a_node5"><a xlink:title="&#10;&#10;">
<polygon fill="#36393f" stroke="#cccccc" points="760.8,-60.4 580.8,-60.4 580.8,-17.6 760.8,-17.6 760.8,-60.4"/>
<text text-anchor="start" x="626.27" y="-41.8" font-family="Helvetica, Arial, sans-serif" font-size="14.00" fill="white">Henry Solomon</text>
<text text-anchor="start" x="614.42" y="-26.6" font-family="Helvetica, Arial, sans-serif" font-size="10.00" fill="#aaaaaa">Henry Hardpebble Solomon</text>
</a>
</g>
</g>
<!-- siblings_0_0&#45;&gt;Henry Solomon -->
<g id="edge4" class="edge">
<title>siblings_0_0&#45;&gt;Henry Solomon</title>
<path fill="none" stroke="#ccdf32" d="M548.6,-68.43C548.6,-64.91 548.6,-46.13 548.6,-46.13 548.6,-46.13 570.39,-46.13 570.39,-46.13"/>
<polygon fill="#ccdf32" stroke="#ccdf32" points="578.39,-36.13 578.39,-56.13 574.39,-56.13 574.39,-36.13 578.39,-36.13"/>
<polyline fill="none" stroke="#ccdf32" points="580.39,-46.13 570.39,-46.13"/>
</g>
<!-- Katalina -->
<g id="node6" class="node">
<title>Katalina</title>
<g id="a_node6"><a xlink:title="&#10;&#10;">
<polygon fill="#36393f" stroke="#cccccc" points="760.8,-121.4 580.8,-121.4 580.8,-78.6 760.8,-78.6 760.8,-121.4"/>
<text text-anchor="start" x="647.09" y="-102.8" font-family="Helvetica, Arial, sans-serif" font-size="14.00" fill="white">Katalina</text>
<text text-anchor="start" x="613.86" y="-87.6" font-family="Helvetica, Arial, sans-serif" font-size="10.00" fill="#aaaaaa">Katalina Solomon Siviskaya</text>
</a>
</g>
</g>
<!-- siblings_0_0&#45;&gt;Katalina -->
<g id="edge5" class="edge">
<title>siblings_0_0&#45;&gt;Katalina</title>
<path fill="none" stroke="#ccdf32" d="M549.6,-69.59C549.6,-73.27 549.6,-92.87 549.6,-92.87 549.6,-92.87 570.5,-92.87 570.5,-92.87"/>
<polygon fill="#ccdf32" stroke="#ccdf32" points="578.5,-82.87 578.5,-102.87 574.5,-102.87 574.5,-82.87 578.5,-82.87"/>
<polyline fill="none" stroke="#ccdf32" points="580.5,-92.87 570.5,-92.87"/>
</g>
<!-- union_0_1_0 -->
<g id="node7" class="node">
<title>union_0_1_0</title>
<ellipse fill="#cc7832" stroke="white" cx="1074.8" cy="-583" rx="3.6" ry="3.6"/>
</g>
<!-- Mary -->
<g id="node8" class="node">
<title>Mary</title>
<g id="a_node8"><a xlink:title="&#10;&#10;">
<polygon fill="#36393f" stroke="#cccccc" points="1042.2,-574.4 862.2,-574.4 862.2,-531.6 1042.2,-531.6 1042.2,-574.4"/>
<text text-anchor="start" x="937.04" y="-555.8" font-family="Helvetica, Arial, sans-serif" font-size="14.00" fill="white">Mary</text>
<text text-anchor="start" x="916.8" y="-540.6" font-family="Helvetica, Arial, sans-serif" font-size="10.00" fill="#aaaaaa">Mary Hardpebble</text>
</a>
</g>
</g>
<!-- Mary&#45;&gt;union_0_1_0 -->
<g id="edge6" class="edge">
<title>Mary&#45;&gt;union_0_1_0</title>
<path fill="none" stroke="#cc7832" d="M1042.61,-553.4C1061.9,-553.4 1076.6,-553.4 1076.6,-553.4 1076.6,-553.4 1076.6,-571.47 1076.6,-579.37"/>
</g>
<!-- Obel -->
<g id="node9" class="node">
<title>Obel</title>
<g id="a_node9"><a xlink:title="&#10;&#10;">
<polygon fill="#36393f" stroke="#cccccc" points="1042.2,-635.4 862.2,-635.4 862.2,-592.6 1042.2,-592.6 1042.2,-635.4"/>
<text text-anchor="start" x="938.59" y="-616.8" font-family="Helvetica, Arial, sans-serif" font-size="14.00" fill="white">Obel</text>
<text text-anchor="start" x="930.4" y="-601.6" font-family="Helvetica, Arial, sans-serif" font-size="10.00" fill="#aaaaaa">Obel Trent</text>
</a>
</g>
</g>
<!-- Obel&#45;&gt;union_0_1_0 -->
<g id="edge7" class="edge">
<title>Obel&#45;&gt;union_0_1_0</title>
<path fill="none" stroke="#cc7832" d="M1042.53,-614C1061.35,-614 1075.6,-614 1075.6,-614 1075.6,-614 1075.6,-595.08 1075.6,-586.8"/>
</g>
<!-- union_0_1_1_0 -->
<g id="node10" class="node">
<title>union_0_1_1_0</title>
<ellipse fill="#bbb529" stroke="white" cx="1074.8" cy="-359" rx="3.6" ry="3.6"/>
</g>
<!-- siblings_0_1_1_0 -->
<g id="node13" class="node">
<title>siblings_0_1_1_0</title>
<polygon fill="#bbb529" stroke="#cccccc" stroke-width="0" points="1114.6,-359.72 1107.4,-359.72 1107.4,-358.28 1114.6,-358.28 1114.6,-359.72"/>
</g>
<!-- union_0_1_1_0&#45;&gt;siblings_0_1_1_0 -->
<g id="edge10" class="edge">
<title>union_0_1_1_0&#45;&gt;siblings_0_1_1_0</title>
<path fill="none" stroke="#bbb529" d="M1078.67,-359C1085.82,-359 1100.97,-359 1107.68,-359"/>
</g>
<!-- Hank -->
<g id="node11" class="node">
<title>Hank</title>
<g id="a_node11"><a xlink:title="&#10;&#10;">
<polygon fill="#36393f" stroke="#cccccc" points="1042.2,-380.4 862.2,-380.4 862.2,-337.6 1042.2,-337.6 1042.2,-380.4"/>
<text text-anchor="start" x="937.04" y="-361.8" font-family="Helvetica, Arial, sans-serif" font-size="14.00" fill="white">Hank</text>
<text text-anchor="start" x="902.5" y="-346.6" font-family="Helvetica, Arial, sans-serif" font-size="10.00" fill="#aaaaaa">Hendrick Hardpebble IV</text>
</a>
</g>
</g>
<!-- Hank&#45;&gt;union_0_1_1_0 -->
<g id="edge8" class="edge">
<title>Hank&#45;&gt;union_0_1_1_0</title>
<path fill="none" stroke="#bbb529" d="M1042.59,-359C1055.22,-359 1065.71,-359 1071.03,-359"/>
</g>
<!-- Alice -->
<g id="node12" class="node">
<title>Alice</title>
<g id="a_node12"><a xlink:title="&#10;&#10;">
<polygon fill="#36393f" stroke="#cccccc" points="1042.2,-441.4 862.2,-441.4 862.2,-398.6 1042.2,-398.6 1042.2,-441.4"/>
<text text-anchor="start" x="937.04" y="-422.8" font-family="Helvetica, Arial, sans-serif" font-size="14.00" fill="white">Alice</text>
<text text-anchor="start" x="916.8" y="-407.6" font-family="Helvetica, Arial, sans-serif" font-size="10.00" fill="#aaaaaa">Alice Hardpebble</text>
</a>
</g>
</g>
<!-- Alice&#45;&gt;union_0_1_1_0 -->
<g id="edge9" class="edge">
<title>Alice&#45;&gt;union_0_1_1_0</title>
<path fill="none" stroke="#bbb529" d="M1042.65,-404.5C1060.37,-404.5 1073.6,-404.5 1073.6,-404.5 1073.6,-404.5 1073.6,-373.88 1073.6,-362.88"/>
</g>
<!-- Henry -->
<g id="node14" class="node">
<title>Henry</title>
<polygon fill="#36393f" stroke="#cccccc" points="1323.6,-167 1143.6,-167 1143.6,-131 1323.6,-131 1323.6,-167"/>
<text text-anchor="middle" x="1233.6" y="-144.8" font-family="Helvetica, Arial, sans-serif" font-size="14.00" fill="white">Henry</text>
</g>
<!-- siblings_0_1_1_0&#45;&gt;Henry -->
<g id="edge11" class="edge">
<title>siblings_0_1_1_0&#45;&gt;Henry</title>
<path fill="none" stroke="#bbb529" d="M1114.59,-359C1119.99,-359 1129.6,-359 1129.6,-359 1129.6,-359 1129.6,-149 1129.6,-149 1129.6,-149 1133.2,-149 1133.2,-149"/>
<polygon fill="#bbb529" stroke="#bbb529" points="1141.2,-139 1141.2,-159 1137.2,-159 1137.2,-139 1141.2,-139"/>
<polyline fill="none" stroke="#bbb529" points="1143.2,-149 1133.2,-149"/>
</g>
<!-- Ophelia -->
<g id="node15" class="node">
<title>Ophelia</title>
<g id="a_node15"><a xlink:title="&#10;&#10;">
<polygon fill="#36393f" stroke="#cccccc" points="1323.6,-227.4 1143.6,-227.4 1143.6,-184.6 1323.6,-184.6 1323.6,-227.4"/>
<text text-anchor="start" x="1211.44" y="-208.8" font-family="Helvetica, Arial, sans-serif" font-size="14.00" fill="white">Ophelia</text>
<text text-anchor="start" x="1193.2" y="-193.6" font-family="Helvetica, Arial, sans-serif" font-size="10.00" fill="#aaaaaa">Ophelia Hardpebble</text>
</a>
</g>
</g>
<!-- siblings_0_1_1_0&#45;&gt;Ophelia -->
<g id="edge12" class="edge">
<title>siblings_0_1_1_0&#45;&gt;Ophelia</title>
<path fill="none" stroke="#bbb529" d="M1109.6,-358.32C1109.6,-347.28 1109.6,-206 1109.6,-206 1109.6,-206 1133.16,-206 1133.16,-206"/>
<polygon fill="#bbb529" stroke="#bbb529" points="1141.16,-196 1141.16,-216 1137.16,-216 1137.16,-196 1141.16,-196"/>
<polyline fill="none" stroke="#bbb529" points="1143.16,-206 1133.16,-206"/>
</g>
<!-- Patton -->
<g id="node16" class="node">
<title>Patton</title>
<g id="a_node16"><a xlink:title="&#10;&#10;">
<polygon fill="#36393f" stroke="#cccccc" points="1323.6,-288.4 1143.6,-288.4 1143.6,-245.6 1323.6,-245.6 1323.6,-288.4"/>
<text text-anchor="start" x="1215.71" y="-269.8" font-family="Helvetica, Arial, sans-serif" font-size="14.00" fill="white">Patton</text>
<text text-anchor="start" x="1196.25" y="-254.6" font-family="Helvetica, Arial, sans-serif" font-size="10.00" fill="#aaaaaa">Patton Hardpebble</text>
</a>
</g>
</g>
<!-- siblings_0_1_1_0&#45;&gt;Patton -->
<g id="edge13" class="edge">
<title>siblings_0_1_1_0&#45;&gt;Patton</title>
<path fill="none" stroke="#bbb529" d="M1111.6,-358.41C1111.6,-350.58 1111.6,-267 1111.6,-267 1111.6,-267 1133.34,-267 1133.34,-267"/>
<polygon fill="#bbb529" stroke="#bbb529" points="1141.34,-257 1141.34,-277 1137.34,-277 1137.34,-257 1141.34,-257"/>
<polyline fill="none" stroke="#bbb529" points="1143.34,-267 1133.34,-267"/>
</g>
<!-- Bismuth -->
<g id="node17" class="node">
<title>Bismuth</title>
<g id="a_node17"><a xlink:title="&#10;&#10;">
<polygon fill="#36393f" stroke="#cccccc" points="1323.6,-349.4 1143.6,-349.4 1143.6,-306.6 1323.6,-306.6 1323.6,-349.4"/>
<text text-anchor="start" x="1209.87" y="-330.8" font-family="Helvetica, Arial, sans-serif" font-size="14.00" fill="white">Bismuth</text>
<text text-anchor="start" x="1192.08" y="-315.6" font-family="Helvetica, Arial, sans-serif" font-size="10.00" fill="#aaaaaa">Bismuth Hardpebble</text>
</a>
</g>
</g>
<!-- siblings_0_1_1_0&#45;&gt;Bismuth -->
<g id="edge14" class="edge">
<title>siblings_0_1_1_0&#45;&gt;Bismuth</title>
<path fill="none" stroke="#bbb529" d="M1113.6,-358.33C1113.6,-355.37 1113.6,-343.5 1113.6,-343.5 1113.6,-343.5 1133.26,-343.5 1133.26,-343.5"/>
<polygon fill="#bbb529" stroke="#bbb529" points="1141.26,-333.5 1141.26,-353.5 1137.26,-353.5 1137.26,-333.5 1141.26,-333.5"/>
<polyline fill="none" stroke="#bbb529" points="1143.26,-343.5 1133.26,-343.5"/>
</g>
<!-- Dahlia -->
<g id="node18" class="node">
<title>Dahlia</title>
<g id="a_node18"><a xlink:title="&#10;&#10;">
<polygon fill="#36393f" stroke="#cccccc" points="1323.6,-410.4 1143.6,-410.4 1143.6,-367.6 1323.6,-367.6 1323.6,-410.4"/>
<text text-anchor="start" x="1214.94" y="-391.8" font-family="Helvetica, Arial, sans-serif" font-size="14.00" fill="white">Dahlia</text>
<text text-anchor="start" x="1195.7" y="-376.6" font-family="Helvetica, Arial, sans-serif" font-size="10.00" fill="#aaaaaa">Dahlia Hardpebble</text>
</a>
</g>
</g>
<!-- siblings_0_1_1_0&#45;&gt;Dahlia -->
<g id="edge15" class="edge">
<title>siblings_0_1_1_0&#45;&gt;Dahlia</title>
<path fill="none" stroke="#bbb529" d="M1113.6,-359.64C1113.6,-362.52 1113.6,-374 1113.6,-374 1113.6,-374 1133.26,-374 1133.26,-374"/>
<polygon fill="#bbb529" stroke="#bbb529" points="1141.26,-364 1141.26,-384 1137.26,-384 1137.26,-364 1141.26,-364"/>
<polyline fill="none" stroke="#bbb529" points="1143.26,-374 1133.26,-374"/>
</g>
<!-- Robert -->
<g id="node19" class="node">
<title>Robert</title>
<g id="a_node19"><a xlink:title="&#10;&#10;">
<polygon fill="#36393f" stroke="#cccccc" points="1323.6,-471.4 1143.6,-471.4 1143.6,-428.6 1323.6,-428.6 1323.6,-471.4"/>
<text text-anchor="start" x="1214.55" y="-452.8" font-family="Helvetica, Arial, sans-serif" font-size="14.00" fill="white">Robert</text>
<text text-anchor="start" x="1195.42" y="-437.6" font-family="Helvetica, Arial, sans-serif" font-size="10.00" fill="#aaaaaa">Robert Hardpebble</text>
</a>
</g>
</g>
<!-- siblings_0_1_1_0&#45;&gt;Robert -->
<g id="edge16" class="edge">
<title>siblings_0_1_1_0&#45;&gt;Robert</title>
<path fill="none" stroke="#bbb529" d="M1111.6,-359.49C1111.6,-365.96 1111.6,-435 1111.6,-435 1111.6,-435 1133.34,-435 1133.34,-435"/>
<polygon fill="#bbb529" stroke="#bbb529" points="1141.34,-425 1141.34,-445 1137.34,-445 1137.34,-425 1141.34,-425"/>
<polyline fill="none" stroke="#bbb529" points="1143.34,-435 1133.34,-435"/>
</g>
<!-- Petunia -->
<g id="node20" class="node">
<title>Petunia</title>
<g id="a_node20"><a xlink:title="&#10;&#10;">
<polygon fill="#36393f" stroke="#cccccc" points="1323.6,-532.4 1143.6,-532.4 1143.6,-489.6 1323.6,-489.6 1323.6,-532.4"/>
<text text-anchor="start" x="1212.6" y="-513.8" font-family="Helvetica, Arial, sans-serif" font-size="14.00" fill="white">Petunia</text>
<text text-anchor="start" x="1194.03" y="-498.6" font-family="Helvetica, Arial, sans-serif" font-size="10.00" fill="#aaaaaa">Petunia Hardpebble</text>
</a>
</g>
</g>
<!-- siblings_0_1_1_0&#45;&gt;Petunia -->
<g id="edge17" class="edge">
<title>siblings_0_1_1_0&#45;&gt;Petunia</title>
<path fill="none" stroke="#bbb529" d="M1109.6,-359.64C1109.6,-369.92 1109.6,-501.5 1109.6,-501.5 1109.6,-501.5 1133.16,-501.5 1133.16,-501.5"/>
<polygon fill="#bbb529" stroke="#bbb529" points="1141.16,-491.5 1141.16,-511.5 1137.16,-511.5 1137.16,-491.5 1141.16,-491.5"/>
<polyline fill="none" stroke="#bbb529" points="1143.16,-501.5 1133.16,-501.5"/>
</g>
<!-- union_0_1_1 -->
<g id="node21" class="node">
<title>union_0_1_1</title>
<ellipse fill="#6897bb" stroke="white" cx="793.4" cy="-461" rx="3.6" ry="3.6"/>
</g>
<!-- siblings_0_1_1 -->
<g id="node24" class="node">
<title>siblings_0_1_1</title>
<polygon fill="#6897bb" stroke="#cccccc" stroke-width="0" points="833.2,-461.72 826,-461.72 826,-460.28 833.2,-460.28 833.2,-461.72"/>
</g>
<!-- union_0_1_1&#45;&gt;siblings_0_1_1 -->
<g id="edge20" class="edge">
<title>union_0_1_1&#45;&gt;siblings_0_1_1</title>
<path fill="none" stroke="#6897bb" d="M797.27,-461C804.42,-461 819.57,-461 826.28,-461"/>
</g>
<!-- Hendrik III -->
<g id="node22" class="node">
<title>Hendrik III</title>
<g id="a_node22"><a xlink:title="&#10;&#10;">
<polygon fill="#36393f" stroke="#cccccc" points="760.8,-452.4 580.8,-452.4 580.8,-409.6 760.8,-409.6 760.8,-452.4"/>
<text text-anchor="start" x="639.12" y="-433.8" font-family="Helvetica, Arial, sans-serif" font-size="14.00" fill="white">Hendrik III</text>
<text text-anchor="start" x="623.6" y="-418.6" font-family="Helvetica, Arial, sans-serif" font-size="10.00" fill="#aaaaaa">Hendrik Hardpebble III</text>
</a>
</g>
</g>
<!-- Hendrik III&#45;&gt;union_0_1_1 -->
<g id="edge18" class="edge">
<title>Hendrik III&#45;&gt;union_0_1_1</title>
<path fill="none" stroke="#6897bb" d="M761.01,-446.9C779.58,-446.9 793.6,-446.9 793.6,-446.9 793.6,-446.9 793.6,-452.97 793.6,-457.15"/>
</g>
<!-- Maria -->
<g id="node23" class="node">
<title>Maria</title>
<g id="a_node23"><a xlink:title="&#10;&#10;">
<polygon fill="#36393f" stroke="#cccccc" points="760.8,-513.4 580.8,-513.4 580.8,-470.6 760.8,-470.6 760.8,-513.4"/>
<text text-anchor="start" x="654.09" y="-494.8" font-family="Helvetica, Arial, sans-serif" font-size="14.00" fill="white">Maria</text>
<text text-anchor="start" x="642.89" y="-479.6" font-family="Helvetica, Arial, sans-serif" font-size="10.00" fill="#aaaaaa">Maria Alturas</text>
</a>
</g>
</g>
<!-- Maria&#45;&gt;union_0_1_1 -->
<g id="edge19" class="edge">
<title>Maria&#45;&gt;union_0_1_1</title>
<path fill="none" stroke="#6897bb" d="M761.01,-480.5C779.58,-480.5 793.6,-480.5 793.6,-480.5 793.6,-480.5 793.6,-470.43 793.6,-464.76"/>
</g>
<!-- siblings_0_1_1&#45;&gt;Mary -->
<g id="edge21" class="edge">
<title>siblings_0_1_1&#45;&gt;Mary</title>
<path fill="none" stroke="#6897bb" d="M829.6,-461.59C829.6,-469.42 829.6,-553 829.6,-553 829.6,-553 851.81,-553 851.81,-553"/>
<polygon fill="#6897bb" stroke="#6897bb" points="859.81,-543 859.81,-563 855.81,-563 855.81,-543 859.81,-543"/>
<polyline fill="none" stroke="#6897bb" points="861.81,-553 851.81,-553"/>
</g>
<!-- siblings_0_1_1&#45;&gt;Hank -->
<g id="edge22" class="edge">
<title>siblings_0_1_1&#45;&gt;Hank</title>
<path fill="none" stroke="#6897bb" d="M829.6,-460.35C829.6,-451.66 829.6,-359 829.6,-359 829.6,-359 851.81,-359 851.81,-359"/>
<polygon fill="#6897bb" stroke="#6897bb" points="859.81,-349 859.81,-369 855.81,-369 855.81,-349 859.81,-349"/>
<polyline fill="none" stroke="#6897bb" points="861.81,-359 851.81,-359"/>
</g>
<!-- union_0_1 -->
<g id="node25" class="node">
<title>union_0_1</title>
<ellipse fill="#629755" stroke="white" cx="512" cy="-553" rx="3.6" ry="3.6"/>
</g>
<!-- siblings_0_1 -->
<g id="node28" class="node">
<title>siblings_0_1</title>
<polygon fill="#629755" stroke="#cccccc" stroke-width="0" points="551.8,-553.72 544.6,-553.72 544.6,-552.28 551.8,-552.28 551.8,-553.72"/>
</g>
<!-- union_0_1&#45;&gt;siblings_0_1 -->
<g id="edge25" class="edge">
<title>union_0_1&#45;&gt;siblings_0_1</title>
<path fill="none" stroke="#629755" d="M515.87,-553C523.02,-553 538.17,-553 544.88,-553"/>
</g>
<!-- Hendrik II -->
<g id="node26" class="node">
<title>Hendrik II</title>
<g id="a_node26"><a xlink:title="&#10;&#10;">
<polygon fill="#36393f" stroke="#cccccc" points="479.4,-534.4 299.4,-534.4 299.4,-491.6 479.4,-491.6 479.4,-534.4"/>
<text text-anchor="start" x="360.05" y="-515.8" font-family="Helvetica, Arial, sans-serif" font-size="14.00" fill="white">Hendrik II</text>
<text text-anchor="start" x="343.86" y="-500.6" font-family="Helvetica, Arial, sans-serif" font-size="10.00" fill="#aaaaaa">Hendrik Hardpebble II</text>
</a>
</g>
</g>
<!-- Hendrik II&#45;&gt;union_0_1 -->
<g id="edge23" class="edge">
<title>Hendrik II&#45;&gt;union_0_1</title>
<path fill="none" stroke="#629755" d="M479.81,-522.5C497.97,-522.5 511.6,-522.5 511.6,-522.5 511.6,-522.5 511.6,-540.75 511.6,-549.01"/>
</g>
<!-- Katya -->
<g id="node27" class="node">
<title>Katya</title>
<g id="a_node27"><a xlink:title="&#10;&#10;">
<polygon fill="#36393f" stroke="#cccccc" points="479.4,-595.4 299.4,-595.4 299.4,-552.6 479.4,-552.6 479.4,-595.4"/>
<text text-anchor="start" x="372.69" y="-576.8" font-family="Helvetica, Arial, sans-serif" font-size="14.00" fill="white">Katya</text>
<text text-anchor="start" x="362.05" y="-561.6" font-family="Helvetica, Arial, sans-serif" font-size="10.00" fill="#aaaaaa">Katya Anduri</text>
</a>
</g>
</g>
<!-- Katya&#45;&gt;union_0_1 -->
<g id="edge24" class="edge">
<title>Katya&#45;&gt;union_0_1</title>
<path fill="none" stroke="#629755" d="M479.58,-565.5C498.37,-565.5 512.6,-565.5 512.6,-565.5 512.6,-565.5 512.6,-560.62 512.6,-556.96"/>
</g>
<!-- siblings_0_1&#45;&gt;Hendrik III -->
<g id="edge26" class="edge">
<title>siblings_0_1&#45;&gt;Hendrik III</title>
<path fill="none" stroke="#629755" d="M547.6,-552.65C547.6,-545.49 547.6,-431 547.6,-431 547.6,-431 570.62,-431 570.62,-431"/>
<polygon fill="#629755" stroke="#629755" points="578.62,-421 578.62,-441 574.62,-441 574.62,-421 578.62,-421"/>
<polyline fill="none" stroke="#629755" points="580.62,-431 570.62,-431"/>
</g>
<!-- Lobellia -->
<g id="node29" class="node">
<title>Lobellia</title>
<g id="a_node29"><a xlink:title="&#10;&#10;">
<polygon fill="#36393f" stroke="#cccccc" points="760.8,-574.4 580.8,-574.4 580.8,-531.6 760.8,-531.6 760.8,-574.4"/>
<text text-anchor="start" x="647.48" y="-555.8" font-family="Helvetica, Arial, sans-serif" font-size="14.00" fill="white">Lobellia</text>
<text text-anchor="start" x="629.57" y="-540.6" font-family="Helvetica, Arial, sans-serif" font-size="10.00" fill="#aaaaaa">Lobellia Hardpebble</text>
</a>
</g>
</g>
<!-- siblings_0_1&#45;&gt;Lobellia -->
<g id="edge27" class="edge">
<title>siblings_0_1&#45;&gt;Lobellia</title>
<path fill="none" stroke="#629755" d="M551.74,-553C551.74,-553 570.54,-553 570.54,-553"/>
<polygon fill="#629755" stroke="#629755" points="578.54,-543 578.54,-563 574.54,-563 574.54,-543 578.54,-543"/>
<polyline fill="none" stroke="#629755" points="580.54,-553 570.54,-553"/>
</g>
<!-- Louisa -->
<g id="node30" class="node">
<title>Louisa</title>
<g id="a_node30"><a xlink:title="&#10;&#10;">
<polygon fill="#36393f" stroke="#cccccc" points="760.8,-635.4 580.8,-635.4 580.8,-592.6 760.8,-592.6 760.8,-635.4"/>
<text text-anchor="start" x="651.75" y="-616.8" font-family="Helvetica, Arial, sans-serif" font-size="14.00" fill="white">Louisa</text>
<text text-anchor="start" x="632.62" y="-601.6" font-family="Helvetica, Arial, sans-serif" font-size="10.00" fill="#aaaaaa">Louisa Hardpebble</text>
</a>
</g>
</g>
<!-- siblings_0_1&#45;&gt;Louisa -->
<g id="edge28" class="edge">
<title>siblings_0_1&#45;&gt;Louisa</title>
<path fill="none" stroke="#629755" d="M548.6,-553.7C548.6,-560.51 548.6,-615 548.6,-615 548.6,-615 570.39,-615 570.39,-615"/>
<polygon fill="#629755" stroke="#629755" points="578.39,-605 578.39,-625 574.39,-625 574.39,-605 578.39,-605"/>
<polyline fill="none" stroke="#629755" points="580.39,-615 570.39,-615"/>
</g>
<!-- union_0 -->
<g id="node31" class="node">
<title>union_0</title>
<ellipse fill="#d25252" stroke="white" cx="230.6" cy="-513" rx="3.6" ry="3.6"/>
</g>
<!-- siblings_0 -->
<g id="node34" class="node">
<title>siblings_0</title>
<polygon fill="#d25252" stroke="#cccccc" stroke-width="0" points="270.4,-513.72 263.2,-513.72 263.2,-512.28 270.4,-512.28 270.4,-513.72"/>
</g>
<!-- union_0&#45;&gt;siblings_0 -->
<g id="edge31" class="edge">
<title>union_0&#45;&gt;siblings_0</title>
<path fill="none" stroke="#d25252" d="M234.47,-513C241.62,-513 256.77,-513 263.48,-513"/>
</g>
<!-- Hendrik I -->
<g id="node32" class="node">
<title>Hendrik I</title>
<g id="a_node32"><a xlink:title="&#10;&#10;">
<polygon fill="#36393f" stroke="#cccccc" points="198,-504.4 18,-504.4 18,-461.6 198,-461.6 198,-504.4"/>
<text text-anchor="start" x="80.98" y="-485.8" font-family="Helvetica, Arial, sans-serif" font-size="14.00" fill="white">Hendrik I</text>
<text text-anchor="start" x="64.13" y="-470.6" font-family="Helvetica, Arial, sans-serif" font-size="10.00" fill="#aaaaaa">Hendrik Hardpebble I</text>
</a>
</g>
</g>
<!-- Hendrik I&#45;&gt;union_0 -->
<g id="edge29" class="edge">
<title>Hendrik I&#45;&gt;union_0</title>
<path fill="none" stroke="#d25252" d="M198.39,-498C216.76,-498 230.6,-498 230.6,-498 230.6,-498 230.6,-504.46 230.6,-508.9"/>
</g>
<!-- Antonia -->
<g id="node33" class="node">
<title>Antonia</title>
<g id="a_node33"><a xlink:title="&#10;&#10;">
<polygon fill="#36393f" stroke="#cccccc" points="198,-565.4 18,-565.4 18,-522.6 198,-522.6 198,-565.4"/>
<text text-anchor="start" x="85.45" y="-546.8" font-family="Helvetica, Arial, sans-serif" font-size="14.00" fill="white">Antonia</text>
<text text-anchor="start" x="72.31" y="-531.6" font-family="Helvetica, Arial, sans-serif" font-size="10.00" fill="#aaaaaa">Antonia Partridge</text>
</a>
</g>
</g>
<!-- Antonia&#45;&gt;union_0 -->
<g id="edge30" class="edge">
<title>Antonia&#45;&gt;union_0</title>
<path fill="none" stroke="#d25252" d="M198.39,-528.5C216.76,-528.5 230.6,-528.5 230.6,-528.5 230.6,-528.5 230.6,-521.5 230.6,-516.91"/>
</g>
<!-- siblings_0&#45;&gt;Antonina -->
<g id="edge32" class="edge">
<title>siblings_0&#45;&gt;Antonina</title>
<path fill="none" stroke="#d25252" d="M267.6,-512.66C267.6,-498.3 267.6,-39 267.6,-39 267.6,-39 288.97,-39 288.97,-39"/>
<polygon fill="#d25252" stroke="#d25252" points="296.97,-29 296.97,-49 292.97,-49 292.97,-29 296.97,-29"/>
<polyline fill="none" stroke="#d25252" points="298.97,-39 288.97,-39"/>
</g>
<!-- siblings_0&#45;&gt;Hendrik II -->
<g id="edge33" class="edge">
<title>siblings_0&#45;&gt;Hendrik II</title>
<path fill="none" stroke="#d25252" d="M270.34,-513C270.34,-513 289.14,-513 289.14,-513"/>
<polygon fill="#d25252" stroke="#d25252" points="297.14,-503 297.14,-523 293.14,-523 293.14,-503 297.14,-503"/>
<polyline fill="none" stroke="#d25252" points="299.14,-513 289.14,-513"/>
</g>
<!-- Henrietta -->
<g id="node35" class="node">
<title>Henrietta</title>
<g id="a_node35"><a xlink:title="&#10;&#10;">
<polygon fill="#36393f" stroke="#cccccc" points="479.4,-677.4 299.4,-677.4 299.4,-634.6 479.4,-634.6 479.4,-677.4"/>
<text text-anchor="start" x="363.36" y="-658.8" font-family="Helvetica, Arial, sans-serif" font-size="14.00" fill="white">Henrietta</text>
<text text-anchor="start" x="326.65" y="-643.6" font-family="Helvetica, Arial, sans-serif" font-size="10.00" fill="#aaaaaa">Henrietta Partridge Hardpebble</text>
</a>
</g>
</g>
<!-- siblings_0&#45;&gt;Henrietta -->
<g id="edge34" class="edge">
<title>siblings_0&#45;&gt;Henrietta</title>
<path fill="none" stroke="#d25252" d="M267.6,-513.64C267.6,-523.95 267.6,-656 267.6,-656 267.6,-656 288.97,-656 288.97,-656"/>
<polygon fill="#d25252" stroke="#d25252" points="296.97,-646 296.97,-666 292.97,-666 292.97,-646 296.97,-646"/>
<polyline fill="none" stroke="#d25252" points="298.97,-656 288.97,-656"/>
</g>
<!-- John -->
<g id="node36" class="node">
<title>John</title>
<g id="a_node36"><a xlink:title="&#10;&#10;">
<polygon fill="#36393f" stroke="#cccccc" points="198,-767.4 18,-767.4 18,-724.6 198,-724.6 198,-767.4"/>
<text text-anchor="start" x="94.78" y="-748.8" font-family="Helvetica, Arial, sans-serif" font-size="14.00" fill="white">John</text>
<text text-anchor="start" x="59.96" y="-733.6" font-family="Helvetica, Arial, sans-serif" font-size="10.00" fill="#aaaaaa">Hendrick Hardpebble V</text>
</a>
</g>
</g>
<!-- Kid -->
<g id="node37" class="node">
<title>Kid</title>
<g id="a_node37"><a xlink:title="&#10;&#10;">
<polygon fill="#36393f" stroke="#cccccc" points="198,-828.4 18,-828.4 18,-785.6 198,-785.6 198,-828.4"/>
<text text-anchor="start" x="97.5" y="-809.8" font-family="Helvetica, Arial, sans-serif" font-size="14.00" fill="white">Kid</text>
<text text-anchor="start" x="53.38" y="-794.6" font-family="Helvetica, Arial, sans-serif" font-size="10.00" fill="#aaaaaa">Carmine &quot;Kid&quot; Hardpebble</text>
</a>
</g>
</g>
<!-- Mundus -->
<g id="node38" class="node">
<title>Mundus</title>
<g id="a_node38"><a xlink:title="&#10;&#10;">
<polygon fill="#36393f" stroke="#cccccc" points="198,-889.4 18,-889.4 18,-846.6 198,-846.6 198,-889.4"/>
<text text-anchor="start" x="85.05" y="-870.8" font-family="Helvetica, Arial, sans-serif" font-size="14.00" fill="white">Mundus</text>
<text text-anchor="start" x="74.25" y="-855.6" font-family="Helvetica, Arial, sans-serif" font-size="10.00" fill="#aaaaaa">Mundus Sicarius</text>
</a>
</g>
</g>
</g>
</svg>
