<?xml version="1.0" encoding="UTF-8" standalone="no"?>
<!DOCTYPE svg PUBLIC "-//W3C//DTD SVG 1.1//EN"
 "http://www.w3.org/Graphics/SVG/1.1/DTD/svg11.dtd">
<!-- Generated by graphviz version 10.0.1 (20240210.2158)
 -->
<!-- Title: G Pages: 1 -->
<svg width="787pt" height="297pt"
 viewBox="0.00 0.00 786.80 297.00" xmlns="http://www.w3.org/2000/svg" xmlns:xlink="http://www.w3.org/1999/xlink">
<g id="graph0" class="graph" transform="scale(1 1) rotate(0) translate(4 293)">
<title>G</title>
<polygon fill="#23272a" stroke="none" points="-4,4 -4,-293 782.8,-293 782.8,4 -4,4"/>
<g id="clust1" class="cluster">
<title>cluster_family_0</title>
<polygon fill="#2c2f33" stroke="#2c2f33" points="8,-8 8,-281 770.8,-281 770.8,-8 8,-8"/>
<text text-anchor="start" x="16" y="-263.6" font-family="Helvetica, Arial, sans-serif" font-weight="bold" font-size="16.00" fill="white">Caxton</text>
</g>
<g id="clust2" class="cluster">
<title>cluster_family_0_0</title>
</g>
<!-- union_0_0 -->
<g id="node1" class="node">
<title>union_0_0</title>
<ellipse fill="#ccdf32" stroke="white" cx="512" cy="-130" rx="3.6" ry="3.6"/>
</g>
<!-- siblings_0_0 -->
<g id="node4" class="node">
<title>siblings_0_0</title>
<polygon fill="#ccdf32" stroke="#cccccc" stroke-width="0" points="551.8,-130.72 544.6,-130.72 544.6,-129.28 551.8,-129.28 551.8,-130.72"/>
</g>
<!-- union_0_0&#45;&gt;siblings_0_0 -->
<g id="edge3" class="edge">
<title>union_0_0&#45;&gt;siblings_0_0</title>
<path fill="none" stroke="#ccdf32" d="M515.87,-130C523.02,-130 538.17,-130 544.88,-130"/>
</g>
<!-- Preston -->
<g id="node2" class="node">
<title>Preston</title>
<g id="a_node2"><a xlink:title="&#10;&#10;">
<polygon fill="#36393f" stroke="#cccccc" points="479.4,-120.4 299.4,-120.4 299.4,-77.6 479.4,-77.6 479.4,-120.4"/>
<text text-anchor="start" x="368.4" y="-101.8" font-family="Helvetica, Arial, sans-serif" font-size="14.00" fill="white">Preston</text>
<text text-anchor="start" x="358.71" y="-86.6" font-family="Helvetica, Arial, sans-serif" font-size="10.00" fill="#aaaaaa">Preston Caxton</text>
</a>
</g>
</g>
<!-- Preston&#45;&gt;union_0_0 -->
<g id="edge1" class="edge">
<title>Preston&#45;&gt;union_0_0</title>
<path fill="none" stroke="#ccdf32" d="M479.73,-92.53C498.55,-92.53 512.8,-92.53 512.8,-92.53 512.8,-92.53 512.8,-116.33 512.8,-125.99"/>
</g>
<!-- Belinda -->
<g id="node3" class="node">
<title>Belinda</title>
<g id="a_node3"><a xlink:title="&#10;&#10;">
<polygon fill="#36393f" stroke="#cccccc" points="479.4,-181.4 299.4,-181.4 299.4,-138.6 479.4,-138.6 479.4,-181.4"/>
<text text-anchor="start" x="367.63" y="-162.8" font-family="Helvetica, Arial, sans-serif" font-size="14.00" fill="white">Belinda</text>
<text text-anchor="start" x="359.82" y="-147.6" font-family="Helvetica, Arial, sans-serif" font-size="10.00" fill="#aaaaaa">Belinda Bright</text>
</a>
</g>
</g>
<!-- Belinda&#45;&gt;union_0_0 -->
<g id="edge2" class="edge">
<title>Belinda&#45;&gt;union_0_0</title>
<path fill="none" stroke="#ccdf32" d="M479.73,-167.47C498.55,-167.47 512.8,-167.47 512.8,-167.47 512.8,-167.47 512.8,-143.67 512.8,-134.01"/>
</g>
<!-- Dalton -->
<g id="node5" class="node">
<title>Dalton</title>
<g id="a_node5"><a xlink:title="&#10;&#10;">
<polygon fill="#36393f" stroke="#cccccc" points="760.8,-60.4 580.8,-60.4 580.8,-17.6 760.8,-17.6 760.8,-60.4"/>
<text text-anchor="start" x="651.75" y="-41.8" font-family="Helvetica, Arial, sans-serif" font-size="14.00" fill="white">Dalton</text>
<text text-anchor="start" x="641.5" y="-26.6" font-family="Helvetica, Arial, sans-serif" font-size="10.00" fill="#aaaaaa">Dalton Caxton</text>
</a>
</g>
</g>
<!-- siblings_0_0&#45;&gt;Dalton -->
<g id="edge4" class="edge">
<title>siblings_0_0&#45;&gt;Dalton</title>
<path fill="none" stroke="#ccdf32" d="M547.8,-129.51C547.8,-123.04 547.8,-54 547.8,-54 547.8,-54 570.44,-54 570.44,-54"/>
<polygon fill="#ccdf32" stroke="#ccdf32" points="578.44,-44 578.44,-64 574.44,-64 574.44,-44 578.44,-44"/>
<polyline fill="none" stroke="#ccdf32" points="580.44,-54 570.44,-54"/>
</g>
<!-- Mason -->
<g id="node6" class="node">
<title>Mason</title>
<g id="a_node6"><a xlink:title="&#10;&#10;">
<polygon fill="#36393f" stroke="#cccccc" points="760.8,-121.4 580.8,-121.4 580.8,-78.6 760.8,-78.6 760.8,-121.4"/>
<text text-anchor="start" x="651.74" y="-102.8" font-family="Helvetica, Arial, sans-serif" font-size="14.00" fill="white">Mason</text>
<text text-anchor="start" x="641.5" y="-87.6" font-family="Helvetica, Arial, sans-serif" font-size="10.00" fill="#aaaaaa">Mason Caxton</text>
</a>
</g>
</g>
<!-- siblings_0_0&#45;&gt;Mason -->
<g id="edge5" class="edge">
<title>siblings_0_0&#45;&gt;Mason</title>
<path fill="none" stroke="#ccdf32" d="M549.8,-129.42C549.8,-125.79 549.8,-106.47 549.8,-106.47 549.8,-106.47 570.33,-106.47 570.33,-106.47"/>
<polygon fill="#ccdf32" stroke="#ccdf32" points="578.33,-96.47 578.33,-116.47 574.33,-116.47 574.33,-96.47 578.33,-96.47"/>
<polyline fill="none" stroke="#ccdf32" points="580.33,-106.47 570.33,-106.47"/>
</g>
<!-- Johan -->
<g id="node7" class="node">
<title>Johan</title>
<g id="a_node7"><a xlink:title="&#10;&#10;">
<polygon fill="#36393f" stroke="#cccccc" points="760.8,-182.4 580.8,-182.4 580.8,-139.6 760.8,-139.6 760.8,-182.4"/>
<text text-anchor="start" x="654.47" y="-163.8" font-family="Helvetica, Arial, sans-serif" font-size="14.00" fill="white">Johan</text>
<text text-anchor="start" x="643.44" y="-148.6" font-family="Helvetica, Arial, sans-serif" font-size="10.00" fill="#aaaaaa">Johan Caxton</text>
</a>
</g>
</g>
<!-- siblings_0_0&#45;&gt;Johan -->
<g id="edge6" class="edge">
<title>siblings_0_0&#45;&gt;Johan</title>
<path fill="none" stroke="#ccdf32" d="M549.8,-130.58C549.8,-134.21 549.8,-153.53 549.8,-153.53 549.8,-153.53 570.33,-153.53 570.33,-153.53"/>
<polygon fill="#ccdf32" stroke="#ccdf32" points="578.33,-143.53 578.33,-163.53 574.33,-163.53 574.33,-143.53 578.33,-143.53"/>
<polyline fill="none" stroke="#ccdf32" points="580.33,-153.53 570.33,-153.53"/>
</g>
<!-- Ginny -->
<g id="node8" class="node">
<title>Ginny</title>
<g id="a_node8"><a xlink:title="&#10;&#10;">
<polygon fill="#36393f" stroke="#cccccc" points="760.8,-243.4 580.8,-243.4 580.8,-200.6 760.8,-200.6 760.8,-243.4"/>
<text text-anchor="start" x="653.3" y="-224.8" font-family="Helvetica, Arial, sans-serif" font-size="14.00" fill="white">Ginny</text>
<text text-anchor="start" x="627.06" y="-209.6" font-family="Helvetica, Arial, sans-serif" font-size="10.00" fill="#aaaaaa">Bougainvillea Caxton</text>
</a>
</g>
</g>
<!-- siblings_0_0&#45;&gt;Ginny -->
<g id="edge7" class="edge">
<title>siblings_0_0&#45;&gt;Ginny</title>
<path fill="none" stroke="#ccdf32" d="M547.8,-130.59C547.8,-138.42 547.8,-222 547.8,-222 547.8,-222 570.44,-222 570.44,-222"/>
<polygon fill="#ccdf32" stroke="#ccdf32" points="578.44,-212 578.44,-232 574.44,-232 574.44,-212 578.44,-212"/>
<polyline fill="none" stroke="#ccdf32" points="580.44,-222 570.44,-222"/>
</g>
<!-- union_0 -->
<g id="node9" class="node">
<title>union_0</title>
<ellipse fill="#d25252" stroke="white" cx="230.6" cy="-99" rx="3.6" ry="3.6"/>
</g>
<!-- siblings_0 -->
<g id="node12" class="node">
<title>siblings_0</title>
<polygon fill="#d25252" stroke="#cccccc" stroke-width="0" points="270.4,-99.72 263.2,-99.72 263.2,-98.28 270.4,-98.28 270.4,-99.72"/>
</g>
<!-- union_0&#45;&gt;siblings_0 -->
<g id="edge10" class="edge">
<title>union_0&#45;&gt;siblings_0</title>
<path fill="none" stroke="#d25252" d="M234.47,-99C241.62,-99 256.77,-99 263.48,-99"/>
</g>
<!-- Milton -->
<g id="node10" class="node">
<title>Milton</title>
<g id="a_node10"><a xlink:title="&#10;&#10;">
<polygon fill="#36393f" stroke="#cccccc" points="198,-90.4 18,-90.4 18,-47.6 198,-47.6 198,-90.4"/>
<text text-anchor="start" x="88.94" y="-71.8" font-family="Helvetica, Arial, sans-serif" font-size="14.00" fill="white">Milton</text>
<text text-anchor="start" x="78.69" y="-56.6" font-family="Helvetica, Arial, sans-serif" font-size="10.00" fill="#aaaaaa">Milton Caxton</text>
</a>
</g>
</g>
<!-- Milton&#45;&gt;union_0 -->
<g id="edge8" class="edge">
<title>Milton&#45;&gt;union_0</title>
<path fill="none" stroke="#d25252" d="M198.21,-84C216.78,-84 230.8,-84 230.8,-84 230.8,-84 230.8,-90.77 230.8,-95.21"/>
</g>
<!-- Maya -->
<g id="node11" class="node">
<title>Maya</title>
<g id="a_node11"><a xlink:title="&#10;&#10;">
<polygon fill="#36393f" stroke="#cccccc" points="198,-151.4 18,-151.4 18,-108.6 198,-108.6 198,-151.4"/>
<text text-anchor="start" x="92.06" y="-132.8" font-family="Helvetica, Arial, sans-serif" font-size="14.00" fill="white">Maya</text>
<text text-anchor="start" x="77.87" y="-117.6" font-family="Helvetica, Arial, sans-serif" font-size="10.00" fill="#aaaaaa">Maya Albrecht</text>
</a>
</g>
</g>
<!-- Maya&#45;&gt;union_0 -->
<g id="edge9" class="edge">
<title>Maya&#45;&gt;union_0</title>
<path fill="none" stroke="#d25252" d="M198.21,-114.5C216.78,-114.5 230.8,-114.5 230.8,-114.5 230.8,-114.5 230.8,-107.5 230.8,-102.91"/>
</g>
<!-- siblings_0&#45;&gt;Preston -->
<g id="edge11" class="edge">
<title>siblings_0&#45;&gt;Preston</title>
<path fill="none" stroke="#d25252" d="M270.34,-99C270.34,-99 289.14,-99 289.14,-99"/>
<polygon fill="#d25252" stroke="#d25252" points="297.14,-89 297.14,-109 293.14,-109 293.14,-89 297.14,-89"/>
<polyline fill="none" stroke="#d25252" points="299.14,-99 289.14,-99"/>
</g>
</g>
</svg>
