<?xml version="1.0" encoding="UTF-8" standalone="no"?>
<!DOCTYPE svg PUBLIC "-//W3C//DTD SVG 1.1//EN"
 "http://www.w3.org/Graphics/SVG/1.1/DTD/svg11.dtd">
<!-- Generated by graphviz version 10.0.1 (20240210.2158)
 -->
<!-- Title: G Pages: 1 -->
<svg width="2194pt" height="580pt"
 viewBox="0.00 0.00 2193.80 580.00" xmlns="http://www.w3.org/2000/svg" xmlns:xlink="http://www.w3.org/1999/xlink">
<g id="graph0" class="graph" transform="scale(1 1) rotate(0) translate(4 576)">
<title>G</title>
<polygon fill="#23272a" stroke="none" points="-4,4 -4,-576 2189.8,-576 2189.8,4 -4,4"/>
<g id="clust1" class="cluster">
<title>cluster_family_0</title>
<polygon fill="#2c2f33" stroke="#2c2f33" points="8,-8 8,-564 2177.8,-564 2177.8,-8 8,-8"/>
<text text-anchor="start" x="16" y="-546.6" font-family="Helvetica, Arial, sans-serif" font-weight="bold" font-size="16.00" fill="white">Strandiz</text>
</g>
<g id="clust2" class="cluster">
<title>cluster_family_0_0</title>
</g>
<g id="clust3" class="cluster">
<title>cluster_family_0_0_0</title>
</g>
<g id="clust4" class="cluster">
<title>cluster_family_0_0_0_0</title>
</g>
<g id="clust5" class="cluster">
<title>cluster_family_0_0_0_0_0</title>
</g>
<g id="clust6" class="cluster">
<title>cluster_family_0_0_0_0_0_0</title>
</g>
<g id="clust7" class="cluster">
<title>cluster_family_0_0_0_0_0_0_0</title>
</g>
<!-- union_0_0_0_0_0_0_0 -->
<g id="node1" class="node">
<title>union_0_0_0_0_0_0_0</title>
<ellipse fill="#9876aa" stroke="white" cx="1919" cy="-83" rx="3.6" ry="3.6"/>
</g>
<!-- siblings_0_0_0_0_0_0_0 -->
<g id="node4" class="node">
<title>siblings_0_0_0_0_0_0_0</title>
<polygon fill="#9876aa" stroke="#cccccc" stroke-width="0" points="1958.8,-83.72 1951.6,-83.72 1951.6,-82.28 1958.8,-82.28 1958.8,-83.72"/>
</g>
<!-- union_0_0_0_0_0_0_0&#45;&gt;siblings_0_0_0_0_0_0_0 -->
<g id="edge3" class="edge">
<title>union_0_0_0_0_0_0_0&#45;&gt;siblings_0_0_0_0_0_0_0</title>
<path fill="none" stroke="#9876aa" d="M1922.87,-83C1930.02,-83 1945.17,-83 1951.88,-83"/>
</g>
<!-- Bart IV -->
<g id="node2" class="node">
<title>Bart IV</title>
<g id="a_node2"><a xlink:title="Born 04/27/1192 &#10;&#10;">
<polygon fill="#36393f" stroke="#cccccc" points="1886.4,-74.4 1706.4,-74.4 1706.4,-17.6 1886.4,-17.6 1886.4,-74.4"/>
<text text-anchor="start" x="1775.21" y="-55.8" font-family="Helvetica, Arial, sans-serif" font-size="14.00" fill="white">Bart IV</text>
<text text-anchor="start" x="1744.74" y="-40.6" font-family="Helvetica, Arial, sans-serif" font-size="10.00" fill="#aaaaaa">Bartholomew Strandiz IV</text>
<text text-anchor="start" x="1783.9" y="-26.6" font-family="Helvetica, Arial, sans-serif" font-size="10.00" fill="#aaaaaa">*1192</text>
</a>
</g>
</g>
<!-- Bart IV&#45;&gt;union_0_0_0_0_0_0_0 -->
<g id="edge1" class="edge">
<title>Bart IV&#45;&gt;union_0_0_0_0_0_0_0</title>
<path fill="none" stroke="#9876aa" d="M1886.73,-64.5C1905.55,-64.5 1919.8,-64.5 1919.8,-64.5 1919.8,-64.5 1919.8,-73.65 1919.8,-79.08"/>
</g>
<!-- Emma -->
<g id="node3" class="node">
<title>Emma</title>
<g id="a_node3"><a xlink:title="Born 11/01/1190 &#160;&#45;&#45; died 04/27/1255&#10;&#10;">
<polygon fill="#36393f" stroke="#cccccc" points="1886.4,-149.4 1706.4,-149.4 1706.4,-92.6 1886.4,-92.6 1886.4,-149.4"/>
<text text-anchor="start" x="1778.13" y="-130.8" font-family="Helvetica, Arial, sans-serif" font-size="14.00" fill="white">Emma</text>
<text text-anchor="start" x="1752.66" y="-115.6" font-family="Helvetica, Arial, sans-serif" font-size="10.00" fill="#aaaaaa">Emmeline Chardonne</text>
<text text-anchor="start" x="1763.9" y="-101.6" font-family="Helvetica, Arial, sans-serif" font-size="10.00" fill="#aaaaaa">*1190 — †1255</text>
</a>
</g>
</g>
<!-- Emma&#45;&gt;union_0_0_0_0_0_0_0 -->
<g id="edge2" class="edge">
<title>Emma&#45;&gt;union_0_0_0_0_0_0_0</title>
<path fill="none" stroke="#9876aa" d="M1886.73,-102C1905.55,-102 1919.8,-102 1919.8,-102 1919.8,-102 1919.8,-92.18 1919.8,-86.66"/>
</g>
<!-- Matt IV -->
<g id="node5" class="node">
<title>Matt IV</title>
<g id="a_node5"><a xlink:title="Born 11/26/1230 &#10;&#10;">
<polygon fill="#36393f" stroke="#cccccc" points="2167.8,-111.4 1987.8,-111.4 1987.8,-54.6 2167.8,-54.6 2167.8,-111.4"/>
<text text-anchor="start" x="2055.44" y="-92.8" font-family="Helvetica, Arial, sans-serif" font-size="14.00" fill="white">Matt IV</text>
<text text-anchor="start" x="2035.59" y="-77.6" font-family="Helvetica, Arial, sans-serif" font-size="10.00" fill="#aaaaaa">Matthew Strandiz IV</text>
<text text-anchor="start" x="2065.3" y="-63.6" font-family="Helvetica, Arial, sans-serif" font-size="10.00" fill="#aaaaaa">*1230</text>
</a>
</g>
</g>
<!-- siblings_0_0_0_0_0_0_0&#45;&gt;Matt IV -->
<g id="edge4" class="edge">
<title>siblings_0_0_0_0_0_0_0&#45;&gt;Matt IV</title>
<path fill="none" stroke="#9876aa" d="M1958.74,-83C1958.74,-83 1977.54,-83 1977.54,-83"/>
<polygon fill="#9876aa" stroke="#9876aa" points="1985.54,-73 1985.54,-93 1981.54,-93 1981.54,-73 1985.54,-73"/>
<polyline fill="none" stroke="#9876aa" points="1987.54,-83 1977.54,-83"/>
</g>
<!-- union_0_0_0_0_0_0 -->
<g id="node6" class="node">
<title>union_0_0_0_0_0_0</title>
<ellipse fill="#bbb529" stroke="white" cx="1637.6" cy="-46" rx="3.6" ry="3.6"/>
</g>
<!-- siblings_0_0_0_0_0_0 -->
<g id="node9" class="node">
<title>siblings_0_0_0_0_0_0</title>
<polygon fill="#bbb529" stroke="#cccccc" stroke-width="0" points="1677.4,-46.72 1670.2,-46.72 1670.2,-45.28 1677.4,-45.28 1677.4,-46.72"/>
</g>
<!-- union_0_0_0_0_0_0&#45;&gt;siblings_0_0_0_0_0_0 -->
<g id="edge7" class="edge">
<title>union_0_0_0_0_0_0&#45;&gt;siblings_0_0_0_0_0_0</title>
<path fill="none" stroke="#bbb529" d="M1641.47,-46C1648.62,-46 1663.77,-46 1670.48,-46"/>
</g>
<!-- Matt III -->
<g id="node7" class="node">
<title>Matt III</title>
<g id="a_node7"><a xlink:title="Born 05/17/1134 &#160;&#45;&#45; died 02/01/1225&#10;&#10;">
<polygon fill="#36393f" stroke="#cccccc" points="1605,-74.4 1425,-74.4 1425,-17.6 1605,-17.6 1605,-74.4"/>
<text text-anchor="start" x="1493.04" y="-55.8" font-family="Helvetica, Arial, sans-serif" font-size="14.00" fill="white">Matt III</text>
<text text-anchor="start" x="1473.07" y="-40.6" font-family="Helvetica, Arial, sans-serif" font-size="10.00" fill="#aaaaaa">Matthew Strandiz III</text>
<text text-anchor="start" x="1482.5" y="-26.6" font-family="Helvetica, Arial, sans-serif" font-size="10.00" fill="#aaaaaa">*1134 — †1225</text>
</a>
</g>
</g>
<!-- Matt III&#45;&gt;union_0_0_0_0_0_0 -->
<g id="edge5" class="edge">
<title>Matt III&#45;&gt;union_0_0_0_0_0_0</title>
<path fill="none" stroke="#bbb529" d="M1605.39,-46C1618.02,-46 1628.51,-46 1633.83,-46"/>
</g>
<!-- Chance -->
<g id="node8" class="node">
<title>Chance</title>
<g id="a_node8"><a xlink:title="Born 05/17/1134 &#160;&#45;&#45; died 12/01/1230&#10;&#10;">
<polygon fill="#36393f" stroke="#cccccc" points="1605,-149.4 1425,-149.4 1425,-92.6 1605,-92.6 1605,-149.4"/>
<text text-anchor="start" x="1494.01" y="-130.8" font-family="Helvetica, Arial, sans-serif" font-size="14.00" fill="white">Chance</text>
<text text-anchor="start" x="1479.6" y="-115.6" font-family="Helvetica, Arial, sans-serif" font-size="10.00" fill="#aaaaaa">Felicie Lyonnaire</text>
<text text-anchor="start" x="1482.5" y="-101.6" font-family="Helvetica, Arial, sans-serif" font-size="10.00" fill="#aaaaaa">*1134 — †1230</text>
</a>
</g>
</g>
<!-- Chance&#45;&gt;union_0_0_0_0_0_0 -->
<g id="edge6" class="edge">
<title>Chance&#45;&gt;union_0_0_0_0_0_0</title>
<path fill="none" stroke="#bbb529" d="M1605.21,-121C1623.78,-121 1637.8,-121 1637.8,-121 1637.8,-121 1637.8,-65.61 1637.8,-50.03"/>
</g>
<!-- siblings_0_0_0_0_0_0&#45;&gt;Bart IV -->
<g id="edge8" class="edge">
<title>siblings_0_0_0_0_0_0&#45;&gt;Bart IV</title>
<path fill="none" stroke="#bbb529" d="M1677.34,-46C1677.34,-46 1696.14,-46 1696.14,-46"/>
<polygon fill="#bbb529" stroke="#bbb529" points="1704.14,-36 1704.14,-56 1700.14,-56 1700.14,-36 1704.14,-36"/>
<polyline fill="none" stroke="#bbb529" points="1706.14,-46 1696.14,-46"/>
</g>
<!-- union_0_0_0_0_0 -->
<g id="node10" class="node">
<title>union_0_0_0_0_0</title>
<ellipse fill="#6897bb" stroke="white" cx="1356.2" cy="-185" rx="3.6" ry="3.6"/>
</g>
<!-- siblings_0_0_0_0_0 -->
<g id="node13" class="node">
<title>siblings_0_0_0_0_0</title>
<polygon fill="#6897bb" stroke="#cccccc" stroke-width="0" points="1396,-185.72 1388.8,-185.72 1388.8,-184.28 1396,-184.28 1396,-185.72"/>
</g>
<!-- union_0_0_0_0_0&#45;&gt;siblings_0_0_0_0_0 -->
<g id="edge11" class="edge">
<title>union_0_0_0_0_0&#45;&gt;siblings_0_0_0_0_0</title>
<path fill="none" stroke="#6897bb" d="M1360.07,-185C1367.22,-185 1382.37,-185 1389.08,-185"/>
</g>
<!-- Bart III -->
<g id="node11" class="node">
<title>Bart III</title>
<g id="a_node11"><a xlink:title="Born 03/11/1101 &#160;&#45;&#45; died 04/04/1201&#10;&#10;">
<polygon fill="#36393f" stroke="#cccccc" points="1323.6,-173.4 1143.6,-173.4 1143.6,-116.6 1323.6,-116.6 1323.6,-173.4"/>
<text text-anchor="start" x="1212.81" y="-154.8" font-family="Helvetica, Arial, sans-serif" font-size="14.00" fill="white">Bart III</text>
<text text-anchor="start" x="1182.23" y="-139.6" font-family="Helvetica, Arial, sans-serif" font-size="10.00" fill="#aaaaaa">Bartholomew Strandiz III</text>
<text text-anchor="start" x="1201.1" y="-125.6" font-family="Helvetica, Arial, sans-serif" font-size="10.00" fill="#aaaaaa">*1101 — †1201</text>
</a>
</g>
</g>
<!-- Bart III&#45;&gt;union_0_0_0_0_0 -->
<g id="edge9" class="edge">
<title>Bart III&#45;&gt;union_0_0_0_0_0</title>
<path fill="none" stroke="#6897bb" d="M1323.78,-158.2C1342.57,-158.2 1356.8,-158.2 1356.8,-158.2 1356.8,-158.2 1356.8,-173.91 1356.8,-181.27"/>
</g>
<!-- Petra -->
<g id="node12" class="node">
<title>Petra</title>
<g id="a_node12"><a xlink:title="Born 01/10/1101 &#160;&#45;&#45; died 04/01/1201&#10;&#10;">
<polygon fill="#36393f" stroke="#cccccc" points="1323.6,-248.4 1143.6,-248.4 1143.6,-191.6 1323.6,-191.6 1323.6,-248.4"/>
<text text-anchor="start" x="1219.22" y="-229.8" font-family="Helvetica, Arial, sans-serif" font-size="14.00" fill="white">Petra</text>
<text text-anchor="start" x="1195.97" y="-214.6" font-family="Helvetica, Arial, sans-serif" font-size="10.00" fill="#aaaaaa">Petronilla Faustine</text>
<text text-anchor="start" x="1201.1" y="-200.6" font-family="Helvetica, Arial, sans-serif" font-size="10.00" fill="#aaaaaa">*1101 — †1201</text>
</a>
</g>
</g>
<!-- Petra&#45;&gt;union_0_0_0_0_0 -->
<g id="edge10" class="edge">
<title>Petra&#45;&gt;union_0_0_0_0_0</title>
<path fill="none" stroke="#6897bb" d="M1323.78,-197.3C1342.57,-197.3 1356.8,-197.3 1356.8,-197.3 1356.8,-197.3 1356.8,-192.5 1356.8,-188.89"/>
</g>
<!-- siblings_0_0_0_0_0&#45;&gt;Matt III -->
<g id="edge12" class="edge">
<title>siblings_0_0_0_0_0&#45;&gt;Matt III</title>
<path fill="none" stroke="#6897bb" d="M1392.8,-184.6C1392.8,-176.45 1392.8,-46 1392.8,-46 1392.8,-46 1414.59,-46 1414.59,-46"/>
<polygon fill="#6897bb" stroke="#6897bb" points="1422.59,-36 1422.59,-56 1418.59,-56 1418.59,-36 1422.59,-36"/>
<polyline fill="none" stroke="#6897bb" points="1424.59,-46 1414.59,-46"/>
</g>
<!-- Corrine -->
<g id="node14" class="node">
<title>Corrine</title>
<polygon fill="#36393f" stroke="#cccccc" points="1605,-203 1425,-203 1425,-167 1605,-167 1605,-203"/>
<text text-anchor="middle" x="1515" y="-180.8" font-family="Helvetica, Arial, sans-serif" font-size="14.00" fill="white">Corrine</text>
</g>
<!-- siblings_0_0_0_0_0&#45;&gt;Corrine -->
<g id="edge13" class="edge">
<title>siblings_0_0_0_0_0&#45;&gt;Corrine</title>
<path fill="none" stroke="#6897bb" d="M1395.94,-185C1395.94,-185 1414.74,-185 1414.74,-185"/>
<polygon fill="#6897bb" stroke="#6897bb" points="1422.74,-175 1422.74,-195 1418.74,-195 1418.74,-175 1422.74,-175"/>
<polyline fill="none" stroke="#6897bb" points="1424.74,-185 1414.74,-185"/>
</g>
<!-- Linnea -->
<g id="node15" class="node">
<title>Linnea</title>
<polygon fill="#36393f" stroke="#cccccc" points="1605,-257 1425,-257 1425,-221 1605,-221 1605,-257"/>
<text text-anchor="middle" x="1515" y="-234.8" font-family="Helvetica, Arial, sans-serif" font-size="14.00" fill="white">Linnea</text>
</g>
<!-- siblings_0_0_0_0_0&#45;&gt;Linnea -->
<g id="edge14" class="edge">
<title>siblings_0_0_0_0_0&#45;&gt;Linnea</title>
<path fill="none" stroke="#6897bb" d="M1392.8,-185.56C1392.8,-191.02 1392.8,-234.7 1392.8,-234.7 1392.8,-234.7 1414.59,-234.7 1414.59,-234.7"/>
<polygon fill="#6897bb" stroke="#6897bb" points="1422.59,-224.7 1422.59,-244.7 1418.59,-244.7 1418.59,-224.7 1422.59,-224.7"/>
<polyline fill="none" stroke="#6897bb" points="1424.59,-234.7 1414.59,-234.7"/>
</g>
<!-- union_0_0_0_0 -->
<g id="node16" class="node">
<title>union_0_0_0_0</title>
<ellipse fill="#cc7832" stroke="white" cx="1074.8" cy="-145" rx="3.6" ry="3.6"/>
</g>
<!-- siblings_0_0_0_0 -->
<g id="node19" class="node">
<title>siblings_0_0_0_0</title>
<polygon fill="#cc7832" stroke="#cccccc" stroke-width="0" points="1114.6,-145.72 1107.4,-145.72 1107.4,-144.28 1114.6,-144.28 1114.6,-145.72"/>
</g>
<!-- union_0_0_0_0&#45;&gt;siblings_0_0_0_0 -->
<g id="edge17" class="edge">
<title>union_0_0_0_0&#45;&gt;siblings_0_0_0_0</title>
<path fill="none" stroke="#cc7832" d="M1078.67,-145C1085.82,-145 1100.97,-145 1107.68,-145"/>
</g>
<!-- Matt II -->
<g id="node17" class="node">
<title>Matt II</title>
<g id="a_node17"><a xlink:title="Born 09/02/1060 &#160;&#45;&#45; died 11/10/1142&#10;&#10;">
<polygon fill="#36393f" stroke="#cccccc" points="1042.2,-164.4 862.2,-164.4 862.2,-107.6 1042.2,-107.6 1042.2,-164.4"/>
<text text-anchor="start" x="932.57" y="-145.8" font-family="Helvetica, Arial, sans-serif" font-size="14.00" fill="white">Matt II</text>
<text text-anchor="start" x="911.93" y="-130.6" font-family="Helvetica, Arial, sans-serif" font-size="10.00" fill="#aaaaaa">Matthew Strandiz II</text>
<text text-anchor="start" x="919.7" y="-116.6" font-family="Helvetica, Arial, sans-serif" font-size="10.00" fill="#aaaaaa">*1060 — †1142</text>
</a>
</g>
</g>
<!-- Matt II&#45;&gt;union_0_0_0_0 -->
<g id="edge15" class="edge">
<title>Matt II&#45;&gt;union_0_0_0_0</title>
<path fill="none" stroke="#cc7832" d="M1042.59,-145C1055.22,-145 1065.71,-145 1071.03,-145"/>
</g>
<!-- Dorotea -->
<g id="node18" class="node">
<title>Dorotea</title>
<g id="a_node18"><a xlink:title="Born 01/22/1078 &#160;&#45;&#45; died 10/29/1166&#10;&#10;">
<polygon fill="#36393f" stroke="#cccccc" points="1042.2,-239.4 862.2,-239.4 862.2,-182.6 1042.2,-182.6 1042.2,-239.4"/>
<text text-anchor="start" x="929.66" y="-220.8" font-family="Helvetica, Arial, sans-serif" font-size="14.00" fill="white">Dorotea</text>
<text text-anchor="start" x="917.35" y="-205.6" font-family="Helvetica, Arial, sans-serif" font-size="10.00" fill="#aaaaaa">Dorotea Chemise</text>
<text text-anchor="start" x="919.7" y="-191.6" font-family="Helvetica, Arial, sans-serif" font-size="10.00" fill="#aaaaaa">*1078 — †1166</text>
</a>
</g>
</g>
<!-- Dorotea&#45;&gt;union_0_0_0_0 -->
<g id="edge16" class="edge">
<title>Dorotea&#45;&gt;union_0_0_0_0</title>
<path fill="none" stroke="#cc7832" d="M1042.59,-215.5C1060.96,-215.5 1074.8,-215.5 1074.8,-215.5 1074.8,-215.5 1074.8,-163.43 1074.8,-148.79"/>
</g>
<!-- siblings_0_0_0_0&#45;&gt;Bart III -->
<g id="edge18" class="edge">
<title>siblings_0_0_0_0&#45;&gt;Bart III</title>
<path fill="none" stroke="#cc7832" d="M1114.54,-145C1114.54,-145 1133.34,-145 1133.34,-145"/>
<polygon fill="#cc7832" stroke="#cc7832" points="1141.34,-135 1141.34,-155 1137.34,-155 1137.34,-135 1141.34,-135"/>
<polyline fill="none" stroke="#cc7832" points="1143.34,-145 1133.34,-145"/>
</g>
<!-- union_0_0_0 -->
<g id="node20" class="node">
<title>union_0_0_0</title>
<ellipse fill="#629755" stroke="white" cx="793.4" cy="-209" rx="3.6" ry="3.6"/>
</g>
<!-- siblings_0_0_0 -->
<g id="node23" class="node">
<title>siblings_0_0_0</title>
<polygon fill="#629755" stroke="#cccccc" stroke-width="0" points="833.2,-209.72 826,-209.72 826,-208.28 833.2,-208.28 833.2,-209.72"/>
</g>
<!-- union_0_0_0&#45;&gt;siblings_0_0_0 -->
<g id="edge21" class="edge">
<title>union_0_0_0&#45;&gt;siblings_0_0_0</title>
<path fill="none" stroke="#629755" d="M797.27,-209C804.42,-209 819.57,-209 826.28,-209"/>
</g>
<!-- Bart II -->
<g id="node21" class="node">
<title>Bart II</title>
<g id="a_node21"><a xlink:title="Born 01/01/1001 &#160;&#45;&#45; died 12/30/1100&#10;&#10;">
<polygon fill="#36393f" stroke="#cccccc" points="760.8,-200.4 580.8,-200.4 580.8,-143.6 760.8,-143.6 760.8,-200.4"/>
<text text-anchor="start" x="652.34" y="-181.8" font-family="Helvetica, Arial, sans-serif" font-size="14.00" fill="white">Bart II</text>
<text text-anchor="start" x="621.09" y="-166.6" font-family="Helvetica, Arial, sans-serif" font-size="10.00" fill="#aaaaaa">Bartholomew Strandiz II</text>
<text text-anchor="start" x="638.3" y="-152.6" font-family="Helvetica, Arial, sans-serif" font-size="10.00" fill="#aaaaaa">*1000 — †1100</text>
</a>
</g>
</g>
<!-- Bart II&#45;&gt;union_0_0_0 -->
<g id="edge19" class="edge">
<title>Bart II&#45;&gt;union_0_0_0</title>
<path fill="none" stroke="#629755" d="M761.16,-191.5C779.76,-191.5 793.8,-191.5 793.8,-191.5 793.8,-191.5 793.8,-199.77 793.8,-204.94"/>
</g>
<!-- Collette -->
<g id="node22" class="node">
<title>Collette</title>
<g id="a_node22"><a xlink:title="Born 07/04/1031 &#160;&#45;&#45; died 12/30/1105&#10;&#10;">
<polygon fill="#36393f" stroke="#cccccc" points="760.8,-275.4 580.8,-275.4 580.8,-218.6 760.8,-218.6 760.8,-275.4"/>
<text text-anchor="start" x="648.64" y="-256.8" font-family="Helvetica, Arial, sans-serif" font-size="14.00" fill="white">Collette</text>
<text text-anchor="start" x="632.34" y="-241.6" font-family="Helvetica, Arial, sans-serif" font-size="10.00" fill="#aaaaaa">Collette Beauchard</text>
<text text-anchor="start" x="638.3" y="-227.6" font-family="Helvetica, Arial, sans-serif" font-size="10.00" fill="#aaaaaa">*1031 — †1105</text>
</a>
</g>
</g>
<!-- Collette&#45;&gt;union_0_0_0 -->
<g id="edge20" class="edge">
<title>Collette&#45;&gt;union_0_0_0</title>
<path fill="none" stroke="#629755" d="M761.16,-229C779.76,-229 793.8,-229 793.8,-229 793.8,-229 793.8,-218.67 793.8,-212.86"/>
</g>
<!-- siblings_0_0_0&#45;&gt;Matt II -->
<g id="edge22" class="edge">
<title>siblings_0_0_0&#45;&gt;Matt II</title>
<path fill="none" stroke="#629755" d="M829.8,-208.38C829.8,-202.34 829.8,-154 829.8,-154 829.8,-154 851.96,-154 851.96,-154"/>
<polygon fill="#629755" stroke="#629755" points="859.96,-144 859.96,-164 855.96,-164 855.96,-144 859.96,-144"/>
<polyline fill="none" stroke="#629755" points="861.96,-154 851.96,-154"/>
</g>
<!-- Johanne -->
<g id="node24" class="node">
<title>Johanne</title>
<polygon fill="#36393f" stroke="#cccccc" points="1042.2,-293 862.2,-293 862.2,-257 1042.2,-257 1042.2,-293"/>
<text text-anchor="middle" x="952.2" y="-270.8" font-family="Helvetica, Arial, sans-serif" font-size="14.00" fill="white">Johanne</text>
</g>
<!-- siblings_0_0_0&#45;&gt;Johanne -->
<g id="edge23" class="edge">
<title>siblings_0_0_0&#45;&gt;Johanne</title>
<path fill="none" stroke="#629755" d="M829.8,-209.64C829.8,-215.93 829.8,-266.2 829.8,-266.2 829.8,-266.2 851.96,-266.2 851.96,-266.2"/>
<polygon fill="#629755" stroke="#629755" points="859.96,-256.2 859.96,-276.2 855.96,-276.2 855.96,-256.2 859.96,-256.2"/>
<polyline fill="none" stroke="#629755" points="861.96,-266.2 851.96,-266.2"/>
</g>
<!-- union_0_0 -->
<g id="node25" class="node">
<title>union_0_0</title>
<ellipse fill="#ccdf32" stroke="white" cx="512" cy="-340" rx="3.6" ry="3.6"/>
</g>
<!-- siblings_0_0 -->
<g id="node28" class="node">
<title>siblings_0_0</title>
<polygon fill="#ccdf32" stroke="#cccccc" stroke-width="0" points="551.8,-340.72 544.6,-340.72 544.6,-339.28 551.8,-339.28 551.8,-340.72"/>
</g>
<!-- union_0_0&#45;&gt;siblings_0_0 -->
<g id="edge26" class="edge">
<title>union_0_0&#45;&gt;siblings_0_0</title>
<path fill="none" stroke="#ccdf32" d="M515.87,-340C523.02,-340 538.17,-340 544.88,-340"/>
</g>
<!-- Matt I -->
<g id="node26" class="node">
<title>Matt I</title>
<g id="a_node26"><a xlink:title="Born 05/11/927 &#160;&#45;&#45; died 12/16/1012&#10;&#10;">
<polygon fill="#36393f" stroke="#cccccc" points="479.4,-344.4 299.4,-344.4 299.4,-287.6 479.4,-287.6 479.4,-344.4"/>
<text text-anchor="start" x="372.1" y="-325.8" font-family="Helvetica, Arial, sans-serif" font-size="14.00" fill="white">Matt I</text>
<text text-anchor="start" x="350.8" y="-310.6" font-family="Helvetica, Arial, sans-serif" font-size="10.00" fill="#aaaaaa">Matthew Strandiz I</text>
<text text-anchor="start" x="359.4" y="-296.6" font-family="Helvetica, Arial, sans-serif" font-size="10.00" fill="#aaaaaa">*927 — †1012</text>
</a>
</g>
</g>
<!-- Matt I&#45;&gt;union_0_0 -->
<g id="edge24" class="edge">
<title>Matt I&#45;&gt;union_0_0</title>
<path fill="none" stroke="#ccdf32" d="M479.79,-340C492.42,-340 502.91,-340 508.23,-340"/>
</g>
<!-- Marta -->
<g id="node27" class="node">
<title>Marta</title>
<g id="a_node27"><a xlink:title="Born 08/11/978 &#160;&#45;&#45; died 04/25/1050&#10;&#10;">
<polygon fill="#36393f" stroke="#cccccc" points="479.4,-419.4 299.4,-419.4 299.4,-362.6 479.4,-362.6 479.4,-419.4"/>
<text text-anchor="start" x="372.69" y="-400.8" font-family="Helvetica, Arial, sans-serif" font-size="14.00" fill="white">Marta</text>
<text text-anchor="start" x="354.41" y="-385.6" font-family="Helvetica, Arial, sans-serif" font-size="10.00" fill="#aaaaaa">Martha von Grier</text>
<text text-anchor="start" x="359.4" y="-371.6" font-family="Helvetica, Arial, sans-serif" font-size="10.00" fill="#aaaaaa">*978 — †1050</text>
</a>
</g>
</g>
<!-- Marta&#45;&gt;union_0_0 -->
<g id="edge25" class="edge">
<title>Marta&#45;&gt;union_0_0</title>
<path fill="none" stroke="#ccdf32" d="M479.73,-372.8C498.55,-372.8 512.8,-372.8 512.8,-372.8 512.8,-372.8 512.8,-352.38 512.8,-343.76"/>
</g>
<!-- siblings_0_0&#45;&gt;Bart II -->
<g id="edge27" class="edge">
<title>siblings_0_0&#45;&gt;Bart II</title>
<path fill="none" stroke="#ccdf32" d="M547.8,-339.52C547.8,-329.66 547.8,-172 547.8,-172 547.8,-172 570.44,-172 570.44,-172"/>
<polygon fill="#ccdf32" stroke="#ccdf32" points="578.44,-162 578.44,-182 574.44,-182 574.44,-162 578.44,-162"/>
<polyline fill="none" stroke="#ccdf32" points="580.44,-172 570.44,-172"/>
</g>
<!-- Mark -->
<g id="node29" class="node">
<title>Mark</title>
<polygon fill="#36393f" stroke="#cccccc" points="760.8,-329 580.8,-329 580.8,-293 760.8,-293 760.8,-329"/>
<text text-anchor="middle" x="670.8" y="-306.8" font-family="Helvetica, Arial, sans-serif" font-size="14.00" fill="white">Mark</text>
</g>
<!-- siblings_0_0&#45;&gt;Mark -->
<g id="edge28" class="edge">
<title>siblings_0_0&#45;&gt;Mark</title>
<path fill="none" stroke="#ccdf32" d="M549.8,-339.28C549.8,-334.82 549.8,-311 549.8,-311 549.8,-311 570.33,-311 570.33,-311"/>
<polygon fill="#ccdf32" stroke="#ccdf32" points="578.33,-301 578.33,-321 574.33,-321 574.33,-301 578.33,-301"/>
<polyline fill="none" stroke="#ccdf32" points="580.33,-311 570.33,-311"/>
</g>
<!-- Maria -->
<g id="node30" class="node">
<title>Maria</title>
<polygon fill="#36393f" stroke="#cccccc" points="760.8,-383 580.8,-383 580.8,-347 760.8,-347 760.8,-383"/>
<text text-anchor="middle" x="670.8" y="-360.8" font-family="Helvetica, Arial, sans-serif" font-size="14.00" fill="white">Maria</text>
</g>
<!-- siblings_0_0&#45;&gt;Maria -->
<g id="edge29" class="edge">
<title>siblings_0_0&#45;&gt;Maria</title>
<path fill="none" stroke="#ccdf32" d="M549.8,-340.64C549.8,-343.47 549.8,-354.8 549.8,-354.8 549.8,-354.8 570.33,-354.8 570.33,-354.8"/>
<polygon fill="#ccdf32" stroke="#ccdf32" points="578.33,-344.8 578.33,-364.8 574.33,-364.8 574.33,-344.8 578.33,-344.8"/>
<polyline fill="none" stroke="#ccdf32" points="580.33,-354.8 570.33,-354.8"/>
</g>
<!-- Melissa -->
<g id="node31" class="node">
<title>Melissa</title>
<polygon fill="#36393f" stroke="#cccccc" points="760.8,-437 580.8,-437 580.8,-401 760.8,-401 760.8,-437"/>
<text text-anchor="middle" x="670.8" y="-414.8" font-family="Helvetica, Arial, sans-serif" font-size="14.00" fill="white">Melissa</text>
</g>
<!-- siblings_0_0&#45;&gt;Melissa -->
<g id="edge30" class="edge">
<title>siblings_0_0&#45;&gt;Melissa</title>
<path fill="none" stroke="#ccdf32" d="M547.8,-340.45C547.8,-346.43 547.8,-410.2 547.8,-410.2 547.8,-410.2 570.44,-410.2 570.44,-410.2"/>
<polygon fill="#ccdf32" stroke="#ccdf32" points="578.44,-400.2 578.44,-420.2 574.44,-420.2 574.44,-400.2 578.44,-400.2"/>
<polyline fill="none" stroke="#ccdf32" points="580.44,-410.2 570.44,-410.2"/>
</g>
<!-- union_0 -->
<g id="node32" class="node">
<title>union_0</title>
<ellipse fill="#d25252" stroke="white" cx="230.6" cy="-455" rx="3.6" ry="3.6"/>
</g>
<!-- siblings_0 -->
<g id="node35" class="node">
<title>siblings_0</title>
<polygon fill="#d25252" stroke="#cccccc" stroke-width="0" points="270.4,-455.72 263.2,-455.72 263.2,-454.28 270.4,-454.28 270.4,-455.72"/>
</g>
<!-- union_0&#45;&gt;siblings_0 -->
<g id="edge33" class="edge">
<title>union_0&#45;&gt;siblings_0</title>
<path fill="none" stroke="#d25252" d="M234.47,-455C241.62,-455 256.77,-455 263.48,-455"/>
</g>
<!-- Bart I -->
<g id="node33" class="node">
<title>Bart I</title>
<g id="a_node33"><a xlink:title="Born 11/04/865 &#160;&#45;&#45; died 08/11/949&#10;&#10;">
<polygon fill="#36393f" stroke="#cccccc" points="198,-430.4 18,-430.4 18,-373.6 198,-373.6 198,-430.4"/>
<text text-anchor="start" x="91.87" y="-411.8" font-family="Helvetica, Arial, sans-serif" font-size="14.00" fill="white">Bart I</text>
<text text-anchor="start" x="59.96" y="-396.6" font-family="Helvetica, Arial, sans-serif" font-size="10.00" fill="#aaaaaa">Bartholomew Strandiz I</text>
<text text-anchor="start" x="80.5" y="-382.6" font-family="Helvetica, Arial, sans-serif" font-size="10.00" fill="#aaaaaa">*865 — †949</text>
</a>
</g>
</g>
<!-- Bart I&#45;&gt;union_0 -->
<g id="edge31" class="edge">
<title>Bart I&#45;&gt;union_0</title>
<path fill="none" stroke="#d25252" d="M198.21,-424.9C216.78,-424.9 230.8,-424.9 230.8,-424.9 230.8,-424.9 230.8,-443.27 230.8,-451.31"/>
</g>
<!-- Agnes -->
<g id="node34" class="node">
<title>Agnes</title>
<g id="a_node34"><a xlink:title="Born 11/04/910 &#160;&#45;&#45; died 08/11/999&#10;&#10;">
<polygon fill="#36393f" stroke="#cccccc" points="198,-505.4 18,-505.4 18,-448.6 198,-448.6 198,-505.4"/>
<text text-anchor="start" x="90.11" y="-486.8" font-family="Helvetica, Arial, sans-serif" font-size="14.00" fill="white">Agnes</text>
<text text-anchor="start" x="80.37" y="-471.6" font-family="Helvetica, Arial, sans-serif" font-size="10.00" fill="#aaaaaa">Agnes Anatto</text>
<text text-anchor="start" x="80.5" y="-457.6" font-family="Helvetica, Arial, sans-serif" font-size="10.00" fill="#aaaaaa">*910 — †999</text>
</a>
</g>
</g>
<!-- Agnes&#45;&gt;union_0 -->
<g id="edge32" class="edge">
<title>Agnes&#45;&gt;union_0</title>
<path fill="none" stroke="#d25252" d="M198.39,-455C211.02,-455 221.51,-455 226.83,-455"/>
</g>
<!-- siblings_0&#45;&gt;Matt I -->
<g id="edge34" class="edge">
<title>siblings_0&#45;&gt;Matt I</title>
<path fill="none" stroke="#d25252" d="M267.8,-454.6C267.8,-446.45 267.8,-316 267.8,-316 267.8,-316 289.12,-316 289.12,-316"/>
<polygon fill="#d25252" stroke="#d25252" points="297.11,-306 297.12,-326 293.12,-326 293.11,-306 297.11,-306"/>
<polyline fill="none" stroke="#d25252" points="299.12,-316 289.12,-316"/>
</g>
<!-- Telia -->
<g id="node36" class="node">
<title>Telia</title>
<polygon fill="#36393f" stroke="#cccccc" points="479.4,-473 299.4,-473 299.4,-437 479.4,-437 479.4,-473"/>
<text text-anchor="middle" x="389.4" y="-450.8" font-family="Helvetica, Arial, sans-serif" font-size="14.00" fill="white">Telia</text>
</g>
<!-- siblings_0&#45;&gt;Telia -->
<g id="edge35" class="edge">
<title>siblings_0&#45;&gt;Telia</title>
<path fill="none" stroke="#d25252" d="M270.34,-455C270.34,-455 289.14,-455 289.14,-455"/>
<polygon fill="#d25252" stroke="#d25252" points="297.14,-445 297.14,-465 293.14,-465 293.14,-445 297.14,-445"/>
<polyline fill="none" stroke="#d25252" points="299.14,-455 289.14,-455"/>
</g>
<!-- Astrid -->
<g id="node37" class="node">
<title>Astrid</title>
<polygon fill="#36393f" stroke="#cccccc" points="479.4,-527 299.4,-527 299.4,-491 479.4,-491 479.4,-527"/>
<text text-anchor="middle" x="389.4" y="-504.8" font-family="Helvetica, Arial, sans-serif" font-size="14.00" fill="white">Astrid</text>
</g>
<!-- siblings_0&#45;&gt;Astrid -->
<g id="edge36" class="edge">
<title>siblings_0&#45;&gt;Astrid</title>
<path fill="none" stroke="#d25252" d="M267.8,-455.49C267.8,-460.23 267.8,-498.2 267.8,-498.2 267.8,-498.2 289.12,-498.2 289.12,-498.2"/>
<polygon fill="#d25252" stroke="#d25252" points="297.11,-488.2 297.12,-508.2 293.12,-508.2 293.11,-488.2 297.11,-488.2"/>
<polyline fill="none" stroke="#d25252" points="299.12,-498.2 289.12,-498.2"/>
</g>
</g>
</svg>
