<?xml version="1.0" encoding="UTF-8" standalone="no"?>
<!DOCTYPE svg PUBLIC "-//W3C//DTD SVG 1.1//EN"
 "http://www.w3.org/Graphics/SVG/1.1/DTD/svg11.dtd">
<!-- Generated by graphviz version 2.40.1 (20161225.0304)
 -->
<!-- Title: G Pages: 1 -->
<svg width="556pt" height="643pt"
 viewBox="0.00 0.00 556.00 643.00" xmlns="http://www.w3.org/2000/svg" xmlns:xlink="http://www.w3.org/1999/xlink">
<g id="graph0" class="graph" transform="scale(1 1) rotate(0) translate(4 639)">
<title>G</title>
<polygon fill="#23272a" stroke="transparent" points="-4,4 -4,-639 552,-639 552,4 -4,4"/>
<g id="clust1" class="cluster">
<title>cluster_family_0</title>
<polygon fill="#2c2f33" stroke="#2c2f33" points="8,-8 8,-515 540,-515 540,-8 8,-8"/>
<text text-anchor="start" x="16" y="-497.6" font-family="Helvetica, Arial, sans-serif" font-weight="bold" font-size="16.00" fill="#ffffff">Bouillard</text>
</g>
<g id="clust2" class="cluster">
<title>cluster_family_0_0</title>
</g>
<g id="clust5" class="cluster">
<title>cluster_family_0_1</title>
</g>
<g id="clust7" class="cluster">
<title>cluster_family_0_2</title>
</g>
<g id="clust9" class="cluster">
<title>cluster_family_0_3</title>
</g>
<g id="clust11" class="cluster">
<title>cluster_family_0_4</title>
</g>
<g id="clust13" class="cluster">
<title>cluster_family_0_5</title>
</g>
<!-- union_0_0 -->
<g id="node1" class="node">
<title>union_0_0</title>
<ellipse fill="#ccdf32" stroke="#ffffff" cx="245.5" cy="-423" rx="3.5" ry="3.5"/>
</g>
<!-- siblings_0_0 -->
<g id="node4" class="node">
<title>siblings_0_0</title>
<polygon fill="#ccdf32" stroke="#cccccc" stroke-width="0" points="285,-423.5 278,-423.5 278,-422.5 285,-422.5 285,-423.5"/>
</g>
<!-- union_0_0&#45;&gt;siblings_0_0 -->
<g id="edge3" class="edge">
<title>union_0_0&#45;&gt;siblings_0_0</title>
<path fill="none" stroke="#ccdf32" d="M249.0834,-423C255.9128,-423 270.7324,-423 277.7154,-423"/>
</g>
<!-- Yves Renault -->
<g id="node2" class="node">
<title>Yves Renault</title>
<g id="a_node2"><a xlink:title="Born 02/14/1198 &#160;&#45;&#45; died 06/15/1255&#10;&#10;">
<polygon fill="#36393f" stroke="#ff0000" stroke-width=".25" points="205.5,-478 25.5,-478 25.5,-422 205.5,-422 205.5,-478"/>
<text text-anchor="start" x="74.378" y="-459.4" font-family="Helvetica, Arial, sans-serif" font-size="14.00" fill="#ffffff">Yves Renault</text>
<text text-anchor="start" x="65.435" y="-445" font-family="Helvetica, Arial, sans-serif" font-size="10.00" fill="#aaaaaa">Yves Renault Bouillard</text>
<text text-anchor="start" x="80.7035" y="-431" font-family="Helvetica, Arial, sans-serif" font-size="10.00" fill="#aaaaaa">*1198 — †1255</text>
</a>
</g>
</g>
<!-- Yves Renault&#45;&gt;union_0_0 -->
<g id="edge1" class="edge">
<title>Yves Renault&#45;&gt;union_0_0</title>
<path fill="none" stroke="#ccdf32" d="M205.7809,-444C228.2174,-444 246,-444 246,-444 246,-444 246,-432.6746 246,-426.6579"/>
</g>
<!-- Nicolette -->
<g id="node3" class="node">
<title>Nicolette</title>
<g id="a_node3"><a xlink:title="&#10;&#10;">
<polygon fill="#36393f" stroke="#cccccc" points="205.5,-404 25.5,-404 25.5,-368 205.5,-368 205.5,-404"/>
<text text-anchor="middle" x="115.5" y="-381.8" font-family="Helvetica, Arial, sans-serif" font-size="14.00" fill="#ffffff">Nicolette</text>
</a>
</g>
</g>
<!-- Nicolette&#45;&gt;union_0_0 -->
<g id="edge2" class="edge">
<title>Nicolette&#45;&gt;union_0_0</title>
<path fill="none" stroke="#ccdf32" d="M205.7943,-391C227.7252,-391 245,-391 245,-391 245,-391 245,-410.5313 245,-419.0762"/>
</g>
<!-- Basillios -->
<g id="node5" class="node">
<title>Basillios</title>
<g id="a_node5"><a xlink:title="&#10;&#10;">
<polygon fill="#36393f" stroke="#cccccc" points="494,-414 314,-414 314,-378 494,-378 494,-414"/>
<text text-anchor="middle" x="404" y="-391.8" font-family="Helvetica, Arial, sans-serif" font-size="14.00" fill="#ffffff">Basillios</text>
</a>
</g>
</g>
<!-- siblings_0_0&#45;&gt;Basillios -->
<g id="edge4" class="edge">
<title>siblings_0_0&#45;&gt;Basillios</title>
<path fill="none" stroke="#ccdf32" d="M284,-422.3984C284,-419.7188 284,-409 284,-409 284,-409 303.9715,-409 303.9715,-409"/>
<polygon fill="#ccdf32" stroke="#ccdf32" points="311.9714,-399 311.9716,-419 307.9716,-419.0001 307.9714,-399.0001 311.9714,-399"/>
<polyline fill="none" stroke="#ccdf32" points="313.9715,-409 303.9715,-409.0001 "/>
</g>
<!-- Renault II -->
<g id="node6" class="node">
<title>Renault II</title>
<g id="a_node6"><a xlink:title="&#10;&#10;">
<polygon fill="#36393f" stroke="#cccccc" points="494,-468 314,-468 314,-432 494,-432 494,-468"/>
<text text-anchor="middle" x="404" y="-445.8" font-family="Helvetica, Arial, sans-serif" font-size="14.00" fill="#ffffff">Renault II</text>
</a>
</g>
</g>
<!-- siblings_0_0&#45;&gt;Renault II -->
<g id="edge5" class="edge">
<title>siblings_0_0&#45;&gt;Renault II</title>
<path fill="none" stroke="#ccdf32" d="M282,-423.8157C282,-428.8975 282,-456 282,-456 282,-456 303.7356,-456 303.7356,-456"/>
<polygon fill="#ccdf32" stroke="#ccdf32" points="311.7355,-446 311.7357,-466 307.7357,-466.0001 307.7355,-446.0001 311.7355,-446"/>
<polyline fill="none" stroke="#ccdf32" points="313.7356,-456 303.7356,-456.0001 "/>
</g>
<!-- union_0_1 -->
<g id="node7" class="node">
<title>union_0_1</title>
<ellipse fill="#629755" stroke="#ffffff" cx="245.5" cy="-290" rx="3.5" ry="3.5"/>
</g>
<!-- Romulus -->
<g id="node8" class="node">
<title>Romulus</title>
<g id="a_node8"><a xlink:title="Born 12/02/1109 &#160;&#45;&#45; died 05/15/1190&#10;&#10;">
<polygon fill="#36393f" stroke="#ff0000" stroke-width=".25" points="205.5,-350 25.5,-350 25.5,-294 205.5,-294 205.5,-350"/>
<text text-anchor="start" x="88.3892" y="-331.4" font-family="Helvetica, Arial, sans-serif" font-size="14.00" fill="#ffffff">Romulus</text>
<text text-anchor="start" x="75.443" y="-317" font-family="Helvetica, Arial, sans-serif" font-size="10.00" fill="#aaaaaa">Romulus Bouillard</text>
<text text-anchor="start" x="80.7035" y="-303" font-family="Helvetica, Arial, sans-serif" font-size="10.00" fill="#aaaaaa">*1109 — †1190</text>
</a>
</g>
</g>
<!-- Romulus&#45;&gt;union_0_1 -->
<g id="edge6" class="edge">
<title>Romulus&#45;&gt;union_0_1</title>
<path fill="none" stroke="#629755" d="M205.7534,-314C228.6999,-314 247,-314 247,-314 247,-314 247,-299.9316 247,-293.3371"/>
</g>
<!-- Anya -->
<g id="node9" class="node">
<title>Anya</title>
<polygon fill="#36393f" stroke="#cccccc" points="205.5,-276 25.5,-276 25.5,-240 205.5,-240 205.5,-276"/>
<text text-anchor="middle" x="115.5" y="-253.8" font-family="Helvetica, Arial, sans-serif" font-size="14.00" fill="#ffffff">Anya</text>
</g>
<!-- Anya&#45;&gt;union_0_1 -->
<g id="edge7" class="edge">
<title>Anya&#45;&gt;union_0_1</title>
<path fill="none" stroke="#629755" d="M205.7943,-255C227.7252,-255 245,-255 245,-255 245,-255 245,-277.6633 245,-286.5161"/>
</g>
<!-- union_0_2 -->
<g id="node10" class="node">
<title>union_0_2</title>
<ellipse fill="#cc7832" stroke="#ffffff" cx="245.5" cy="-177" rx="3.5" ry="3.5"/>
</g>
<!-- Timothee -->
<g id="node11" class="node">
<title>Timothee</title>
<polygon fill="#36393f" stroke="#cccccc" points="205.5,-222 25.5,-222 25.5,-186 205.5,-186 205.5,-222"/>
<text text-anchor="middle" x="115.5" y="-199.8" font-family="Helvetica, Arial, sans-serif" font-size="14.00" fill="#ffffff">Timothee</text>
</g>
<!-- Timothee&#45;&gt;union_0_2 -->
<g id="edge8" class="edge">
<title>Timothee&#45;&gt;union_0_2</title>
<path fill="none" stroke="#cc7832" d="M205.7534,-206C228.6999,-206 247,-206 247,-206 247,-206 247,-188.2998 247,-180.556"/>
</g>
<!-- Mattea -->
<g id="node12" class="node">
<title>Mattea</title>
<polygon fill="#36393f" stroke="#cccccc" points="205.5,-168 25.5,-168 25.5,-132 205.5,-132 205.5,-168"/>
<text text-anchor="middle" x="115.5" y="-145.8" font-family="Helvetica, Arial, sans-serif" font-size="14.00" fill="#ffffff">Mattea</text>
</g>
<!-- Mattea&#45;&gt;union_0_2 -->
<g id="edge9" class="edge">
<title>Mattea&#45;&gt;union_0_2</title>
<path fill="none" stroke="#cc7832" d="M205.7809,-147C228.2174,-147 246,-147 246,-147 246,-147 246,-165.3105 246,-173.3214"/>
</g>
<!-- union_0_3 -->
<g id="node13" class="node">
<title>union_0_3</title>
<ellipse fill="#6897bb" stroke="#ffffff" cx="526.5" cy="-63" rx="3.5" ry="3.5"/>
</g>
<!-- Renee -->
<g id="node14" class="node">
<title>Renee</title>
<polygon fill="#36393f" stroke="#cccccc" points="494,-108 314,-108 314,-72 494,-72 494,-108"/>
<text text-anchor="middle" x="404" y="-85.8" font-family="Helvetica, Arial, sans-serif" font-size="14.00" fill="#ffffff">Renee</text>
</g>
<!-- Renee&#45;&gt;union_0_3 -->
<g id="edge10" class="edge">
<title>Renee&#45;&gt;union_0_3</title>
<path fill="none" stroke="#6897bb" d="M494.2644,-90C512.3914,-90 526,-90 526,-90 526,-90 526,-74.1731 526,-66.7542"/>
</g>
<!-- Henrique -->
<g id="node15" class="node">
<title>Henrique</title>
<polygon fill="#36393f" stroke="#cccccc" points="494,-54 314,-54 314,-18 494,-18 494,-54"/>
<text text-anchor="middle" x="404" y="-31.8" font-family="Helvetica, Arial, sans-serif" font-size="14.00" fill="#ffffff">Henrique</text>
</g>
<!-- Henrique&#45;&gt;union_0_3 -->
<g id="edge11" class="edge">
<title>Henrique&#45;&gt;union_0_3</title>
<path fill="none" stroke="#6897bb" d="M494.0383,-36C512.7943,-36 527,-36 527,-36 527,-36 527,-51.8269 527,-59.2458"/>
</g>
<!-- union_0_4 -->
<g id="node16" class="node">
<title>union_0_4</title>
<ellipse fill="#bbb529" stroke="#ffffff" cx="526.5" cy="-171" rx="3.5" ry="3.5"/>
</g>
<!-- Calamut -->
<g id="node17" class="node">
<title>Calamut</title>
<polygon fill="#36393f" stroke="#cccccc" points="494,-216 314,-216 314,-180 494,-180 494,-216"/>
<text text-anchor="middle" x="404" y="-193.8" font-family="Helvetica, Arial, sans-serif" font-size="14.00" fill="#ffffff">Calamut</text>
</g>
<!-- Calamut&#45;&gt;union_0_4 -->
<g id="edge12" class="edge">
<title>Calamut&#45;&gt;union_0_4</title>
<path fill="none" stroke="#bbb529" d="M494.1165,-198C513.3477,-198 528,-198 528,-198 528,-198 528,-181.5205 528,-174.3107"/>
</g>
<!-- Palmira -->
<g id="node18" class="node">
<title>Palmira</title>
<polygon fill="#36393f" stroke="#cccccc" points="494,-162 314,-162 314,-126 494,-126 494,-162"/>
<text text-anchor="middle" x="404" y="-139.8" font-family="Helvetica, Arial, sans-serif" font-size="14.00" fill="#ffffff">Palmira</text>
</g>
<!-- Palmira&#45;&gt;union_0_4 -->
<g id="edge13" class="edge">
<title>Palmira&#45;&gt;union_0_4</title>
<path fill="none" stroke="#bbb529" d="M494.1165,-144C513.3477,-144 528,-144 528,-144 528,-144 528,-160.4795 528,-167.6893"/>
</g>
<!-- union_0_5 -->
<g id="node19" class="node">
<title>union_0_5</title>
<ellipse fill="#9876aa" stroke="#ffffff" cx="526.5" cy="-279" rx="3.5" ry="3.5"/>
</g>
<!-- Rolaund -->
<g id="node20" class="node">
<title>Rolaund</title>
<polygon fill="#36393f" stroke="#cccccc" points="494,-324 314,-324 314,-288 494,-288 494,-324"/>
<text text-anchor="middle" x="404" y="-301.8" font-family="Helvetica, Arial, sans-serif" font-size="14.00" fill="#ffffff">Rolaund</text>
</g>
<!-- Rolaund&#45;&gt;union_0_5 -->
<g id="edge14" class="edge">
<title>Rolaund&#45;&gt;union_0_5</title>
<path fill="none" stroke="#9876aa" d="M494.0383,-306C512.7943,-306 527,-306 527,-306 527,-306 527,-290.1731 527,-282.7542"/>
</g>
<!-- Evangeline -->
<g id="node21" class="node">
<title>Evangeline</title>
<polygon fill="#36393f" stroke="#cccccc" points="494,-270 314,-270 314,-234 494,-234 494,-270"/>
<text text-anchor="middle" x="404" y="-247.8" font-family="Helvetica, Arial, sans-serif" font-size="14.00" fill="#ffffff">Evangeline</text>
</g>
<!-- Evangeline&#45;&gt;union_0_5 -->
<g id="edge15" class="edge">
<title>Evangeline&#45;&gt;union_0_5</title>
<path fill="none" stroke="#9876aa" d="M494.2644,-252C512.3914,-252 526,-252 526,-252 526,-252 526,-267.8269 526,-275.2458"/>
</g>
<!-- union_0 -->
<g id="node22" class="node">
<title>union_0</title>
<ellipse fill="#d25252" stroke="#ffffff" cx="245.5" cy="-93" rx="3.5" ry="3.5"/>
</g>
<!-- siblings_0 -->
<g id="node25" class="node">
<title>siblings_0</title>
<polygon fill="#d25252" stroke="#cccccc" stroke-width="0" points="285,-93.5 278,-93.5 278,-92.5 285,-92.5 285,-93.5"/>
</g>
<!-- union_0&#45;&gt;siblings_0 -->
<g id="edge18" class="edge">
<title>union_0&#45;&gt;siblings_0</title>
<path fill="none" stroke="#d25252" d="M249.0834,-93C255.9128,-93 270.7324,-93 277.7154,-93"/>
</g>
<!-- Bertrand -->
<g id="node23" class="node">
<title>Bertrand</title>
<g id="a_node23"><a xlink:title="&#10;&#10;">
<polygon fill="#36393f" stroke="#cccccc" points="213,-114 18,-114 18,-72 213,-72 213,-114"/>
<text text-anchor="start" x="89.1606" y="-95.4" font-family="Helvetica, Arial, sans-serif" font-size="14.00" fill="#ffffff">Bertrand</text>
<text text-anchor="start" x="28.374" y="-81" font-family="Helvetica, Arial, sans-serif" font-size="10.00" fill="#aaaaaa">Bertrand Maximilian Théodore Bouillard</text>
</a>
</g>
</g>
<!-- Bertrand&#45;&gt;union_0 -->
<g id="edge16" class="edge">
<title>Bertrand&#45;&gt;union_0</title>
<path fill="none" stroke="#d25252" d="M213.0309,-93C225.845,-93 236.3864,-93 241.7234,-93"/>
</g>
<!-- Geraldine -->
<g id="node24" class="node">
<title>Geraldine</title>
<polygon fill="#36393f" stroke="#cccccc" points="205.5,-54 25.5,-54 25.5,-18 205.5,-18 205.5,-54"/>
<text text-anchor="middle" x="115.5" y="-31.8" font-family="Helvetica, Arial, sans-serif" font-size="14.00" fill="#ffffff">Geraldine</text>
</g>
<!-- Geraldine&#45;&gt;union_0 -->
<g id="edge17" class="edge">
<title>Geraldine&#45;&gt;union_0</title>
<path fill="none" stroke="#d25252" d="M205.7809,-36C228.2174,-36 246,-36 246,-36 246,-36 246,-76.5791 246,-89.2601"/>
</g>
<!-- siblings_0&#45;&gt;Renee -->
<g id="edge19" class="edge">
<title>siblings_0&#45;&gt;Renee</title>
<path fill="none" stroke="#d25252" d="M285.0341,-93C285.0341,-93 303.8106,-93 303.8106,-93"/>
<polygon fill="#d25252" stroke="#d25252" points="311.8105,-83 311.8107,-103 307.8107,-103.0001 307.8105,-83.0001 311.8105,-83"/>
<polyline fill="none" stroke="#d25252" points="313.8106,-93 303.8106,-93.0001 "/>
</g>
<!-- siblings_0&#45;&gt;Calamut -->
<g id="edge20" class="edge">
<title>siblings_0&#45;&gt;Calamut</title>
<path fill="none" stroke="#d25252" d="M282,-93.6577C282,-102.4299 282,-196 282,-196 282,-196 303.7356,-196 303.7356,-196"/>
<polygon fill="#d25252" stroke="#d25252" points="311.7355,-186 311.7357,-206 307.7357,-206.0001 307.7355,-186.0001 311.7355,-186"/>
<polyline fill="none" stroke="#d25252" points="313.7356,-196 303.7356,-196.0001 "/>
</g>
<!-- siblings_0&#45;&gt;Rolaund -->
<g id="edge21" class="edge">
<title>siblings_0&#45;&gt;Rolaund</title>
<path fill="none" stroke="#d25252" d="M280,-93.6053C280,-105.9814 280,-304 280,-304 280,-304 303.8835,-304 303.8835,-304"/>
<polygon fill="#d25252" stroke="#d25252" points="311.8834,-294 311.8836,-314 307.8836,-314.0001 307.8834,-294.0001 311.8834,-294"/>
<polyline fill="none" stroke="#d25252" points="313.8835,-304 303.8835,-304.0001 "/>
</g>
<!-- Nathalie -->
<g id="node26" class="node">
<title>Nathalie</title>
<g id="a_node26"><a xlink:title="Born 01/12/1151 &#160;&#45;&#45; died 05/12/1232&#10;&#10;">
<polygon fill="#36393f" stroke="#ff0000" stroke-width=".25" points="205.5,-581 25.5,-581 25.5,-525 205.5,-525 205.5,-581"/>
<text text-anchor="start" x="89.8296" y="-562.4" font-family="Helvetica, Arial, sans-serif" font-size="14.00" fill="#ffffff">Nathalie</text>
<text text-anchor="start" x="76.329" y="-548" font-family="Helvetica, Arial, sans-serif" font-size="10.00" fill="#aaaaaa">Nathalie Bouillard</text>
<text text-anchor="start" x="80.2035" y="-534" font-family="Helvetica, Arial, sans-serif" font-size="10.00" fill="#aaaaaa">*1151 — †1232</text>
</a>
</g>
</g>
<!-- Mariona -->
<g id="node27" class="node">
<title>Mariona</title>
<g id="a_node27"><a xlink:title="&#10;&#10;">
<polygon fill="#36393f" stroke="#cccccc" points="205.5,-635 25.5,-635 25.5,-599 205.5,-599 205.5,-635"/>
<text text-anchor="middle" x="115.5" y="-612.8" font-family="Helvetica, Arial, sans-serif" font-size="14.00" fill="#ffffff">Mariona</text>
</a>
</g>
</g>
</g>
</svg>
